<svg xmlns="http://www.w3.org/2000/svg" viewBox="0 0 60 60"><path fill="#948E6C" fill-rule="evenodd" d="M30.54 27.15c2.126677.550003 3.83166 1.136664 5.115 1.76 1.760009.843338 3.098329 1.85166 4.015 3.025 1.100006 1.430007 1.65 3.171656 1.65 5.225 0 2.236678-.788325 4.069993-2.365 5.5-1.39334 1.28334-3.299988 2.16333-5.72 2.64v4.95H26.36V45.3c-2.346678-.513336-4.253326-1.46666-5.72-2.86-1.613341-1.540008-2.493333-3.519988-2.64-5.94h5.06c.073334 1.466674.623328 2.60333 1.65 3.41 1.17334.953338 2.878322 1.43 5.115 1.43 2.236678 0 3.904994-.476662 5.005-1.43.80667-.733337 1.21-1.613328 1.21-2.64 0-1.246673-.439996-2.27333-1.32-3.08-1.100006-1.063339-2.951654-1.906664-5.555-2.53-3.446684-.80667-6.031658-1.90666-7.755-3.3-1.98001-1.613341-2.97-3.666654-2.97-6.16 0-2.126677.769992-3.94166 2.31-5.445 1.430007-1.39334 3.299989-2.32833 5.61-2.805V9h6.875v5.06c2.346678.550003 4.179993 1.649992 5.5 3.3 1.210006 1.540008 1.851666 3.336656 1.925 5.39H35.6c-.11-3.226683-2.034981-4.84-5.775-4.84-1.906676 0-3.409994.394163-4.51 1.1825-1.100006.788337-1.65 1.82416-1.65 3.1075 0 1.100006.513328 2.034996 1.54 2.805 1.026672.770004 2.804987 1.484997 5.335 2.145z"/></svg>