<svg xmlns="http://www.w3.org/2000/svg" viewBox="0 0 60 60"><path fill="#948E6C" fill-rule="evenodd" d="M57.000066 36.500033v5.892864c0 .521764-.46038.982144-.982144.982144H13.785728v5.892864c0 .521764-.429688.982144-.982144.982144-.276228 0-.521764-.122768-.736608-.30692l-9.790748-9.82144C2.092076 39.937537 2 39.692 2 39.446465c0-.276228.092076-.521764.276228-.705916l9.82144-9.82144c.184152-.184152.46038-.276228.705916-.276228.521764 0 .982144.429688.982144.982144v5.892864h42.232193c.521765 0 .982145.429688.982145.982144zm0-16.696449c0 .245536-.092076.521764-.276228.705916l-9.82144 9.82144c-.184153.184153-.46038.276229-.705917.276229-.521764 0-.982144-.46038-.982144-.982144V23.73216H2.982144C2.46038 23.73216 2 23.27178 2 22.750016v-5.892864c0-.521764.46038-.982144.982144-.982144h42.232193V9.982144c0-.552456.429688-.982144.982144-.982144.276228 0 .521764.122768.736608.30692l9.790749 9.790748c.184152.184152.276228.46038.276228.705916z"/></svg>