<svg xmlns="http://www.w3.org/2000/svg" viewBox="0 0 60 60"><path fill="#948E6C" fill-rule="evenodd" d="M45.249 46.905c1.057339 0 1.962163-.365996 2.7145-1.098.752337-.732004 1.1285-1.626661 1.1285-2.684 0-1.057339-.376163-1.962163-1.1285-2.7145S46.306339 39.28 45.249 39.28s-1.951996.376163-2.684 1.1285c-.732004.752337-1.098 1.657161-1.098 2.7145s.365996 1.951996 1.098 2.684c.732004.732004 1.626661 1.098 2.684 1.098zm3.843-22.875h-6.344v6.344h11.346l-5.002-6.344zM14.749 46.905c1.057339 0 1.962163-.365996 2.7145-1.098.752337-.732004 1.1285-1.626661 1.1285-2.684 0-1.057339-.376163-1.962163-1.1285-2.7145S15.806339 39.28 14.749 39.28s-1.951996.376163-2.684 1.1285c-.732004.752337-1.098 1.657161-1.098 2.7145s.365996 1.951996 1.098 2.684c.732004.732004 1.626661 1.098 2.684 1.098zm35.624-26.657l7.625 10.126v12.749h-5.124c0 1.342007-.345663 2.60266-1.037 3.782-.691337 1.17934-1.62666 2.114663-2.806 2.806-1.17934.691337-2.439993 1.037-3.782 1.037-1.342007 0-2.60266-.345663-3.782-1.037-1.17934-.691337-2.114663-1.62666-2.806-2.806-.691337-1.17934-1.037-2.439993-1.037-3.782h-15.25c0 1.342007-.345663 2.60266-1.037 3.782-.691337 1.17934-1.62666 2.114663-2.806 2.806-1.17934.691337-2.439993 1.037-3.782 1.037-1.342007 0-2.60266-.345663-3.782-1.037-1.17934-.691337-2.114663-1.62666-2.806-2.806-.691337-1.17934-1.037-2.439993-1.037-3.782H2V15.124c0-1.382674.508328-2.582328 1.525-3.599C4.541672 10.508328 5.741326 10 7.124 10h35.624v10.248h7.625z"/></svg>