<svg xmlns="http://www.w3.org/2000/svg" viewBox="0 0 60 60"><path fill="#948E6C" fill-rule="evenodd" d="M26.46289 26.132813h-4.699218V17.0625c0-1.101568.023437-2.10937.070312-3.023438-.289064.351565-.648435.718749-1.078125 1.101563l-1.945312 1.605469-2.402344-2.953125L22.291016 9h4.171875v17.132813zM37.267579 14.90625c.98438 0 1.873043.228513 2.666016.685547.792972.457033 1.410154 1.103511 1.851562 1.939453.441409.835942.66211 1.800776.66211 2.894531 0 1.914072-.576166 3.382808-1.728516 4.40625-1.15235 1.023443-2.896473 1.535156-5.232422 1.535156-2.00001 0-3.632806-.30859-4.898437-.92578V21.64453c.67969.312502 1.447261.570312 2.302734.773438.855473.203126 1.591794.304687 2.208984.304687.85938 0 1.51953-.181639 1.98047-.544922.460939-.363283.691405-.900387.691405-1.611328 0-.656253-.234372-1.167967-.703125-1.535156-.468752-.36719-1.179682-.550781-2.132812-.550781-.726566 0-1.511715.136717-2.355469.410156l-1.699219-.84375L31.525391 9h9.773437v3.855469h-5.835937l-.210938 2.261719c.609378-.117189 1.042968-.181641 1.300781-.19336.257814-.011719.496093-.017578.714844-.017578zM9.699218 50.367188c-.945316 0-1.77148-.26953-2.478515-.808594-.707035-.539065-1.253904-1.332026-1.640625-2.378906C5.193358 46.132807 5 44.910162 5 43.511718c0-2.15626.43359-3.843743 1.300781-5.0625.867192-1.218755 2.058586-1.828124 3.574219-1.828124.742191 0 1.392575.148436 1.951172.445312.558596.296877 1.068357.796872 1.529297 1.5h.09375c-.148438-1.039067-.222656-2.07812-.222656-3.117187v-3.550781h4.617187v18.234375h-3.457031l-.984375-1.675782h-.175781c-.789067 1.273444-1.964836 1.910156-3.527344 1.910156zm1.875-3.621094c.73438 0 1.251952-.230467 1.552735-.691406.300783-.46094.46289-1.17187.486328-2.132813v-.363281c0-1.171881-.167967-2.005857-.503906-2.501953-.33594-.496097-.863278-.744141-1.582031-.744141-.601566 0-1.068358.2832-1.40039.84961-.332034.566409-.498048 1.373041-.498048 2.419921 0 1.031255.167967 1.816404.503906 2.355469.33594.539065.816404.808594 1.441407.808594zm14.039063 3.386719H21.03125V36.855469h4.582031v13.277344zm-4.933594-14.54297V35.25c1.203131-1.289069 1.966796-2.121092 2.291016-2.496094.32422-.375002.591796-.710936.802734-1.007812h5.015625v.246094c-.625003.500002-1.484369 1.136714-2.578125 1.910156-1.093755.773441-1.921872 1.335935-2.484375 1.6875h-3.046875zm16.79297 14.54297L36.59375 48.375H36.5c-.61719.765629-1.24609 1.289061-1.886719 1.570313-.640628.28125-1.468745.421875-2.484375.421875-1.250006 0-2.234371-.374997-2.953125-1.125-.718753-.750004-1.078125-1.804681-1.078125-3.164063 0-1.41407.492183-2.466793 1.476563-3.158203.98438-.69141 2.410147-1.080078 4.277344-1.166016l2.214843-.070312v-.1875c0-1.093756-.539057-1.640625-1.617187-1.640625-.968755 0-2.199211.328122-3.691406.984375l-1.32422-3.023438c1.546884-.796879 3.499989-1.195312 5.859376-1.195312 1.703133 0 3.02148.42187 3.955078 1.265625.933598.843754 1.40039 2.02343 1.40039 3.539062v8.707031h-3.17578zm-3.398438-3c.55469 0 1.029295-.17578 1.423828-.527344.394533-.351565.591797-.808591.591797-1.371094v-1.03125L35.035156 44.25c-1.50782.054688-2.261719.60937-2.261719 1.664063 0 .812504.43359 1.21875 1.300782 1.21875zm19.945312-1.078125c0 1.421882-.48437 2.49609-1.453125 3.222656s-2.359366 1.089844-4.171875 1.089844c-.98438 0-1.83984-.052734-2.566406-.158204-.726566-.105469-1.468746-.298826-2.226563-.580078v-3.667969c.710942.312502 1.49023.570312 2.337891.773438.84766.203126 1.603512.304688 2.267578.304688.992193 0 1.488281-.22656 1.488281-.679688 0-.234376-.13867-.443359-.416015-.626953-.277345-.183595-1.083978-.541013-2.419922-1.072266-1.218756-.500002-2.07031-1.068356-2.554688-1.705078-.484377-.636722-.726562-1.443354-.726562-2.419922 0-1.23438.476558-2.195309 1.429688-2.882812.95313-.687504 2.300772-1.03125 4.042968-1.03125.875005 0 1.697262.095702 2.466797.28711.769535.191406 1.568355.4707 2.396484.83789l-1.242187 2.953125c-.609378-.27344-1.253903-.505859-1.933594-.697266-.67969-.191407-1.234373-.28711-1.664062-.28711-.750004 0-1.125.183593-1.125.550782 0 .226564.130858.419921.392578.580078.26172.160157 1.017572.486326 2.267578.978516.929692.382814 1.623045.75781 2.080078 1.125.457034.36719.792968.798825 1.007813 1.294922.214844.496096.322265 1.099605.322265 1.810547z"/></svg>