<svg xmlns="http://www.w3.org/2000/svg" viewBox="0 0 22 22"><path fill="#4A4A4A" fill-rule="evenodd" d="M17.410735 0c2.218195 0 4.017862 1.799667 4.017862 4.017862v13.392873c0 2.218195-1.799667 4.017862-4.017862 4.017862h-2.62277v-8.300791h2.77623l.418527-3.236611h-3.194758V7.82646c0-.93471.251116-1.562502 1.604355-1.562502l1.70201-.01395V3.362168c-.292968-.041853-1.311385-.125558-2.483261-.125558-2.469311 0-4.171322 1.506698-4.171322 4.268978v2.385606H8.649564v3.23661h2.790182v8.300792H4.017862C1.799667 21.428597 0 19.62893 0 17.410735V4.017862C0 1.799667 1.799667 0 4.017862 0h13.392873z"/></svg>