<svg xmlns="http://www.w3.org/2000/svg" viewBox="0 0 22 22"><path fill="#4A4A4A" fill-rule="evenodd" d="M14.286603 10.71517c0-1.967078-1.604354-3.571432-3.571433-3.571432-1.967078 0-3.571432 1.604354-3.571432 3.571432 0 1.967079 1.604354 3.571433 3.571432 3.571433 1.967079 0 3.571433-1.604354 3.571433-3.571433zm1.925226 0c0 3.041299-2.45536 5.496659-5.496659 5.496659-3.041298 0-5.496658-2.45536-5.496658-5.496659 0-3.041298 2.45536-5.496658 5.496658-5.496658 3.041299 0 5.496659 2.45536 5.496659 5.496658zm1.506698-5.719872c0 .711496-.571987 1.283483-1.283484 1.283483-.711496 0-1.283483-.571987-1.283483-1.283483 0-.711497.571987-1.283484 1.283483-1.283484.711497 0 1.283484.571987 1.283484 1.283484zm-7.003357-3.0692c-1.562501 0-4.91072-.125559-6.319762.432478-.488281.195312-.851005.432478-1.22768.809152-.376674.376675-.61384.739399-.809152 1.22768-.558037 1.409042-.432479 4.75726-.432479 6.319762 0 1.562502-.125558 4.91072.432479 6.319762.195312.488282.432478.851006.809152 1.22768.376675.376675.739399.61384 1.22768.809153 1.409042.558037 4.75726.432478 6.319762.432478 1.562502 0 4.91072.125559 6.319762-.432478.488282-.195313.851006-.432478 1.22768-.809152.376675-.376675.61384-.739399.809153-1.22768.558037-1.409042.432478-4.75726.432478-6.319763 0-1.562501.125559-4.91072-.432478-6.319762-.195313-.488281-.432478-.851005-.809152-1.22768-.376675-.376674-.739399-.61384-1.22768-.809152-1.409042-.558037-4.75726-.432479-6.319763-.432479zM21.42947 10.71517c0 1.478797.01395 2.943642-.069755 4.422439-.083705 1.715962-.47433 3.23661-1.729912 4.492193-1.255582 1.255581-2.776231 1.646207-4.492193 1.729912-1.478797.083706-2.943642.069755-4.422439.069755-1.478796 0-2.943641.01395-4.422438-.069755-1.715962-.083705-3.23661-.47433-4.492193-1.729912C.544957 18.37422.154332 16.85357.070626 15.137609c-.083705-1.478797-.069754-2.943642-.069754-4.422439 0-1.478796-.013951-2.943641.069754-4.422438C.154332 4.57677.544957 3.056122 1.80054 1.80054 3.056121.544957 4.57677.154332 6.292732.070626 7.77153-.013079 9.236374.000872 10.71517.000872c1.478797 0 2.943642-.013951 4.422439.069754 1.715962.083706 3.23661.474331 4.492193 1.729913 1.255581 1.255582 1.646207 2.776231 1.729912 4.492193.083706 1.478797.069755 2.943642.069755 4.422438z"/></svg>