<svg xmlns="http://www.w3.org/2000/svg" viewBox="0 0 179.77 96.87"><defs><style>.cls-1,.cls-2,.cls-3{fill:#fff;}.cls-1,.cls-2,.cls-4{stroke:#fff;stroke-miterlimit:10;}.cls-1{stroke-width:0.89px;}.cls-2{stroke-width:0.63px;}.cls-4{fill:none;stroke-width:0.89px;}</style></defs><title>logo-blanco</title><g id="Layer_2" data-name="Layer 2"><g id="Capa_1" data-name="Capa 1"><path class="cls-1" d="M28.71,67.45c-.39,3.37-1.8,7-5.9,7-5.22,0-6.4-5.39-6.4-10.36s1.18-10.36,6.4-10.36c4.24,0,5.45,3.62,5.59,6.06h-.56c-.17-3.09-1.68-5.56-5-5.56C18.18,54.23,17,59,17,64.08s1.21,9.85,5.87,9.85c4.21,0,5.08-4.41,5.31-6.49Z"/><path class="cls-1" d="M32.39,66.55c0,4.32.93,7.38,4.07,7.38,2.72,0,3.59-2.81,3.68-4.55h.56c-.14,2.86-1.74,5.05-4.24,5.05-3.26,0-4.63-2.72-4.63-8,0-4.44,1.43-7.16,4.63-7.16s4.35,3,4.35,6.26v1Zm7.86-.5v-1c0-2.22-.67-5.28-3.79-5.28s-4,2.95-4.07,6.26Z"/><path class="cls-1" d="M44.55,59.62h.56v2.61h.06a3.86,3.86,0,0,1,3.71-2.95h.56v.5h-.56c-1.24,0-3.76,1-3.76,5.08v9.24h-.56Z"/><path class="cls-1" d="M52.46,59.62H53v2.61h.06a3.86,3.86,0,0,1,3.71-2.95h.56v.5h-.56c-1.24,0-3.76,1-3.76,5.08v9.24h-.56Z"/><path class="cls-1" d="M59.71,66.86c0-4.8,1.49-7.58,4.69-7.58,2.61,0,4.66,1.66,4.66,7.58s-2,7.58-4.66,7.58C61.14,74.44,59.71,71.61,59.71,66.86Zm4.69,7.07c2.89,0,4.1-2.39,4.1-7.07s-1.21-7.08-4.1-7.08c-2.33,0-4.13,1.66-4.13,7.08S62.1,73.94,64.4,73.94Z"/><path class="cls-1" d="M93,67.45c-.39,3.37-1.8,7-5.9,7-5.22,0-6.4-5.39-6.4-10.36s1.18-10.36,6.4-10.36c4.24,0,5.45,3.62,5.59,6.06h-.56c-.17-3.09-1.68-5.56-5-5.56-4.66,0-5.87,4.77-5.87,9.85s1.21,9.85,5.87,9.85c4.21,0,5.08-4.41,5.31-6.49Z"/><path class="cls-1" d="M99.36,66.44a25.19,25.19,0,0,0,2.95-.73c.81-.28,1.12-.79,1.12-2.44a3.51,3.51,0,0,0-.56-2.39,3.06,3.06,0,0,0-2.44-1.1c-3.34,0-3.4,2.75-3.4,3.85h-.56v-.48a3.68,3.68,0,0,1,4-3.87A3.29,3.29,0,0,1,104,62.76v9.52c0,1.1.36,1.35.84,1.32a4.69,4.69,0,0,0,.56-.06V74a3.39,3.39,0,0,1-.67.06c-.73,0-1.29-.28-1.29-1.88v-.56h-.06a4,4,0,0,1-3.79,2.78c-2.36,0-3.68-1.6-3.68-4.13C95.91,68,97.25,66.86,99.36,66.44Zm4.07-.93c-.45.53-1.35.84-3.79,1.32s-3.17,1.57-3.17,3.54c0,2.44,1.4,3.57,3.2,3.57,1.52,0,3.76-1.29,3.76-5.14Z"/><path class="cls-1" d="M107.59,70v-.45h.56v.53c0,2,.73,3.85,3.43,3.85a3.24,3.24,0,0,0,3.4-3.45c0-4.66-7.1-2.58-7.1-7.72a3.87,3.87,0,0,1,.9-2.36,3.57,3.57,0,0,1,2.81-1.12c2.84,0,3.59,2.11,3.59,3.93v.39h-.56v-.48c0-2-.87-3.34-3.06-3.34a2.91,2.91,0,0,0-3.12,3.09c0,4.46,7.1,2.5,7.1,7.58a3.76,3.76,0,0,1-3.9,4C108.93,74.44,107.59,73,107.59,70Z"/><path class="cls-1" d="M119.83,60.12h-1.88v-.51h1.88V55.13h.56v4.49h2.47v.51h-2.47V71.83c0,1.35.36,1.77,1.6,1.77a4.53,4.53,0,0,0,1.09-.08V74a5.45,5.45,0,0,1-1.12.08c-1.29,0-2.13-.5-2.13-2.22Z"/><path class="cls-1" d="M125.78,54.06h.56v2.75h-.56Zm0,5.56h.56V74.11h-.56Z"/><path class="cls-1" d="M130.84,54.06h.56v20h-.56Z"/><path class="cls-1" d="M135.89,54.06h.56v20h-.56Z"/><path class="cls-1" d="M140.44,66.86c0-4.8,1.49-7.58,4.69-7.58,2.61,0,4.66,1.66,4.66,7.58s-2,7.58-4.66,7.58C141.87,74.44,140.44,71.61,140.44,66.86Zm4.69,7.07c2.89,0,4.1-2.39,4.1-7.07s-1.21-7.08-4.1-7.08c-2.33,0-4.13,1.66-4.13,7.08S142.83,73.94,145.13,73.94Z"/><path class="cls-2" d="M109.94,88.95c0-1.4-.74-2.67-2.28-2.67-2.07,0-2.76,1.94-2.76,4.88s.57,4.91,2.67,4.91,2.5-2.37,2.5-3.18h.61c0,1.23-.61,3.68-3.21,3.68-2.26,0-3.18-2-3.18-5.37s.92-5.4,3.34-5.4a2.91,2.91,0,0,1,2.92,3.17Z"/><path class="cls-2" d="M117.24,93.14h-3.93l-1,3.24h-.61L114.95,86h.77l3.13,10.43h-.61Zm-1.91-6.57h0l-1.84,6.08h3.67Z"/><path class="cls-2" d="M120.41,86h2.7a2.61,2.61,0,0,1,2.83,2.89,2.71,2.71,0,0,1-3,2.89h-2v4.64h-.61ZM123,91.24a2.14,2.14,0,0,0,2.29-2.4,2.11,2.11,0,0,0-2.2-2.39H121v4.79Z"/><path class="cls-2" d="M127.9,86h.61V96.38h-.61Z"/><path class="cls-2" d="M132.94,86.51h-2.77V86h6.16v.56h-2.77v9.87h-.61Z"/><path class="cls-2" d="M141.76,93.14h-3.93l-1,3.24h-.61L139.46,86h.77l3.13,10.43h-.61Zm-1.91-6.57h0L138,92.64h3.67Z"/><path class="cls-2" d="M144.93,86h.61v9.87h4.37v.55h-5Z"/><path class="cls-3" d="M178.53,45.86a11.34,11.34,0,0,0,.52,2l.72.13c0-.08-.06-.17-.09-.25a10,10,0,0,1-.53-2c-.06-.31-.12-.61-.19-.9a.32.32,0,0,0-.26-.24,2,2,0,0,0-1.62.6,2.1,2.1,0,0,1-1.07.56l-.41.05a1.49,1.49,0,0,1-1.45-.27.31.31,0,0,0-.27-.08.32.32,0,0,0-.23.17l-1.46,3a3.81,3.81,0,0,0-.36-.55c-.37-.5-.56-.81-.27-1.37a1.17,1.17,0,0,0-.08-.94l0-.14c-.07-.21-.14-.43-.21-.64a10.92,10.92,0,0,0-.71-1.86,2.19,2.19,0,0,1-.13-.37,1.31,1.31,0,0,0-1.11-1.14c0-.07-.09-.19-.13-.28a2.6,2.6,0,0,0-.26-.51l-.15-.22c-.24-.35-.5-.75-.89-.84a4.76,4.76,0,0,0-2.43,0c-.59.2-.92,0-1.36-.36-.12-.09-.25-.18-.38-.26a4.77,4.77,0,0,1-.64-.51l-.28-.25a3,3,0,0,1-.23-.23,1.17,1.17,0,0,0-.78-.49h0a1.89,1.89,0,0,1-1.61-.76,1.54,1.54,0,0,0-.9-.57c-.6-.05-.81-.32-.79-1a.32.32,0,0,0-.53-.25h0l-1.09-1.27a.32.32,0,0,0-.31-.1,2.74,2.74,0,0,1-1.91-.59l-.51-.29a3.13,3.13,0,0,0-2.35-.39,4,4,0,0,0-1.49,1.38l-.34.42-.16.19c-.76.91-1.43,1.7-2.57,1.28a2,2,0,0,0-1.15,0,2,2,0,0,1-.45,0c0-1.07-.91-1.2-1.39-1.28l-.19,0c0-.26,0-.5,0-.75,0-.69,0-1.32,0-2a5,5,0,0,1,.11-.75,4.16,4.16,0,0,0,.12-1.15c0-.47-.11-.94-.18-1.4a7,7,0,0,1,.13-3.89.93.93,0,0,0-.09-.7c0-.07-.06-.15-.08-.21a.38.38,0,0,0-.37-.23l-1.39.1-.1-.14a2.65,2.65,0,0,0-.53-.6,1.26,1.26,0,0,0-1.09-.29,1.31,1.31,0,0,0-.85.77c-.26.56-.54,1.11-.84,1.7l-.22.44-.06-.09a.32.32,0,0,0-.42-.09l-1.37.83-.36.2a1.86,1.86,0,0,0-1.24,1.51c-.08.9-.16,1.79-.24,2.69-.12,1.26-.23,2.52-.33,3.78a1.28,1.28,0,0,1-.76,1.24,4.37,4.37,0,0,0-1.08.86,6.65,6.65,0,0,1-.58.53,2.24,2.24,0,0,1-.62.35,1.06,1.06,0,0,0-.85-.1,1.29,1.29,0,0,0-.67.78c-.34.76-.65,1.54-1,2.31l-.34.84c-.09.23-.18.46-.27.69a1.45,1.45,0,0,0-1.35-.25c-.69.1-.93-.09-1.05-.84-.09-.56-.19-1.12-.3-1.71l-.17-1a.32.32,0,0,0-.53-.18l-.17.16-.08.08-.3.22a1.92,1.92,0,0,0,0-.35c0-.17,0-.34,0-.51a4.46,4.46,0,0,0-.39-1.8,6.9,6.9,0,0,0-.38-.59,1.86,1.86,0,0,1-.52-1.39,7.21,7.21,0,0,0-.43-3.45,8.47,8.47,0,0,1-.48-2.44.62.62,0,0,0-.23-.42.32.32,0,0,0-.51,0l-.55.79c-.44.63-.87,1.25-1.29,1.89-.15.23-.29.47-.42.72a5.37,5.37,0,0,1-.67,1l-.1.11c-1.08,1.19-2.19,2.42-2.3,4.25,0,.38-.14.56-.44.6,0-.09,0-.18,0-.27a2.05,2.05,0,0,0-.45-1.24,2,2,0,0,1-.48-1.74c0-.18,0-.36,0-.53s0-.62,0-.93v-.42a.32.32,0,0,0-.57-.19,7.13,7.13,0,0,0-1.24,3.65l-1.37-3.27a.32.32,0,0,0-.3-.17h0a.36.36,0,0,0-.3.2l-.38.8-.6-.33v-.79c0-1,0-1.93,0-2.88a1.35,1.35,0,0,0-.4-.81.46.46,0,0,0-.34-.14c-.52,0-.54-.13-.58-.66,0-.11,0-.21,0-.32a3.78,3.78,0,0,0-.4-1.15c-.23-.49-.48-1-.73-1.46l-.38-.74a.33.33,0,0,0-.16-.15l-.65-.28a.15.15,0,0,0,0,0c0-.28-.05-.57-.07-.85a5.65,5.65,0,0,0-.4-2.09,3.36,3.36,0,0,1-.32-1.35c0-.39,0-.79,0-1.18,0-.18,0-.37,0-.55a.32.32,0,0,0-.48-.27l-.31.21-.18.12a2.17,2.17,0,0,1-.38-.56.7.7,0,0,1,0-.2,1.3,1.3,0,0,0,0-.42,3.18,3.18,0,0,0-.29-.58l-.13-.23a.32.32,0,0,0-.52-.06l-.15.16a2.33,2.33,0,0,0-.4.5,4.92,4.92,0,0,0-.28.68l0,.11c-.24,0-.38,0-.43-.1s-.13-.25.13-.93a.32.32,0,0,0-.52-.34l-.39.38a3.22,3.22,0,0,1-.56.49,1.52,1.52,0,0,1-.49.17,2.61,2.61,0,0,0-1.45-.69,3.44,3.44,0,0,1-.76-.23l0-.17a2.54,2.54,0,0,0-.21-.79c-.25-.49-.53-1-.94-1a1.9,1.9,0,0,1-1.49-1.4A2.76,2.76,0,0,1,95,11a2.51,2.51,0,0,0-.25-.9,14.55,14.55,0,0,0-1.11-1.58l-.41-.54a.33.33,0,0,0-.3-.13.32.32,0,0,0-.25.21c-.34,1-.68,1.56-1.11,1.72s-1,0-1.78-.49a.32.32,0,0,0-.45.15l-.43,1,0-.27c0-.47-.07-.94-.09-1.41C88.72,6.84,88,6,86.15,5.93l-.82-.05a6,6,0,0,1-1.8-1.76c-.1-.15-.16-.24-.28-.29a3.24,3.24,0,0,1-.94-1A4.32,4.32,0,0,0,81.23,1.7a1.39,1.39,0,0,0-.2-.36.92.92,0,0,1-.21-.5.32.32,0,0,0-.51-.23L80,.89a3.28,3.28,0,0,1-.33.24l-.13,0a.78.78,0,0,0-.19-.5,1.22,1.22,0,0,0-1-.3,2.07,2.07,0,0,0-.46.1.32.32,0,0,0-.25.13s-.12.08-.36.08a2.62,2.62,0,0,1-.35-.19L76.83.37A1.78,1.78,0,0,0,75.51,0c-.93.15-1.13,1-1.28,1.69l0,.08h-.06a5.34,5.34,0,0,0-.74-.14,10.54,10.54,0,0,0-1.45,0h-.25c-.78,0-.84.58-.87.9a1.46,1.46,0,0,1-.08.39c-.12.3-.41.34-1,.36h-.16a.32.32,0,0,0-.3.26,6.07,6.07,0,0,0-.05,1.18l-.06,0-.39.2h-.19a6,6,0,0,0-1.18.12,5,5,0,0,0-1.87,1.08,5.6,5.6,0,0,0-.44.42c-.32.34-.66.69-1,.69l-.28,0a1.23,1.23,0,0,0-1,.23,1.65,1.65,0,0,0-.4.59,1.57,1.57,0,0,1-.15.28,5.18,5.18,0,0,1-.39.45,4,4,0,0,0-.35.4,3.88,3.88,0,0,0-.89.89,25.2,25.2,0,0,0-1.8,3.45l-.36.79-.39-.2a4.7,4.7,0,0,0-.9-.4,5.41,5.41,0,0,0-1.09-.16,1.41,1.41,0,0,0-1-.22l-.16.08-.08,0-.05,0c-.26.13-.51.28-.72.41L54,13.66a2.22,2.22,0,0,0-.57-1.09,1.42,1.42,0,0,1-.54-1.51,6.19,6.19,0,0,0,0-1.18c0-.18,0-.37,0-.57A.32.32,0,0,0,52.46,9c-.42.12-.8.27-1.17.4a5.22,5.22,0,0,1-2,.48c-1-.05-1.47.23-1.63,1l-.23.06a2.33,2.33,0,0,0-.86.34,1.94,1.94,0,0,0-.5.65,1.88,1.88,0,0,1-.21-.38c-.23-.59-.44-1.18-.65-1.77L44.95,9a1.06,1.06,0,0,0-.78-.74.83.83,0,0,0-.79.33L43,9a3,3,0,0,0-1,2.39A1.38,1.38,0,0,1,40.94,13a4.06,4.06,0,0,1-.61.13,2,2,0,0,0-1.21.46,7.3,7.3,0,0,0-1.29,2.36,4.67,4.67,0,0,0-.23,1.34c0,.08,0,.16,0,.24L37,17.41a.32.32,0,0,0-.25.08.32.32,0,0,0-.11.24v.46c0,.29,0,.57,0,.84a11.18,11.18,0,0,1-.19,1.46,2.29,2.29,0,0,1-.17.45,2.27,2.27,0,0,0-.23.77C36,23,35.66,23.5,34.45,23.8L34,20.18a.32.32,0,0,0-.24-.27.32.32,0,0,0-.34.13A3.36,3.36,0,0,0,33,21.63a3.34,3.34,0,0,1-.28,1.23l0-.07a4.18,4.18,0,0,0-.62-.86,5.62,5.62,0,0,0-.93-.69L30.72,21a2.62,2.62,0,0,1-.84-1.42,3,3,0,0,1,.06-.94,4.27,4.27,0,0,0,.08-1,20.66,20.66,0,0,0-.3-2.13c0-.28-.1-.55-.14-.83a.49.49,0,0,0-.13-.24c-.8-.91-1.62-.47-2.22-.15l-.27.14a2.18,2.18,0,0,0-.56.43l-.13.13a.48.48,0,0,0-.13.41c0,.35,0,.71,0,1.06,0,.7-.05,1.4-.11,2.1,0,.29,0,.59,0,.89a4,4,0,0,1-.71,2.7l-.53-2.87a.32.32,0,0,0-.17-.22.33.33,0,0,0-.28,0,3.11,3.11,0,0,0-1.62,2.41,3.42,3.42,0,0,1-.73,1.65,1.82,1.82,0,0,1-.91.61,3.89,3.89,0,0,1-.68.12,1.92,1.92,0,0,0-1.85,1.09.53.53,0,0,0-.56.08c-.12.13-.26.25-.4.37a2.6,2.6,0,0,0-1.13,2,15.33,15.33,0,0,1-.17,2c0,.2,0,.43-.07.66,0,.46-.09,1.16-.29,1.28a2.39,2.39,0,0,0-1,1.75,5.17,5.17,0,0,1-.14.55c0,.12-.07.24-.11.35l-.09,0a.32.32,0,0,0-.28,0,.32.32,0,0,0-.17.22,7.12,7.12,0,0,1-.2.84l-.14,0a.32.32,0,0,0-.39.2c0,.11-.07.22-.1.33A2.39,2.39,0,0,1,13,36a3.1,3.1,0,0,1-.36.45,2.07,2.07,0,0,0-.59,1c-.23,1.29-1.26,1.77-2.25,2.23l-.49.23a7.15,7.15,0,0,0-2.06,1.59,4.4,4.4,0,0,1-.84.63,1.36,1.36,0,0,0,0-.29,3.32,3.32,0,0,1-.68.55,2.1,2.1,0,0,1-.12.32.32.32,0,0,0,.47.39l.5-.32a5.77,5.77,0,0,0,1.14-.84,6.45,6.45,0,0,1,1.88-1.46l.48-.23c1-.48,2.33-1.07,2.61-2.69a1.64,1.64,0,0,1,.43-.65,3.78,3.78,0,0,0,.43-.54,3,3,0,0,0,.27-.7v0a.53.53,0,0,0,.35-.07c.21-.13.29-.35.41-.87l.07,0a.31.31,0,0,0,.27,0,.32.32,0,0,0,.18-.21l.06-.23c0-.16.08-.31.14-.47a5.64,5.64,0,0,0,.16-.62,1.8,1.8,0,0,1,.77-1.35c.46-.29.52-1,.58-1.76,0-.22,0-.43.06-.62A15.61,15.61,0,0,0,17,27.35a2,2,0,0,1,.92-1.49l.34-.31.11,0,.23.06a.32.32,0,0,0,.37-.25c.16-.74.61-.83,1.4-.92a4.3,4.3,0,0,0,.8-.14,2.41,2.41,0,0,0,1.17-.77,4,4,0,0,0,.9-1.94,2.87,2.87,0,0,1,.9-1.77l.56,3a.32.32,0,0,0,.51.19c1.29-1,1.33-2.36,1.36-3.57,0-.29,0-.57,0-.86.06-.71.09-1.42.11-2.13,0-.35,0-.7,0-1.06h0l.1-.1a1.69,1.69,0,0,1,.39-.31l.3-.15c.63-.34,1-.49,1.43,0,0,.26.09.52.13.78.12.68.25,1.38.3,2.07a3.88,3.88,0,0,1-.08.84,3.5,3.5,0,0,0-.06,1.15,3.28,3.28,0,0,0,1.07,1.81l.42.28a5.08,5.08,0,0,1,.83.61,3.76,3.76,0,0,1,.52.73l.3.47a.32.32,0,0,0,.23.14.3.3,0,0,0,.25-.09A2.63,2.63,0,0,0,33.56,22l.3,2.27a.32.32,0,0,0,.13.22.31.31,0,0,0,.25.05c1.75-.35,2.4-1.07,2.47-2.75a1.77,1.77,0,0,1,.17-.54,2.93,2.93,0,0,0,.2-.58,10.91,10.91,0,0,0,.2-1.55c0-.29,0-.58,0-.89v-.09l.53.07a.31.31,0,0,0,.24-.06.33.33,0,0,0,.12-.21c0-.2,0-.39.05-.59a4.11,4.11,0,0,1,.19-1.16A6.77,6.77,0,0,1,39.59,14a1.65,1.65,0,0,1,.84-.26,4.33,4.33,0,0,0,.72-.15,2,2,0,0,0,1.49-2.21,2.43,2.43,0,0,1,.88-1.9L43.87,9a.2.2,0,0,1,.19-.1c.08,0,.21.11.29.32l.25.71c.21.6.42,1.2.65,1.79a3,3,0,0,0,.34.59l.22.34a.32.32,0,0,0,.27.15.29.29,0,0,0,.27-.15c.08-.13.16-.26.22-.38a1.76,1.76,0,0,1,.38-.54,1.93,1.93,0,0,1,.64-.23l.46-.13a.31.31,0,0,0,.22-.27c.05-.45.11-.67,1-.63A5.55,5.55,0,0,0,51.51,10l.73-.26c0,.05,0,.11,0,.16a5.3,5.3,0,0,1,0,1.06,2,2,0,0,0,.76,2.1,1.84,1.84,0,0,1,.37.79c.06.21.14.43.23.66a.31.31,0,0,0,.19.18.31.31,0,0,0,.26,0l.26-.16a9,9,0,0,1,.8-.45h0l.14-.08a1.11,1.11,0,0,1,.39.11h0a.31.31,0,0,0,.23.13H56a5,5,0,0,1,1,.14,4,4,0,0,1,.77.35,5.4,5.4,0,0,0,.74.35.32.32,0,0,0,.4-.16c.17-.36.34-.72.5-1.08a24.08,24.08,0,0,1,1.75-3.37,3.68,3.68,0,0,1,.8-.79c.11-.15.25-.29.38-.42a5.31,5.31,0,0,0,.45-.52A2.21,2.21,0,0,0,63,8.35,1.15,1.15,0,0,1,63.21,8c.15-.12.27-.12.55-.09l.35,0A2.17,2.17,0,0,0,65.59,7,5,5,0,0,1,66,6.66a4.52,4.52,0,0,1,1.61-1,5.56,5.56,0,0,1,1.06-.1h.27l.13,0,.68-.34a.32.32,0,0,0,.18-.29V4.79a8.64,8.64,0,0,1,0-.87,1.41,1.41,0,0,0,1.45-.75,2,2,0,0,0,.12-.56c0-.33,0-.33.26-.33H72a10,10,0,0,1,1.36,0,4.79,4.79,0,0,1,.66.13l.35.08c.15,0,.34-.12.39-.27A1.81,1.81,0,0,0,74.83,2l0-.1c.15-.68.29-1.13.76-1.2a1.18,1.18,0,0,1,.89.27l.16-.27L76.58,1a3.31,3.31,0,0,0,.5.26l.11,0a1.29,1.29,0,0,0,.8-.2h0a.74.74,0,0,1,.38-.1h0c.12,0,.38,0,.45.08a.33.33,0,0,1,0,.22.33.33,0,0,0,.13.33s.56.31.87.15a2.31,2.31,0,0,0,.46-.3,2.25,2.25,0,0,0,.18.29.59.59,0,0,1,.13.23.31.31,0,0,0,.2.27,3.34,3.34,0,0,1,1,1,3.74,3.74,0,0,0,1.15,1.17l.05.08a6.67,6.67,0,0,0,2.05,2,.31.31,0,0,0,.15.05l.91.06c1.47.09,2,.63,2,2.14,0,.47.06,1,.09,1.43l.05.74a.32.32,0,0,0,.25.29l.37.08a.31.31,0,0,0,.37-.18l.49-1.1a2.45,2.45,0,0,0,2,.36,2.46,2.46,0,0,0,1.28-1.55l.06.08a14.09,14.09,0,0,1,1.06,1.51,2,2,0,0,1,.17.67,3.22,3.22,0,0,0,.16.72,2.55,2.55,0,0,0,2,1.8s.18.08.48.69a2,2,0,0,1,.15.6c0,.12,0,.23.06.34a.32.32,0,0,0,.14.2,3.27,3.27,0,0,0,1.07.38,1.93,1.93,0,0,1,1.18.56c.33.38,1.22-.1,1.24-.11a2.48,2.48,0,0,0,.33-.25.9.9,0,0,0,.18.49,1.24,1.24,0,0,0,1.21.33.32.32,0,0,0,.26-.2l.12-.32a4.08,4.08,0,0,1,.24-.59,1.1,1.1,0,0,1,.16-.22,1.83,1.83,0,0,1,.16.33.7.7,0,0,1,0,.21,1.12,1.12,0,0,0,.07.49,2.33,2.33,0,0,0,.7.9c.19.13.37.06.58-.07,0,.39,0,.78,0,1.16a4,4,0,0,0,.38,1.59,5.13,5.13,0,0,1,.34,1.85c0,.21,0,.42,0,.63h0a.32.32,0,0,0,0,.59l1,.44.33.64c.25.49.49,1,.72,1.44a3.27,3.27,0,0,1,.34,1c0,.09,0,.19,0,.28,0,.48.11,1.26,1.15,1.25a.84.84,0,0,1,.16.32c0,.95,0,1.88,0,2.86v1a.32.32,0,0,0,.17.28l1.06.57a.32.32,0,0,0,.25,0,.32.32,0,0,0,.19-.16l.25-.51,1.57,3.75a.31.31,0,0,0,.34.19.32.32,0,0,0,.27-.28c0-.23.06-.45.08-.68a10.13,10.13,0,0,1,.6-2.87c0,.06,0,.12,0,.19s0,.33,0,.5a2.6,2.6,0,0,0,.67,2.22,1.69,1.69,0,0,1,.26.87,5,5,0,0,0,.11.59.32.32,0,0,0,.29.24,1.15,1.15,0,0,0,1.35-1.2c.1-1.61,1.09-2.7,2.14-3.86l.1-.11a6,6,0,0,0,.76-1.17c.12-.23.25-.46.39-.67.41-.63.84-1.25,1.28-1.87l.16-.22a11.05,11.05,0,0,0,.48,2.09,6.64,6.64,0,0,1,.41,3.16,2.43,2.43,0,0,0,.63,1.87,6,6,0,0,1,.35.53,4,4,0,0,1,.31,1.55c0,.18,0,.36,0,.53a2.32,2.32,0,0,1-.06.6c0,.12,0,.23-.06.35a.32.32,0,0,0,.51.29l.8-.58.07.42c.11.58.21,1.14.3,1.69.17,1.1.73,1.54,1.78,1.37.64-.1.85-.1,1,.48a.32.32,0,0,0,.29.25.31.31,0,0,0,.32-.2L129,42c.11-.28.21-.56.32-.83l.34-.84c.31-.77.62-1.54,1-2.29.09-.2.19-.39.3-.44a.53.53,0,0,1,.35.07c.37.18.9-.13,1.29-.42a7.26,7.26,0,0,0,.64-.58,3.88,3.88,0,0,1,.92-.75,1.9,1.9,0,0,0,1.11-1.75q.16-1.89.34-3.78.12-1.35.24-2.69c0-.53.37-.72.9-1l.4-.22,1.11-.68.2.28a.33.33,0,0,0,.28.13.32.32,0,0,0,.26-.17l.46-.9c.31-.6.59-1.15.85-1.71a.73.73,0,0,1,.42-.42.71.71,0,0,1,.56.18,2,2,0,0,1,.4.46l.22.3a.3.3,0,0,0,.27.12l1.36-.09v0l.09.22a7.58,7.58,0,0,0-.17,4.23c.07.45.14.91.18,1.36a3.66,3.66,0,0,1-.11,1,5.76,5.76,0,0,0-.12.85c0,.64,0,1.29,0,2,0,.31,0,.64,0,1a.32.32,0,0,0,.18.29,2,2,0,0,0,.55.14c.59.09.89.17.85.84a.45.45,0,0,0,.21.33.57.57,0,0,0,.25.1,2.26,2.26,0,0,0,.75,0,1.45,1.45,0,0,1,.82,0c1.57.58,2.52-.55,3.28-1.47l.15-.18.35-.44A3.58,3.58,0,0,1,152,33a2.63,2.63,0,0,1,1.81.36l.49.28a3.51,3.51,0,0,0,2.17.69l1.18,1.38a.32.32,0,0,0,.21.11,1.35,1.35,0,0,0,1.33,1.11.93.93,0,0,1,.46.35,2.55,2.55,0,0,0,2.1,1,1.39,1.39,0,0,1,.33.29,3,3,0,0,0,.29.28l.27.23a5.33,5.33,0,0,0,.73.57l.34.24a2,2,0,0,0,1.94.45,4.23,4.23,0,0,1,2.09.07c.14,0,.36.36.5.57l.17.24a2.15,2.15,0,0,1,.19.38c.14.31.27.64.59.66s.5.25.63.69a2.78,2.78,0,0,0,.18.48,10.64,10.64,0,0,1,.67,1.76c.07.22.14.44.21.65l.05.15a1.75,1.75,0,0,1,.12.42,1.71,1.71,0,0,0,.31,2,2.16,2.16,0,0,1,.38.66.31.31,0,0,0,.24.23l.31.07a.32.32,0,0,0,.35-.17l1.45-3a2.28,2.28,0,0,0,1.64.18l.38-.05a2.65,2.65,0,0,0,1.4-.7,1.69,1.69,0,0,1,.91-.48C178.44,45.43,178.49,45.65,178.53,45.86Z"/><polygon class="cls-3" points="25.18 40.17 25.22 40.17 25.13 40.14 25.18 40.17"/><path class="cls-3" d="M25,40h-.06l.26.1C25.34,40.09,24.88,40,25,40Z"/><path class="cls-3" d="M25,40c.06,0-.06,0-.1-.06S24.88,40,25,40Z"/><path class="cls-3" d="M25.11,37.23h0Z"/><path class="cls-3" d="M24.73,36.48h-.1c.17.14,0,.29.05.43h0A3.43,3.43,0,0,0,24.78,38l0,0s.1,0,.09.06h-.06c-.17.06.09.23,0,.27a.17.17,0,0,0,.14,0,3.13,3.13,0,0,0,.15.88.24.24,0,0,1-.12,0c.25.26.13.51.07.76.07,0,.08,0,.15,0s-.17-.16,0-.22h.07s-.17,0-.08-.07.08,0,.09,0,0-.23-.11-.34c.15,0,0-.12.16-.15-.06,0,0-.06-.14-.08a7.31,7.31,0,0,0,0-1.21c-.28-.2.08-.41,0-.64h0a.26.26,0,0,1-.05-.27l-.12-.08c.28-.51.13-1.06.27-1.59s.34-1.12,0-1.74c0,0,0,0,.05,0,0-.17.06-.32,0-.49h0c-.21-.41.08-.83-.15-1.23a7.64,7.64,0,0,0,0-1.5h.06c-.1-.4.22-.77.16-1.17.15-.4-.28-.86-.08-1.26.29-.24-.28-.6,0-.83.46-.46.21-1,0-1.46.18-.44-.19-.92.15-1.34-.19-.22.28-.42.23-.66H25.6c.22-.07-.29-.2,0-.23h0c.16,0-.37-.12-.18-.14h-.08c0-.05.09,0,.13,0s-.14,0-.1,0c.33,0-.06-.13.3-.12,0,0,.14,0,.22,0S26,23,25.8,23a1,1,0,0,0-.44,0l.12,0h-.15c0,.07-.2.07-.27.12h0c.14,0,.06.09,0,.11H25c-.14,0,.27.1,0,.06a1.24,1.24,0,0,1,0,.47c.09,0,0,.12.16.1-.2,0-.26.15-.25.19h0c-.26.07.23.12-.09.18.22,0-.08.14.18.2h-.14c0,.15-.1.3-.12.42.19.12-.11.25.16.35-.06.07-.18.19-.08.3h0a.38.38,0,0,0,.18.36c-.26,0-.21.07-.3.12.12.08.07.24.17.37-.12,0,0,.1-.13.1a.81.81,0,0,1-.1,1.11h0c.09.05.3.12.42.17h0c0,.07-.14.12-.12.19h-.06c.08.07-.14.12,0,.2h0l.06,0c-.06,0-.14,0-.12,0-.09.56.18,1.16.1,1.73l-.05,0,.09.12-.05,0c-.11.14,0,.29,0,.43s-.08,0-.11,0c.15.11-.21.15.11.22h-.12a1.59,1.59,0,0,1,0,.87c.28.26,0,.51.22.77H24.9c.19.34-.05.66,0,1,0,.14,0,.24,0,.38h-.07c.26.25-.28.48,0,.74l-.1,0c.15,0-.06.15.2.15l-.08,0c.34.19-.18.3,0,.51l-.06,0c0,.06.08.12,0,.16l0,0c-.26.16,0,.36,0,.54l-.12,0c.13.09,0,.25.05.36h-.05l.07.06h-.11C24.63,36.19,24.72,36.34,24.73,36.48Z"/><path class="cls-3" d="M24.76,38h0Z"/><path class="cls-3" d="M25,23.16l0,0S25,23.15,25,23.16Z"/><polygon class="cls-3" points="21.83 38.98 21.86 38.97 21.77 38.96 21.83 38.98"/><path class="cls-3" d="M21.62,38.89h-.06l.27,0C22,38.92,21.52,38.91,21.62,38.89Z"/><path class="cls-3" d="M21.65,38.88c.06,0-.06,0-.11,0S21.51,38.88,21.65,38.88Z"/><path class="cls-3" d="M21.59,37.26h0Z"/><path class="cls-3" d="M21.16,36.84h-.1c.18.08,0,.17.07.25h0c0,.21.13.41.21.62h-.05s.1,0,.09,0h-.06c-.16,0,.11.13,0,.16a.29.29,0,0,0,.14,0,1.26,1.26,0,0,0,.2.51h-.12c.27.14.16.29.12.44s.07,0,.15,0-.17-.09,0-.13h.07s-.17,0-.08,0a.35.35,0,0,1,.09,0c0-.07,0-.14-.13-.2.15,0,0-.07.15-.09-.06,0,0,0-.14,0,.08-.23-.07-.47-.05-.71-.29-.11.06-.24,0-.37h0c-.07,0-.1-.11-.07-.16l-.12,0c.25-.31.07-.62.18-.94s.28-.67-.1-1h.06c-.06-.1,0-.19,0-.29h0c-.23-.23,0-.49-.22-.71a2.66,2.66,0,0,0-.07-.87h.06c-.12-.23.18-.45.09-.69.13-.24-.33-.49-.15-.73s-.32-.34,0-.48.16-.56-.11-.85c.16-.26-.24-.53.07-.78-.2-.12.25-.25.19-.39H21.3c.21,0-.3-.11,0-.14h0c.16,0-.38-.06-.19-.08h-.08s.09,0,.12,0-.14,0-.1,0c.32,0-.07-.08.29-.08,0,0,.14,0,.22,0s0-.06-.14-.06a1.78,1.78,0,0,0-.44,0h0s-.19,0-.26.08h0c.14,0,.06,0,0,.06h-.07c-.14,0,.27,0,0,0a.46.46,0,0,1,.06.27c.09,0,0,.07.17.05-.2,0-.25.09-.24.12h0c-.26.05.24.06-.08.11.22,0-.07.09.19.11h-.13c0,.08-.08.18-.1.25.2.06-.09.15.18.2-.06,0-.17.11-.06.18h0c0,.07,0,.15.2.2a.46.46,0,0,0-.29.08c.12,0,.08.14.19.21-.12,0,.05.06-.12.06.33.2.22.44,0,.65h0l.43.09h0s-.14.07-.11.11h-.06c.08,0-.14.08,0,.12h0l.07,0c-.06,0-.14,0-.12,0-.06.33.24.67.2,1h-.06L21,33h-.06c-.1.08.07.17,0,.25a.33.33,0,0,0-.12,0c.16.06-.2.1.12.13h-.12a.57.57,0,0,1,.05.51c.29.14,0,.3.26.44H21.1c.21.19,0,.39,0,.59s0,.14.05.22H21.1c.28.14-.25.29.06.43h-.1c.15,0-.06.09.21.08l-.08,0c.35.1-.16.18.07.3h-.06s.09.07,0,.09h0c-.25.1,0,.21,0,.32h-.12c.14,0,0,.14.07.21h-.06l.08,0h-.11C21.05,36.67,21.15,36.75,21.16,36.84Z"/><path class="cls-3" d="M21.28,37.71h0Z"/><path class="cls-3" d="M20.72,29.05h0S20.72,29,20.72,29.05Z"/><polygon class="cls-3" points="54.48 18.41 54.52 18.41 54.42 18.4 54.48 18.41"/><path class="cls-3" d="M54.27,18.38h-.06l.27,0C54.63,18.39,54.17,18.38,54.27,18.38Z"/><path class="cls-3" d="M54.3,18.37c.06,0-.06,0-.11,0S54.16,18.37,54.3,18.37Z"/><path class="cls-3" d="M54.24,17.66h0Z"/><path class="cls-3" d="M53.81,17.48h-.1c.18,0,0,.07.08.11h0c0,.09.13.18.21.27h0c-.16,0,.11.06,0,.07h.14a.48.48,0,0,0,.2.22h-.12c.27.06.16.13.12.19h.15c.09,0-.17,0,0-.06h.07s-.17,0-.08,0h.09s0-.06-.13-.09c.15,0,0,0,.15,0a.63.63,0,0,0-.14,0c.08-.1-.07-.2-.05-.31-.29,0,.05-.11,0-.16h0c-.07,0-.1,0-.07-.07l-.12,0c.25-.13.07-.27.18-.41s.28-.29-.1-.44h.05c-.06,0,0-.08,0-.12h0c-.24-.1,0-.21-.22-.31a.54.54,0,0,0-.08-.38H54c-.12-.1.18-.2.09-.3.13-.1-.33-.21-.15-.32s-.32-.15,0-.21.16-.25-.11-.37c.16-.12-.24-.23.07-.34-.2-.05.25-.11.19-.17H54c.22,0-.3,0,0-.06h0c.16,0-.38,0-.19,0h-.08s.09,0,.12,0-.15,0-.1,0c.32,0-.07,0,.29,0a1.76,1.76,0,0,1,.22,0s0,0-.14,0a4.24,4.24,0,0,0-.44,0h0a1.8,1.8,0,0,1-.26,0h0c.14,0,.06,0,0,0h-.07c-.14,0,.27,0,0,0a.12.12,0,0,1,.06.12c.09,0,0,0,.17,0-.2,0-.25,0-.24.05h0c-.26,0,.24,0-.08,0,.22,0-.07,0,.19,0h-.13s-.09.08-.1.11c.2,0-.09.06.18.09-.06,0-.17,0-.06.08h0s0,.07.2.09a1,1,0,0,0-.29,0c.12,0,.08.06.19.09-.12,0,.05,0-.12,0,.34.09.22.19,0,.29h0l.43,0h0s-.14,0-.11,0h-.06c.08,0-.14,0,0,.05h-.11c-.06.14.24.29.2.44h-.05l.1,0h-.06c-.1,0,.07.07,0,.11h-.12c.16,0-.21,0,.12.06h-.12c.11.07.1.15.05.22.29.06,0,.13.26.19h-.06c.21.08,0,.17,0,.25s0,.06,0,.1h-.07c.28.06-.25.13.06.19h-.1c.15,0-.05,0,.21,0h-.08c.35,0-.16.08.07.13h-.06s.09,0,0,0h0c-.25,0,0,.09,0,.14h-.12c.14,0,0,.06.07.09h-.09S53.8,17.44,53.81,17.48Z"/><path class="cls-3" d="M53.94,17.86h0Z"/><path class="cls-3" d="M53.37,14.08h0Z"/><polygon class="cls-3" points="48.26 28.32 48.29 28.3 48.2 28.3 48.26 28.32"/><path class="cls-3" d="M48,28.21H48l.27,0C48.39,28.22,47.94,28.24,48,28.21Z"/><path class="cls-3" d="M48.06,28.18c.06,0-.07,0-.11,0S47.93,28.2,48.06,28.18Z"/><path class="cls-3" d="M47.84,25.67v0S47.84,25.68,47.84,25.67Z"/><path class="cls-3" d="M47.59,24.73h-.1c.17.13,0,.28.05.42h0l0,.21a1,1,0,0,0,0,.29,4.78,4.78,0,0,0,.13.56h-.05s.1,0,.09.05a.08.08,0,0,1-.06,0c-.16.08.11.22,0,.27a.18.18,0,0,0,.14,0,2.84,2.84,0,0,0,.27.85.24.24,0,0,1-.12,0c.29.22.21.48.19.74.07,0,.07,0,.15,0s-.19-.13-.07-.21h.07c0-.06-.17,0-.09-.06s.09,0,.09,0,0-.23-.17-.32c.15,0,0-.12.13-.17-.06,0,0-.06-.15-.06a11.45,11.45,0,0,0-.12-1.18c-.28-.17,0-.3,0-.43l0,0,0-.27a.46.46,0,0,1,0-.17l-.11-.1c.3-.56.08-1.11.12-1.67a4.39,4.39,0,0,0,0-.52c0-.21,0-.13,0-.32a1.48,1.48,0,0,0-.2-.85s0,0,.06,0c0-.17.06-.33,0-.49h0c-.21-.41.07-.84-.17-1.24a2.18,2.18,0,0,0-.07-.77,2.64,2.64,0,0,1-.17-.73h.06c-.11-.43.21-.72.19-1.21h0c-.1-.41-.42-.53-.61-.81a.59.59,0,0,1-.14-.27c.09-.37-.59-.31-.49-.68a2.28,2.28,0,0,1,0-.37.85.85,0,0,0-.07-.36,4.43,4.43,0,0,0-.45-.66,1.55,1.55,0,0,0-.13-.69.87.87,0,0,1,.21-.67c-.17-.23.33-.41.31-.64h-.07c.23,0-.26-.23.06-.23h0c.17,0-.36-.16-.16-.16l-.08,0c0-.06.09,0,.13,0s-.14,0-.09-.06c.32.05,0-.14.31-.08,0,0,.14,0,.21.06s0-.1-.12-.12a1,1,0,0,0-.43-.08l.12,0h-.15c0,.07-.2,0-.28.08h0c.13.06,0,.1,0,.12h-.07c-.14,0,.25.13,0,.07a1.43,1.43,0,0,1,0,.5c.09,0,0,.13.15.11-.21,0-.28.14-.28.19s0,0,0,0c-.27.07.22.13-.11.19.22,0-.1.15.16.21h-.14c0,.15-.14.32-.17.45.16.11-.06.29.21.37,0,.08-.14.23,0,.33h0c0,.13.08.29.26.35-.25.08-.19.13-.26.2.13.06.13.22.27.32-.11,0,.07.09-.1.13a.67.67,0,0,1,.23.24,1.65,1.65,0,0,0,.2.36,1.23,1.23,0,0,1,.12.61h0c.11,0,.31-.09.44-.12s0,0,0,0,0,.18,0,.22l-.05,0c.1,0,0,.18.11.17l0,0h.08s-.12.08-.12,0l0,.06a2.48,2.48,0,0,0,.23.37l.15.19c.05.07.07.05.1.09l0,.08v.17a2.51,2.51,0,0,1,0,.35l-.05,0,.09.12-.05,0c-.11.14,0,.31,0,.45s-.08,0-.11,0c.16.11-.2.19.13.23a.28.28,0,0,1-.12,0c.07.17.08.3.17.53a.81.81,0,0,1,0,.39c.3.14,0,.44.25.69h-.06c.2.33,0,.67,0,1,0,.14,0,.24,0,.38h-.07c.27.25-.28.49,0,.75l-.1,0c.15,0-.05.16.21.13l-.08,0c.36.11-.12.34.15.5H47.5c.05,0,.1.1.05.15h0c-.22.2.07.35.08.54h-.12c.14.08,0,.25.1.36h-.06l.08.05h-.11C47.47,24.44,47.58,24.58,47.59,24.73Z"/><path class="cls-3" d="M47.54,26.22h0Z"/><path class="cls-3" d="M45.75,11.63l0,0S45.75,11.63,45.75,11.63Z"/><polygon class="cls-3" points="35.46 23.36 35.43 23.36 35.51 23.41 35.46 23.36"/><path class="cls-3" d="M35.63,23.54h.06l-.24-.14C35.3,23.41,35.74,23.55,35.63,23.54Z"/><path class="cls-3" d="M35.6,23.56c-.07,0,.05.06.09.07S35.73,23.58,35.6,23.56Z"/><path class="cls-3" d="M35.35,24.59h0S35.35,24.58,35.35,24.59Z"/><path class="cls-3" d="M35.51,25.37l.09,0c-.12-.18.1-.25.07-.4l0,0a1.19,1.19,0,0,0,.11-.44l-.15,0c0,.18,0,.37,0,.55l0,0s.09.05.08.07l-.05,0c-.12,0-.05.12,0,.18l-.12,0s0-.06,0-.06a.18.18,0,0,0-.13-.05,2.92,2.92,0,0,0,0-.84.26.26,0,0,1,.12,0c-.2-.29,0-.5.06-.71-.07,0-.08,0-.14,0s.13.18,0,.21l-.06,0c-.05,0,.17.05.07.08s-.08,0-.09,0-.09.2,0,.34c-.15,0,0,.11-.18.11,0,0,0,.06.12.1a2.49,2.49,0,0,0-.17.8l.76.18a2.08,2.08,0,0,1,0-.3c-.18-.17,0-.29.06-.43l-.64-.19a.23.23,0,0,0-.05.16h0a.23.23,0,0,1,0,.26l.09.11c-.41.37-.42.9-.69,1.34-.13.25-.29.48-.4.72a1.6,1.6,0,0,0-.12.44,1,1,0,0,0,.11.46s0,0-.05,0c0,.17-.1.29-.06.45h0c.17.41-.16.76,0,1.16a5.44,5.44,0,0,0-.14,1.39H34c.07.39-.28.69-.24,1.07-.18.35.22.83,0,1.18-.32.18.21.6-.11.76-.51.36-.31.85-.14,1.36-.2.39.16.88-.19,1.23.18.22-.28.37-.25.6h.07c-.22.06.28.2,0,.22h0c-.16,0,.37.13.18.14h.08c0,.05-.09,0-.12,0s.14,0,.09,0c-.32,0,.06.13-.3.1,0,0-.14,0-.21,0s0,.1.13.1a1.1,1.1,0,0,0,.43,0l-.12,0h.15c0-.06.2-.06.27-.1h0c-.14,0-.05-.08,0-.1h.07c.14,0-.27-.1,0-.06a1,1,0,0,1,0-.43c-.09,0,0-.11-.16-.1.2,0,.26-.11.26-.15h0c.26,0-.23-.13.09-.15-.22,0,.08-.12-.17-.2h.13c0-.13.11-.26.13-.37-.19-.13.11-.21-.15-.35.06-.06.18-.14.08-.26l0,0a.38.38,0,0,0-.14-.36c.26,0,.22,0,.31-.06-.1-.1,0-.24-.13-.37.12,0,0-.1.14-.07-.27-.38-.09-.74.22-1h0c-.09-.06-.28-.15-.4-.22s0,0,0,0,.16-.09.14-.16l.05,0c-.07-.07.16-.09,0-.18h0L34.17,33c.05,0,.14,0,.12,0,.15-.51-.09-1.11,0-1.63l.05,0-.08-.12.06,0c.11-.12,0-.28,0-.41s.08,0,.11,0c-.14-.12.22-.12-.09-.22l.11,0a1.29,1.29,0,0,1,.08-.81c-.25-.27.05-.47-.14-.74h.06c-.15-.33.12-.61.13-.93,0-.12,0-.22,0-.35h.07c-.12-.13,0-.24,0-.33s.18-.17.07-.33l.09.05c-.13-.09.1-.11-.15-.19h.09c-.27-.27.25-.21.1-.47l.05,0c0-.06,0-.13,0-.15l0,0c.29-.06.09-.32.16-.48l.1.06c-.1-.12.07-.22,0-.34l0,0-.05-.08.1,0C35.52,25.66,35.48,25.5,35.51,25.37Z"/><path class="cls-3" d="M35.68,25.12h0Z"/><path class="cls-3" d="M33.67,37.56h0S33.67,37.56,33.67,37.56Z"/><polygon class="cls-3" points="48.81 46.75 48.84 46.73 48.75 46.69 48.81 46.75"/><path class="cls-3" d="M48.6,46.47h-.06l.27.16C49,46.57,48.5,46.52,48.6,46.47Z"/><path class="cls-3" d="M48.63,46.42c.06-.06-.06-.09-.11-.1S48.49,46.43,48.63,46.42Z"/><path class="cls-3" d="M49,41v0S49.05,41,49,41Z"/><path class="cls-3" d="M49.09,39.44l-.09,0c.09.31-.18.55-.19.85l0,0a9.34,9.34,0,0,0-.43,2.1l0,0s.08.08.06.12a0,0,0,0,1,0,0c-.23.14,0,.44-.08.54a.11.11,0,0,0,.14,0,12.25,12.25,0,0,0,.2,1.76s-.07,0-.12,0a2.54,2.54,0,0,1,.12,1.53c.07,0,.08-.05.15,0,.09-.16-.17-.3,0-.45l.07,0c0-.11-.17,0-.08-.13s.09,0,.09,0c0-.23,0-.47-.13-.69.15-.05,0-.25.15-.33-.06-.06,0-.12-.14-.14a7.66,7.66,0,0,0,0-1.22l0-.61a1.62,1.62,0,0,1,.1-.53c-.21-.38.29-.77.33-1.21h0a.93.93,0,0,1,.1-.54l-.07-.18a4.91,4.91,0,0,0,.6-1.58,7.21,7.21,0,0,1,.45-1.49,11.55,11.55,0,0,0,1.14-3.27s0,0,0,0c.07-.32.31-.55.42-.88l0,0c.19-.86.83-1.5,1-2.29.47-.81,1-1.77,1.42-2.69l0,0c.29-.76.92-1.3,1.22-2a1.88,1.88,0,0,0,.38-1.25,6.62,6.62,0,0,1,0-1.28c.25-.54-.42-1.15-.21-1.67l.21-1.42c.06-.47.11-1,.14-1.5a3.14,3.14,0,0,0,.32-1.31,1.82,1.82,0,0,1,.81-1.14c.12-.46.76-.52,1-.89l-.06,0c.27,0,0-.48.34-.33v0c.18.05-.12-.42,0-.31l-.05-.06c0-.07.08,0,.16,0s-.12-.08,0-.09c.36.12-.06-.23.31-.2,0,.09.14-.13.22.07,0-.09,0-.25-.14-.24s-.31-.09-.44,0l.12,0a.49.49,0,0,1-.15,0c0,.14-.19.1-.26.1h0c.15.08,0,.07,0,.07l-.06,0c-.08-.11.11.27,0,.08a7.31,7.31,0,0,1-.62.75c0,.09-.18.18,0,.25a.44.44,0,0,0-.46.16s0,0,0,0c-.32,0,0,.32-.31.25.16.16-.25.2-.1.44a.23.23,0,0,1-.12-.06,4.53,4.53,0,0,0-.62.82.94.94,0,0,1,0,.31,1.6,1.6,0,0,1-.06.25c0,.08,0,.13.07.25a.72.72,0,0,0-.22.53l0,0a1.09,1.09,0,0,0,0,.72c-.27,0-.25.1-.37.18.06.19-.07.51,0,.79-.13,0,0,.22-.17.2.06.22.05.4.1.65s.08.45.11.63a3.18,3.18,0,0,1-.09,1.13h0c.11.08.32.17.46.25s0,0,0,0-.12.26-.08.39,0,0-.06,0-.13.25,0,.39h0l.07.09c-.06,0-.15,0-.13-.05a5.25,5.25,0,0,1-.16,1.47,13.21,13.21,0,0,1-.76,1.62l0-.07,0,.25a.09.09,0,0,1,0,0c-.23.22-.23.55-.38.78,0,0,0-.08-.1-.06,0,.26-.33.18-.11.44a.16.16,0,0,1-.1-.06,6.42,6.42,0,0,1-.81,1.55c0,.6-.49.94-.54,1.51l-.05,0a9,9,0,0,1-.93,1.8,4,4,0,0,0-.29.71l-.07,0c0,.56-.62.85-.52,1.43l-.08-.07c.12.13-.16.26.1.33l-.11.05c.2.44-.36.53-.29,1l-.05,0c0,.12,0,.25-.08.31s0,0,0,0c-.35.25-.23.7-.31,1.06l-.1-.06c.09.2-.12.51-.11.74l-.05,0,0,.11H49.2C49.13,38.86,49.17,39.15,49.09,39.44Z"/><path class="cls-3" d="M48.32,42.38h0S48.31,42.37,48.32,42.38Z"/><path class="cls-3" d="M58.14,14.65h0Z"/><polygon class="cls-3" points="67.94 8.68 67.9 8.69 67.98 8.76 67.94 8.68"/><path class="cls-3" d="M68.07,9h.07l-.22-.24C67.75,8.84,68.18,9,68.07,9Z"/><path class="cls-3" d="M68,9.08c-.08.05,0,.11.08.14S68.17,9.09,68,9.08Z"/><path class="cls-3" d="M65.75,14.22l0,0h0l.09.28h0l-.09-.28h0Z"/><path class="cls-3" d="M65.44,16l.1,0c-.19-.27.13-.59.13-.89l0,0a3.3,3.3,0,0,1,.22-.5s.13-.11.2-.22a2.75,2.75,0,0,0,.13-.27c.15-.36.27-.73.45-1.09,0,0,0,0,0,.05s0-.12,0-.15,0,0,0,.05c.21,0,.21-.49.44-.44,0,0,.12-.08.06-.14h.08l-.06.07h0s.06,0,0-.06-.07,0,0,0a.94.94,0,0,0,.08-.17,3.3,3.3,0,0,0,.13-.44,4.71,4.71,0,0,0,.13-.94s.07,0,.13,0A3,3,0,0,1,68,9.25c-.06,0-.08,0-.14,0-.13.16.09.36-.07.49l-.06,0c-.07.11.16.06,0,.16s-.08,0-.09,0c0,.25-.16.49,0,.76-.16,0-.06.25-.22.31,0,.07,0,.13.1.18-.14.39-.25.84-.38,1.16l0,.08s0,0,0,0a.31.31,0,0,1,.12.05.17.17,0,0,1,.07.11s0,0,0,0h0l.13-.28H67.2a.49.49,0,0,0-.24.08.84.84,0,0,0-.22.19,4.94,4.94,0,0,0-.42.63.94.94,0,0,1-.25.65l-.23.28-.09.12h0l.06.16,0,.09h0l-.08-.25h0l0,0a0,0,0,0,1,0,0,.8.8,0,0,0-.2.24l-.08.19a1.91,1.91,0,0,1-.14.32l.06.2a2.06,2.06,0,0,0-.31.91c0,.29,0,.59,0,.89,0,.59,0,1.19,0,1.78,0,.39-.05.76-.08,1.13a7.64,7.64,0,0,0,.42,2.73s0,0-.06,0c.09.37,0,.73.11,1.08h0a3.49,3.49,0,0,1,.18.8l.42,0a7.33,7.33,0,0,0,0-1.89c.08-1,.13-2.21.12-3.31h.06a5.23,5.23,0,0,1,.11-1.3c.14-.41.23-.79.33-1.23.36-.82.24-1.87.67-2.69.43-.47.11-1.32.56-1.75a5.12,5.12,0,0,0,1-3.08c.48-.9.43-2,1-2.79,0-.5.55-.84.67-1.34h-.07c.26-.1-.15-.48.19-.49v0c.18,0-.28-.34-.08-.33l-.07,0c0-.12.09,0,.15-.06S70.5,4.1,70.56,4c.31.09,0-.3.38-.18,0,.06.17,0,.19.11,0,0,.1-.22-.06-.25s-.26-.19-.42-.12l.1.06a.53.53,0,0,1-.16,0c-.07.14-.24.1-.34.19h0c.11.12,0,.19,0,.24h-.07c-.15,0,.2.26,0,.13a6.33,6.33,0,0,1-.29,1c.07.08-.1.26.09.24a.5.5,0,0,0-.38.35s0,0,0,0c-.31.1.15.29-.21.36.2.1-.18.29,0,.46a.23.23,0,0,1-.14,0c-.11.3-.3.62-.4.87.11.28-.27.51-.08.78a.92.92,0,0,0-.28.62l0,0a1.24,1.24,0,0,0-.06.79c-.28,0-.26.12-.38.2.06.2-.09.52-.08.81-.13,0,0,.22-.19.19a3.6,3.6,0,0,1-.85,2.33h0c.06.12.22.29.31.42s0,0,0,0c0,.15-.22.23-.23.37,0,0,0,0,0,0,0,.15-.21.22-.13.41h0l0,.12c-.05,0-.13,0-.1-.09a11.28,11.28,0,0,0-.48,1.85c-.06.32-.13.63-.18,1s-.12.71-.14,1l-.05,0,.08.25a.07.07,0,0,1-.05,0c-.12.32,0,.64,0,1,0,0-.08,0-.12,0,.14.23-.22.37.09.48a.15.15,0,0,1-.12,0,7.67,7.67,0,0,1-.06,1.93c.26.53,0,1.13.16,1.68h-.06a3,3,0,0,1,0,1.09h.11a9.93,9.93,0,0,0,0-1.13c0-.31-.09-.51-.12-.82l.07,0c-.33-.5.15-1.11-.2-1.63l.1,0c-.16-.07,0-.33-.24-.28l.07-.1c-.23-.2-.15-.4-.1-.62a.64.64,0,0,0,0-.5l.06,0a.41.41,0,0,1,0-.35s0,0,0,0c.25-.38,0-.8,0-1.2l.12,0c-.14-.19,0-.54-.07-.8l.05,0L65.43,17h.11C65.55,16.67,65.46,16.36,65.44,16Z"/><path class="cls-3" d="M66.76,13.06h0S66.75,13.07,66.76,13.06Z"/><path class="cls-3" d="M104.06,3.88l0,0S104.07,3.87,104.06,3.88Z"/><polygon class="cls-3" points="88.31 11.13 88.27 11.14 88.35 11.2 88.31 11.13"/><path class="cls-3" d="M88.46,11.45h.06l-.23-.21C88.13,11.28,88.57,11.42,88.46,11.45Z"/><path class="cls-3" d="M88.43,11.5c-.07.05,0,.1.09.13S88.56,11.51,88.43,11.5Z"/><path class="cls-3" d="M88.78,17.47v0A0,0,0,0,0,88.78,17.47Z"/><path class="cls-3" d="M89.58,18.85h.1c-.19-.23-.13-.67-.29-.9h0c-.18-.69-.49-1.37-.65-2.12l.05,0s-.11-.07-.1-.11,0,0,.06,0c.15-.17-.14-.46,0-.57a.1.1,0,0,0-.14,0,13.5,13.5,0,0,0-.35-1.82s.06,0,.12,0a1.15,1.15,0,0,1-.17-.41,2,2,0,0,1,0-.46c0-.26.13-.52.19-.78-.07,0-.08,0-.15,0-.12.15.12.34,0,.47l-.06,0c-.06.1.16.05.06.15s-.08,0-.09,0,0,.24,0,.36,0,.09,0,.22a.39.39,0,0,0,.09.25c-.14.07,0,.26-.12.36.06.06.05.12.15.14,0,.84.2,1.68.26,2.54.34.4.09.91.3,1.38h0A1.61,1.61,0,0,1,89,18l.17.12c0,.51,0,1,.12,1.62s.21,1.22.25,1.68l.06.41v.6s0,0,.09,0h.07l-.16-.08h0v.08a2.5,2.5,0,0,0,0,.31l0,.45c0,.14,0,.29,0,.4s0,.14,0,.07h0s0,0,.06.07l.08.13,0,.07,0,0h0l-.15-.3h0l0,0a.68.68,0,0,0-.21.35,2,2,0,0,0,0,.2,1.38,1.38,0,0,0,.06.28,4.36,4.36,0,0,0,.18.45s0,0-.06,0a2.23,2.23,0,0,1,0,.91h0a3.28,3.28,0,0,1-.05.67l-.06.31a.19.19,0,0,1-.11.17c-.13.1-.33.25-.49.39a2.24,2.24,0,0,0-.38.43l-.51.38c-.08,0-.2.19-.24.15a2.74,2.74,0,0,1,0-.32L88,26.68h.06a3.76,3.76,0,0,1,.32-1.2c0-.11.09-.15.07-.18a.33.33,0,0,0,.13-.17l0-.08,0-.16a3,3,0,0,0,.06-.63c.21-.85-.19-1.79,0-2.65.31-.52-.24-1.27.1-1.75a2.12,2.12,0,0,0,.2-1.55,7.07,7.07,0,0,0-.5-1.49,5.81,5.81,0,0,0-.26-1.4,2.13,2.13,0,0,1,0-.75,2.08,2.08,0,0,1,.19-.69c-.14-.46.38-.88.39-1.37h-.07c.24-.14-.24-.43.09-.49v0c.17-.07-.35-.27-.15-.3l-.08,0c0-.12.09,0,.14-.08s-.14,0-.09-.1c.32,0,0-.28.34-.23,0,.06.16-.07.21.08a.14.14,0,0,0-.1-.23c-.16,0-.29-.14-.43-.05l.11,0c-.12,0-.06,0-.16,0s-.21.14-.31.23h0c.13.1,0,.19,0,.24H88.3c-.14,0,.25.21,0,.13a5.51,5.51,0,0,1-.08,1c.08.06,0,.26.14.21a.47.47,0,0,0-.3.4s0,0,0,0c-.28.15.21.25-.13.38.22.05-.11.3.14.43a.23.23,0,0,1-.14,0,3.75,3.75,0,0,1-.09.49l-.05.24a2.55,2.55,0,0,0,0,.3.94.94,0,0,1,.12.5c0,.12,0,.22.18.27a.78.78,0,0,0,0,.59h0a1.14,1.14,0,0,0,.3.68c-.25.11-.18.2-.25.32.14.15.13.48.27.72-.12,0,.07.2-.1.23.42.55.16,1.54-.13,2.26h0c.09.11.29.23.41.34s0,0,0,0c0,.14-.16.26-.13.4s0,0-.05,0c.07.14-.16.26,0,.42h0l.06.1c-.06,0-.15,0-.12-.07a13.61,13.61,0,0,0,0,1.81c0,.3,0,.61,0,.91,0,.07,0,.15,0,.21V25a.19.19,0,0,1,0-.07s0,0,0,0a.36.36,0,0,1,.11.09.43.43,0,0,1,.07.12v0l-.2-.21h0l0,0a1.88,1.88,0,0,0-.23.58l0-.06,0,.26a.08.08,0,0,1-.05,0c-.17.28-.08.62-.16.91,0,0-.07-.06-.11,0,.11.25-.27.29,0,.5,0,0-.09,0-.11,0,0,.46-.12.93-.09,1.28l0,.48V29s0,.1.06.05l.23-.14a5.12,5.12,0,0,1,.82-.69,1.78,1.78,0,0,0,.65-.6l0,0a2.18,2.18,0,0,1,.37-.39l.11-.09a.81.81,0,0,0,0-.13l.07-.26a6.09,6.09,0,0,0,.28-1,2.11,2.11,0,0,0-.08-.81l.07,0a.62.62,0,0,1-.07-.68h0l.06-.06s0,0,.07-.08a.79.79,0,0,0,.08-.27.64.64,0,0,0-.1-.41l.1,0c-.16-.08,0-.32-.23-.27l.07-.1a.41.41,0,0,1-.11-.51A.63.63,0,0,0,90,22L90,22c0-.12-.12-.25-.08-.33s0,0,.05,0c.18-.38-.19-.77-.24-1.13l.12,0c-.17-.15-.1-.5-.18-.73h.06l-.09-.11.11,0C89.76,19.44,89.63,19.16,89.58,18.85Z"/><path class="cls-3" d="M88.79,15.77h0S88.8,15.78,88.79,15.77Z"/><path class="cls-3" d="M88.33,11.55l0,0S88.34,11.54,88.33,11.55Z"/><polygon class="cls-3" points="102.3 16.21 102.27 16.2 102.29 16.3 102.3 16.21"/><path class="cls-3" d="M102.19,16.56l0,0,0-.32C102.06,16.21,102.3,16.61,102.19,16.56Z"/><path class="cls-3" d="M102.11,16.59c-.14,0-.08.14-.06.18S102.22,16.68,102.11,16.59Z"/><path class="cls-3" d="M101.39,22.82v0A0,0,0,0,0,101.39,22.82Z"/><path class="cls-3" d="M101.81,24.4l.1,0c-.18-.29,0-.62-.08-.94l0,0a15.71,15.71,0,0,0-.21-2.3l.05,0s-.1-.08-.09-.12,0,0,.05,0c.17-.16-.1-.49,0-.59a.1.1,0,0,0-.14,0c0-.27,0-.54-.05-.83a8.78,8.78,0,0,0,.05-1.12s.07,0,.13,0a1.75,1.75,0,0,1,0-.81c0-.29.11-.44.22-.92l.06,0c0-.06-.14,0-.13-.09l-.07,0a1.14,1.14,0,0,0,0,.42c0,.11,0,.16,0,.23l-.06,0c-.06.11.17.05.06.16s-.08,0-.09,0a1.37,1.37,0,0,0,0,.75c-.16,0-.05.26-.21.32,0,.07,0,.13.11.17a8.2,8.2,0,0,0-.18.92c0,.65.08,1.17.07,1.77.29.41-.05.91,0,1.4h0a1.05,1.05,0,0,1,.07.58l.12.16a6.1,6.1,0,0,0-.12,1.78c.09.58.17,1.14.23,1.76a10.68,10.68,0,0,0,.31,2,5.81,5.81,0,0,0,.78,1.67s0,0-.06,0c.16.28.11.68.25,1h0a4.21,4.21,0,0,1,.34,1.07,4.9,4.9,0,0,0,.12,1.49c0,.12,0,.25,0,.39l.18-.05c-.32-.82-.65-1.78-1-2.66l.05,0a24.8,24.8,0,0,1-.76-2.44c-.13-.87-.92-1.64-.8-2.58a1.77,1.77,0,0,0,0-.91,1,1,0,0,1,0-.89,3.64,3.64,0,0,0,.3-.78,3.78,3.78,0,0,0-.06-.81,10.76,10.76,0,0,0-.44-1.55c.08-1-.4-1.94-.16-2.92-.22-.42.14-1-.07-1.47l-.06,0c.15-.24-.41-.29-.14-.5h0c.12-.15-.43-.08-.27-.2h-.08c-.06-.1.08,0,.08-.14s-.14,0-.12,0c.3-.13-.16-.24.17-.38,0,.06.09-.15.22,0,0-.05-.07-.23-.21-.16s-.32,0-.39.19l.12,0c-.1.08,0,.05-.12.1s-.11.23-.14.35h0c.16,0,.12.14.12.21l-.06,0c-.12.08.32.07.07.11a3.72,3.72,0,0,1,.34.92c.1,0,0,.24.2.14a.45.45,0,0,0-.16.44s0,0,0,0c-.24.22.26.19,0,.4.23,0,0,.33.22.4a.23.23,0,0,1-.13,0c0,.31,0,.67,0,.94.22.21,0,.56.24.73a.87.87,0,0,0,0,.66l0,0a1.19,1.19,0,0,0,.26.73c-.25.1-.19.21-.27.32.13.16.13.5.25.76-.12,0,.07.21-.1.24a3.27,3.27,0,0,1,.21.51,3.83,3.83,0,0,1,0,.59,11.59,11.59,0,0,1-.31,1.27h0a4.21,4.21,0,0,0,.43.33s0,0,0,0c0,.14-.12.29-.07.44s0,0-.06,0c.1.13-.1.31.05.46l0,0,.08.1c-.05,0-.14,0-.13,0,0,.16,0,.33.06.49a4.75,4.75,0,0,0,.16.45l.36.89c.26.59.49,1.19.7,1.78l-.07,0,.18.2a.08.08,0,0,1-.06,0c0,.33.28.57.36.86,0,0-.09,0-.11,0,.23.16-.07.4.27.41a.15.15,0,0,1-.11,0,10.44,10.44,0,0,1,.69,1.81,1.23,1.23,0,0,1,.3.4l.46.91-.1-1a3.72,3.72,0,0,0-.12-1.18h.06a2.5,2.5,0,0,1-.09-.73c-.1-.48-.12-1-.25-1.44a3.38,3.38,0,0,0-.25-.78l.07,0c-.42-.39-.11-1.12-.56-1.52h.1c-.17,0-.05-.33-.29-.2l0-.12c-.46-.2,0-.71-.29-1.06h.07a.39.39,0,0,1-.09-.33s0,0,0,0c.18-.41-.16-.76-.2-1.15l.12,0c-.16-.17-.09-.53-.19-.77h.06l-.09-.11.11,0C101.89,25,101.84,24.71,101.81,24.4Z"/><path class="cls-3" d="M101.69,21.13h0S101.69,21.14,101.69,21.13Z"/><path class="cls-3" d="M99.67,16.87a.11.11,0,0,1,0,0S99.67,16.86,99.67,16.87Z"/><polygon class="cls-3" points="158.45 47.94 158.48 47.94 158.4 47.9 158.45 47.94"/><path class="cls-3" d="M158.28,47.79h-.06l.24.13C158.61,47.92,158.17,47.78,158.28,47.79Z"/><path class="cls-3" d="M158.31,47.78c.07,0-.05,0-.09-.06S158.17,47.75,158.31,47.78Z"/><path class="cls-3" d="M158.77,46h0S158.78,46,158.77,46Z"/><path class="cls-3" d="M158.52,45.39l-.09,0c.14.14-.07.18,0,.3l0,0a1.43,1.43,0,0,0,0,.74l0,0s.09.05.08.06l-.05,0c-.17,0,.06.18-.07.17a.26.26,0,0,0,.13.05,1.62,1.62,0,0,0,0,.62l-.12,0c.21.23.06.37,0,.52.06,0,.08,0,.14,0s-.14-.14,0-.16l.06,0c.05,0-.16-.06-.07-.07s.08,0,.09,0,.07-.14-.07-.25c.15,0,0-.08.17-.06-.05,0,0-.05-.12-.09.15-.23.08-.53.17-.79-.24-.21.13-.25.09-.42h0c-.05-.07-.06-.15,0-.19l-.1-.08c.35-.26.3-.66.52-1s.42-.7.13-1.19c0,0,0,0,.05,0s.08-.21,0-.33h0c-.18-.32.13-.55-.07-.86a3.17,3.17,0,0,0,.09-.5,1.47,1.47,0,0,0-.12-.52h.05c-.16-.25.11-.55,0-.8.09-.29-.4-.51-.27-.81s-.37-.35-.11-.55c.39-.39.06-.66-.24-1,.11-.32-.33-.57-.05-.91-.22-.11.21-.33.13-.47h-.07c.21-.08-.31-.08,0-.16h0c.16-.05-.38,0-.2-.06h-.08s.09,0,.12,0-.15,0-.1,0c.32,0-.08-.08.28-.13,0,0,.14,0,.22,0s0-.08-.14,0a1.49,1.49,0,0,0-.43.07h.12l-.14,0s-.18.08-.25.12h0c.15,0,.07,0,0,.07l-.06,0c-.14,0,.28,0,0,0a.59.59,0,0,1,.1.3c.09,0,0,.08.17,0-.19.05-.23.14-.22.17h0c-.25.09.25,0-.06.13.22,0-.06.11.21.1l-.13,0c0,.1-.06.21-.06.3.21,0-.06.18.22.21-.05.06-.15.15,0,.21h0a.25.25,0,0,0,.23.2c-.25.06-.2.09-.27.13.13,0,.1.15.23.21-.12,0,.06.06-.11.09.37.18.29.47.07.75h0l.44,0h0s-.12.1-.09.14h-.06c.08,0-.13.1,0,.13h0l.07,0c-.06,0-.14,0-.13,0,0,.38.35.73.36,1.12h-.06l.11.06H159c-.08.11.09.18.08.28a.31.31,0,0,0-.12,0c.16,0-.19.14.14.13l-.11,0c.15.22.14.24,0,.47.26.21,0,.34.17.55h-.06c.16.26-.09.44-.09.67s0,.17,0,.26l-.07,0c.24.23-.3.26,0,.5l-.09,0c.14.07-.07.08.19.15h-.08c.31.21-.19.16,0,.36l-.06,0c0,.05.06.1,0,.11l0,0c-.27,0-.05.24-.1.35l-.11,0c.12.1,0,.16,0,.25l-.05,0,.06.06-.1,0C158.48,45.18,158.54,45.3,158.52,45.39Z"/><path class="cls-3" d="M158.33,46.39h0Z"/><path class="cls-3" d="M158.13,36.66h0S158.14,36.66,158.13,36.66Z"/><polygon class="cls-3" points="116.01 42.4 116.05 42.4 115.95 42.39 116.01 42.4"/><path class="cls-3" d="M115.8,42.35h-.06l.27,0C116.16,42.37,115.7,42.36,115.8,42.35Z"/><path class="cls-3" d="M115.83,42.35c.06,0-.06,0-.11,0S115.69,42.35,115.83,42.35Z"/><path class="cls-3" d="M115.77,41.38h0Z"/><path class="cls-3" d="M115.34,41.13h-.1c.18,0,0,.1.08.15h0c0,.13.13.24.21.37h-.05l.09,0h-.06c-.16,0,.1.08,0,.09h.14a.65.65,0,0,0,.2.3h-.12c.27.09.16.17.12.26h.15c.09,0-.17-.05,0-.08H116s-.17,0-.08,0H116s0-.08-.13-.12c.15,0,0,0,.15-.06a.45.45,0,0,0-.14,0c.08-.14-.07-.28-.05-.42-.29-.07.05-.14,0-.22h0c-.07,0-.1-.06-.07-.09l-.12,0c.25-.18.07-.37.18-.56s.32-.37,0-.58h.05c0-.06.07-.1,0-.16h0c-.2-.15.1-.26-.12-.42a.93.93,0,0,0,.06-.51h.05c-.08-.16.24-.22.19-.37.16-.1-.24-.36,0-.46s-.25-.28,0-.28c.47,0,.24-.28,0-.52.19-.11-.15-.37.2-.43-.17-.13.28-.08.25-.17l-.07,0c.21,0-.27-.14,0-.07h0c.16,0-.35-.14-.17-.1l-.08,0s.09,0,.12,0-.14,0-.09,0c.31.09-.05-.06.3,0a1.61,1.61,0,0,1,.21.07s0,0-.12-.07a2.8,2.8,0,0,0-.42-.12l.11,0-.14,0s-.19,0-.26,0h0c.13.05,0,0,0,0l-.07,0c-.13,0,.25.1,0,0a.19.19,0,0,1,0,.17c.09,0,0,0,.15.08-.2,0-.26,0-.25,0h0c-.26,0,.22.1-.09,0,.21.07-.08,0,.17.12l-.13,0s-.11.08-.13.12c.18.09-.11.06.14.17-.06,0-.18,0-.09.08h0s0,.1.16.17a.73.73,0,0,0-.29,0c.11.06.06.1.15.17-.12,0,0,0-.13,0,.29.21.14.31-.14.36h0l.4.17h0s-.15,0-.12,0l-.05,0c.07,0-.15,0,0,.07h0l.06,0c-.05,0-.14,0-.12,0-.11.17.13.46,0,.65l-.05,0,.08.06-.05,0c-.11,0,0,.12,0,.16l-.11,0c.15.07-.22,0,.1.1l-.11,0a.24.24,0,0,1,0,.31c.27.12,0,.18.19.29h-.06c.18.13-.07.23-.06.34s0,.08,0,.13h-.07c.26.09-.29.16,0,.25h-.1c.15,0-.07.05.2,0h-.08c.33.06-.17.1.05.18h-.06s.09,0,0,.05h0c-.25.06,0,.13,0,.19h-.12c.14,0,0,.08.07.12h-.05l.08,0h-.11C115.23,41,115.33,41.08,115.34,41.13Z"/><path class="cls-3" d="M115.47,41.65h0Z"/><path class="cls-3" d="M116,36.5h0Z"/><polygon class="cls-3" points="125.58 51.89 125.61 51.89 125.52 51.86 125.58 51.89"/><path class="cls-3" d="M125.4,51.76h-.06l.25.11C125.73,51.88,125.29,51.75,125.4,51.76Z"/><path class="cls-3" d="M125.43,51.75c.06,0-.05,0-.09-.06S125.29,51.72,125.43,51.75Z"/><path class="cls-3" d="M125.82,50.24h0Z"/><path class="cls-3" d="M125.53,49.73l-.1,0c.15.13,0,.16,0,.26l0,0c-.1.19,0,.41,0,.63l0,0s.09,0,.08.05l-.05,0c-.17,0,.07.15-.07.14a.28.28,0,0,0,.13,0,1.18,1.18,0,0,0,.05.52l-.12,0c.22.2.07.31,0,.44.07,0,.08,0,.14,0s-.14-.12,0-.13l.06,0c.05,0-.16,0-.07-.06a.48.48,0,0,1,.09,0c0-.07.07-.12-.07-.22.15,0,0-.06.17,0-.05,0,0,0-.12-.07.14-.19.07-.45.14-.67-.24-.18.12-.21.07-.36h0c-.06-.06-.07-.13,0-.16l-.1-.08c.33-.21.25-.55.43-.81s.45-.53.19-1l0,0c0-.11.09-.16.07-.27h0c-.16-.29.16-.44,0-.73a2.5,2.5,0,0,0,.25-.81l.05,0c0-.25.33-.34.33-.58.2-.16-.12-.57.13-.72s-.17-.44.15-.45c.51-.07.39-.41.29-.79.25-.15,0-.58.42-.64-.12-.21.33-.09.36-.22l-.06,0c.2.08-.19-.26.09-.1h0c.14.07-.28-.27-.11-.17l-.06-.05s.08.05.11,0-.11-.09-.07-.08c.26.19,0-.11.28.12,0,0,.13.07.17.14s0,0-.08-.13a1.68,1.68,0,0,0-.34-.26l.09.08-.13-.08s-.18-.08-.25-.09h0c.1.1,0,.08,0,.08l-.06,0c-.12-.07.19.2,0,.05a.55.55,0,0,1-.11.28c.07.06,0,.06.11.13-.19-.08-.26,0-.27,0l0,0c-.25-.09.18.18-.12.05.19.12-.1,0,.11.2l-.12-.06c0,.07-.16.12-.2.18.14.15-.15.09.06.27-.07,0-.2,0-.14.13l0,0a.23.23,0,0,0,.08.27.47.47,0,0,0-.3-.06c.08.1,0,.16.07.27-.11,0,0,.07-.14,0,.2.32,0,.49-.3.58h0c.08.07.26.18.36.26l0,0s-.15,0-.14.06l-.05,0c.06.06-.15,0,0,.1l0,0,0,.05c-.05,0-.13-.06-.11-.07-.17.28,0,.71-.19,1l0,0,.07.1,0,0c-.12,0,0,.18-.05.24a.36.36,0,0,0-.11,0c.13.11-.23,0,.07.16l-.11,0a.55.55,0,0,1-.14.48c.23.23-.08.28.08.49l-.06,0c.14.24-.12.36-.14.55s0,.14,0,.22l-.07,0c.23.22-.32.19-.07.42l-.09,0c.14.07-.08.06.18.14h-.08c.31.2-.2.12,0,.3l-.06,0s.06.09,0,.09l0,0c-.26,0,0,.2-.07.3l-.11,0c.12.09,0,.14,0,.22l-.05,0,.07.05-.11,0C125.47,49.54,125.54,49.64,125.53,49.73Z"/><path class="cls-3" d="M125.4,50.58h0Z"/><path class="cls-3" d="M128.06,42.47h0Z"/><polygon class="cls-3" points="133.58 45.03 133.62 45.03 133.53 45.01 133.58 45.03"/><path class="cls-3" d="M133.39,44.92h-.06l.26.09C133.73,45,133.29,44.92,133.39,44.92Z"/><path class="cls-3" d="M133.42,44.91c.06,0-.06,0-.1,0S133.28,44.9,133.42,44.91Z"/><path class="cls-3" d="M133.62,43.3h0Z"/><path class="cls-3" d="M133.27,42.82l-.1,0c.16.11,0,.17,0,.26h0c-.07.2.06.42.1.64l-.05,0s.09,0,.08,0h-.05c-.17,0,.08.14,0,.15a.26.26,0,0,0,.13,0,1.26,1.26,0,0,0,.12.53h-.12c.24.18.11.31,0,.45s.08,0,.15,0-.16-.11,0-.13h.07s-.17,0-.08,0,.08,0,.09,0,.06-.13-.1-.21c.15,0,0-.07.16-.07-.05,0,0,0-.13-.06.11-.22,0-.47.06-.7-.27-.15.09-.23,0-.38h0c-.06-.05-.08-.12,0-.16l-.11-.06c.3-.27.18-.61.33-.9s.38-.61.07-1l.05,0c0-.11.08-.18,0-.28h0c-.2-.27.11-.48-.1-.74a2.65,2.65,0,0,0,.07-.88H134c-.08-.25.25-.42.2-.66.17-.21-.24-.55,0-.75s-.25-.4.06-.48c.49-.2.27-.52.07-.86.21-.23-.13-.57.24-.76-.17-.17.3-.19.27-.34h-.07c.22,0-.27-.17,0-.13h0c.16,0-.36-.15-.17-.12l-.08,0s.09,0,.13,0-.14,0-.09,0c.32.07-.05-.09.3,0,0,0,.14,0,.21.06s0-.06-.12-.09a1.69,1.69,0,0,0-.43-.1l.12,0-.15,0s-.19,0-.27,0h0c.14.05,0,.06,0,.07h-.07c-.14,0,.25.11,0,0a.47.47,0,0,1,0,.29c.09,0,0,.07.15.09-.2,0-.26,0-.26.06h0c-.26,0,.22.11-.1.09.22.06-.09.07.16.15l-.13,0c0,.08-.12.16-.15.23.18.1-.12.13.14.24-.07,0-.19.08-.1.16h0a.24.24,0,0,0,.15.24c-.26,0-.22,0-.3,0,.11.07.05.16.15.25-.12,0,0,.07-.13,0,.29.26.12.48-.17.64h0l.41.17h0s-.15,0-.12.09l-.05,0c.07,0-.15,0,0,.12h0l.06,0c-.06,0-.14,0-.12,0-.11.32.13.71,0,1l-.05,0,.08.08-.05,0c-.11.07,0,.18,0,.26a.37.37,0,0,0-.11,0c.14.09-.22.06.1.15l-.11,0a.58.58,0,0,1,0,.52c.27.19,0,.3.19.49h-.06c.17.22-.08.38-.07.59s0,.14,0,.23h-.07c.25.18-.3.25,0,.44l-.1,0c.15,0-.07.08.2.11h-.08c.33.15-.19.15,0,.31l-.06,0s.07.08,0,.1l0,0c-.26.06,0,.21,0,.32l-.11,0c.13.07,0,.14,0,.22h-.05l.07,0-.11,0C133.19,42.63,133.27,42.73,133.27,42.82Z"/><path class="cls-3" d="M133.25,43.71h0Z"/><path class="cls-3" d="M134.23,35h0Z"/><polygon class="cls-3" points="160.75 45.38 160.78 45.39 160.69 45.36 160.75 45.38"/><path class="cls-3" d="M160.56,45.29l-.06,0,.25.1C160.9,45.4,160.46,45.27,160.56,45.29Z"/><path class="cls-3" d="M160.58,45.29c.06,0-.06,0-.1,0S160.45,45.25,160.58,45.29Z"/><path class="cls-3" d="M160.66,44.59h0Z"/><path class="cls-3" d="M160.28,44.33l-.1,0c.17.07,0,.07.05.11h0c-.05.08.09.19.15.29h-.05l.09,0-.05,0c-.17,0,.09.08,0,.06l.14,0a.52.52,0,0,0,.15.26l-.12,0c.25.13.13.17.08.21l.14,0c.09,0-.16-.08,0-.07l.07,0s-.17,0-.08,0l.09,0s0,0-.11-.12c.14,0,0,0,.15,0a.68.68,0,0,0-.13-.05c.1-.08,0-.21,0-.31-.27-.11.07-.09,0-.17h0c-.06,0-.09-.07-.05-.08l-.11,0c.27-.08.13-.24.25-.36s.33-.24,0-.44h.06c-.05,0,.06-.07,0-.12h0c-.21-.12,0-.2-.2-.32a.51.51,0,0,0-.06-.37h.06c-.12-.1.18-.19.1-.29.13-.11-.32-.2-.15-.3s-.31-.12,0-.2.12-.26-.16-.33c.14-.14-.27-.16,0-.33-.2,0,.22-.16.14-.21l-.07,0c.2-.09-.3.05,0-.06h0c.15-.07-.36.11-.19,0l-.07,0s.08,0,.11-.05-.13,0-.09,0c.3-.12-.08,0,.26-.14,0,0,.13-.06.2-.08s0,0-.13,0a3.94,3.94,0,0,0-.4.17l.11,0-.14.06a1.85,1.85,0,0,1-.24.12h0c.13,0,.06,0,0,0l-.06,0c-.13.05.26-.08,0,0a.08.08,0,0,1,.08.06c.09,0,0,0,.16,0-.19.06-.23.09-.22.1h0c-.25.08.24,0-.07.06.22,0-.07,0,.19,0l-.13,0s-.07.08-.08.11c.2,0-.08.07.19,0-.05,0-.16.07-.05.08h0s0,.05.21,0a1.12,1.12,0,0,0-.28.07c.12,0,.09,0,.2,0-.12,0,.06,0-.12,0,.34,0,.25.14,0,.24h.37s-.14,0-.11.05h-.06c.08,0-.14,0,0,0h-.11c-.06.13.24.25.19.39h-.05l.1,0h-.05c-.1,0,.06.07,0,.1h-.12c.16,0-.2,0,.12.05h-.11c.11.07.1.14,0,.2.29.08,0,.12.26.2h-.06c.21.1,0,.16,0,.24s0,.06,0,.09h-.07c.27.09-.27.08,0,.18l-.1,0c.15,0-.06,0,.2.06h-.08c.34.09-.17,0,0,.13h-.06s.08,0,0,0h0c-.25,0,0,.09,0,.13l-.11,0c.13,0,0,.06.05.1h-.05l.07,0-.11,0S160.28,44.29,160.28,44.33Z"/><path class="cls-3" d="M160.33,44.71h0Z"/><path class="cls-3" d="M159.9,41.35h0Z"/><path class="cls-3" d="M171.94,49.16h0Z"/><polygon class="cls-3" points="147.57 44.02 147.6 44.02 147.51 44.01 147.57 44.02"/><path class="cls-3" d="M147.36,43.94h-.06l.27.06C147.72,44,147.26,43.95,147.36,43.94Z"/><path class="cls-3" d="M147.39,43.93c.06,0-.06,0-.11,0S147.26,43.93,147.39,43.93Z"/><path class="cls-3" d="M147.35,42.48h0Z"/><path class="cls-3" d="M146.91,42.12h-.1c.18.06,0,.15.08.21h0c0,.18.14.35.22.54h0s.1,0,.09,0h-.06c-.16,0,.11.12,0,.14a.33.33,0,0,0,.14,0,1.06,1.06,0,0,0,.19.46h-.12c.26.14.15.27.1.39a1,1,0,0,1,.15,0c.09,0-.17-.09,0-.12h.07s-.17,0-.08,0h.09c0-.06,0-.12-.12-.18.15,0,0-.06.15-.08-.06,0,0,0-.14,0,.09-.2,0-.42,0-.63-.29-.1,0-.22,0-.34h0c-.07,0-.11-.09-.07-.14l-.12,0c.24-.29.06-.56.16-.85s.14-.66-.3-.89h.06c-.08-.08,0-.18-.07-.25h0c-.27-.15-.09-.42-.39-.54a2.09,2.09,0,0,0-.3-.71l.05,0c-.17-.16.05-.43-.09-.6.06-.24-.44-.31-.34-.57s-.39-.19-.15-.4c.34-.37,0-.52-.32-.68.08-.27-.37-.38-.13-.68-.23,0,.18-.29.09-.38l-.07,0c.1,0,0,0,0-.06l-.06,0s0,0-.05.05,0,0,0,0c-.26,0,.34-.1.14,0l.08,0s-.09,0-.11.07.14,0,.1,0c-.31.11.09,0-.26.16,0,0-.13.07-.21.06s0,.06.14,0a2,2,0,0,0,.41-.14l-.12,0,.14-.06s.17-.1.23-.15h0c-.14,0-.07,0-.06,0l.06,0c.13-.06-.27,0,0,0l0,0a.57.57,0,0,0-.19-.21c-.05,0-.06-.08-.34,0a.45.45,0,0,0-.31.3.43.43,0,0,0,0,.21l0,.09a1.09,1.09,0,0,1,0,.13c.09,0,0,.07.17,0-.19.08-.22.15-.21.17h0c-.24.12.25,0,0,.11.21-.06,0,.09.21,0l-.13,0c0,.07,0,.18,0,.24.2,0,0,.15.23.12,0,.05-.14.15,0,.17h0c0,.05.07.12.24.11-.24.09-.19.1-.26.15.13,0,.12.09.24.12-.11,0,.06,0-.1.09.37.07.32.3.13.55h0l.43-.05h0s-.11.1-.07.12h-.06c.09,0-.11.1,0,.1l0,0h.07c-.06,0-.14,0-.12,0,0,.29.41.49.45.79h-.05l.11,0H146c-.07.1.11.12.1.2a.33.33,0,0,0-.11,0c.17,0-.17.14.15.07l-.11,0a.46.46,0,0,1,.18.41c.32,0,.11.24.37.29l-.06,0c.25.1.09.33.16.48s.07.1.09.17l-.07,0c.3.06-.19.29.14.35h-.1c.16,0,0,.08.22,0l-.08,0c.36,0-.12.17.12.24h-.07c.05,0,.1,0,0,.07h0c-.22.11,0,.18,0,.27h-.12c.14,0,0,.12.08.18h-.05l.08,0h-.11C146.8,42,146.9,42,146.91,42.12Z"/><path class="cls-3" d="M147.06,42.88h0Z"/><path class="cls-3" d="M145.81,35.6l0,0S145.81,35.61,145.81,35.6Z"/><polygon class="cls-3" points="97.98 19.39 98.01 19.41 97.94 19.34 97.98 19.39"/><path class="cls-3" d="M97.85,19.21l-.06,0,.21.18C98.13,19.43,97.76,19.17,97.85,19.21Z"/><path class="cls-3" d="M97.87,19.22c.06,0,0-.05-.08-.07S97.76,19.15,97.87,19.22Z"/><path class="cls-3" d="M98,18.36h0Z"/><path class="cls-3" d="M97.53,18.18h-.1c.18,0,0,.07.07.11h0c0,.09.13.17.2.25h0c-.16,0,.1.05,0,.06h.14a.92.92,0,0,0,.18.26l-.12,0c.25.12.13.22,0,.3.06,0,.07,0,.13.07s-.12-.14,0-.12l.06,0c.05,0-.16-.06-.06-.06a.36.36,0,0,1,.09,0c0-.06.06-.09-.09-.17.15,0,0,0,.16,0a.36.36,0,0,0-.14,0c.09-.12,0-.25,0-.34-.29,0,.05-.1,0-.15h0c-.07,0-.1,0-.07-.06l-.12,0c.25-.11.09-.24.2-.35s.31-.2,0-.4H98c-.05,0,.06-.06,0-.11h0c-.21-.14.07-.17-.15-.32a.48.48,0,0,0,0-.37h.06c-.1-.11.21-.17.12-.28.13-.11-.31-.21-.15-.3s-.33-.1-.05-.19.1-.28-.17-.3c.11-.15-.29-.1,0-.31-.2,0,.18-.2.1-.23l-.06,0c.17-.13-.28.12,0-.06h0c.13-.1-.33.18-.18.07l-.07,0s.07-.05.1-.08-.12.08-.09,0c.27-.18-.07,0,.22-.2,0,0,.11-.1.18-.12s0,0-.13.05-.25.18-.34.27l.1-.07-.12.09a1.62,1.62,0,0,1-.2.16h0c.12-.08.05,0,0,0l-.05,0c-.12.08.24-.14,0,0,.06,0,.08,0,.09,0s0,0,.15-.06c-.17.1-.21.14-.2.15h0c-.23.13.22-.09-.06.06.2-.09-.05.05.19,0l-.12.06s-.06.09-.06.11c.19-.05-.07.07.19,0,0,0-.15.09,0,.07h0s0,0,.21,0a1.27,1.27,0,0,0-.27.1c.12,0,.09,0,.2,0-.12,0,.05,0-.12,0,.35,0,.24.12,0,.2h.38s-.13,0-.1,0h-.05c.08,0-.14,0,0,0h-.11c-.06.1.24.22.19.35H97.5l.09,0h-.05c-.1,0,.05.07,0,.09l-.11,0c.15,0-.21,0,.11.06l-.11,0c.1.08.08.14,0,.19.28.12,0,.13.22.24h-.06c.18.12-.05.15,0,.24s0,.06,0,.1h-.07c.27.1-.27.08,0,.19l-.1,0c.15,0-.06,0,.2.06H97.6c.34.08-.17,0,0,.13h-.06s.09,0,0,0h0c-.25,0,0,.09,0,.13h-.11c.13,0,0,.06.06.09h-.06l.08,0h-.11S97.52,18.15,97.53,18.18Z"/><path class="cls-3" d="M97.65,18.54h0Z"/><path class="cls-3" d="M97.1,15.41h0Z"/><polygon class="cls-3" points="109.74 46.65 109.78 46.65 109.68 46.63 109.74 46.65"/><path class="cls-3" d="M109.54,46.53h-.06l.27.08C109.89,46.59,109.43,46.55,109.54,46.53Z"/><path class="cls-3" d="M109.56,46.51c.06,0-.06,0-.1,0S109.43,46.51,109.56,46.51Z"/><path class="cls-3" d="M109.57,44.2h0Z"/><path class="cls-3" d="M109.16,43.59h-.1c.18.12,0,.24.07.36h0a2.48,2.48,0,0,0,.18.88h-.05s.1,0,.09,0h-.06c-.17.06.1.19,0,.22a.2.2,0,0,0,.14,0,2.29,2.29,0,0,0,.18.73h-.12c.26.21.15.42.1.63.07,0,.08,0,.15,0s-.17-.13,0-.19h.07s-.17,0-.08-.06.09,0,.09,0,0-.19-.12-.29c.15,0,0-.1.15-.13-.06,0,0-.05-.14-.06a5.34,5.34,0,0,0,0-1c-.28-.17.06-.34,0-.54h0a.2.2,0,0,1-.06-.23l-.12-.07c.26-.43.1-.88.21-1.33s.31-.94-.06-1.44c0,0,0,0,.05,0-.05-.14.05-.27,0-.41h0c-.23-.34,0-.69-.19-1a5.4,5.4,0,0,0,0-1.24h.06c-.11-.33.2-.65.12-1,.14-.34-.31-.7-.12-1s-.3-.49,0-.69c.44-.4.16-.8-.11-1.21.16-.38-.24-.75.07-1.12-.2-.17.25-.37.19-.56h-.07c.21-.07-.3-.15,0-.2h0c.16,0-.38-.07-.19-.1h-.08s.09,0,.12,0-.14,0-.1,0c.32,0-.07-.11.29-.12,0,0,.14,0,.22,0s0-.09-.14-.08a1.24,1.24,0,0,0-.44,0h.12l-.15,0c0,.06-.19.07-.26.12h0c.14,0,.06.07,0,.09h-.07c-.14,0,.27.06,0,0A.87.87,0,0,1,109,33c.09,0,0,.1.17.07-.2,0-.25.14-.24.17h0c-.26.08.24.08-.08.15.22,0-.07.12.19.16h-.13c0,.12-.08.25-.1.36.2.08-.09.21.18.28-.06.06-.17.16-.06.25h0a.3.3,0,0,0,.2.29c-.26,0-.21.07-.29.11.12.06.09.2.2.3-.12,0,.05.08-.12.09.34.28.22.63,0,.92h0c.09,0,.3.09.43.13h0c0,.05-.14.1-.11.16H109c.07.05-.14.1,0,.16h0l.06,0c-.06,0-.14,0-.12,0-.07.47.21,1,.16,1.43L109,38l.1.09h-.06c-.1.12.06.24,0,.36s-.08,0-.11,0c.15.09-.21.13.12.18H109a1.13,1.13,0,0,1,0,.72c.29.21,0,.42.24.64h-.06c.2.27,0,.55,0,.83,0,.11,0,.19,0,.31h-.07c.27.2-.26.4,0,.62l-.1,0c.15,0-.06.12.21.12l-.08,0c.34.15-.17.25.05.42h-.06s.08.1,0,.13h0c-.25.13,0,.3,0,.45l-.12,0c.13.08,0,.21.06.3h-.05l.07.05h-.11C109.05,43.34,109.15,43.46,109.16,43.59Z"/><path class="cls-3" d="M109.25,44.84h0Z"/><path class="cls-3" d="M108.93,32.53l0,0S108.93,32.52,108.93,32.53Z"/><polygon class="cls-3" points="67 32.17 67.04 32.18 66.96 32.13 67 32.17"/><path class="cls-3" d="M66.86,32l-.06,0,.22.15C67.17,32.17,66.76,32,66.86,32Z"/><path class="cls-3" d="M66.9,32c.07,0,0-.05-.08-.07S66.77,32,66.9,32Z"/><path class="cls-3" d="M67.77,30h0Z"/><path class="cls-3" d="M67.5,29.3l-.1,0c.15.14,0,.22,0,.34l0,0a2.55,2.55,0,0,0,0,.87l0,0s.08.07.07.09l0,0c-.17,0,0,.2-.12.18a.22.22,0,0,0,.12.08,1.86,1.86,0,0,0-.14.68.29.29,0,0,1-.12,0c.15.28,0,.4-.17.56.06,0,.08,0,.14.05s-.11-.16,0-.16l.06,0c.06,0-.16-.07-.05-.08s.08,0,.09,0,.12-.14,0-.28c.14,0,0-.08.19,0,0,0,0-.06-.1-.1a2.76,2.76,0,0,0,.38-.86c-.21-.27.15-.32.12-.55h0a.2.2,0,0,1,0-.24l-.1-.09c.34-.35.26-.81.45-1.2s.46-.83.19-1.37c0,0,0,0,.05,0,0-.14.1-.25.07-.38h0c-.17-.36.16-.64,0-1a3.93,3.93,0,0,0-.06-1.2h.06c-.12-.31.18-.62.09-.93.13-.32-.33-.66-.15-1s-.32-.46,0-.65c.44-.39.16-.77-.11-1.15.16-.36-.24-.71.07-1.06-.2-.16.25-.35.19-.53h-.07c.22-.07-.3-.15,0-.19h0c.16,0-.38-.08-.19-.1h-.08s.09,0,.12,0-.14,0-.1,0c.32,0-.07-.1.29-.11,0,0,.14,0,.22,0s0-.09-.14-.08a1.31,1.31,0,0,0-.44,0h.12l-.15,0c0,.06-.19.06-.26.1h0c.14,0,.06.07,0,.09h-.07c-.14,0,.27.06,0,0a.81.81,0,0,1,.06.37c.09,0,0,.1.17.07-.2,0-.25.13-.24.16h0c-.26.07.24.08-.08.14.22,0-.07.12.19.15h-.13a3.43,3.43,0,0,1-.1.34c.2.08-.09.2.18.27-.06.06-.17.16-.06.24h0A.29.29,0,0,0,68,21c-.26,0-.21.07-.29.11.12.06.08.19.19.28-.12,0,0,.08-.12.08.34.27.22.59,0,.88h0c.1,0,.31.08.43.12h0c0,.05-.14.1-.11.15H68c.08,0-.14.1,0,.16h0l.07,0c-.06,0-.14,0-.12,0-.06.45.24.91.2,1.36l-.06,0,.1.09H68c-.1.11.07.23,0,.34s-.08,0-.12,0c.16.08-.2.13.12.17H68a1,1,0,0,1,.05.69c.14.1.16.21.15.27a.32.32,0,0,0,0,.31h-.06c.15.29-.12.52-.13.78,0,.11,0,.19,0,.3h-.07c.23.24-.33.33-.06.59l-.09,0c.14.06-.08.1.18.15l-.08,0c.32.2-.21.2,0,.41l-.06,0c0,.05.07.11,0,.13l0,0c-.27.08,0,.28-.08.42l-.11,0c.12.1,0,.19,0,.29l-.05,0,.07.06-.11,0C67.45,29.05,67.52,29.18,67.5,29.3Z"/><path class="cls-3" d="M67.31,30.49h0Z"/><path class="cls-3" d="M67.83,18.84h0S67.84,18.84,67.83,18.84Z"/><polygon class="cls-3" points="86.44 12.51 86.47 12.51 86.38 12.51 86.44 12.51"/><path class="cls-3" d="M86.23,12.48h.21C86.58,12.46,86.13,12.5,86.23,12.48Z"/><path class="cls-3" d="M86.25,12.47c.06,0-.07,0-.11,0S86.12,12.49,86.25,12.47Z"/><path class="cls-3" d="M86.08,11.45h0Z"/><path class="cls-3" d="M85.62,11.25h-.1c.18,0,0,.11.09.14h0c0,.14.16.23.25.36h0c-.16,0,.11.07,0,.1h.14a.65.65,0,0,0,.24.29l-.12,0c.28.06.18.17.15.26l.15,0c.09,0-.18,0-.05-.08h.07s-.17,0-.09,0h.09s0-.09-.15-.11c.15,0,0,0,.14-.08a.5.5,0,0,0-.14,0c.06-.16-.1-.29-.11-.44-.29,0,0-.16-.07-.23h0c-.07,0-.11-.05-.08-.09h-.12c.23-.23,0-.4.11-.62s.17-.46-.26-.6h.05c-.08,0,0-.12-.07-.17h0c-.28-.09-.06-.3-.35-.38a1.1,1.1,0,0,0-.24-.51h.06c-.15-.11.07-.31,0-.43.13-.16-.32-.25-.16-.43s-.32-.19,0-.3c.43-.2.15-.34-.11-.54.16-.16-.24-.34.08-.49-.2-.08.25-.16.2-.24h-.07c.22,0-.29-.08,0-.09h0c.16,0-.38,0-.19-.05h-.08s.09,0,.12,0-.14,0-.1,0c.33,0-.07,0,.3,0a1.36,1.36,0,0,1,.22,0s0,0-.13,0a2.67,2.67,0,0,0-.44,0h0s-.19,0-.26,0h0c.14,0,.06,0,0,0h-.07c-.14,0,.27,0,0,0a.21.21,0,0,1,.06.17c.09,0,0,0,.17,0-.2,0-.25.05-.24.07h0c-.26,0,.24,0-.08.07.23,0-.07.05.19.08h-.13c0,.05-.09.11-.1.16.2,0-.09.09.18.13-.06,0-.17.07-.06.11h0s0,.1.2.13a.55.55,0,0,0-.29.05c.12,0,.09.1.2.14-.12,0,.05,0-.12,0,.34.13.22.28,0,.45h.38s-.14.07-.1.09h-.06c.08,0-.14.07,0,.08h0c-.06,0-.14,0-.12,0,0,.24.22.42.27.62h-.05l.11,0h-.06c-.08.07.1.09.09.14l-.11,0c.16,0-.18.1.14.05l-.11,0a.26.26,0,0,1,.14.29c.32,0,.08.17.34.21h-.06c.24.07.06.24.14.34s.07.07.09.12l-.07,0c.3,0-.19.22.14.25h-.1c.16,0,0,.06.22,0l-.07,0c.36,0-.12.13.11.17h-.06c.05,0,.09,0,0,.05h0c-.24.11,0,.13,0,.19h-.12c.14,0,0,.09.09.12h0l-.11,0C85.51,11.16,85.61,11.19,85.62,11.25Z"/><path class="cls-3" d="M85.81,11.77h0Z"/><path class="cls-3" d="M84.51,6.43h0Z"/><polygon class="cls-3" points="60.79 14.15 60.83 14.15 60.73 14.12 60.79 14.15"/><path class="cls-3" d="M60.6,14.05h-.06l.25.08C60.95,14.14,60.5,14,60.6,14.05Z"/><path class="cls-3" d="M60.63,14c.06,0-.06,0-.1,0S60.5,14,60.63,14Z"/><path class="cls-3" d="M60.89,13h0Z"/><path class="cls-3" d="M60.63,12.5l-.09,0c.13.13-.06.11,0,.21l0,0c-.09.14,0,.34,0,.51l0,0s.09,0,.08.05l-.05,0c-.17,0,.07.12-.06.1l.13,0a.77.77,0,0,0,.11.41l-.12,0c.24.16.11.24,0,.33l.15,0c.09,0-.15-.09,0-.1l.07,0s-.17,0-.08,0l.09,0c0-.05.05-.08-.1-.16.15,0,0,0,.16,0a.43.43,0,0,0-.13-.06c.11-.13,0-.34.09-.49-.24-.17.11-.14.05-.26h0c-.05-.05-.07-.11,0-.13l-.1-.08c.32-.09.27-.36.47-.49s.46-.18.36-.61l0,0c0-.09.13-.06.13-.15l0,0c-.07-.25.38-.32.22-.58a1.83,1.83,0,0,0,.38-.48l0,0c0-.2.37-.09.44-.27.21,0,.06-.48.31-.47s0-.41.25-.26c.45.2.42-.15.42-.49.25,0,.15-.44.5-.32-.06-.21.3.07.35,0l0-.05c.16.14-.13-.28.09-.05h0c.12.11-.21-.32-.08-.18l0-.06s.06.07.09.08-.09-.11-.05-.09c.21.25,0-.09.23.19,0,0,.11.1.13.17s0,0-.05-.13a2.21,2.21,0,0,0-.28-.33l.07.1-.1-.11s-.15-.13-.21-.17h0c.08.12,0,.07,0,.06l0,0c-.09-.1.14.23,0,0a.28.28,0,0,1-.12.17c.05.08,0,0,.08.15-.14-.14-.21-.15-.22-.13s0,0,0,0c-.19-.18.12.21-.11,0,.14.18-.09,0,.06.2L64,8.4c-.05,0-.16,0-.21,0,.09.18-.14,0,0,.24-.06,0-.18-.08-.14,0l0,0s-.07.1,0,.25c-.18-.19-.16-.14-.23-.19,0,.12,0,.13,0,.25-.08-.09,0,.07-.12-.06.11.35-.11.38-.39.29h0l.23.37,0,0s-.13-.07-.13,0l0,0c0,.08-.13-.07-.07.05l0,0,0,.06s-.09-.11-.07-.1c-.23.12-.22.51-.44.65l0,0,0,.1,0,0c-.11,0-.05.13-.11.16a.6.6,0,0,0-.08-.09c.07.15-.19-.1,0,.16L62,10.27a.36.36,0,0,1-.25.31.28.28,0,0,1,0,.29s-.06.11,0,.05a.14.14,0,0,0,0,.12l-.05,0c.08.21-.2.16-.27.29s0,.1-.08.15l-.05,0c.14.26-.34,0-.18.28l-.07-.07c.11.11-.08,0,.13.18l-.07,0c.23.27-.21,0-.08.22l0,0S61,12,61,12l0,0c-.25-.08-.07.15-.11.21l-.1-.07c.1.1,0,.1,0,.18l0,0,.06.06-.1-.05C60.59,12.33,60.64,12.43,60.63,12.5Z"/><path class="cls-3" d="M60.5,13.15h0Z"/><path class="cls-3" d="M64.44,8.07h0Z"/><polygon class="cls-3" points="17.18 33.27 17.21 33.27 17.12 33.23 17.18 33.27"/><path class="cls-3" d="M17,33.14l-.06,0,.24.12C17.33,33.27,16.9,33.11,17,33.14Z"/><path class="cls-3" d="M17,33.13c.07,0-.05,0-.09-.06S16.9,33.09,17,33.13Z"/><path class="cls-3" d="M17.39,31.89h0Z"/><path class="cls-3" d="M17.09,31.43l-.09,0c.15.12,0,.13,0,.21l0,0c-.09.15,0,.35,0,.53l0,0s.09,0,.08.05l-.05,0c-.17,0,.06.13-.06.11l.13.05a.93.93,0,0,0,.06.45l-.12,0c.22.2.08.27,0,.37a1,1,0,0,1,.14,0c.1,0-.14-.12,0-.11l.06,0c.05,0-.16-.06-.07-.06l.09,0c0-.06.07-.09-.07-.19.14,0,0-.05.16,0-.05,0,0,0-.12-.08.13-.15.06-.37.13-.55-.24-.18.11-.17.06-.3h0c-.06-.05-.07-.11,0-.14l-.1-.07c.31-.15.24-.45.38-.58s.05-.06,0,0a.42.42,0,0,1-.4-.11.48.48,0,0,1,.1-.76h-.06c.08-.1,0-.16.08-.25h0c.3-.2.07-.38.36-.56a1.8,1.8,0,0,1,.23-.67l0,0a1.84,1.84,0,0,1,.19-.27.33.33,0,0,0,.12-.28c.17-.17-.23-.48,0-.62s-.25-.33.05-.38c.47-.13.24-.41,0-.69.2-.17-.15-.46.2-.6-.18-.14.29-.15.25-.27h-.07c.21,0-.27-.15,0-.1h0c.16,0-.36-.12-.17-.1l-.08,0s.09,0,.12,0-.14,0-.09,0c.32.06-.06-.07.3,0,0,0,.14,0,.21.05s0,0-.12-.07a2.25,2.25,0,0,0-.43-.08l.12,0-.15,0s-.19,0-.27,0h0c.14,0,.05,0,0,.06h-.07c-.14,0,.26.09,0,0a.32.32,0,0,1,0,.23c.09,0,0,.05.16.07-.2,0-.26,0-.26,0h0c-.26,0,.23.1-.09.07.22.05-.09.05.17.13l-.13,0c0,.07-.11.12-.14.18.18.09-.11.1.14.2-.06,0-.19.05-.09.13h0c0,.06,0,.13.16.2a.53.53,0,0,0-.3,0c.11.06.06.13.16.2-.12,0,0,.06-.13,0,.3.22.14.39-.14.5h0l.41.16h0s-.15,0-.12.07l-.06,0c.07,0-.15,0,0,.09h0l.06,0c-.06,0-.14,0-.12,0-.09.21.1.58.1.7l0,0,.1.08,0,0c0-.09.3.07.34.21,0,0,0-.09.07-.09,0,.21.25.07,0,.28l.1-.06a1.15,1.15,0,0,0-.09.55c-.32.14-.07.25-.33.38h.06c-.23.16-.06.3-.16.44s-.08.1-.11.16h.07c-.16.07-.11.12-.08.14s0,0-.12.15l.07-.08c-.1.13-.05,0-.14.23l0-.06c0,.21,0,.2,0,.18s-.11,0,0,.1l0,0c0,.06.05.11,0,.09l0,0c-.24-.05,0,.19-.07.25l-.1-.06c.11.1,0,.12,0,.2l0,0,.06.06-.1,0C17,31.27,17.1,31.36,17.09,31.43Z"/><path class="cls-3" d="M17,32.13h0Z"/><path class="cls-3" d="M18.16,25.31h0Z"/><path class="cls-3" d="M1.15,46.53l0-.09c0,.18-.11.06-.13.16v0c-.16,0-.21.26-.31.41l0,0s0,.09,0,.09a.15.15,0,0,1,0-.05c-.11-.13,0,.14-.12,0a.37.37,0,0,0,.06.13.85.85,0,0,0-.26.36.45.45,0,0,1-.06-.11c0,.29-.13.25-.25.26a1.06,1.06,0,0,1,.06.13c.07.06,0-.19.07-.08l0,.06s-.07-.16,0-.09,0,.08,0,.08.11,0,.08-.19c.08.13,0,0,.13.1a.45.45,0,0,0,0-.14c.2,0,.29-.22.46-.3-.06-.29.19,0,.24-.18v0c0-.08,0-.13.07-.12l0-.12c.33.1.45-.18.71-.23s.62-.09.59-.56c0,0,0,0,0,0s.15-.09.17-.18l0,0c0-.26.32-.45.13-.62a3.75,3.75,0,0,1,.42-.45l0,.05c.11-.19.37,0,.5-.09a.19.19,0,0,0,.17,0c.11-.18.05-.42.24-.42s0-.41.26-.27c.45.18.42-.17.41-.51.25,0,.14-.45.5-.34-.07-.21.31.06.35-.05l0-.05c.17.13-.14-.28.09-.06h0c.12.11-.22-.31-.08-.18l-.05-.06s.06.07.1.08-.09-.11-.06-.09c.22.24,0-.09.24.18,0,0,.11.09.14.17s0,0-.05-.13a2.36,2.36,0,0,0-.29-.32l.07.09-.11-.11s-.15-.12-.22-.16h0c.08.12,0,.07,0,.06l0,0c-.1-.1.15.23,0,0a.29.29,0,0,1-.12.18c.05.08,0,0,.08.15-.14-.14-.22-.14-.23-.12l0,0c-.2-.17.13.21-.11,0,.14.17-.1,0,.06.2l-.09-.1s-.16,0-.21.05c.09.18-.14,0,0,.24-.06,0-.18-.07-.14,0l0,0s-.07.1,0,.25c-.18-.18-.17-.13-.24-.18.05.11,0,.13,0,.25-.09-.09,0,.07-.12-.06.11.35-.11.39-.39.3h0l.23.37,0,0s-.13-.07-.13,0l0,0c0,.08-.13-.07-.07.06l0,0,0,.06S3.71,44,3.73,44a.33.33,0,0,0-.12.11v.08c0,.07-.17.2-.33.24v-.05l0,.11a.2.2,0,0,1,0-.05c-.11-.07-.11.12-.18.13a.41.41,0,0,0-.05-.1c0,.16-.18-.14,0,.16a.49.49,0,0,1-.06-.1c-.08.18-.21.24-.36.35.13.27-.16.29,0,.49l-.05,0c.12.18-.13.22-.21.32s0,.1-.08.15l-.05-.05c.11.29-.32-.07-.22.24l-.05-.08c.08.13-.08,0,.08.2l-.06-.05c.14.33-.2-.05-.15.18l0-.06c0,.05,0,.1,0,.06l0,0c-.2-.17-.12.11-.19.14l-.06-.1c0,.14-.08.07-.1.15l0,0,0,.08-.06-.09C1.2,46.37,1.2,46.48,1.15,46.53Z"/><path class="cls-3" d="M79.85,7.5v0A0,0,0,0,0,79.85,7.5Z"/><path class="cls-3" d="M79.79,9l.07.08c0-.37.45-.54.46-.95l0,0a2,2,0,0,0-.21-1.25c-.15-.4-.32-.76-.45-1.17l.06,0s-.12-.06-.12-.11,0,0,.06,0c.12-.21-.22-.49-.12-.62a.1.1,0,0,0-.15,0,3.93,3.93,0,0,0-1-1.72s0-.07.09-.09a3,3,0,0,1-.64-.55L77.41,2c-.07,0,0,.09-.11.1.05.2.35.14.36.35l-.07,0c0,.12.15-.09.16.06s-.08,0-.06.07c.17.17.24.35.53.44-.05.05,0,.09,0,.14a.35.35,0,0,1,.07.27c.11.07.13.13.22.1.1.2.21.39.29.58a2.54,2.54,0,0,1,.24.57A13.09,13.09,0,0,1,79.47,6a1,1,0,0,1,.26.65l0,.36a1.06,1.06,0,0,0,.11.44h0A.51.51,0,0,1,80,8l.09.16c-.34.45-.75.84-1.18,1.44-.19.65-.36,1.3-.51,1.93a10.06,10.06,0,0,0,0,4.06s0,0-.05,0c.06.38-.26.61-.36,1h0c-.1.46-.37.92-.47,1.42a5.07,5.07,0,0,0-.14,1.43l-.16.84,0,.22v.08h.2v-.55c0-.59,0-1.2-.08-1.78h.06a4.75,4.75,0,0,1,0-1V17h-.08l-.36,0,.11.12A5.59,5.59,0,0,0,77,15.73a3,3,0,0,0-.2-1.46,4.31,4.31,0,0,1-.27-1.44c.22-.62-.51-1.34-.22-1.93a6.54,6.54,0,0,0,.4-3.4c.31-1,.13-2.14.56-3.09-.2-.49.25-1,.19-1.57l-.07,0c.21-.19-.3-.43,0-.55v0c.16-.1-.38-.24-.19-.3l-.08,0c0-.13.09,0,.12-.11s-.14,0-.1-.09c.33,0-.07-.31.29-.32,0,.07.14-.11.22,0,0,0,0-.25-.14-.23s-.31-.1-.44,0l.12,0c-.12,0-.06,0-.15,0,0,.17-.19.19-.26.31h0c.14.08.06.2,0,.26L76.8,2c-.14,0,.27.19,0,.14a6.92,6.92,0,0,1,.06,1.1c.09.05,0,.29.17.21a.54.54,0,0,0-.24.48s0,0,0,0c-.26.2.24.24-.08.43.11,0,.09.11.08.19a.15.15,0,0,0,.08.2.2.2,0,0,1-.14,0c-.06.34-.2.69-.26,1,.15.28-.19.57,0,.83a1,1,0,0,0-.18.68l0,0a1.42,1.42,0,0,0,.07.84c-.27,0-.24.16-.34.26.09.2,0,.56.05.86-.12,0,0,.24-.16.22a3.51,3.51,0,0,1,0,1.32c0,.25,0,.51-.06.78s0,.46-.08.68h0c.11.1.33.2.47.3s0,0,0,0c.05.15-.1.32-.05.47s0,0-.06,0c.1.13-.09.32.06.47l0,0,.08.1c-.06,0-.15,0-.13,0a8.43,8.43,0,0,0,.15.94,5.55,5.55,0,0,1,.18.94,11.54,11.54,0,0,1,.1,1.83v.3H77l0,.05a.56.56,0,0,1,.17,0l-.3-.31,0,.09a.07.07,0,0,1-.06,0c-.1.34.07.68,0,1,0,0-.08-.05-.12,0,.16.24-.2.39.12.51a.14.14,0,0,1-.12,0,6.85,6.85,0,0,1,.09,1v.8h.64v0l0-.06,0-.12c-.2-.56.18-1.15.05-1.75h.06a2,2,0,0,1,.2-1.13c.18-.34.41-.68.57-1a1.6,1.6,0,0,0,.21-.87h.07c-.19-.59.25-1.17,0-1.75l.1,0c-.15-.09.06-.35-.21-.32l.08-.1c-.34-.41.17-.71,0-1.2l.06,0c-.05-.13-.08-.28,0-.37s0,0,0,0c.33-.36.11-.83.23-1.24l.1.08c-.08-.23.14-.55.15-.82l0,0,0-.16.1,0Z"/><path class="cls-3" d="M79.69,5.66h0S79.7,5.66,79.69,5.66Z"/><line class="cls-4" x1="103.85" y1="79.71" x2="150.17" y2="79.71"/></g></g></svg>