<svg xmlns="http://www.w3.org/2000/svg" viewBox="0 0 1413.98 293.29"><defs><style>.cls-1{fill:#dcddde;}</style></defs><title>mountain-bg</title><g id="Layer_2" data-name="Layer 2"><g id="Capa_1" data-name="Capa 1"><path class="cls-1" d="M1399.43,272.44c-6.44-6.36-13.72-13.57-13.72-17.44a1.41,1.41,0,0,0-.46-1,1.29,1.29,0,0,0-1.08-.37,11.42,11.42,0,0,0-2.13.47c-2,.59-2.78.81-3.65-1.58a1.38,1.38,0,0,0-1.44-.93,1.42,1.42,0,0,0-1.27,1.14c-.94,4.9-3.31,8-7.42,9.68a33.44,33.44,0,0,0-3.93,2c-2.91,1.68-5.67,3.28-9.1,2.4a1.81,1.81,0,0,0-1.92,1.15l-.14.24c-.64.24-1.29.55-2,.86-1.52.7-3.27,1.48-4.24,1.19-4-1.25-6.59-2.39-6.14-6.62a1.42,1.42,0,0,0-.52-1.25,1.39,1.39,0,0,0-1.32-.25c-.88.28-1.7.58-2.47.85a21.31,21.31,0,0,1-4.14,1.2,13.87,13.87,0,0,1-3.95-.23l-1.27-.17a10.59,10.59,0,0,1-1.6-.39c-1.38-.4-3-.85-4.17-.07-2.89,1.78-5.66,1-8.71-.22a5.46,5.46,0,0,0-4.74,0,4.29,4.29,0,0,0-2.12,3c-1.23,6-5.07,7.28-11.26,7.28h-.63a9.22,9.22,0,0,0-8.77,5.07c-.41.74-.87,1.19-1.28,1.26s-1-.2-1.68-.78a5.38,5.38,0,0,0-4.43-1.62,4,4,0,0,0-2.09,1.13c-1.34-1.3-2.68-2.59-4-3.86a21.54,21.54,0,0,0-2.58-2.22l-1.11-.78a17.44,17.44,0,0,0-4.16-2.45,20,20,0,0,0-3.15-.75c-3.29-.6-5.29-1-5.1-5.12a1.42,1.42,0,0,0-1-1.42,1.38,1.38,0,0,0-1.62.67l-.28.51c-.38-1.43-.74-2.81-1.15-4.37a1.41,1.41,0,0,0-1.12-1,1.47,1.47,0,0,0-1.41.59l-1.42,2.09-3.09-4.22a1.36,1.36,0,0,0-1.27-.57,1.4,1.4,0,0,0-1.14.8l-.21.43c-.71-2.19-1.36-4.17-2-6a1.42,1.42,0,0,0-1.32-1c-2.15,0-2.37-1-2.72-3.2-.26-1.68-.62-4-3-4.8a1.43,1.43,0,0,0-1.12.08,1.44,1.44,0,0,0-.7.87l0,.17-.94-2.72a1.41,1.41,0,0,0-2.14-.69,12.66,12.66,0,0,1-1.56.91,6,6,0,0,1-.32-2.2l-.06-1.18c-.39-8.46-.8-17.21-4.3-25.55a44.72,44.72,0,0,1-2.32-8.79c-.26-1.36-.53-2.7-.83-4a1.43,1.43,0,0,0-1.14-1.07c-3.19-.53-5.31,1.17-7.19,2.67-1.47,1.18-2.86,2.29-4.74,2.49-.62.06-1.23.15-1.81.24-2.58.38-4.42.66-6.41-1.19a1.43,1.43,0,0,0-1.22-.36,1.42,1.42,0,0,0-1,.77l-6.45,13.26a17,17,0,0,0-1.59-2.44c-1.63-2.22-2.49-3.6-1.17-6.07.67-1.26.12-2.8-.37-4.15l-.22-.62c-.32-.94-.61-1.89-.91-2.84a48.8,48.8,0,0,0-3.17-8.27,9.18,9.18,0,0,1-.58-1.62c-.54-1.84-1.37-4.59-4.91-5a12.13,12.13,0,0,1-.58-1.25,12.08,12.08,0,0,0-1.16-2.25c-.22-.3-.45-.64-.67-1-1-1.57-2.22-3.34-4-3.73-3.23-.71-7.38-1.37-10.78-.21-2.61.88-4.06-.17-6-1.61-.56-.4-1.12-.81-1.7-1.17a21,21,0,0,1-2.82-2.25c-.42-.37-.83-.73-1.25-1.09a12.67,12.67,0,0,1-1-1c-1-1.06-2.06-2.16-3.45-2.16h0a8.26,8.26,0,0,1-7.15-3.35c-.46-.55-2.08-2.36-4-2.54-2.66-.24-3.62-1.44-3.5-4.41a1.41,1.41,0,0,0-2.33-1.12h0l-4.83-5.65a1.43,1.43,0,0,0-1.36-.46c-2.92.62-5.49-.87-8.47-2.6-.75-.43-1.49-.86-2.26-1.27-3.06-1.63-7.41-2.95-10.42-1.74-2.72,1.11-4.71,3.65-6.62,6.11-.5.64-1,1.28-1.49,1.87l-.69.83c-3.38,4.06-6.33,7.55-11.41,5.68a9,9,0,0,0-5.09-.18,12,12,0,0,1-1.45.15,3,3,0,0,0,.44-.27l0,0c-.63.13-.31-.1-.25-.2l.27-.13c.56-.25-1.22.22-.2-.1l-.16-.16a2.42,2.42,0,0,0-.85-.95l-.12-.06c-1-3-4-3.48-5.79-3.76l-.86-.14c0-1.14,0-2.24,0-3.32,0-3,0-5.85.07-8.64a23.6,23.6,0,0,1,.49-3.33,18.23,18.23,0,0,0,.52-5.1c-.18-2.08-.5-4.15-.81-6.22-.91-5.95-1.78-11.57.57-17.26a4.11,4.11,0,0,0-.4-3.12,8.21,8.21,0,0,1-.34-.95,1.61,1.61,0,0,0-1.65-1l-6.16.42-.46-.63a11.48,11.48,0,0,0-2.35-2.65,5.62,5.62,0,0,0-4.84-1.29,5.78,5.78,0,0,0-3.76,3.42c-1.15,2.47-2.39,4.91-3.72,7.52l-1,2-.28-.4a1.41,1.41,0,0,0-1.89-.4c-2.24,1.34-4.15,2.49-6.07,3.68-.51.32-1,.6-1.58.88-2.29,1.21-5.14,2.71-5.5,6.68s-.71,7.94-1.07,11.91c-.52,5.59-1,11.17-1.5,16.77a6.56,6.56,0,0,1-1.3,3.85h0a3.26,3.26,0,0,1-.24.3s0,0,0,0a6.45,6.45,0,0,1-1.81,1.31,19.33,19.33,0,0,0-4.79,3.83A29.22,29.22,0,0,1,1011,163a9.81,9.81,0,0,1-2.74,1.57,4.69,4.69,0,0,0-3.76-.43c-1.56.58-2.34,2.08-2.95,3.44-1.49,3.38-2.88,6.8-4.26,10.23l-1.53,3.74c-.41,1-.8,2-1.19,3.06-1.69-1.76-4.17-1.38-6-1.09-3.06.47-4.14-.4-4.67-3.74-.4-2.49-.86-5-1.32-7.57l-.77-4.25a1.41,1.41,0,0,0-2.33-.81l-.77.7a3,3,0,0,1-.38.33l-1.34,1a9.2,9.2,0,0,0,0-1.56c-.08-.74-.14-1.5-.19-2.26-.2-2.76-.42-5.62-1.72-8a28.61,28.61,0,0,0-1.7-2.62c-1.46-2.08-2.72-3.87-2.31-6.16,1-5.5-.48-10.48-1.91-15.3-1.1-3.68-2.14-7.16-2.12-10.82a2.77,2.77,0,0,0-1-1.85,1.21,1.21,0,0,0-1.16-.54,1.41,1.41,0,0,0-1.12.61l-2.43,3.52c-1.95,2.8-3.86,5.56-5.7,8.37-.67,1-1.26,2.11-1.86,3.19a23.51,23.51,0,0,1-3,4.63l-.43.48c-4.77,5.27-9.71,10.71-10.21,18.83-.11,1.7-.62,2.47-2,2.64-.06-.4-.12-.8-.17-1.21-.28-2-.58-4.16-2-5.51-2.31-2.26-2.23-4.78-2.11-7.69,0-.79.06-1.57,0-2.37,0-1.38,0-2.76,0-4.13v-1.87a1.41,1.41,0,0,0-1-1.34,1.4,1.4,0,0,0-1.58.48c-3.8,5-4.82,10.62-5.49,16.18l-6.1-14.51a1.41,1.41,0,0,0-1.32-.76h0a1.58,1.58,0,0,0-1.33.9L915.38,144l-2.67-1.44v-3.5c0-4.4,0-8.55-.11-12.78a6,6,0,0,0-1.76-3.59,2.14,2.14,0,0,0-1.49-.61c-2.3.13-2.38-.57-2.56-2.94,0-.47-.08-.95-.14-1.4a17.24,17.24,0,0,0-1.78-5.09c-1-2.16-2.14-4.28-3.26-6.46l-1.69-3.29a1.38,1.38,0,0,0-.69-.65L896.38,101c0-.05,0-.11,0-.16-.17-1.24-.24-2.51-.33-3.78-.21-3.16-.43-6.43-1.78-9.25a14.85,14.85,0,0,1-1.42-6c-.11-1.74-.08-3.48-.06-5.24,0-.81,0-1.62,0-2.44a1.4,1.4,0,0,0-.72-1.23,1.39,1.39,0,0,0-1.42,0c-.45.27-.91.6-1.37.92-.22.17-.54.38-.78.55a9.42,9.42,0,0,1-1.66-2.48,3.09,3.09,0,0,1,0-.89,5.67,5.67,0,0,0-.2-1.88,14.3,14.3,0,0,0-1.29-2.57c-.2-.33-.41-.67-.58-1a1.43,1.43,0,0,0-1.09-.73,1.38,1.38,0,0,0-1.22.47c-.21.24-.45.48-.67.71a10.18,10.18,0,0,0-1.76,2.2,20.59,20.59,0,0,0-1.24,3l-.18.49c-1,0-1.67-.12-1.92-.45s-.59-1.11.55-4.11a1.4,1.4,0,0,0-.52-1.68,1.42,1.42,0,0,0-1.76.14c-.67.63-1.24,1.2-1.75,1.71a14.51,14.51,0,0,1-2.47,2.18,6.89,6.89,0,0,1-2.19.74c-1.89-2-4.3-2.57-6.45-3.06a14.89,14.89,0,0,1-3.34-1l0-.14a.71.71,0,0,1,.11-.07c.07-.07,0-.09-.12,0,0-.16-.06-.32-.08-.48a11.6,11.6,0,0,0-.91-3.5c-1.09-2.17-2.34-4.23-4.16-4.57-3.17-.57-5.14-2.43-6.59-6.22a12.22,12.22,0,0,1-.57-2.6,10.74,10.74,0,0,0-1.12-4,64,64,0,0,0-4.9-7c-.62-.82-1.23-1.61-1.8-2.39a1.45,1.45,0,0,0-1.36-.56,1.42,1.42,0,0,0-1.12.95c-1.53,4.56-3,6.9-4.89,7.6s-4.27,0-7.91-2.16a1.45,1.45,0,0,0-1.15-.13,1.43,1.43,0,0,0-.86.77l-1.92,4.27-.1-1.22c-.16-2.08-.32-4.15-.4-6.23-.34-8.18-3.74-11.7-11.74-12.17l-3.64-.24a26.72,26.72,0,0,1-8-7.81c-.45-.67-.7-1-1.23-1.27-1.26-.51-2.74-2.48-4.18-4.39s-3-4-4.78-5.07a6.09,6.09,0,0,0-.87-1.58,4.08,4.08,0,0,1-.92-2.21,1.42,1.42,0,0,0-2.27-1c-.73.56-1.19.94-1.54,1.22A13,13,0,0,1,778.28,5a1.94,1.94,0,0,1-.56-.12,3.49,3.49,0,0,0-.82-2.24c-1.17-1.35-3.08-1.33-4.42-1.32a6.11,6.11,0,0,0-2.06.46,1.42,1.42,0,0,0-1.13.57c-.08.11-.5.37-1.58.38a12.91,12.91,0,0,1-1.53-.85l-.4-.24c-1.67-1-3.29-2-5.84-1.55-4.12.65-5,4.6-5.66,7.48l-.09.35L754,7.87a24.26,24.26,0,0,0-3.31-.64,47,47,0,0,0-6.42,0l-1.08,0c-3.47.13-3.72,2.55-3.87,4a6,6,0,0,1-.35,1.72c-.53,1.33-1.81,1.51-4.37,1.58l-.72,0a1.41,1.41,0,0,0-1.33,1.17,27.07,27.07,0,0,0-.24,5.24l-.26.13-1.73.88-.85,0a27.11,27.11,0,0,0-5.25.51c-3,.69-6,2.93-8.3,4.8a25,25,0,0,0-1.92,1.87c-1.45,1.5-2.94,3.05-4.55,3.05a6.64,6.64,0,0,1-1.23-.09,5.45,5.45,0,0,0-4.55,1,7.17,7.17,0,0,0-1.75,2.61,7.61,7.61,0,0,1-.65,1.22,21.57,21.57,0,0,1-1.75,2,18.44,18.44,0,0,0-1.56,1.79,17,17,0,0,0-4,3.94,110.59,110.59,0,0,0-8,15.31c-.53,1.17-1.07,2.35-1.61,3.52-.57-.27-1.14-.58-1.73-.89a20.61,20.61,0,0,0-4-1.79,23.48,23.48,0,0,0-4.82-.71c-.62-.41-3-1.59-4.51-1a6.64,6.64,0,0,0-.73.36,2,2,0,0,0-.32.13,1.23,1.23,0,0,0-.25.17c-1.15.57-2.24,1.22-3.2,1.81-.13-.39-.24-.76-.36-1.13-.6-1.91-1.17-3.7-2.51-4.82C659.68,53.84,659,52,659.52,49a26.94,26.94,0,0,0,.15-5.25c0-.82-.06-1.66-.06-2.54a1.41,1.41,0,0,0-1.82-1.35c-1.83.55-3.55,1.18-5.18,1.78-3.32,1.22-6.23,2.27-8.86,2.12-4.34-.22-6.51,1-7.2,4.34l-1,.27a10.35,10.35,0,0,0-3.82,1.52,5.92,5.92,0,0,0-1.12,1.16,2.19,2.19,0,0,0-1-.09l.51.16a4.49,4.49,0,0,1-.66,0c-.09.2-.41.23-.74.28,0-.09-.13-.19-.16-.27-1-2.6-1.93-5.23-2.87-7.85l-1.13-3.18A4.69,4.69,0,0,0,621,36.82a3.7,3.7,0,0,0-3.51,1.46c-.48.61-1,1.2-1.53,1.79-2.38,2.71-5.1,5.78-4.58,10.61.46,4.19-2.28,6-4.67,6.82a16.88,16.88,0,0,1-2.71.56c-2,.31-4,.62-5.36,2-2.62,2.85-4.32,6.71-5.75,10.44a20.81,20.81,0,0,0-1,5.92c0,.35,0,.7-.08,1l-2.49-.35a1.41,1.41,0,0,0-1.6,1.4l0,2.06c0,1.31,0,2.52,0,3.71a46.43,46.43,0,0,1-.82,6.48,11.65,11.65,0,0,1-.73,2,9.5,9.5,0,0,0-1,3.41c-.17,3.63-.88,5.84-2.74,7.31h-.12l.07,0a11.75,11.75,0,0,1-4.42,1.9l-2.14-16.06a1.41,1.41,0,0,0-2.58-.59c-1.42,2.14-1.67,4.63-1.92,7a14.57,14.57,0,0,1-1.23,5.47l-.17-.3a19.08,19.08,0,0,0-2.76-3.8,24.74,24.74,0,0,0-4.12-3l-1.61-1a11.6,11.6,0,0,1-3.71-6.31,13.61,13.61,0,0,1,.27-4.18,18,18,0,0,0,.37-4.41A94,94,0,0,0,557,68.8c-.22-1.23-.45-2.46-.64-3.67a2.1,2.1,0,0,0-.55-1.08c-3.55-4-7.2-2.08-9.86-.68-.41.22-.82.43-1.21.63a9.58,9.58,0,0,0-2.46,1.89l-.59.56a2.1,2.1,0,0,0-.55,1.81c-.08,1.57-.14,3.14-.2,4.72-.12,3.11-.23,6.23-.5,9.32-.11,1.3-.16,2.62-.2,3.95-.13,4.41-.25,8.61-3.15,12l-2.36-12.71a1.4,1.4,0,0,0-2-1c-5,2.34-6.17,6.77-7.16,10.67-.7,2.77-1.36,5.38-3.27,7.31a8,8,0,0,1-4,2.68,16.89,16.89,0,0,1-3,.52c-2.84.33-6.63.76-8.21,4.84a2.34,2.34,0,0,0-2.48.34c-.55.57-1.16,1.11-1.76,1.64-2.32,2.07-5,4.42-5,8.67a66.83,66.83,0,0,1-.77,9.05c-.13.89-.21,1.9-.29,2.92-.17,2-.42,5.13-1.27,5.67-3.43,2.2-4.07,5.15-4.64,7.75a20.7,20.7,0,0,1-.62,2.41c-.17.51-.32,1-.47,1.57l-.4-.2a1.41,1.41,0,0,0-2,1,32.39,32.39,0,0,1-.9,3.71l-.64-.18a1.43,1.43,0,0,0-1.73.88c-.17.48-.31,1-.46,1.45a10.79,10.79,0,0,1-.91,2.44,15.82,15.82,0,0,1-1.58,2,9.13,9.13,0,0,0-2.6,4.26c-1,5.71-5.58,7.82-10,9.86-.75.35-1.48.69-2.19,1a31.9,31.9,0,0,0-9.13,7.05,19.35,19.35,0,0,1-3.71,2.82c.25-4.14-3.21-5.86-5.46-7l-.58-.29a1.39,1.39,0,0,0-1.47.12l-11.5,8.41-3.44-3.78a1.41,1.41,0,0,0-2.36.46V183a1.4,1.4,0,0,0-.44-1,1.53,1.53,0,0,0-1-.39l-.76,0a1.41,1.41,0,0,0-1.27.94L422,191.7a10.83,10.83,0,0,1-.28-1.13,5.45,5.45,0,0,1-.08-1,4.94,4.94,0,0,0-.51-2.46l-.28-.5a17.92,17.92,0,0,0-4-5.32c-1.47-1.17-5-.9-6.2.45a10.07,10.07,0,0,0-1.92,3.48,11.93,11.93,0,0,1-1.07,2.25,9,9,0,0,1-2.14,1.92h0l-.11-.16a8.67,8.67,0,0,1-1.46-2.9,8.13,8.13,0,0,1,.26-2.88,18.11,18.11,0,0,0,.37-2.45l0-.49c.12-1.75.25-3.72-.9-4.88-1-1-2.53-.82-3.9-.67h0l-1.34-6.89a1.43,1.43,0,0,0-1.53-1.14l-1.73.19c-1.21.13-2.24.25-3.29.31-.8.05-1.63,0-2.61,0h-.62l-.25-.74a1.39,1.39,0,0,0-.84-.86,1.37,1.37,0,0,0-1.19.08c-4.94,2.75-7.89,5.88-9.56,10.16-1.41,3.67-3,6-6.14,6l-1.2-2.57a1.42,1.42,0,0,0-.91-.78,1.36,1.36,0,0,0-1.19.21l-5,3.57v-3.29a1.41,1.41,0,0,0-.89-1.31l-1-.39a1.4,1.4,0,0,0-1.67.56l-2.08,3.21c-1.13,1.74-2.26,3.49-3.35,5.24-.39.61-.75,1.25-1.1,1.89a24.31,24.31,0,0,1-1.72,2.79c-.53-.3-1.25-.77-1.74-1.08l-1.13-.71c-.7-.43-1.36-.91-2-1.39l-1.09-.77a1.41,1.41,0,0,0-2.09.59l-1.28,2.89-5.12-.83-6.37-14.27a1.4,1.4,0,0,0-1.08-.82,1.38,1.38,0,0,0-1.27.48c-.87,1-1.75,2-2.62,3a69.18,69.18,0,0,0-5.91,7.18c-.92,1.33-1.4,1.21-3,.8l-1.73-.42c-2.45-.61-5-1.23-6.24.16-1.67,1.86-3.79,1.9-6.24,2a15.33,15.33,0,0,0-4.83.63l.63-1.39a1.41,1.41,0,0,0-.32-1.61,1.4,1.4,0,0,0-1.63-.21c-.69.37-1.32.65-1.86.88-1.27.57-2.28,1-2.48,2.14-.5,2.88-2.73,4.06-5.31,5.43s-5.2,2.76-6.35,6l-.17.12c-.63.57-1.28,1.12-1.92,1.67a55.22,55.22,0,0,0-4.82,4.48c-1,1.09-1.52,1.23-3.19.86s-4.69-.14-6,1.47a21.41,21.41,0,0,0-4.53,8.25c-.58,2.37-2.3,3.61-4.28,5a15,15,0,0,0-4.17,4l-.66,0,1.06-3.84a1.42,1.42,0,0,0-1.8-1.72c-.78.25-1.54.43-2.25.6a8.93,8.93,0,0,0-4.25,1.79c-2.78,2.59-5.43,5.39-8,8.1-1.35,1.43-2.7,2.86-4.07,4.26a2.13,2.13,0,0,1-1.1.61h0c-1.4,0-2.8-.18-4.29-.35l-.47,0,.12-1.74a1.38,1.38,0,0,0-.52-1.21c-.65-.52-1.22-1-1.73-1.45a16.59,16.59,0,0,0-3.26-2.38c-2.29-1.14-4.14-1.59-5.7-1.35-4.81.7-6,4.85-6.52,7.92A5.93,5.93,0,0,1,204,239a1.44,1.44,0,0,1-1.26.13,6.76,6.76,0,0,0-8,.54l-.49-.29a13.81,13.81,0,0,0-2.87-1.45c-4.74-1.54-6.6,2.34-7.59,4.43-1.7,3.57-4.88,5.77-9.18,6.54a9,9,0,0,1-1.65-1.62,19.69,19.69,0,0,0-1.56-1.64,1.4,1.4,0,0,0-1.58-.21l-1.79.92L166.9,244c-1.27-2.52-2.47-4.89-3.53-7.36a4.6,4.6,0,0,0-2.84-2.93c-1.67-.46-3.18.46-4.2,1.19a12.83,12.83,0,0,0-1.62,1.45l-1.24-2.66a1.42,1.42,0,0,0-1.71-.75l-12,3.93c-.43.14-.88.26-1.34.38a9.76,9.76,0,0,0-3.87,1.64,45.42,45.42,0,0,0-4.69,4.67l-.87.94-1.85-3.19a1.41,1.41,0,0,0-1.51-.67L119.18,242l-.94-3.25a1.44,1.44,0,0,0-1.58-1l-10.58,1.67a1.41,1.41,0,0,0-1,.7,1.47,1.47,0,0,0-.08,1.23c.14.32.32.68.53,1.06a11.62,11.62,0,0,1,.53,1.08,8.61,8.61,0,0,1-1.94-.18,1.88,1.88,0,0,0-1.55.55c-1.58.86-2.63,1.17-3.25,1s-1.23-1.09-1.89-2.68a1.4,1.4,0,0,0-1.48-.8,1.47,1.47,0,0,0-1.23,1.23l-.06.36-1.2-1.78a1.38,1.38,0,0,0-1.29-.62,1.41,1.41,0,0,0-1.17.84l-1.38,3.16-4.07-3.64a1.44,1.44,0,0,0-1.32-.31,1.41,1.41,0,0,0-1,1l-1.8,6-1.08-2.16a1.49,1.49,0,0,0-1.34-.78,1.4,1.4,0,0,0-1.25.92q-.42,1.14-.79,2.21c-.48,1.37-.91,2.66-1.49,3.89-.26.57-.51,1.2-.76,1.83-.64,1.61-1.37,3.44-2.34,4-2.9,1.69-4.21,4.11-5.48,6.44-.39.72-.79,1.45-1.24,2.16-1.93,3.06-4.36,5.19-5.11,5.19h0c-4.83-.73-7,2.32-8.62,4.58a13.44,13.44,0,0,1-1.64,2.06c-2.22,2-4.66,2.95-6.2,2.26-4-1.75-7.49-1.06-10.89-.4-.89.17-1.78.35-3,.54L.95,290.38a1.4,1.4,0,0,0-.86,1.79,1.39,1.39,0,0,0,1.79.87l29-10.05c1-.13,1.89-.31,2.83-.49,3.12-.6,6.08-1.16,9.23.22,2.64,1.15,6.12.12,9.25-2.78a15.68,15.68,0,0,0,2-2.51c1.7-2.42,2.91-3.88,5.87-3.41,3.58.48,7.53-5.75,8-6.46s.91-1.55,1.33-2.32c1.19-2.18,2.21-4.06,4.42-5.36,1.82-1.07,2.69-3.27,3.54-5.4.23-.58.47-1.16.7-1.69.48-1,.88-2.08,1.26-3.19l.46.92a1.4,1.4,0,0,0,1,.76l1.08.19a1.4,1.4,0,0,0,1.59-1l1.81-6L89.19,248a1.44,1.44,0,0,0,1.25.33,1.43,1.43,0,0,0,1-.82l1.13-2.58,1.77,2.63a1.39,1.39,0,0,0,1.48.59,1.4,1.4,0,0,0,1.08-1.17c0-.11,0-.21,0-.31a4.28,4.28,0,0,0,1.44.88c1.87.65,3.84-.22,5.52-1.13l.26-.18c1.63.25,3.5.28,4.39-1,.76-1,.39-2.27-.11-3.33l7.44-1.18,1,3.32a1.38,1.38,0,0,0,1.64,1l6.77-1.43,2.28,4a1.4,1.4,0,0,0,1.06.69,1.37,1.37,0,0,0,1.19-.42c.78-.82,1.5-1.61,2.19-2.36a42.51,42.51,0,0,1,4.39-4.39,7.66,7.66,0,0,1,2.79-1.1c.51-.13,1-.27,1.52-.43L151.45,236,153,239.4a1.42,1.42,0,0,0,2.27.41c.45-.44.83-.83,1.17-1.17a12.76,12.76,0,0,1,1.53-1.42c1.16-.82,1.63-.8,1.8-.76s.68.57,1,1.33c1.1,2.54,2.31,5,3.61,7.51.57,1.14,1.16,2.3,1.73,3.48-.24.11-.53.23-.69.32l.06,0c.62-.15.28,0,.2.09l-.28.1c-.58.21,1.19-.27.16,0a.66.66,0,0,1,.43.51c.4-.09,0,.17.74-.11-.83.32-1,.54-.94.59s-.17,0-.15,0c-1.06.46,1.06-.19-.25.34,1-.28-.24.28.88,0l-.56.19c0,.19-.24.5-.24.67.88-.12-.28.44.9.2-.21.17-.64.47-.15.46l-.15,0c.12.13.23.3,1,.18a3.51,3.51,0,0,0-1.19.55c.54-.06.45.19,1,.2-.51.18.25.06-.49.29,1.57,0,1.23.68.28,1.46l1.83-.34a.5.5,0,0,1-.18,0c.17,0-.54.34-.38.38l-.24.06c.35,0-.55.33.06.26l-.19.06.29,0c-.24.07-.61.18-.54.12,0,.78,1.42,1.17,1.44,2l-.23,0,.45,0-.24.05c-.37.3.38.3.32.51a2.91,2.91,0,0,0-.5.13c.7-.05-.82.46.59.14l-.5.13a.78.78,0,0,1,.51,1.06c1.34,0,.29.63,1.37.68l-.25.07c1,.18.17.88.45,1.27,0,.21.28.25.34.43l-.31.08c1.28,0-.91.92.49.9l-.43.09c.67-.12-.19.25.94-.05l-.32.14c1.55-.16-.6.57.45.59l-.27.05c.22,0,.41.06.17.17l-.19,0c-1,.49.23.44.25.68l-.5.1c.61,0,.12.31.43.39l-.24,0h.36l-.48.12c0,.2.48.28.57.46l-.44.1c.82,0,.09.38.48.48l-.17,0c0,.51.79.77,1.24,1.16l-.23,0c.16,0,.44,0,.41,0a.93.93,0,0,1-.24,0c-.69.27.53.19,0,.38a2.4,2.4,0,0,0,.61-.11,2.53,2.53,0,0,0,1.17.93,2.72,2.72,0,0,1-.54.13c1.24.06.87.51.77.87.3-.05.31-.1.64-.14.35-.19-.81,0-.27-.25l.3,0c.17-.11-.75.15-.39,0a3.88,3.88,0,0,1,.4-.09c-.17-.12.07-.34-.69-.32.63-.18,0-.17.59-.36a2.75,2.75,0,0,0-.63,0c.2-.59-.55-1-.64-1.52-1.3,0,.1-.6-.4-.8l.13,0c-.32,0-.51-.13-.38-.28l-.55,0c.9-.94,0-1.46.23-2.27.11-.87.81-1.8-1-2.16a.77.77,0,0,1,.24,0c-.31-.16.08-.48-.23-.62l.13,0c-1.15-.25-.15-1.12-1.37-1.33a3.23,3.23,0,0,0-.81-1.86l.24-.07c-.64-.37.51-1.23,0-1.64.42-.69-1.66-.69-1.1-1.42,1.09-.68-1.58-.35-.45-1,1.65-1.18.28-1.44-1-1.73.48-.79-1.38-.84-.21-1.82-.48,0-.24-.23.06-.48.1,0,.2,0,.27,0l2.15-1.1c.22.24.44.49.66.74,1.25,1.42,2.42,2.76,4,2.53,5.44-.9,9.41-3.7,11.51-8.1,1.41-3,2.27-3.57,4.17-3a11.55,11.55,0,0,1,2.29,1.18c.45.27.91.55,1.42.83a1.43,1.43,0,0,0,1.64-.2c1.88-1.75,3.44-2,5.55-.82a4.1,4.1,0,0,0,3.86-.07,8.74,8.74,0,0,0,4.42-6.22c.58-3.62,1.78-5.23,4.14-5.58a7.42,7.42,0,0,1,4,1.08,14.68,14.68,0,0,1,2.68,2c.38.33.79.68,1.23,1l-.17,2.37a1.41,1.41,0,0,0,1.26,1.5l1.81.19c.78.09,1.51.11,2.26.18,0,.09,0,.15.43.35-.83-.34-1.15-.21-1.17-.11s-.15-.09-.12-.09c-1.1-.38.84.71-.5.2.87.5-.43.14.54.78a4.13,4.13,0,0,1-.53-.26c-.17.28-.65.42-.83.64.66.62-.61.31.35,1.06-.3,0-.87,0-.56.46l-.12-.09c-.06.27-.17.58.42,1.1a2.25,2.25,0,0,0-1.28-.34c.39.41.09.64.38,1.11-.49-.22.1.3-.59-.05,1,1.37.07,1.94-1.31,2.11l1.48,1.16c-.06,0-.17-.09-.16-.1.06.2-.68,0-.62.15a1,1,0,0,1-.21-.14c.24.28-.67,0-.22.38l-.18-.09.2.23c-.22-.12-.56-.31-.46-.32-.26.33-.13.18-.13.39s0,.18,0,.3a4.49,4.49,0,0,1-.42.59,2.82,2.82,0,0,1-1.1.95l-.09-.23v.5a1,1,0,0,1-.11-.23c-.5-.21-.41.58-.73.65a2.16,2.16,0,0,0-.26-.44c.16.71-.79-.58-.14.71a2.14,2.14,0,0,1-.26-.44,1.94,1.94,0,0,1-1.56,1.2c.22,1.4-.9.7-.84,1.88l-.14-.22c-.14,1.16-1.3.73-1.84,1.28-.32.08-.34.45-.59.63l-.17-.27c.21,1.32-1.54-.35-1.26,1.1l-.21-.39c.3.62-.41,0,.25.95l-.27-.25c.52,1.5-1-.24-.8.86l-.13-.25c0,.25,0,.47-.22.3,0,0-.06-.1-.08-.18-.92-.71-.6.54-1,.72l-.25-.46c.17.62-.44.34-.5.71l-.12-.21.08.36-.27-.41c-.29.16-.32.69-.55.92l-.23-.38c.19.83-.54.35-.61.82l-.07-.15c-.77.33-1,1.37-1.39,2.11l-.12-.2c.06.15.19.4.14.4a.72.72,0,0,1-.13-.22c-.57-.48-.11.67-.54.28a1.45,1.45,0,0,0,.34.52,3.35,3.35,0,0,0-.87,1.86,2.48,2.48,0,0,1-.39-.4c.4,1.19-.22,1.22-.52,1.26l-.21-.13c.29.18.06.05.2.13h0l0,0-.39-.14.44.16.43.28c-.12-.15-.22-.35.06-.18l.21.21c.2.07-.55-.52-.2-.33a2.8,2.8,0,0,1,.31.27c0-.21.31-.13,0-.81.48.45.2-.14.68.27a2,2,0,0,0-.3-.56c.8-.25,1.13-1.27,1.85-1.76-.41-1.27.88-.33,1-1l.07.11c0-.35.06-.61.31-.59l-.17-.53c1.58.25,2.13-1.05,3.38-1.32,1.3-.47,2.77-.34,3-2.45.07.11.11.16.11.22.18-.42.72-.22.88-.63l.07.1c.2-1.36,1.63-.85,1.78-2.26a9.15,9.15,0,0,0,2.68-2l.13.22c.49-.91,1.9-.21,2.45-1,.46,0,.86-.55,1.05-1,0-.75-.13-1.28.47-1.54,1.36.09-.62-1.82.76-1.68,2.22,0,1.63-1.57,1.13-3.08,1.09-.56,0-2.29,1.71-2.48-.57-.83,1.44-.33,1.46-.91l-.28-.13c.51.16.16-.15,0-.37l.41,0h0a3.53,3.53,0,0,0,1.2-.25c.06,0,.14.07.18.12s.09-.06,0-.18a5.49,5.49,0,0,0,1.76-1.14c1.39-1.42,2.75-2.86,4.12-4.3,2.53-2.68,5.13-5.44,7.86-8a7.14,7.14,0,0,1,3-1.1h0l-.87,3.15a1.42,1.42,0,0,0,.23,1.23c.51.66,1.49.55,2.39.63,1.44.14,2.77.26,3.39-.88a11.71,11.71,0,0,1,3.66-3.53c2.12-1.54,4.52-3.28,5.36-6.66a19,19,0,0,1,4-7.13,4.56,4.56,0,0,1,3.23-.51c2.27.5,4,.38,5.87-1.71a51.71,51.71,0,0,1,4.58-4.25l1.73-1.5a1.65,1.65,0,0,0,1-1c.61-2.51,2.71-3.63,5.15-4.92,2.23-1.18,4.69-2.49,6-5.07a1.43,1.43,0,0,0,1,.69,4.17,4.17,0,0,1,.46.1,2.24,2.24,0,0,0,1.92-.18c1.4-1,3.13-1,5.12-1.07,2.71-.06,5.79-.12,8.11-2.75.55-.21,2.63.31,3.64.56l1.7.41.19,0a3.35,3.35,0,0,1-.19.44c.34.23-.15.19.57.5-.82-.36-1.12-.26-1.14-.16s-.14-.09-.12-.09c-1.09-.4.84.68-.47.15.87.5-.42.1.57.73a5.14,5.14,0,0,1-.54-.27c-.16.24-.61.34-.77.53.67.6-.58.25.4,1-.29,0-.85,0-.53.38l-.12-.09c0,.23-.13.52.47,1a2.58,2.58,0,0,0-1.25-.39c.39.39.11.59.42,1-.48-.23.11.28-.57-.09,1,1.29.16,1.75-1.16,1.82l1.49,1.14c-.06,0-.17-.08-.16-.1.07.18-.65-.08-.58.1a.9.9,0,0,1-.21-.14c.24.27-.65-.08-.19.33l-.19-.09.2.22c-.21-.12-.55-.32-.46-.32-.75.83-.1,2.49-.84,3.35l-.19-.16.26.4a1.87,1.87,0,0,1-.2-.14c-.51,0,0,.63-.26.81a2.46,2.46,0,0,0-.44-.26c.51.52-.94-.17.25.63a3.69,3.69,0,0,1-.44-.26,1.5,1.5,0,0,1-.65,1.58c.9,1.06-.38.92.28,1.86l-.22-.13c.49,1-.7,1.1-.86,1.75-.23.18,0,.5-.17.74l-.28-.15c.86,1-1.45.29-.5,1.38l-.37-.25c.56.4-.35.14.69.68l-.35-.1c1.2,1-.9.17-.21,1l-.23-.16c.14.2.23.39,0,.33,0,0-.1-.06-.16-.12-1.12-.24-.22.67-.43,1l-.44-.28c.45.44-.19.44-.06.77l-.2-.13.24.26-.43-.23c-.17.24.08.68,0,1l-.39-.22c.57.61-.27.48-.11.89l-.13-.09c-.49.54-.16,1.45-.17,2.23l-.2-.13c.12.1.36.26.31.28a.67.67,0,0,1-.21-.14c-.72-.19.23.59-.31.43a1.65,1.65,0,0,0,.54.3,3,3,0,0,0,.16,1.79,2.49,2.49,0,0,1-.53-.17c.92.82.29,1-.1,1.4a6,6,0,0,1,.63.19c.44,0-.62-.46,0-.4l.28.11c.22,0-.72-.25-.3-.22a3.53,3.53,0,0,1,.39.12c0-.22.31-.3-.3-.72.63.18.12-.19.73,0a2,2,0,0,0-.54-.34c.62-.49.33-1.39.69-2-.94-.91.6-.59.44-1.17l.11.06c-.2-.27-.23-.52,0-.59l-.41-.38c1.46-.37,1.27-1.65,2.17-2.34.84-.88,2.12-1.33,1.23-3.15.12.06.18.09.2.14-.06-.42.49-.45.41-.85l.12.06c-.53-1.19.91-1.33.3-2.54a6.92,6.92,0,0,0,1.16-2.68l.22.13c-.08-.93,1.47-.91,1.49-1.79.88-.42-.5-2.14.55-2.46,1.31.16-.69-1.69.64-1.48,2.15.09,1.5-1.32.93-2.72,1-.44-.12-2.06,1.52-2.14-.59-.78,1.38-.22,1.37-.73l-.28-.13c.91.31-1-.95.29-.37l0,0c.48.19-.42-.37-.69-.59a4.73,4.73,0,0,0,1,0l.2.09s.59.22.83.49c.17,0,.17-.15-.44-.46l-.32-.17a4.7,4.7,0,0,0,3.05-2.23,66,66,0,0,1,5.67-6.88l1.21-1.34,5.78,13a1.41,1.41,0,0,0,1.07.82l6.93,1.12a1.38,1.38,0,0,0,1.52-.82l1-2.31c.6.43,1.22.86,1.85,1.25l1.08.68c2.47,1.59,3.72,2.39,4.75,1.31a19.76,19.76,0,0,0,2.69-4c.33-.6.67-1.19,1-1.77,1.09-1.74,2.22-3.48,3.33-5.21l.47-.71v3.14a1.41,1.41,0,0,0,.76,1.25,1.43,1.43,0,0,0,1.47-.11l5.85-4.17.85,1.82a1.42,1.42,0,0,0,1.14.81,9.18,9.18,0,0,0,2.21,0c.15.32-.41.36.23.78-.76-.5-1.3-.27-1.43-.09,0-.07-.11-.14-.07-.14-1.09-.53.42,1.08-.83.35.66.74-.7.25,0,1.23a2,2,0,0,1-.45-.39c-.5.46-1.27.73-1.7,1.1.27,1-1.11.55-.55,1.7-.43.07-1.18.1-1.18.79l-.07-.14a1.74,1.74,0,0,0-.5,1.76c-.93-.7-.93-.37-1.36-.47.13.63-.5,1-.56,1.78-.43-.32-.16.48-.73,0,0,2.15-1.76,3.14-3.73,3.52.16.46.61,1.25.84,1.78-.06,0-.15-.12-.12-.16-.12.32-.84,0-1,.31-.09-.09-.08-.1-.12-.23,0,.53-1.29.27-.88,1.14l-.19-.07.14.44c-.23-.11-.57-.27-.43-.42-1.34,2.68-.84,5.51-1.9,8l-.2-.17.24.63a.71.71,0,0,1-.22-.13c-.62.5-.16,1.38-.46,2-.12,0-.32-.21-.49-.17.5.67-1.11.46.2,1.12a1.29,1.29,0,0,1-.49-.16,8.43,8.43,0,0,1-.93,3.94c1,1.45-.53,2.31.16,3.71l-.25-.08c.48,1.69-.9,2.95-1.15,4.49-.28.59-.1,1.09-.26,1.72l-.31-.07c.89,1.36-1.73,1.92-.64,3.38l-.41-.19c.62.34-.39.61.77.84l-.39.11c1.32,1.13-1,1.19-.25,2.36l-.25-.13c.16.3.25.63,0,.74,0,0-.12,0-.17-.12-1.25.5-.26,1.65-.49,2.45l-.49-.21c.51.53-.21,1.12-.06,1.7l-.23-.09.27.34-.48-.1a16,16,0,0,0,0,2.05l-.42-.13c.63.79-.31,1.29-.13,2l-.15-.08c-.54,1.59-.17,3.26-.2,4.95l-.21-.11c.13.11.39.25.33.34a.37.37,0,0,1-.23-.11c-.8.19.22,1.1-.38,1.2a.77.77,0,0,0,.58.21,34.24,34.24,0,0,1-.79,4.39,1,1,0,0,1-.51-.23c.44,1.66-.72,2.43-1.37,3.19.26.18.33.09.57.32.42,0-.36-.89.3-.87l.23.2c.29-.1-.61-.45-.15-.45.26.05.3.23.35.2.17-.51.7-.78.36-1.65.62.23.33-.5,1-.37-.15-.26,0-.35-.36-.61a6.82,6.82,0,0,0,1.27-3.08,19.08,19.08,0,0,1,.4-2.76c-1-1.12.67-1.82.49-2.91l.13,0a1.21,1.21,0,0,1,0-1.27l-.45-.45c1.62-2.12,1.42-4.71,2.42-7,1-2.65,2.3-4.82,1.49-7.85.12,0,.2,0,.21.11,0-.82.6-1.39.55-2.17l.12,0c-.51-2.05,1.19-3.64.58-5.66a52,52,0,0,0,1.66-6.71l.24.09c.08-1.91,1.9-3.16,2.1-5,1.17-1.52-.23-4.28,1.5-5.5,1.7,0,.92-2.92,2.61-2.79,3-.24,3.65-2.67,4.43-5.09,2-1,2.19-3.71,4.61-4.15,0-1.31,2.22-.64,2.79-1.58l-.25-.19c.94.4-.33-1.54.84-.71v.07c.65.36-.86-1.52-.17-1l-.16-.19.1-.06c.11.09.22.22.37.2s-.11-.19-.19-.31l.11-.06c.8.69.15-.66,1.25.41-.1.09.59.29.61.75.18.05.42-.29-.1-.75a10.34,10.34,0,0,0-.94-1,14.18,14.18,0,0,0,3.86-6.05,15.73,15.73,0,0,1,6.85-7.86h0c.4.89.81,1.2,1.58,1h1.31c1.06,0,1.94,0,2.81,0,1.09-.06,2.17-.18,3.43-.32l.43,0,1.33,6.86a1.42,1.42,0,0,0,1.39,1.14,13.78,13.78,0,0,0,1.47-.12c.54-.06,1.34-.16,1.57-.16a7.37,7.37,0,0,1,.1,2.71l0,.53a15.07,15.07,0,0,1-.32,2.05,10.47,10.47,0,0,0-.27,3.94,11,11,0,0,0,1.88,3.94c.3.46.6.91.86,1.37a1.42,1.42,0,0,0,1,.7,1.45,1.45,0,0,0,1.16-.31c.36-.3.76-.59,1.15-.88a11,11,0,0,0,2.79-2.6,13.55,13.55,0,0,0,1.37-2.82,8.26,8.26,0,0,1,1.33-2.56,3.55,3.55,0,0,1,2.41-.19,15.76,15.76,0,0,1,3.32,4.51l.29.51a3.35,3.35,0,0,1,.13,1.12,8.06,8.06,0,0,0,.13,1.49,21,21,0,0,0,.58,2.14l.29,1a1.42,1.42,0,0,0,1.28,1l1.51.09a1.31,1.31,0,0,0,1.42-.93l1.89-5.3v.45a1.41,1.41,0,0,0,1.16,1.39l1.13.2a1.39,1.39,0,0,0,1.58-.93l.83-2.42,2.7,3a1.4,1.4,0,0,0,1.87.19L447,182.28c2.9,1.43,4.92,2.55,3,6.9-.22-.17-.51-.42-.7-.54l0,0c.37.52.06.3,0,.27l-.21-.21c-.43-.44.68,1,0,.19a1.3,1.3,0,0,1-.52.81c.23.33-.2.13.36.67-.65-.61-1-.62-1-.54-.06-.07-.12-.14-.09-.12-.88-.75.55.93-.5,0,.64.76-.43,0,.28.89a4,4,0,0,1-.41-.43c-.23.17-.71.11-.92.24.42.79-.64,0,0,1.05-.27-.09-.79-.31-.62.19l-.09-.12c-.13.21-.3.45.08,1.12a2.55,2.55,0,0,0-1-.79c.23.5-.11.59,0,1.11-.38-.37,0,.3-.53-.27.5,1.56-.47,1.71-1.74,1.33l1,1.58s-.14-.14-.12-.15c0,.2-.6-.29-.6-.1a.7.7,0,0,1-.15-.2c.14.34-.59-.3-.31.25l-.14-.15.12.27c-.17-.19-.42-.48-.32-.45a1.46,1.46,0,0,0-.52.49v.36c0,.3-.78.89-1.45,1.05l0-.24-.09.49a1.39,1.39,0,0,1-.06-.24c-.47-.3-.5.51-.82.55a1.84,1.84,0,0,0-.21-.46c.11.72-.79-.62-.2.7a2.9,2.9,0,0,1-.24-.45,3.52,3.52,0,0,1-1.61,1.53c.56,1.19-.68,1.28,0,2.18l-.25-.07c.55.81-.58,1-.92,1.42-.25.11-.17.45-.35.66l-.21-.24c.46,1.26-1.44-.29-1,1.07l-.23-.37c.35.59-.37,0,.35.91l-.28-.23c.64,1.46-.88-.23-.65.81l-.14-.25c0,.24,0,.45-.18.28,0,0-.06-.11-.09-.18-.89-.74-.52.48-.85.64l-.24-.46c.19.61-.37.3-.42.65l-.12-.22.08.35-.25-.42c-.27.11-.29.62-.51.81l-.21-.39c.17.82-.49.27-.55.71l-.07-.15c-.69.21-.91,1.15-1.37,1.8l-.09-.21c0,.15.15.42.09.4a1,1,0,0,1-.1-.23c-.48-.58-.17.62-.52.16a1.77,1.77,0,0,0,.25.56,3.87,3.87,0,0,0-1.13,1.59,2.3,2.3,0,0,1-.27-.48c.1,1.29-.59,1.09-1.13,1.14.12.29.2.28.28.59.32.28-.06-.82.32-.37l.12.28c.18.13-.31-.7,0-.39a3,3,0,0,1,.18.36c.15-.21.49-.07.35-.82.34.56.23-.09.59.43a2,2,0,0,0-.16-.62c.87-.06,1.31-1,2-1.34-.27-1.29.84-.18,1-.77l.07.11c0-.34.09-.58.32-.53l-.15-.54c1.47.42,2-.79,3.17-1s2.73-.4,2.63-2.5c.09.1.14.14.15.2.1-.45.67-.37.74-.81l.09.09c-.18-1.15,1.4-2,.57-2.77a18.26,18.26,0,0,1,1.9-2l.11.23c.5-.85,1.61.2,2.24-.38a.87.87,0,0,0,.75-.14c.5-.81.21-1.88,1.07-1.87,1.2.6-.06-1.83,1.14-1.18,2,.81,1.89-.74,1.85-2.25,1.12-.07.62-2,2.2-1.5-.28-.95,1.38.27,1.56-.23l-.22-.22c.49.39.12-.21.06-.43,0,0,0,.11.1.15a1.35,1.35,0,0,0,1.3.19,1.55,1.55,0,0,1,.26.35c.12.08.11-.08-.13-.39.09,0,.18,0,.26-.07.73-.5,1.48-1,2.23-1.43a25,25,0,0,0,5-3.74,29,29,0,0,1,8.35-6.48c.69-.34,1.4-.67,2.12-1,4.59-2.12,10.3-4.77,11.58-11.92a7.11,7.11,0,0,1,1.92-2.88,17,17,0,0,0,1.89-2.41,12.92,12.92,0,0,0,1.21-3.11l0-.1a2.39,2.39,0,0,0,1.54-.3c.94-.56,1.31-1.56,1.83-3.87l.31.16a1.4,1.4,0,0,0,1.21,0,1.43,1.43,0,0,0,.8-.91l.27-1c.18-.7.36-1.39.59-2.06a24.54,24.54,0,0,0,.7-2.73c.51-2.37,1-4.41,3.4-6,2-1.3,2.31-4.62,2.57-7.82.08-1,.16-1.9.27-2.73a69.19,69.19,0,0,0,.8-9.43c0-3,1.9-4.66,4.05-6.59l.27-.25c.64.19-.39.22.65.53a4.34,4.34,0,0,1-.58-.1c-.08.29-.51.54-.6.78.82.39-.49.43.65.87-.28.1-.83.24-.4.55l-.14-.05c0,.25,0,.56.72.89a2.38,2.38,0,0,0-1.32,0c.49.27.27.56.69.9-.52-.07.19.25-.58.1,1.32,1,.63,1.73-.62,2.22l1.75.67c-.07,0-.18,0-.18-.05.12.17-.65.13-.54.29l-.24-.08c.31.19-.65.11-.1.38l-.2,0,.26.15c-.24-.06-.62-.15-.52-.17-.41.93.45,2.57.42,3.11l-.19-.17.42.36-.17-.19c-.08-.4,1.23.29,1.46.91a1.39,1.39,0,0,0,.5-1.16c.75-.75-1-2.12-.11-2.77,1.32-.26-1.13-1.48.22-1.7,2.1-.6,1.09-1.82.17-3.05.87-.78-.67-2.05.89-2.65-.79-.61,1.28-.66,1.13-1.18l-.31,0c.28,0,.28,0,.19-.12a1.31,1.31,0,0,0,1-.84,1.11,1.11,0,0,1,.31.09c.13,0,0-.11-.22-.21,0,0,0,0,0,0,.72-3.29,2.72-3.67,6.19-4.07a19,19,0,0,0,3.53-.63,10.69,10.69,0,0,0,5.19-3.39c2.44-2.47,3.23-5.59,4-8.6.81-3.17,1.52-6,4-7.84l2.46,13.26a1.42,1.42,0,0,0,2.26.86c5.69-4.41,5.86-10.47,6-15.81,0-1.27.07-2.54.17-3.79.27-3.14.39-6.3.52-9.46.06-1.56.12-3.12.19-4.7l-.17,0,.44-.42A7.44,7.44,0,0,1,546,66.53c.44-.21.88-.44,1.31-.68,2.79-1.49,4.38-2.18,6.35,0,.19,1.15.4,2.3.6,3.46a91.23,91.23,0,0,1,1.31,9.16,15.94,15.94,0,0,1-.34,3.74,15.47,15.47,0,0,0-.27,5.1,14.53,14.53,0,0,0,4.74,8c.6.42,1.23.82,1.86,1.22a22.29,22.29,0,0,1,3.67,2.69,16.38,16.38,0,0,1,2.32,3.25c.4.67.83,1.37,1.31,2.09a1.4,1.4,0,0,0,1,.62,1.37,1.37,0,0,0,1.14-.4c2.2-2.17,2.74-4.93,3-7.51l1.34,10.07a1.42,1.42,0,0,0,.57,1,1.38,1.38,0,0,0,1.1.24,21.07,21.07,0,0,0,5.16-1.63,1.06,1.06,0,0,0,.17.24c-.66-.06-.16.48-.8.49.21.18.13.29.54.44a11.07,11.07,0,0,0-.76,3.54h.07c-1,1.51-1.25,3.32-2.22,4.85-.59,1.12-1.29,2.12-1.76,3.19a7.33,7.33,0,0,0-.53,1.94,4.58,4.58,0,0,0,.49,2c-.12,0-.2,0-.23-.09.14.74-.42,1.3-.27,2l-.12,0c.75,1.8-.72,3.38.14,5.13a24.51,24.51,0,0,0-.64,6.16l-.24,0c.3,1.71-1.23,3.07-1.06,4.75-.79,1.56,1,3.69-.12,5.22-1.4.8,1,2.67-.48,3.39-2.26,1.61-1.39,3.77-.63,6-.89,1.72.73,3.88-.83,5.44.82,1-1.26,1.65-1.09,2.65h.31c-1,.25,1.24.9-.18,1l-.06,0c-.72.12,1.64.58.79.61l.35.06c.08.23-.41,0-.56.15,0,.07.64.08.43.19-1.44-.09.26.56-1.35.44,0-.12-.64.14-1-.16-.17.07-.13.45.55.46a4.83,4.83,0,0,0,1.93.09l-.53-.08a4.74,4.74,0,0,1,.67,0c.09-.28.87-.26,1.21-.43h-.06c-.62-.19-.23-.35-.13-.45l.29,0c.62,0-1.18-.44-.13-.25a5,5,0,0,1-.1-1.91c-.39-.14.09-.49-.7-.45.89-.05,1.16-.5,1.14-.68.09,0,.17,0,.14.06,1.18-.18-1-.56.41-.68-1-.2.36-.53-.78-.9a2.36,2.36,0,0,1,.59.06c.07-.58.48-1.15.56-1.63-.82-.59.47-.93-.68-1.53.27-.25.81-.62.37-1.14l.15.07a1.71,1.71,0,0,0-.62-1.62c1.15.11,1-.15,1.36-.28-.47-.44-.2-1.06-.57-1.66.54,0-.15-.46.61-.32-1.21-1.69-.39-3.28,1-4.54-.4-.27-1.23-.65-1.72-.94.08,0,.19,0,.19.06-.1-.3.69-.4.6-.7a.49.49,0,0,1,.23.09c-.29-.32.71-.41.18-.82l.2,0-.25-.24c.25,0,.63.13.53.21.67-2.27-.38-4.91.16-7.25l.22.13-.36-.53a.58.58,0,0,1,.23.09c.52-.52-.12-1.24.07-1.8.13,0,.35.15.51.09-.63-.53,1-.54-.42-1a1.42,1.42,0,0,1,.51.09,5.8,5.8,0,0,1,.34-3.59c-1.13-1.18.22-2.1-.62-3.28l.25,0c-.68-1.46.53-2.71.57-4.11.19-.55,0-1,0-1.56l.32,0c-.53-.58-.17-1.06.17-1.49s.81-.74.33-1.45l.38.22c-.59-.39.45-.49-.67-.85l.39,0c-1.21-1.19,1.12-.93.48-2.07l.23.15c-.12-.29-.18-.59.11-.66,0,0,.12.05.16.13,1.27-.27.41-1.44.71-2.12l.46.26c-.44-.55.32-1,.22-1.51l.22.11-.24-.34.46.16c.25-.56.06-1.25.21-1.83l.41.19a.74.74,0,0,1-.15-.56l-.2,0s0,0,0,0l.19,0a1.25,1.25,0,0,1,.2-.47,1.26,1.26,0,0,0,.11.55l1.43.34a8.86,8.86,0,0,1,.21-1.35c-.8-.77-.08-1.29.25-1.93l-2.74-.81a5.31,5.31,0,0,0,0-.55,1.18,1.18,0,0,1,.55.09,2,2,0,0,1-.39-1.16c3.65-1.93,5.21-5.06,5.44-10.37a7.39,7.39,0,0,1,.77-2.41,13.5,13.5,0,0,0,.9-2.55,50.16,50.16,0,0,0,.88-6.87c.09-1.28.07-2.57,0-4v-.39l2.31.32a1.42,1.42,0,0,0,1.6-1.22c.11-.87.17-1.75.23-2.61a18.75,18.75,0,0,1,.85-5.12c1.33-3.48,2.88-7,5.18-9.54.65-.69,2.21-.94,3.71-1.17a19.4,19.4,0,0,0,3.18-.67c4.69-1.57,7.08-5.14,6.58-9.8-.38-3.6,1.69-6,3.89-8.44.55-.63,1.11-1.26,1.61-1.9a.93.93,0,0,1,.86-.44c.36.06.91.47,1.26,1.44L623,44.21c.93,2.65,1.88,5.31,2.89,7.92a12.75,12.75,0,0,0,1.5,2.62l.4.6a.81.81,0,0,0-.36.49c-.09,0-.17,0-.14-.06-1.22.3,1,.56-.49.82,1,.13-.44.67.69.94a2.16,2.16,0,0,1-.6,0c-.13.67-.61,1.41-.76,2,.69.47-.28,1.26.93,1.64-.19.37-.6,1,0,1.47l-.15,0c.17.57.35,1.28,1.16,1.53-1.11.37-.84.58-1.16.9.59.26.59,1,1.19,1.41-.51.19.31.39-.44.58a3,3,0,0,1,1,1,7.06,7.06,0,0,0,.9,1.6,5.56,5.56,0,0,1,.53,2.68c.48-.07,1.34-.38,1.9-.5,0,.06-.15.12-.17.09.28.16-.19.81.09,1a.47.47,0,0,1-.24.1c.45,0-.19.81.49.75l-.16.13h.35c-.21.14-.53.34-.53.21l.14.26a10.69,10.69,0,0,0,1,1.66l.66.85c.23.31.28.23.45.4a2.3,2.3,0,0,1,.11.34l0,.76a10.53,10.53,0,0,1-.1,1.57l-.23-.12.4.55a.67.67,0,0,1-.25-.07c-.47.64.22,1.36.11,2-.13,0-.37-.11-.51,0,.7.48-.9.83.55,1a1.15,1.15,0,0,1-.5,0c.32.76.36,1.34.76,2.33a3.4,3.4,0,0,1,.15,1.75c1.3.62.14,2,1.13,3.06h-.26c.87,1.48-.19,3-.09,4.47-.14.62.15,1.05.14,1.68h-.33c1.2,1.1-1.23,2.19.16,3.34l-.44-.07c.68.17-.24.69.92.59l-.35.21c1.59.5-.55,1.5.67,2.21h-.28c.25.2.47.46.24.67,0,0-.13,0-.2,0-1,.89.3,1.56.35,2.38l-.53,0c.64.33.12,1.08.43,1.57l-.24,0,.36.24-.49,0c0,.65.43,1.26.49,1.9l-.45,0c.76.6,0,1.26.23,1.87l-.16-.06-.17.95a4.29,4.29,0,0,0-.17,1.27,19.73,19.73,0,0,0,.57,2.47l-.23-.06c.16.08.44.15.41.24a.36.36,0,0,1-.25,0c-.73.36.49,1-.07,1.2a.78.78,0,0,0,.62.05,12.6,12.6,0,0,0,1.18,3.77,1,1,0,0,1-.54.1c1.28,1,.92,2.14.86,3.27.31,0,.31-.15.65-.07.35-.39-.84-.57-.3-.95h.3c.18-.25-.76,0-.4-.25.24-.12.39,0,.41-.06-.18-.48,0-1-.73-1.43.64-.18,0-.53.58-.77-.27-.11-.21-.24-.65-.25.19-1.76-.55-3.49-.54-5.23-1.25-.75.18-1.32-.16-1.9a.22.22,0,0,1,.1.08c.07-.43.14-.82.2-1.19a2,2,0,0,1,.16-.76l-.49-.44c1.31-2.48.35-4.92.51-7.42a16,16,0,0,0-.13-2.29c-.06-1,.1-.57.09-1.41a6.59,6.59,0,0,0-.86-3.75c.13,0,.19,0,.24.06-.22-.77.27-1.45,0-2.18h.13c-1-1.83.32-3.74-.78-5.5a9.77,9.77,0,0,0-.29-3.4,11.78,11.78,0,0,1-.73-3.22h.25c-.49-1.89,1-3.17.83-5.37v0c-.44-1.82-1.87-2.34-2.71-3.59a2.43,2.43,0,0,1-.63-1.2c.39-1.63-2.64-1.39-2.18-3a13.53,13.53,0,0,1,.14-1.66,3.4,3.4,0,0,0-.32-1.58,17.78,17.78,0,0,0-2-2.95,6.89,6.89,0,0,0-.58-3.05,3.87,3.87,0,0,1,.94-2.95s0-.09,0-.13a1.25,1.25,0,0,0,.37.1,1.91,1.91,0,0,0,1.2-.65c.37-.57.68-1.15,1-1.7a7.59,7.59,0,0,1,1.66-2.37,8.41,8.41,0,0,1,2.82-1c.65-.17,1.33-.34,2-.57a1.42,1.42,0,0,0,1-1.18c.23-2,.5-3,4.38-2.78,3.29.23,6.53-1,10-2.29,1-.38,2.11-.78,3.23-1.15q0,.36,0,.72a25.68,25.68,0,0,1-.11,4.7c-.65,4,.36,6.75,3.37,9.29.71.59,1.13,1.95,1.62,3.51.1.31.24.66.35,1h0a.57.57,0,0,0,0,.11h-.28c-.34,0,0,0,.3.05H662a.55.55,0,0,1,.26.53h.08l.06.16c-.32.06-.5.12-.48.15s-.17,0-.15,0c-1.15.1,1.07.12-.34.21,1,0-.32.17.85.22h-.59c0,.17-.38.35-.43.48.88.12-.39.29.82.39-.25.08-.76.22-.28.34h-.15c.08.13.14.3.89.39a4,4,0,0,0-1.29.16c.53.09.38.27.87.4-.54,0,.22.11-.55.12,1.5.38,1,.85-.15,1.25l1.85.16a.58.58,0,0,1-.19,0c.15.08-.61.14-.48.22h-.24c.34.07-.62.14,0,.22h-.2l.28.05c-.25,0-.64,0-.55,0-.25.64,1.08,1.29.88,1.95l-.24,0,.44.13h-.25c-.44.16.29.33.17.49a4,4,0,0,0-.5,0c.69.12-.9.19.53.25h-.5c.48.32.45.66.21,1,1.31.27.13.58,1.17.86h-.26c.91.37-.06.75.12,1.13-.1.16.21.27.22.42h-.32c1.24.27-1.12.56.25.84l-.45,0c.68,0-.24.17.93.15l-.35,0c1.55.19-.72.34.28.57h-.27c.21.06.39.13.13.18l-.19,0c-1.1.19.12.41.08.61l-.53,0c.61.1,0,.28.32.41h-.24l.35.07h-.5c0,.17.39.33.45.49h-.45c.8.15,0,.33.34.49h-.16c-.17.41.57.79.91,1.19h-.23c.16,0,.44,0,.4.06h-.24c-.74.08.46.25-.11.3a2.75,2.75,0,0,0,.62,0,2.12,2.12,0,0,0,.91,1,4.56,4.56,0,0,1-.55,0c1.19.27.72.57.53.85.31,0,.33,0,.65,0s-.77-.17-.2-.25h.3c.19-.06-.76,0-.37-.08s.38,0,.41,0c-.13-.13.15-.26-.59-.38.66,0,0-.14.65-.19a3.27,3.27,0,0,0-.62-.08c.34-.45-.29-.9-.24-1.36-1.27-.21.24-.47-.19-.73h.14c-.32-.08-.47-.2-.3-.3l-.54-.08c1.11-.6.33-1.2.79-1.81s1.23-1.29-.44-2a1,1,0,0,1,.24,0c-.26-.19.19-.37-.07-.55h.13c-1.05-.45.14-.94-1-1.37a2.4,2.4,0,0,0-.32-1.69h.25c-.54-.45.8-.88.4-1.33.58-.46-1.44-.95-.68-1.41,1.23-.29-1.41-.66-.13-.93,1.92-.55.69-1.09-.47-1.64a.25.25,0,0,0,.08-.11,1.41,1.41,0,0,0,1.14-.12l1.17-.71a39.4,39.4,0,0,1,3.53-2l.12-.06h0a6.44,6.44,0,0,0,.61-.35,4.71,4.71,0,0,1,1.71.5v0a1.4,1.4,0,0,0,1,.58l.39,0a22,22,0,0,1,4.46.62,17.94,17.94,0,0,1,3.44,1.56c.38.2.82.37,1.21.58a38.42,38.42,0,0,1-2.49,3c.16.42-.78.81,0,1.09a1.94,1.94,0,0,0-2,.71c-.06-.07-.12-.14,0-.17-1.4-.12.2,1.41-1.36,1.09.69.69-1.12.9-.44,2a1,1,0,0,1-.53-.28,20.51,20.51,0,0,0-2.74,3.64,4.15,4.15,0,0,1-.06,1.39,6.72,6.72,0,0,1-.27,1.09c-.15.36-.1.56.34,1.12a3.18,3.18,0,0,0-1,2.35l-.12-.13c-.24,1-.63,2.28-.15,3.21-1.2-.08-1.12.45-1.61.79.27.85-.32,2.24-.13,3.5-.56,0,0,1-.77.89.27,1,.22,1.77.47,2.89s.34,2,.47,2.77a13.84,13.84,0,0,1-.38,5c.49.35,1.38.71,1.94,1.08-.07,0-.18.05-.19,0,.18.57-.54,1.16-.35,1.72-.13,0-.13,0-.25-.09.36.53-.6,1.11,0,1.72l-.2,0,.29.4c-.25,0-.64,0-.55-.24-.17,2.35,0,4.77-.74,6.52a57.49,57.49,0,0,1-3.35,7.19l-.13-.29-.11,1.1a.38.38,0,0,1-.16-.21c-1,1-1,2.45-1.7,3.45-.11-.07-.23-.35-.44-.27.16,1.14-1.49.79-.48,1.93a.7.7,0,0,1-.42-.28,28.5,28.5,0,0,1-3.6,6.86c0,2.66-2.19,4.17-2.4,6.68l-.22-.13c-.6,3-2.86,5.26-4.11,8a18.21,18.21,0,0,0-1.28,3.17l-.3-.13c.18,2.47-2.76,3.75-2.3,6.33l-.36-.3c.52.56-.71,1.17.44,1.46l-.48.24c.89,1.93-1.6,2.33-1.27,4.41l-.22-.21c0,.54,0,1.13-.34,1.39,0-.07-.11-.07-.14-.2-1.55,1.1-1,3.1-1.39,4.68l-.47-.28c.41.87-.53,2.27-.49,3.26l-.22-.07.22.51-.5,0c-.34,1.2-.13,2.48-.53,3.75l-.4-.19c.39,1.39-.79,2.45-.85,3.78l-.13-.13a41.75,41.75,0,0,0-1.88,9.3c0-.05-.16-.08-.2-.14.12.17.36.35.28.51a.21.21,0,0,1-.23-.12c-1,.61.23,2-.33,2.38a.48.48,0,0,0,.62.17,54.41,54.41,0,0,0,.9,7.82.61.61,0,0,1-.55.11c1.19,2.2.72,4.52.53,6.77.31.09.33-.23.65,0,.39-.73-.77-1.33-.19-2l.3.08c.19-.48-.76-.09-.37-.59.25-.19.38,0,.41,0-.13-1,.14-2.08-.59-3,.66-.24,0-1.09.65-1.47-.26-.26-.19-.53-.62-.63a34.52,34.52,0,0,0,0-5.39l-.17-2.72a7,7,0,0,1,.43-2.36c-.93-1.69,1.31-3.4,1.47-5.38a.18.18,0,0,1,.12,0,4.18,4.18,0,0,1,.45-2.39l-.31-.8a21.64,21.64,0,0,0,2.64-7,31.83,31.83,0,0,1,2-6.62c2.05-5,4.55-9.27,5.07-14.51.1.07.18.07.16.21.31-1.42,1.39-2.46,1.87-3.9l.11.07c.82-3.79,3.66-6.64,4.37-10.17,2.1-3.57,4.38-7.84,6.31-11.91l.21.13c1.31-3.39,4.06-5.78,5.41-9.09a8.31,8.31,0,0,0,1.69-5.53,27.79,27.79,0,0,1-.06-5.67c1.1-2.42-1.84-5.12-.93-7.38.35-2.33.64-4.25.94-6.28s.49-4.35.63-6.63a13.69,13.69,0,0,0,1.43-5.83,8.12,8.12,0,0,1,3.59-5.07c.51-2,3.39-2.29,4.6-4l-.28-.16c1.2.11.17-2.12,1.52-1.49v.1c.54.16.08-.78,0-1.22.18.07.32.17.5.24a1.42,1.42,0,0,0,1.76-.72l.47-1c0,.05.08.06.11.14a.94.94,0,0,0,0-.41c.54-1.17,1.09-2.34,1.62-3.5a105.68,105.68,0,0,1,7.77-14.91,16.78,16.78,0,0,1,3.56-3.5c.52-.64,1.1-1.26,1.66-1.87a22.69,22.69,0,0,0,2-2.29,10.4,10.4,0,0,0,.92-1.67,4.91,4.91,0,0,1,1-1.65c.65-.55,1.22-.51,2.44-.38a14,14,0,0,0,1.54.1c2.81,0,4.8-2.08,6.57-3.92a21.64,21.64,0,0,1,1.69-1.65c1.88-1.54,4.66-3.66,7.14-4.23a24.93,24.93,0,0,1,4.71-.44l1.19,0a1.34,1.34,0,0,0,.57-.15l3-1.5a1.42,1.42,0,0,0,.81-1.3v-.61a36.16,36.16,0,0,1,0-3.87c.54,0,1.12-.06,1.69-.13.26.44-.13.73-.28.93h-.32c-.63,0,.88,1.15,0,.6a27.62,27.62,0,0,1-1.27,4.46c.31.34-.43,1.13.42,1.05a2.25,2.25,0,0,0-1.68,1.56c-.07,0-.16-.09-.1-.14-1.37.44.68,1.29-.92,1.6.91.43-.78,1.27.19,2.06a1,1,0,0,1-.59-.09c-.49,1.35-1.35,2.74-1.8,3.87.5,1.24-1.2,2.26-.34,3.46a4,4,0,0,0-1.24,2.72l-.11-.14c-.32,1.12-.73,2.51-.27,3.48-1.22,0-1.17.54-1.68.91.26.88-.41,2.32-.33,3.58-.55,0-.15.92-.83.82-.48-2.41.51-4.73,1.23-7-.28-.16-.39.17-.64-.14-.57.69.41,1.59-.32,2.16l-.27-.16c-.31.47.72.27.21.72-.29.15-.36-.14-.41,0-.13,1.12-.69,2.18-.18,3.37-.7.1-.28,1.13-1,1.37.18.33.06.59.45.79-.63,1.75-1.1,3.71-1.69,5.13l-.1.2a3.2,3.2,0,0,0-.82.3,3.89,3.89,0,0,0-1,.85,22.81,22.81,0,0,0-1.84,2.81,4.11,4.11,0,0,1-1.12,2.87l-1,1.23-.39.51h0a.25.25,0,0,0-.07.08l.09-.06a.09.09,0,0,1,.09,0l0,.1,0,0-.1.07a.09.09,0,0,1-.06-.12,3.3,3.3,0,0,0-.87,1.05l-.33.82a9,9,0,0,1-.6,1.4l.26.9a9.33,9.33,0,0,0-1.38,4c-.09,1.3-.11,2.62-.11,3.93,0,2.63.08,5.27-.16,7.9-.12,1.71-.22,3.37-.34,5,.09,4.25.29,8,1.86,12.09-.12,0-.18.06-.25-.09.41,1.65.09,3.22.5,4.77h-.13a15.61,15.61,0,0,1,.77,3.53l1.88-.08c.09-2.83.59-5.71,0-8.36.38-4.6.56-9.8.53-14.67h.25a23.16,23.16,0,0,1,.49-5.78c.6-1.84,1-3.51,1.47-5.44,1.61-3.65,1.07-8.27,3-11.9,1.9-2.09.51-5.84,2.48-7.73,3.44-4,3.78-8.77,4.26-13.66,2.11-4,1.89-8.73,4.64-12.37-.18-2.21,2.47-3.71,3-5.93l-.32,0c1.17-.46-.65-2.14.84-2.17l0,.1c.82-.17-1.26-1.5-.37-1.47l-.31-.18c.08-.53.4.07.66-.26,0-.16-.58-.27-.29-.5,1.38.41.13-1.31,1.66-.81-.09.27.74-.21.85.5.22-.12.43-1-.24-1.12-.21-.1-.4-.21-.58-.32A4.58,4.58,0,0,0,741.55,14a8.78,8.78,0,0,0,.54-2.5c.16-1.44.16-1.44,1.17-1.48l1.09,0a44.22,44.22,0,0,1,6,0,21.28,21.28,0,0,1,2.92.57c.52.13,1,.25,1.54.36s1.49-.54,1.73-1.19a6.9,6.9,0,0,0,.38-1.13L757,8.2c.67-3,1.27-5,3.35-5.32,1.6-.24,2.42.26,4,1.18l.73-1.21-.35,1.44a14.58,14.58,0,0,0,2.2,1.16,1.48,1.48,0,0,0,.48.09,5.79,5.79,0,0,0,3.55-.89l.14-.06a3.19,3.19,0,0,1,1.67-.45h0c.53,0,1.69,0,2,.34a1.38,1.38,0,0,1,.12,1,1.49,1.49,0,0,0,.55,1.47c.21.16,2.49,1.4,3.88.66a10.67,10.67,0,0,0,2-1.34,10.55,10.55,0,0,0,.79,1.29,2.53,2.53,0,0,1,.55,1,1.41,1.41,0,0,0,.87,1.19c1.33.55,2.85,2.56,4.31,4.51,1.66,2.21,3.24,4.3,5.08,5.18l.24.35a29.39,29.39,0,0,0,8.53,8.42c-.14,0-.31,0-.44,0l.47,0h-.6c-.07.12-.85.11-1.17.19H800c.63.07.26.14.16.18h-.3c-.61,0,1.22.16.15.1a.93.93,0,0,1,.25.77c.41,0,0,.2.74.16-.88,0-1.12.24-1.08.31s-.18,0-.14,0c-1.16.12,1.06.19-.35.29,1,0-.32.23.85.33h-.6c0,.24-.39.5-.44.7.88.19-.4.41.8.58-.25.12-.76.31-.28.49l-.15,0c.07.2.13.44.88.58a2.59,2.59,0,0,0-1.29.23c.54.15.38.43.87.63-.53,0,.23.17-.53.2,1.5.56,1,1.24-.12,2l1.85.06c-.07,0-.2,0-.2,0s-.6.29-.46.38a1,1,0,0,1-.25,0c.34.06-.6.3,0,.35l-.21,0,.29,0c-.25,0-.64.08-.55,0-.17,1,1,1.88,1.18,2.75l-.25,0,.48.08-.24,0c-.36.31.42.39.38.63a3.1,3.1,0,0,0-.5.1c.73,0-.81.45.63.22a4.13,4.13,0,0,1-.5.11,1.12,1.12,0,0,1,.64,1.29c1.39.11.37.76,1.51.94l-.26.05c1.06.32.26,1,.61,1.53,0,.24.31.32.39.54l-.31.07c1.33.13-.86,1,.6,1.1l-.44.06c.69-.07-.17.27,1,0l-.33.13c1.6,0-.53.6.48.75l-.28,0c.22,0,.41.12.16.23h-.19c-1.05.47.18.56.17.86l-.52.06c.61,0,.09.39.38.53l-.24,0,.35,0-.48.08c0,.25.43.4.51.63l-.45.06c.81.09,0,.46.41.64h-.16c-.11.61.69,1,1.09,1.58h-.23c.16,0,.45,0,.41,0a.88.88,0,0,1-.25,0c-.71.22.51.3,0,.45a2.09,2.09,0,0,0,.62,0,3,3,0,0,0,1.05,1.31,2.82,2.82,0,0,1-.54.09c1.22.27.8.75.65,1.18a5.39,5.39,0,0,1,.66-.07c.37-.18-.8-.17-.24-.35h.3c.18-.11-.76.06-.38-.07a2.69,2.69,0,0,1,.41,0c-.15-.17.1-.4-.65-.49.65-.12,0-.2.62-.34a2.1,2.1,0,0,0-.64,0c.27-.69-.43-1.28-.46-2-1.29-.14.17-.72-.3-1l.14,0c-.33-.08-.5-.23-.35-.39l-.54,0c1-1,.13-1.79.48-2.74s.74-2-1.14-2.66a.65.65,0,0,1,.24,0c-.33-.22,0-.55-.3-.75l.13,0c-1.23-.42-.27-1.33-1.57-1.7a5,5,0,0,0-1-2.25l.25-.05c-.68-.5.32-1.38-.11-1.92.56-.73-1.44-1.09-.69-1.89,1.22-.53-1.43-.82-.16-1.33,1.92-.9.64-1.53-.5-2.38.7-.73-1.05-1.49.37-2.18-.89-.36,1.13-.69.88-1.07h-.31c.94-.11-1.32-.33.09-.38l.06,0c.72-.05-1.67-.21-.83-.23l-.35,0c-.1-.09.4,0,.55-.06,0,0-.64,0-.44-.07a1.53,1.53,0,0,0,.6,0l.14.1a1.4,1.4,0,0,0,.68.23l4,.27c6.5.38,8.8,2.77,9.08,9.47.08,2.11.24,4.22.41,6.33l.24,3.29a1.41,1.41,0,0,0,1.08,1.28l.83.19a1,1,0,0,0-.17.06l.5.19a2.2,2.2,0,0,1-.68.08,1.07,1.07,0,0,1-.71.66l-.94-.87c-.72.22,1.24.82.76,1h0a1.42,1.42,0,0,0-.49.27H817c.31.23.32.45.25.64-.2,0-.32.14-.55-.1a.81.81,0,0,0-.1.74v0a3.73,3.73,0,0,1,.16.77v.12a.64.64,0,0,1-.22.43l-.28-.14c-.27.46.74.23.26.67-.28.16-.37-.11-.41,0,0,.53-.16,1.06-.2,1.59a8.22,8.22,0,0,0,0,1,1.78,1.78,0,0,0,.41,1.13c-.45.21-.23.69-.28,1.12a1.68,1.68,0,0,0-.12.27c0,.06,0,.14-.13.19l0,0a1.57,1.57,0,0,0-.09.4c-.08,0-.17-.06-.13-.12-1.26.67.91,1.09-.58,1.68,1,.23-.51,1.34.63,1.92a1,1,0,0,1-.6,0,19.29,19.29,0,0,1-.39,2.16c-.08.36-.16.71-.22,1a8.61,8.61,0,0,0,0,1.33,4.28,4.28,0,0,1,.53,2.2c0,.52.13,1,.78,1.21a3.52,3.52,0,0,0,.21,2.63l-.16-.07c.22,1.06.48,2.39,1.33,3-1.09.47-.8.9-1.1,1.41.6.65.59,2.12,1.2,3.17-.52.21.31.89-.45,1,1.86,2.46.73,6.83-.58,10,.42.46,1.25,1,1.76,1.47-.07,0-.2,0-.2-.07.11.62-.69,1.15-.59,1.77-.13,0-.13,0-.24-.12.3.6-.7,1.15-.15,1.87l-.2,0,.25.45c-.25,0-.63-.07-.53-.29a57.56,57.56,0,0,0-.17,8c0,1.35,0,2.71,0,4,0,.31,0,.68-.07.94l0,.42a.85.85,0,0,1,.14-.32.4.4,0,0,1,.17-.13,1.73,1.73,0,0,1,.49.39,1.94,1.94,0,0,1,.32.54l0,.07,0,0c.8.87-1.08-1.13-.88-.93h0l0,0-.07.11a8.42,8.42,0,0,0-1,2.57l-.17-.26.15,1.16a.34.34,0,0,1-.21-.17c-.76,1.23-.35,2.76-.73,4-.12,0-.32-.28-.5-.12.48,1.13-1.18,1.29.12,2.2-.08.05-.42.07-.5-.1-.09,2.07-.51,4.15-.41,5.66l.1,2.13,0,.54c0,.22,0,.46.26.23l1-.61a22.52,22.52,0,0,1,3.62-3,8,8,0,0,0,2.89-2.66l.15.21a9.19,9.19,0,0,1,1.62-1.73l.48-.39a3,3,0,0,0,.16-.6l.33-1.17a28.7,28.7,0,0,0,1.22-4.62,9.77,9.77,0,0,0-.37-3.58l.31-.08c-.73-.88-.8-2.5-.28-3,0,0,0,0,0,0a2.54,2.54,0,0,0,.29-.26c.1-.13.21-.16.29-.37a3.42,3.42,0,0,0,.33-1.19,2.78,2.78,0,0,0-.45-1.82l.45.14c-.68-.33.15-1.43-1-1.21l.32-.44a1.81,1.81,0,0,1-.46-2.26,2.82,2.82,0,0,0-.06-2.49l.28.14c-.21-.53-.51-1.1-.33-1.47,0,.06.13,0,.22.15.79-1.69-.87-3.43-1.07-5l.53.08c-.74-.66-.45-2.21-.81-3.24l.25,0-.4-.5.49-.07c-.12-1.38-.7-2.65-.91-4h.45c-.83-1-.56-3-1.28-4h.17c-.82-3.05-2.17-6.07-2.87-9.4.06,0,.19.06.24.1-.17-.15-.47-.31-.45-.49s.21,0,.26.09c.67-.77-.63-2-.11-2.54a.47.47,0,0,0-.63-.12c-.25-1.63-.52-3.32-.87-5a1.88,1.88,0,0,0,.08-.21c-.61-2,1.68-3.92,1.72-6.09l-.31,0c1-.63-1.07-1.91.39-2.18l0,.09c.76-.3-1.53-1.21-.65-1.32l-.34-.12c0-.51.4,0,.59-.35,0-.15-.62-.16-.38-.43,1.42.17-.11-1.26,1.5-1,0,.27.69-.31.92.34a.64.64,0,0,0-.44-1,4.07,4.07,0,0,1-.44-.15,1.33,1.33,0,0,0,1.12-.75l2.19-4.85c3.78,2,6.58,2.49,9,1.6s4.07-3,5.67-6.88l.27.36a62.19,62.19,0,0,1,4.7,6.7,8.74,8.74,0,0,1,.77,3,14.41,14.41,0,0,0,.73,3.21c1.14,3,3.28,7,8.72,8,.12,0,.77.33,2.14,3.06a9.2,9.2,0,0,1,.65,2.65c.08.52.16,1,.26,1.53,0,.15.18.24.25.37l-.62.48,0,0c.53-.35.25-.09.18,0l-.24.17c-.52.34,1-.6.14,0,.28,0,.34.05.41.17.31-.15.14,0,.5-.17h0c-.55.34-.75.52-.7.54l-.14.06c-1,.57,1-.39-.24.28.91-.42-.24.23.84-.22l-.54.25c0,.12-.27.38-.27.48.84-.24-.31.31.86,0-.22.15-.66.39-.17.32l-.15,0c.1.07.18.16.92,0a6.52,6.52,0,0,0-1.22.45c.53-.08.41.08.9.07-.51.13.24,0-.51.2,1.56-.06,1.05.51,0,.89h-.06l1.92-.06H858c.16.05-.59.17-.45.22h-.25c.35,0-.6.15,0,.18h-.2l.29,0a2.54,2.54,0,0,1-.55,0c-.26.45,1,1,.84,1.54l-.24,0,.41.15-.24,0c-.46.07.23.3.1.42a4.59,4.59,0,0,0-.5-.08c.67.21-.91,0,.5.29l-.5-.09c.42.34.34.62.07.82,1.23.54,0,.57,1,1.07l-.25-.06c.81.55-.22.68-.13,1.07-.14.12.14.28.14.43l-.32-.06c1.18.46-1.19.35.13.83l-.44-.08c.67.14-.26.12.9.27h-.36c1.51.38-.76.23.2.56l-.27,0c.21.08.38.17.12.18l-.19,0c-1.11.07.09.4,0,.58l-.52-.06c.6.14,0,.27.29.41l-.24,0,.33.08-.49,0c0,.16.37.33.42.49l-.44,0c.79.17,0,.31.32.47h-.16c-.18.39.56.74.89,1.13l-.22,0a1.75,1.75,0,0,1,.4.06h-.25c-.74.07.46.24-.11.28a3,3,0,0,0,.62,0,3.91,3.91,0,0,0,.81,1.15,2.67,2.67,0,0,1-.54-.07c1.12.55.54,1,.11,1.35.26.17.31.11.57.31.45,0-.54-.63,0-.55l.27.13c.23-.05-.7-.29-.29-.27a1.81,1.81,0,0,1,.39.12c0-.27.25-.41-.42-.75.65.08.06-.2.69-.17a1.7,1.7,0,0,0-.59-.21c.4-.53-.22-1.08-.17-1.48-1.26-.21.25-.44-.17-.67h.14c-.31-.08-.46-.19-.29-.27l-.54-.09c1.11-.5.39-1.05.88-1.54s1.37-.88-.19-1.75a1.19,1.19,0,0,1,.23.05c-.23-.21.26-.28,0-.48l.13,0c-.93-.62.32-.77-.68-1.42a2.15,2.15,0,0,0,0-1.63l.24,0c-.42-.47.93-.75.54-1.24.57-.48-1.37-.91-.67-1.35,1.2-.4-1.48-.45-.23-.85,1.88-.84.42-1.24-.78-1.34.38-.52-.54-.5-.53-.88a17.4,17.4,0,0,0,3.91,1.3c2.09.47,3.89.88,5.23,2.49a1.8,1.8,0,0,0,1,.54h0c.19.65-.5,1-.64,1.57,0,0,0,0,0,0,.71.08.51.64.51.91l-.24.2c-.53.35,1.4.31.33.47a16.75,16.75,0,0,1,1.51,4.07c.44.1.19,1.08.89.62a2,2,0,0,0-.72,2c-.08,0-.17,0-.15-.08-1.08,1,1.14.86-.19,1.79,1,0-.21,1.44,1,1.75a1,1,0,0,1-.58.16c.09,1.4-.15,3-.09,4.15.94.92-.19,2.48,1.07,3.23a3.84,3.84,0,0,0,0,2.91l-.16-.08c.16,1.12.34,2.53,1.16,3.24-1.12.43-.86.9-1.18,1.42.59.71.55,2.24,1.14,3.36-.52.22.3.93-.47,1.05a14.57,14.57,0,0,1,.94,2.25,17.93,17.93,0,0,1-.2,2.62,50,50,0,0,1-1.37,5.61,20.43,20.43,0,0,0,1.84,1.41c-.07,0-.19,0-.19-.05.1.63-.54,1.29-.32,1.95-.13,0-.13,0-.26-.09.42.58-.45,1.37.24,2l-.2.07.35.42c-.25,0-.63.08-.58-.19a11.46,11.46,0,0,0,1,4.19l1.61,3.94c1.15,2.6,2.16,5.28,3.09,7.88l-.29-.11.78.87a.38.38,0,0,1-.27,0c.08,1.43,1.25,2.53,1.62,3.82-.13,0-.43-.07-.5.15,1,.7-.3,1.79,1.22,1.79a.63.63,0,0,1-.49.15,46.88,46.88,0,0,1,3,8,5.43,5.43,0,0,1,1.36,1.77l2,4-.46-4.48c-.17-1.72.21-3.51-.52-5.21h.25a11.21,11.21,0,0,1-.39-3.23c-.46-2.12-.53-4.31-1.1-6.4a15.52,15.52,0,0,0-1.11-3.47l.29-.14c-1.88-1.74-.47-5-2.49-6.74l.46,0c-.74-.08-.22-1.47-1.25-.86l.18-.54c-2-.89,0-3.13-1.29-4.68l.28,0a1.74,1.74,0,0,1-.38-1.46c0,.05.12,0,.21.11.79-1.83-.71-3.34-.9-5.11l.54.12c-.72-.74-.38-2.34-.82-3.39l.25,0-.43-.5.49-.08c-.21-1.23-.46-2.71-.57-4.07l.45.07c-.79-1.3,0-2.77-.33-4.15l.15.09c.18-3.5-.57-6.72-.9-10.19,0,.06.18.07.22.13-.15-.17-.44-.35-.4-.54s.21.05.25.11c.73-.73-.47-2.15.1-2.61a.46.46,0,0,0-.61-.18c-.09-1.18-.17-2.4-.25-3.65a37.68,37.68,0,0,0,.23-5c.13-.12.33-.1.57,0a7.81,7.81,0,0,1-.14-3.6c.22-1.29.49-2,1-4.09l.18-.13a8.84,8.84,0,0,0,2.72,0,1.42,1.42,0,0,0,1.15-.88c.18-.46.34-.93.52-1.41a19.69,19.69,0,0,1,1.06-2.62,5.64,5.64,0,0,1,.74-1,9,9,0,0,1,.72,1.46,3.77,3.77,0,0,1,0,.92,4.76,4.76,0,0,0,.33,2.18,10.29,10.29,0,0,0,3.1,4c.82.57,1.64.27,2.55-.3,0,1.72,0,3.44.06,5.15a17.65,17.65,0,0,0,1.69,7c1.12,2.33,1.31,5.19,1.51,8.22.07.93.13,1.86.21,2.79l-.11,0a1.41,1.41,0,0,0-.12,2.63l4.44,1.95,1.47,2.86c1.11,2.15,2.2,4.25,3.22,6.38a14.89,14.89,0,0,1,1.53,4.23c.06.41.09.83.12,1.25.15,2.13.37,5.51,5.09,5.56a3.67,3.67,0,0,1,.71,1.44c.15,4.19.13,8.32.11,12.69v4.35h0a2,2,0,0,0-.43.06l.45,0v0a4.79,4.79,0,0,1-.59.08c-.07.26-.84.32-1.16.51h.06c.63.11.26.3.17.4l-.29,0c-.62.08,1.21.26.15.21a3.91,3.91,0,0,1,.26,1.72c.41.07,0,.45.75.31-.89.17-1.11.61-1.08.77-.09,0-.17,0-.15,0-1.15.34,1.07.36-.34.68,1,0-.31.54.86.69a2.44,2.44,0,0,1-.6,0c0,.53-.38,1.13-.42,1.58.88.38-.39.93.81,1.26-.24.28-.75.72-.26,1.1l-.16,0a1.36,1.36,0,0,0,.89,1.27c-1.15.13-.92.32-1.28.5.54.29.37.87.86,1.31-.53.06.23.36-.54.38,1.52,1.24,1,2.77-.21,4.08.44.17,1.31.37,1.84.55-.07,0-.19,0-.19,0,.14.24-.62.46-.49.7a.54.54,0,0,1-.25,0c.34.23-.63.46,0,.73h-.2l.28.17c-.25,0-.64,0-.55-.11-.31,2.07,1,4.23.71,6.36l-.24-.08.42.42a.74.74,0,0,1-.24,0c-.45.52.25,1.08.14,1.59-.13,0-.37-.09-.52,0,.69.39-.92.59.52.81a1.52,1.52,0,0,1-.51,0,4.92,4.92,0,0,1,.13,3.21c1.28.91.08,1.88,1.09,2.82h-.26c.88,1.21-.13,2.45,0,3.69-.12.51.17.87.18,1.38h-.33c1.22.9-1.16,1.79.18,2.73l-.44-.07c.68.16-.26.54.91.52l-.36.15c1.54.66-.74,1.1.24,1.88l-.28-.06c.21.21.38.45.12.59,0,0-.12,0-.19-.07-1.12.59.08,1.33,0,2l-.51-.09c.6.34,0,.91.28,1.34l-.24,0,.34.22h-.49c-.06.55.36,1.07.4,1.61l-.45,0c.78.52,0,1.06.29,1.59l-.16,0c-.21,1.33.5,2.58.8,3.92l-.22-.06c.15.07.43.15.39.22a.45.45,0,0,1-.25-.05c-.74.25.45.84-.13,1a1,1,0,0,0,.62.09,10.11,10.11,0,0,0,.81,3.24,1.27,1.27,0,0,1-.55,0c1.17.95.66,1.88.45,2.79.31,0,.33-.08.66,0,.4-.28-.76-.58-.17-.82l.3,0c.19-.19-.77-.07-.37-.26s.38,0,.41,0c-.12-.42.17-.84-.55-1.27.66-.07,0-.45.67-.58-.26-.12-.18-.22-.62-.28.39-1.45-.2-3-.12-4.45-1.25-.74.29-1.53-.12-2.37h.14a.85.85,0,0,1-.28-1l-.53-.29c1.16-1.91.44-3.92,1-5.87.38-2.23,1.34-4.18-.27-6.4.13,0,.2,0,.24,0-.23-.64.23-1.2,0-1.8h.13c-1-1.5.22-3.06-.87-4.51a22.9,22.9,0,0,0-.18-5.51h.26c-.5-1.47.88-2.86.52-4.33.61-1.49-1.35-3.11-.54-4.61,1.25-.92-1.35-2.18,0-3,2-1.79.68-3.57-.47-5.37.68-1.67-1.09-3.31.31-4.94-.9-.75,1.11-1.63.85-2.48l-.31,0c.94-.33-1.32-.65.09-.87l.06,0c.71-.18-1.68-.34-.83-.46l-.36,0c-.1-.19.4,0,.55-.19,0-.06-.64,0-.44-.13a2.79,2.79,0,0,0,.41,0,1.43,1.43,0,0,0,.49.47l4.73,2.54a1.46,1.46,0,0,0,1.1.1,1.4,1.4,0,0,0,.84-.72l1.1-2.28,7,16.6a1.37,1.37,0,0,0,1.5.85,1.41,1.41,0,0,0,1.21-1.22c.13-1,.23-2,.35-3,.5-4.48,1-8.78,2.66-12.74,0,.27,0,.55,0,.82,0,.73,0,1.47,0,2.2-.12,3.14-.24,6.69,3,9.83.71.68.93,2.3,1.16,3.87a22.92,22.92,0,0,0,.46,2.61,1.42,1.42,0,0,0,1.3,1.06,7.9,7.9,0,0,0,1.25-.12c-.14.05-.18.13,0,.28l-.14-.06c0,.2,0,.43.7.76a3,3,0,0,0-1.29-.16c.48.27.25.46.67.77-.53-.12.17.21-.57,0,1.29.91.61,1.38-.63,1.61l1.72.72c-.07,0-.18,0-.17-.06.11.14-.65,0-.54.16l-.23-.08c.3.19-.65,0-.11.29l-.2-.05.25.15c-.24-.07-.61-.18-.52-.19-.5.76.56,2.06.15,2.89l-.22-.08.38.26-.24-.07c-.49.13.17.51,0,.7a2.9,2.9,0,0,0-.51-.1c.64.29-1,.09.45.44a3.88,3.88,0,0,1-.51-.09,1,1,0,0,1-.13,1.39c1.21.55-.08.81.86,1.31l-.25,0c.78.58-.32,1-.27,1.53-.16.21.12.37.08.57h-.32c1.15.4-1.3.72,0,1.13l-.44,0c.67.07-.3.22.89.21l-.37.06c1.46.25-.77.46.22.78l-.27,0c.21.09.39.18.13.25l-.19,0c-1.1.26.12.55.08.83l-.52,0c.61.13,0,.38.32.56h-.24l.35.09H936c0,.23.39.44.45.66H936c.8.21,0,.44.34.66h-.17c-.17.55.57,1.07.91,1.63l-.23,0c.16,0,.44.06.4.09a.89.89,0,0,1-.24,0c-.74.12.46.35-.11.42a2.27,2.27,0,0,0,.62,0,2.77,2.77,0,0,0,.9,1.34,3.06,3.06,0,0,1-.55,0c1.19.38.72.77.53,1.16a5.57,5.57,0,0,1,.65,0c.39-.12-.77-.23-.19-.34l.3,0c.19-.08-.76,0-.37-.1a4,4,0,0,1,.41,0c-.13-.17.15-.35-.59-.52.66,0,0-.19.65-.25a2.38,2.38,0,0,0-.62-.11c.34-.61-.29-1.23-.24-1.86-1.27-.29.24-.64-.18-1h.14c-.32-.12-.47-.28-.3-.41l-.54-.11c1.11-.81.33-1.64.79-2.46.23-1,1.44-1.64,0-2.56a.72.72,0,0,1,.24,0c-.19-.26.32-.46.12-.7h.13c-.89-.66.45-1.17-.53-1.86a4.11,4.11,0,0,0,.25-2.26l.25.05c-.37-.7,1.08-1,.84-1.64.7-.44-1.08-1.61-.16-2,1.29,0-1.11-1.26.22-1.26,2.07-.19,1.08-1.23.17-2.29.55-.31.13-.91.17-1.36a4.27,4.27,0,0,0,1.51-1.05c.2,0,.36-.11.31-.23l-.13,0,0,0s.07,0,0-.05a5.09,5.09,0,0,0,.47-.69,3.27,3.27,0,0,1,.83.28c.17,0,.13-.13-.53-.32l-.21-.06a7.32,7.32,0,0,0,.61-2.57c.43-7.12,4.82-12,9.48-17.1l.43-.48a26.08,26.08,0,0,0,3.37-5.18c.55-1,1.11-2,1.73-3,1.84-2.79,3.73-5.53,5.66-8.31l.69-1a50.58,50.58,0,0,0,2.12,9.27c1.41,4.71,2.73,9.15,1.85,14-.62,3.45,1.19,6,2.77,8.29a25.46,25.46,0,0,1,1.55,2.36c1,1.84,1.2,4.38,1.38,6.85.06.79.12,1.58.19,2.34a9.84,9.84,0,0,1-.26,2.68c-.09.52-.18,1-.24,1.54a1.41,1.41,0,0,0,.68,1.39,1.43,1.43,0,0,0,1.55-.08l3.56-2.58.34,1.87c.47,2.58.91,5,1.31,7.51.77,4.86,3.26,6.8,7.88,6.08,2.84-.44,3.76-.45,4.33,2.12a1.65,1.65,0,0,0-.34-.15l0,0c.46.46.09.35,0,.35l-.25-.15c-.52-.32.86.89,0,.22a2.4,2.4,0,0,1-.5,1.23c.3.27-.21.26.5.59-.83-.38-1.16-.21-1.19-.1-.07,0-.15-.1-.11-.1-1.09-.39.79.78-.51.25.84.53-.46.18.5.87a3.52,3.52,0,0,1-.53-.28c-.2.32-.7.51-.89.78.63.67-.65.4.29,1.19-.31.05-.9.09-.61.56l-.12-.09a1,1,0,0,0,.37,1.21,2,2,0,0,0-1.31-.27c.38.42,0,.72.34,1.21-.5-.19.08.33-.62,0,.89,1.42,0,2.14-1.33,2.54.35.29,1.11.78,1.55,1.1-.07,0-.18-.07-.17-.09.08.21-.68,0-.61.26a.68.68,0,0,1-.21-.13c.25.28-.69,0-.21.46l-.19-.07.21.22c-.23-.1-.58-.26-.48-.29-.78,1.24-.12,3.14-.85,4.42l-.2-.14.29.43a1,1,0,0,1-.21-.12c-.54.17,0,.79-.25,1.08a1.51,1.51,0,0,0-.47-.2c.54.5-1,.06.29.71a2.19,2.19,0,0,1-.47-.19,2.47,2.47,0,0,1-.63,2.13c1,1-.37,1.24.37,2.18l-.24-.09c.59,1.08-.55,1.59-.64,2.46-.2.3,0,.63-.06,1l-.31-.09c1,1-1.42.84-.3,1.87l-.41-.18c.62.31-.34.28.79.61h-.37c1.35.88-.9.51-.1,1.31l-.25-.12c.17.2.28.4,0,.42a.92.92,0,0,1-.17-.1c-1.18.08-.16.91-.33,1.33l-.48-.2c.52.39-.14.61,0,1l-.22-.09.28.24-.47-.14c-.14.35.17.81.11,1.18l-.42-.15c.66.56-.22.69,0,1.14l-.14-.07c-.44.83,0,1.84.1,2.8L981,224c.14.08.4.21.35.24a.6.6,0,0,1-.23-.1c-.77,0,.28.66-.3.63a1.39,1.39,0,0,0,.59.21,5.15,5.15,0,0,0,.24,2.32,1.84,1.84,0,0,1-.55-.12c1,.9.33,1.39,0,1.94.29.1.34,0,.63.16.44-.09-.63-.55,0-.58l.28.1c.23-.08-.73-.22-.31-.25a2.05,2.05,0,0,1,.4.09c0-.3.31-.51-.32-1,.65.11.11-.28.75-.22-.23-.14-.15-.19-.55-.33.61-.85.3-2,.64-2.95-1.09-.81.54-.93.29-1.59l.12,0c-.24-.26-.31-.56-.09-.73l-.47-.33c1.44-.95,1.09-2.46,1.92-3.61.75-1.36,2-2.34.84-4.29.12,0,.19.05.22.11-.12-.49.43-.72.29-1.19l.12,0c-.69-1.3.71-2,0-3.22a11.12,11.12,0,0,0,1.11-3.6l.23.09c-.12-1.12,1.48-1.51,1.48-2.58.91-.72-.54-2.52.56-3.17,1.36-.08-.73-2,.66-2,2.25-.3,1.71-1.82,1.26-3.48,1.14-.68.14-2.56,1.88-2.85-.53-.94,1.47-.4,1.57-1l-.27-.16c.89.36-.84-1.13.39-.44l0,.05c.63.33-1.23-1.19-.5-.75l-.27-.22c0-.17.33.22.51.22a1.88,1.88,0,0,0-.25-.24,1.61,1.61,0,0,0,.38.16h0c.08,0,.11,0,.12,0a1.35,1.35,0,0,0,.18,0,2.44,2.44,0,0,1,.49.32c0,.06.56.29.75.63.16.07.2-.15-.35-.56l-.54-.47a1.3,1.3,0,0,0,.78-.74l.9-2.37c.47-1.23.93-2.47,1.42-3.68l1.53-3.74c1.37-3.4,2.75-6.8,4.22-10.15.4-.9.84-1.75,1.34-1.93a2.44,2.44,0,0,1,1.56.32c1.63.81,4-.56,5.7-1.86a32.3,32.3,0,0,0,2.83-2.58,20,20,0,0,1,3.46-2.89c.08.27-.51.43.37.82-.28.14-.84.34-.43.71l-.14-.06a1,1,0,0,0,.68,1.08,2,2,0,0,0-1.34.08c.48.31.24.69.65,1.1-.54-.06.17.3-.59.16,1.28,1.17.53,2.12-.75,2.83.41.2,1.25.51,1.75.72-.07,0-.18,0-.18-.05.12.2-.66.21-.54.41a.9.9,0,0,1-.24-.08c.31.22-.66.21-.11.51l-.2,0,.26.17c-.24-.05-.62-.13-.53-.18-.49,1.41.56,3.15.13,4.61l-.22-.1.37.37a.78.78,0,0,1-.23-.07c-.49.29.16.8,0,1.14a1.72,1.72,0,0,0-.5-.1c.64.39-1,.27.44.66a2.12,2.12,0,0,1-.5-.1,2.59,2.59,0,0,1-.16,2.28c1.19.85-.1,1.33.82,2.16l-.25,0c.76,1-.35,1.7-.31,2.6-.16.34.11.63.06,1l-.32,0c1.12.81-1.31,1.09-.07,1.95l-.43-.12c.66.21-.3.34.87.5l-.37.06c1.46.68-.84.66.07,1.35l-.27-.08c.2.17.33.36.06.43a1.47,1.47,0,0,1-.19-.07c-1.16.26,0,.95-.16,1.4l-.5-.13c.55.32-.07.64.16,1l-.23-.06.31.2-.48-.07c-.11.38.25.8.25,1.18l-.44-.09c.73.47-.14.74.15,1.16l-.16,0c-.32.9.27,1.88.46,2.85l-.22-.07c.14.07.42.16.37.2a.59.59,0,0,1-.24-.07c-.76.09.36.64-.21.68a1.23,1.23,0,0,0,.6.14,5.37,5.37,0,0,0,.53,2.36,1.78,1.78,0,0,1-.55,0c1.07.8.5,1.38.19,2,.31.07.34,0,.65.09.43-.15-.7-.48-.1-.59l.29.07c.21-.11-.75-.14-.34-.22a2,2,0,0,1,.41,0c-.08-.31.24-.57-.44-.95.66,0,.08-.31.71-.32-.24-.11-.17-.18-.59-.27.52-1,.06-2.09.28-3.12-1.18-.68.42-1,.09-1.67l.13,0c-.27-.23-.38-.53-.18-.73l-.5-.27c1.31-1.18.78-2.68,1.46-4,.57-1.51,1.69-2.72.3-4.51.12,0,.19,0,.23.07-.18-.48.33-.8.15-1.26l.12,0c-.86-1.2.49-2.1-.46-3.29a12,12,0,0,0,.32-3.89l.25,0c-.36-1.12,1.12-1.86.89-2.95.73-.94-1.07-2.42-.14-3.33,1.3-.41-1.13-1.78.26-2.14,2.16-.87,1.2-2.31.33-3.81.92-1-.55-2.55,1.05-3.35-.77-.73,1.32-.86,1.2-1.5l-.21,0,0,0c.11,0,.15-.06.1-.11a6.44,6.44,0,0,0,.77-1.2,1.31,1.31,0,0,1,.61.21c.17,0,.14-.25-.52-.39a11.22,11.22,0,0,0,.93-3.93c.47-5.59,1-11.16,1.5-16.74.36-4,.73-7.95,1.07-11.92.21-2.33,1.66-3.2,4-4.43.59-.31,1.19-.63,1.75-1,1.59-1,3.16-1.94,4.93-3l.9,1.24a1.45,1.45,0,0,0,1.25.57,1.4,1.4,0,0,0,1.14-.78l2-4c1.35-2.64,2.62-5.11,3.77-7.6a3.21,3.21,0,0,1,1.87-1.88,3.17,3.17,0,0,1,2.48.81,9.09,9.09,0,0,1,1.76,2c.32.44.64.89,1,1.33a1.24,1.24,0,0,0,1.19.52l6-.41.06.15c.15.34.38.92.41,1-2.65,6.41-1.69,12.69-.76,18.76.3,2,.61,4,.79,6a16.3,16.3,0,0,1-.47,4.32,24.65,24.65,0,0,0-.54,3.76c-.12,2.85-.1,5.7-.07,8.79,0,1.39,0,2.83,0,4.34a1.4,1.4,0,0,0,.8,1.27,8.73,8.73,0,0,0,2.44.62c1.95.3,3.18.58,3.61,1.94,0,.07-.12.15-.13.22a2,2,0,0,0-.06.92l.18.4c.08.18.14.38.19.55h.07a1.51,1.51,0,0,0,.12.33c-.24.19-.36.35-.32.41s-.17,0-.15,0c-1,.51,1.08-.07-.21.5,1-.25-.21.41.94.18a4.25,4.25,0,0,1-.56.19c.07.32-.18.78-.14,1.06.9,0-.2.67,1,.52-.18.24-.59.65-.06.73l-.15,0c.14.24.3.54,1.07.5-1.08.41-.83.45-1.14.67.56,0,.52.41,1.06.53-.5.2.28.15-.46.39,1.65.3,1.43,1.35.59,2.46l1.88-.23c-.07,0-.19.07-.19,0,.18.1-.5.46-.32.56a.77.77,0,0,1-.24,0c.37,0-.5.46.12.44l-.19.07.31,0c-.24.07-.61.18-.55.1.15,1.3,1.81,2.17,2,3.48l-.24,0,.49.12a1.36,1.36,0,0,1-.24,0c-.32.44.48.54.47.88a1.83,1.83,0,0,0-.5.15c.74,0-.75.62.67.31a2.71,2.71,0,0,1-.5.15,2,2,0,0,1,.81,1.82c1.42.14.47,1.07,1.63,1.3l-.25.08c1.11.43.39,1.46.7,2.15,0,.33.32.46.4.76l-.31.08c1.32.25-.84,1.3.61,1.57l-.45,0c.69,0-.16.36,1,.13l-.32.16c1.6.13-.56.78.54,1.08h-.28c.24.09.45.21.2.34a1.4,1.4,0,0,1-.19,0c-1,.49.16.8.16,1.21H1076c.6.14,0,.55.33.79h-.24l.35.1-.49,0c0,.33.4.62.47.95H1076c.8.26,0,.65.35,1l-.16,0c-.16.82.6,1.55,1,2.38l-.23,0c.16,0,.44.09.41.13a.65.65,0,0,1-.25,0c-.74.17.48.51-.09.61a1.4,1.4,0,0,0,.61.06,4.76,4.76,0,0,0,.84,2,2.07,2.07,0,0,1-.55,0c1.18.61.68,1.19.46,1.75a3.9,3.9,0,0,1,.66,0c.4-.17-.76-.38-.17-.52l.3,0c.19-.11-.77-.06-.37-.17a2.21,2.21,0,0,1,.41,0c-.12-.27.16-.53-.55-.8.65,0,0-.28.66-.35-.26-.08-.19-.14-.62-.18.38-.9-.2-1.85-.2-2.8-1.27-.44.22-1-.21-1.5h.14c-.32-.16-.48-.41-.32-.62l-.54-.15c1.08-1.27.27-2.49.7-3.77,0-1.43.62-2.94-1.31-3.94.12,0,.19-.06.24,0-.34-.33,0-.81-.32-1.11l.12,0c-1.18-.65-.4-1.87-1.72-2.4a9.15,9.15,0,0,0-1.33-3.15l.24-.07c-.78-.71.23-1.93-.42-2.67.27-1-2-1.39-1.5-2.51,1-.91-1.76-.86-.69-1.75,1.53-1.63,0-2.3-1.41-3,.28-.92-.84-1.42-.87-2.23a1.55,1.55,0,0,0,.41.17,10.25,10.25,0,0,0,3.34-.21,6.37,6.37,0,0,1,3.61,0c7,2.57,11.17-2.46,14.55-6.52l.69-.82c.53-.62,1-1.29,1.56-2,1.69-2.17,3.43-4.41,5.46-5.23s5.54.29,8,1.62c.73.39,1.45.81,2.16,1.22,3,1.72,6,3.5,9.63,3.06l5.22,6.11a1.41,1.41,0,0,0,.92.49,5.6,5.6,0,0,0,2,3.42,3.23,3.23,0,0,0-.55.23h.06c.64,0,.29.21.21.3l-.29.08c-.6.13,1.23.07.17.15a2.77,2.77,0,0,1,.46,1.35c.41,0,0,.37.77.16-.87.24-1,.63-1,.75s-.17,0-.14,0c-1.11.41,1.09.15-.26.59,1-.1-.26.48.91.45a3,3,0,0,1-.58.11c0,.43-.25,1-.24,1.33.9.19-.28.81.94.91-.21.25-.67.68-.15.93H1127a1.11,1.11,0,0,0,1,.9c-1.13.26-.88.38-1.22.58.56.16.48.65,1,.94-.52.13.26.26-.5.39,1.61.79,1.27,2.09.3,3.31.46.07,1.35.1,1.9.17-.06,0-.18,0-.19,0,.17.17-.55.46-.39.63a.62.62,0,0,1-.24,0c.36.13-.56.46.06.59l-.2,0,.31.1c-.25,0-.64.08-.56,0,0,1.7,1.54,3.24,1.58,5l-.24,0,.48.27a.83.83,0,0,1-.25,0c-.37.48.41.82.35,1.25a1.49,1.49,0,0,0-.51.06c.73.21-.83.61.62.57a1.83,1.83,0,0,1-.51.06c.67,1,.62,1.06.18,2.07,1.17.93-.14,1.49.76,2.42l-.26-.06c.73,1.13-.4,1.94-.39,3-.17.38.08.73,0,1.15l-.32-.07c1.08,1-1.32,1.15-.14,2.23l-.42-.17c.64.3-.3.36.83.65l-.36,0c1.4.93-.85.69,0,1.58l-.26-.12c.19.23.27.45,0,.49,0,0-.11,0-.16-.1-1.21.15-.23,1.05-.45,1.55l-.48-.21c.5.43-.2.71,0,1.11l-.23-.09.28.27-.48-.14c-.17.41.1.93,0,1.36l-.42-.15c.63.62-.28.81-.09,1.31l-.15-.08c-.51,1-.15,2.13-.1,3.27l-.2-.11c.13.09.38.23.33.28a.56.56,0,0,1-.23-.11c-.76,0,.26.78-.31.75a1.09,1.09,0,0,0,.57.24,6.82,6.82,0,0,0,.16,2.74,1.55,1.55,0,0,1-.55-.12c.94,1,.28,1.63-.11,2.29.29.12.34,0,.63.18.44-.12-.62-.63,0-.68l.28.11c.23-.09-.72-.24-.3-.29.25,0,.36.12.39.1,0-.36.33-.61-.28-1.12.65.11.12-.34.75-.28-.22-.16-.14-.22-.54-.38.65-1,.38-2.36.76-3.5-1.07-.92.59-1.11.41-1.87l.12,0c-.22-.3-.26-.65,0-.85l-.44-.37c1.56-1.16,1.33-2.91,2.29-4.29.84-1.63,1.86-3.09.59-5.25.13,0,.19,0,.23.09-.16-.57.37-.93.19-1.47l.13,0c-.82-1.42.57-2.46-.33-3.82a15.76,15.76,0,0,0,.39-2.2,6.56,6.56,0,0,0-.54-2.3l.25,0c-.69-1.1.47-2.42-.09-3.53.39-1.28-1.78-2.28-1.2-3.59,1.12-.92-1.64-1.54-.47-2.43,1.7-1.72.27-2.95-1.07-4.24.49-1.43-1.45-2.52-.23-4-1-.49.91-1.44.56-2.09l-.3.07a.46.46,0,0,0,.18-.11,9.29,9.29,0,0,0,1.63.31,4.11,4.11,0,0,1,2.05,1.53,11.23,11.23,0,0,0,9.33,4.37,6.33,6.33,0,0,1,1.45,1.29,16.28,16.28,0,0,0,1.27,1.23c.4.34.79.68,1.18,1a23.07,23.07,0,0,0,3.23,2.54c.51.32,1,.69,1.52,1.05,2.05,1.49,4.62,3.36,8.61,2,2.74-.93,6.4-.33,9.27.29.63.14,1.58,1.58,2.22,2.53.24.37.49.74.73,1.08a9.49,9.49,0,0,1,.86,1.7c.59,1.38,1.21,2.82,2.6,2.91,1.84.14,2.2,1.1,2.79,3.07a11.84,11.84,0,0,0,.79,2.14,46.06,46.06,0,0,1,3,7.79c.3,1,.61,1.94.93,2.89l.24.68a8.59,8.59,0,0,1,.53,1.87c-2.23,4.15-.22,6.87,1.38,9.06a9.12,9.12,0,0,1,1.68,2.92,1.4,1.4,0,0,0,.85.9,3.14,3.14,0,0,1-.43,1c.31.27-.21.26.5.59-.83-.38-1.16-.21-1.19-.1-.07,0-.15-.1-.11-.1-1.09-.39.79.78-.51.25.84.53-.46.18.5.87a3.34,3.34,0,0,1-.53-.28c-.19.33-.7.52-.89.78.63.67-.65.4.29,1.19-.31.05-.9.09-.61.56l-.12-.09a1,1,0,0,0,.37,1.21,2,2,0,0,0-1.31-.27c.38.42,0,.72.34,1.21-.5-.19.08.33-.62,0,.89,1.42,0,2.14-1.33,2.54.35.29,1.11.78,1.55,1.1-.07,0-.18-.07-.17-.09.08.21-.68,0-.61.26a.72.72,0,0,1-.21-.13c.25.28-.69,0-.21.46l-.19-.07.21.22c-.23-.1-.58-.27-.48-.29-.78,1.24-.12,3.14-.85,4.42l-.2-.14.29.43a1,1,0,0,1-.21-.12c-.55.18,0,.8-.24,1.08a1.73,1.73,0,0,0-.48-.19c.54.5-1,.06.29.71a2.24,2.24,0,0,1-.47-.19,2.47,2.47,0,0,1-.63,2.13c1,1-.37,1.25.37,2.18l-.24-.09c.59,1.08-.55,1.59-.64,2.46-.19.3,0,.63-.06,1l-.31-.09c1,1-1.42.84-.3,1.87l-.41-.18c.62.31-.34.28.79.61h-.37c1.35.88-.9.51-.1,1.32l-.25-.12c.16.2.28.4,0,.42a1,1,0,0,1-.17-.1c-1.18.08-.16.91-.33,1.33l-.48-.2c.52.39-.14.61,0,1l-.22-.09.28.24-.47-.14c-.14.35.16.81.11,1.18l-.42-.15c.66.56-.22.69,0,1.14l-.15-.07c-.44.83,0,1.84.1,2.8l-.21-.1c.14.08.4.21.35.24a.65.65,0,0,1-.23-.1c-.77,0,.28.66-.3.63a1.39,1.39,0,0,0,.58.21,5.17,5.17,0,0,0,.24,2.32,1.83,1.83,0,0,1-.54-.12c1,.9.33,1.39,0,1.94.29.1.34,0,.63.17.44-.09-.63-.55,0-.58l.28.1c.23-.08-.73-.22-.31-.25a2,2,0,0,1,.4.09c0-.3.31-.51-.32-1,.65.11.11-.28.75-.22-.23-.14-.15-.19-.55-.33.61-.85.3-2,.64-2.95-1.09-.81.53-.93.29-1.59l.12,0c-.24-.26-.31-.56-.09-.73l-.47-.33c1.44-.95,1.09-2.46,1.91-3.61.75-1.36,2-2.34.84-4.29.12,0,.19.05.22.11-.12-.49.43-.72.29-1.19l.12,0c-.69-1.3.71-2,0-3.22a11.08,11.08,0,0,0,1.11-3.6l.23.09c-.12-1.12,1.48-1.51,1.48-2.58.91-.71-.54-2.52.56-3.17,1.36-.08-.73-2,.66-2,2.26-.3,1.72-1.82,1.26-3.48,1.14-.68.14-2.56,1.88-2.85-.54-.94,1.47-.4,1.56-1l-.27-.16c.89.36-.84-1.13.39-.44l0,.05c.63.33-1.24-1.19-.51-.75l-.27-.22c0-.17.33.22.51.22a1.51,1.51,0,0,0-.24-.22h.16c.64.39-.14-.49,1,.38,0,.06.56.29.75.63.16.07.2-.15-.35-.56l-.63-.54a1.33,1.33,0,0,0,.7-.66l6.42-13.18c2.48,1.5,4.9,1.13,7.26.79.55-.08,1.11-.16,1.69-.23,2.7-.28,4.57-1.77,6.21-3.08s2.67-2.07,4-2.14c.2.93.39,1.88.57,2.85a46.7,46.7,0,0,0,2.5,9.35c3.3,7.87,3.67,16,4.07,24.58l.06,1.19a14.87,14.87,0,0,0,.17,1.75l-.08,0c0,.19-.81.32-1.11.49h.06c.64,0,.29.17.2.25l-.29.07c-.6.13,1.22,0,.16.13a2,2,0,0,1,.43,1.15c.41,0,0,.32.77.12-.87.22-1,.56-1,.66s-.18,0-.15,0c-1.12.38,1.09.11-.28.51,1-.1-.26.41.91.37a3.54,3.54,0,0,1-.59.11c0,.37-.26.82-.26,1.14.89.15-.3.7.91.76-.21.22-.68.6-.16.79h-.16a1,1,0,0,0,1,.75c-1.13.25-.88.35-1.22.52.55.12.46.55,1,.78-.51.12.26.22-.5.34,1.59.64,1.22,1.76.23,2.82.45.05,1.34.06,1.89.1-.07,0-.19,0-.19,0,.16.15-.56.41-.4.55a.82.82,0,0,1-.25,0c.36.11-.56.41,0,.51l-.2,0,.3.08c-.25,0-.63.08-.55,0,0,1.45,1.47,2.73,1.48,4.22l-.24,0,.47.22a1.06,1.06,0,0,1-.25,0c-.38.42.39.69.33,1.06a1.69,1.69,0,0,0-.5.07c.72.16-.84.54.61.47a2.22,2.22,0,0,1-.51.07,2.48,2.48,0,0,1,.53,2.16c1.38.42.3,1.27,1.41,1.75l-.25,0c1.06.66-.26,1.54-.17,2.35-.17.33.1.62,0,1l-.32-.05c1.12.84-1.3,1-.08,1.9l-.42-.14c.65.24-.3.32.85.54l-.36,0c1.43.76-.84.6.06,1.34l-.26-.1c.18.18.32.38.06.42a1.36,1.36,0,0,1-.19-.08c-1.15.16,0,.92-.16,1.37l-.5-.18c.55.37-.07.62.16,1l-.23-.08.31.23-.48-.12c-.1.36.25.82.24,1.2l-.43-.14c.7.55-.14.71.14,1.16l-.15-.07a7.57,7.57,0,0,0,.09,2.83l-.21-.1c.14.09.39.22.34.25a.52.52,0,0,1-.23-.1c-.76,0,.26.68-.32.62a1.3,1.3,0,0,0,.57.24,5.46,5.46,0,0,0,.14,2.39,2,2,0,0,1-.54-.15c.93,1,.26,1.44-.13,2,.29.13.34,0,.62.21.44-.07-.6-.61,0-.6l.27.12c.23-.06-.71-.27-.29-.28.25,0,.36.14.39.12,0-.32.33-.52-.27-1,.64.15.12-.29.75-.19-.22-.16-.14-.2-.53-.37.65-.86.39-2,.77-3-1.05-.84.58-.94.36-1.61l.13,0c-.22-.27-.33-.58-.14-.76l-.49-.35c1.3-1,.8-2.61,1.48-3.85.58-1.46,1.72-2.67.34-4.51.13,0,.19,0,.23.08-.17-.48.34-.8.16-1.25l.13,0a1.87,1.87,0,0,1-.17-1.72,1.59,1.59,0,0,0-.7-1.63,11.49,11.49,0,0,0-.84-3.72l.25,0c-.67-.93.52-2.08,0-3,.42-1.1-1.73-1.91-1.11-3,1.13-.81-1.61-1.29-.43-2.06,1.74-1.5.34-2.53-1-3.6.52-1.23-1.39-2.13-.16-3.42-.44-.18-.26-.46,0-.75a2.28,2.28,0,0,0,.51.44,3.36,3.36,0,0,0,2.91-.18l1.9,5.45a1.4,1.4,0,0,0,1.38.95,1.42,1.42,0,0,0,1.31-1l.42-1.6c0,.16.06.33.09.51.29,1.9.78,5,4.44,5.51.82,2.48,1.73,5.25,2.76,8.42a1.41,1.41,0,0,0,1.24,1,1.52,1.52,0,0,0,1.36-.79l.72-1.48,2.9,3.94a1.41,1.41,0,0,0,1.14.57h0a1.42,1.42,0,0,0,1.15-.61l.79-1.17c.4,1.49.79,3,1.26,4.78a1.42,1.42,0,0,0,1.2,1,1.39,1.39,0,0,0,1.41-.72l0-.07c1.36,2.79,4.35,3.33,6.71,3.76a17.47,17.47,0,0,1,2.69.63,14.9,14.9,0,0,1,3.48,2.08l1.15.82a17.7,17.7,0,0,1,2.23,1.93c1.74,1.63,3.45,3.29,5.17,5a1.41,1.41,0,0,0,2.22-.33c.26-.48.68-1.06,1.2-1.15a3,3,0,0,1,2.07,1,4.32,4.32,0,0,0,7.29-1.25,6.39,6.39,0,0,1,6.29-3.61h.63c6.34,0,12.35-1.26,14-9.54a1.52,1.52,0,0,1,.71-1.1,3,3,0,0,1,2.37.15c3.49,1.34,7.25,2.45,11.18,0a7.09,7.09,0,0,1,1.93.38,13.79,13.79,0,0,0,2,.48l1.22.17a16.52,16.52,0,0,0,4.74.23,23.35,23.35,0,0,0,4.71-1.34l.53-.19c.47,5.09,5,6.51,8.2,7.51,2,.61,4.12-.37,6.2-1.35.68-.32,1.34-.63,2-.86a2.31,2.31,0,0,0,1.15-1c4.1.66,7.32-1.23,10.22-2.9a32,32,0,0,1,3.6-1.88,14.17,14.17,0,0,0,8.26-8.62c1.72,1.42,3.8.82,5.22.41l.29-.09c1.28,4.87,7.63,11.15,14.31,17.76,6.43,6.36,13.72,13.56,13.72,17.43a1.41,1.41,0,1,0,2.82,0C1414,286.83,1406.91,279.84,1399.43,272.44ZM505.05,114.32l.15-.14C505.41,114.27,505.57,114.36,505.05,114.32Zm.42-.26-.1,0,.55-.52v0c.38.13-.1.24.68.33C505.72,113.77,505.46,114,505.47,114.06Zm78-2.71a.39.39,0,0,0-.21.1,1.59,1.59,0,0,0,.13-.3c.14.1.37.23.32.3A.35.35,0,0,1,583.45,111.35Zm.08-.43c0,.11,0,.21,0,.32l-.2-.09a.64.64,0,0,0,0-.31Zm46.17-58.49,0,0S629.66,52.44,629.69,52.43Zm0-.47.32,0-.09.14C629.71,52.08,629.5,52,629.65,52Zm.18.26-.11.17-.24-.06C629.44,52.14,629.64,52.2,629.83,52.22ZM717.24,64l0,.09h0l0-.09Zm0,.09h0c.12.39.08.26,0,0Zm0,0h0l0-.06v.06Zm-1.08,32.3a7.1,7.1,0,0,1,.36,2.89A4.68,4.68,0,0,1,716.19,96.43Zm.36,3.11c0,.38,0,.77,0,1.15-.07-.36-.15-.69-.2-1.11Zm6.61-39.46c-.08,0-.2,0-.17-.1-.07.65-1,1-1,1.66-.13,0-.13,0-.21-.17.16.66-.94,1-.58,1.83l-.2,0,.15.51c-.24-.09-.6-.22-.46-.42a51.1,51.1,0,0,0-2.12,8.2c-.25,1.44-.58,2.78-.82,4.29s-.53,3.12-.61,4.52l-.23-.21.37,1.1a.35.35,0,0,1-.24-.11c-.51,1.4.13,2.86-.07,4.22-.12,0-.35-.21-.51,0,.63,1-1,1.62.42,2.13a.61.61,0,0,1-.51,0,30.26,30.26,0,0,1-.07,6.29,3.3,3.3,0,0,0-.53-1.46l.45.13c-.71-.31.12-1.48-1-1.23l.31-.46c-1-.88-.65-1.78-.46-2.77a2.74,2.74,0,0,0-.08-2.21l.28.13a1.86,1.86,0,0,1-.14-1.55c0,.06.13,0,.2.16,1.1-1.68-.12-3.54-.08-5.31l.52.2c-.6-.85,0-2.42-.32-3.54l.24.07-.34-.57h.49c0-1.46-.39-2.84-.45-4.26l.45.07c-.83-1.19.56-2.63.59-4l.12.14a15.54,15.54,0,0,1,1-2.21c0-.09.58-.48.87-1a11,11,0,0,0,.59-1.19c.68-1.59,1.19-3.23,2-4.84,0,.07.11.16.13.23,0-.22-.17-.54,0-.68.11,0,.15.16.15.24,1-.17,1-2.19,2-1.94.19-.1.53-.37.27-.63l.24,0,0-.06c-.11,0-.17.05-.07-.12v0a.7.7,0,0,1,.08.12c.87-1.79.16-.32.4-.84H724a15.91,15.91,0,0,0,.57-1.93,22.33,22.33,0,0,0,.55-4.18c.11-.09.28,0,.47,0a13.34,13.34,0,0,1-1.87,7h0l0,0h.06s0,0,0,0l-.17.17a.32.32,0,0,1,0,.08h0l0,0h0a26.21,26.21,0,0,1-1.7,2.65C722.11,58.82,722.8,59.52,723.16,60.08Zm.43-4.48h0Zm.14-.05s0-.08,0-.16,0,0,0,0S723.76,55.53,723.73,55.54ZM817,52.79a0,0,0,0,1,0,0S817,52.79,817,52.79Zm-.58,2.34c.06-.32.17-.62.23-.94-.06,1-.17,2-.3,3,.37.27-.21,1.15.61.92a1.26,1.26,0,0,0-.32.18,5,5,0,0,1-.36-1.07A9.46,9.46,0,0,1,816.44,55.13Zm7.25,51.45h0C823.75,106.7,823.8,106.8,823.69,106.58Zm0,0h0Zm-3.12-26.12c.17,2.27.18,4.57.51,7.16.18,2.39.9,5.42,1.1,7.43l.27,1.84,0,2,0,.5v.13s0,0,0,.07l0,.16a10.63,10.63,0,0,0,0,1.36l.08,2c0,.63.07,1.27.07,1.78,0,.3,0,.61.1.33a.3.3,0,0,1,.13-.06h.08c.1,0,.11.1.14.16a3,3,0,0,0-.91,1.54,6.86,6.86,0,0,0,0,.89,6.68,6.68,0,0,0,.26,1.26,17.59,17.59,0,0,0,.81,2c-.13,0-.19.06-.26-.07.48,1.59,0,2.64-.06,4l-.12,0a14.21,14.21,0,0,1-.22,3l-.27,1.36a.81.81,0,0,1-.47.75c-.59.44-1.5,1.12-2.16,1.71a9.67,9.67,0,0,0-1.68,1.9l-2.25,1.68c-.34.18-.87.85-1.08.67a10.14,10.14,0,0,1,.09-1.43c.27-2.11.54-4.24.82-6.31l.24.06A16.37,16.37,0,0,1,817,113c.2-.49.36-.68.3-.8a1.55,1.55,0,0,0,.54-.75l.1-.36.17-.71a13.59,13.59,0,0,0,.27-2.79c.91-3.78-.84-8,.19-11.74,1.4-2.29-1-5.61.44-7.75,1.3-1.9,1.35-4.76.89-6.88a21.27,21.27,0,0,0-.93-3.39A8.32,8.32,0,0,1,819.8,80Zm-3-9.19c1.52,1.75.39,4,1.32,6.11a.14.14,0,0,1-.07,0c-.35-.94-.72-1.88-1.12-2.81.15-2.22-.8-4-1.17-6.19a9.33,9.33,0,0,1-.08-3.32c0-.37.13-.72.2-1.09C816.94,66.41,817.38,68.83,817.57,71.29ZM876.15,76c.07.48.13.7-.19,1l-.28-.14c-.28.47.74.24.25.69-.28.16-.37-.12-.41,0-.07,1.09-.54,2.16,0,3.31-.69.13-.23,1.15-.92,1.43.2.32.09.59.5.77a32.2,32.2,0,0,0-.82,4.07c.09,2.88.35,5.18.32,7.83,1.26,1.83-.25,4,.18,6.19a.19.19,0,0,1-.13,0,4.8,4.8,0,0,1,.3,2.59l.54.71a27.91,27.91,0,0,0-.52,7.88c.4,2.59.78,5,1,7.78.46,3,.45,6.33,1.36,8.73a25.71,25.71,0,0,0,3.46,7.41c-.13,0-.17.1-.27,0,.72,1.24.5,3,1.12,4.43l-.13,0a18.2,18.2,0,0,1,1.51,4.74,32.64,32.64,0,0,0,.19,5.12c-1.08-2.89-2.19-5.91-3.43-8.81l.24-.07c-1.84-3.41-1.94-7.32-3.37-10.83-.56-3.86-4.09-7.26-3.56-11.43a7.75,7.75,0,0,0-.2-4c-.35-1.41-.63-2.85.17-3.93a16,16,0,0,0,1.35-3.47,17.67,17.67,0,0,0-.27-3.58,48.15,48.15,0,0,0-2-6.89c.33-4.42-1.78-8.58-.73-12.94-1-1.87.61-4.34-.3-6.53l-.28.17c.66-1.05-1.79-1.31-.6-2.22l.09.06c.55-.65-1.93-.38-1.2-.9l-.36.06c-.27-.44.36-.19.35-.61-.09-.12-.62.17-.54-.19,1.07-.46,0-.87.27-1.33a10.58,10.58,0,0,0,3.25-1.1,10.25,10.25,0,0,0,1.48-1.11,3.94,3.94,0,0,0,.8,2.18,3.74,3.74,0,0,0,1.77,1.19A5.13,5.13,0,0,0,876.15,76Z"/><polygon class="cls-1" points="536.92 178.05 537.07 178.02 536.66 177.9 536.92 178.05"/><path class="cls-1" d="M536,177.38h-.28l1.17.43C537.6,177.7,535.58,177.46,536,177.38Z"/><path class="cls-1" d="M536.16,177.28c.28-.12-.26-.21-.46-.26C536.13,177.1,535.56,177.28,536.16,177.28Z"/><path class="cls-1" d="M534.76,122.17h0l-.06,0Z"/><path class="cls-1" d="M537.72,101.91l.52.08a4.48,4.48,0,0,1-.67.05c-.09.31-.86.31-1.19.51h0c.63.19.24.38.15.5l-.3,0c-.62,0,1.19.42.14.27a6,6,0,0,1,.15,2.09c.39.12-.07.54.71.43-.89.13-1.15.64-1.13.84-.08,0-.18,0-.14-.06-1.17.32,1,.51-.39.79,1,.11-.35.63.8.9a2,2,0,0,1-.59,0c-.06.64-.46,1.33-.54,1.87.85.51-.46,1.1.72,1.57-.27.32-.81.82-.35,1.32l-.15-.05a1.68,1.68,0,0,0,.81,1.58c-1.17.09-.94.33-1.32.53.51.38.31,1.07.77,1.63-.53.05.2.45-.57.44,1.4,1.57.78,3.38-.44,4.91.43.23,1.29.51,1.82.74-.08,0-.19,0-.19,0,.13.3-.65.53-.53.83a.46.46,0,0,1-.24-.06c.33.29-.65.53-.07.88h-.2l.27.22c-.25,0-.64,0-.54-.15-.4,2.48.78,5.13.44,7.68l-.23-.11.41.52a.6.6,0,0,1-.25-.07c-.47.61.22,1.31.08,1.92-.13,0-.37-.12-.52,0,.67.5-.94.68.49,1a1.26,1.26,0,0,1-.51,0,7.14,7.14,0,0,1,0,3.87c1.24,1.14,0,2.26,1,3.43l-.25,0c.83,1.48-.23,2.95-.14,4.44-.14.61.15,1,.13,1.66h-.33c1.18,1.11-1.23,2.13.07,3.29L535,152c.67.21-.28.65.9.65l-.36.17c1.5.83-.8,1.3.16,2.27l-.27-.08c.2.25.36.54.09.71,0,0-.12,0-.18-.08-1.15.69,0,1.6-.07,2.39l-.5-.12c.58.42,0,1.09.22,1.61l-.24,0,.33.27-.49,0c-.08.66.31,1.3.33,1.94l-.44-.06c.76.65-.09,1.27.22,1.92l-.16-.05c-.26,1.59.39,3.11.64,4.72l-.22-.07c.15.08.43.19.38.27a.37.37,0,0,1-.24-.07c-.76.29.41,1-.17,1.19a.8.8,0,0,0,.61.12,14.38,14.38,0,0,0,.68,3.9,1.06,1.06,0,0,1-.55,0c1.13,1.15.59,2.26.33,3.36.31.06.34-.09.66,0,.41-.33-.73-.7-.14-1l.29.06c.21-.22-.76-.09-.35-.31.25-.08.38,0,.41,0-.1-.5.2-1-.51-1.52.66-.08.06-.54.69-.68-.25-.14-.17-.27-.6-.35.44-1.73-.09-3.55.06-5.34-1.22-.91.35-1.83,0-2.85h.14a1.12,1.12,0,0,1-.23-1.2l-.52-.36c1.23-2.27.6-4.7,1.2-7,.47-2.67,1.51-5,0-7.7.13,0,.2,0,.24.07-.21-.77.28-1.44.06-2.16h.13c-.94-1.83.35-3.67-.68-5.44a33.6,33.6,0,0,0,0-6.63l.25,0c-.43-1.79,1-3.41.7-5.18.67-1.77-1.22-3.79-.36-5.56,1.29-1.05-1.26-2.68.08-3.67,2.05-2.06.92-4.24-.11-6.48.81-2-.85-4.06.67-5.92-.85-1,1.22-1.87,1-2.9l-.31,0c1-.31-1.27-.89.14-1l.07,0c.72-.15-1.66-.55-.81-.62l-.35-.05c-.09-.24.41,0,.55-.18,0-.07-.64-.06-.43-.2,1.44.05-.28-.59,1.34-.52,0,.13.63-.17,1,.14.17-.07.12-.47-.57-.48A4.48,4.48,0,0,0,537.72,101.91Z"/><polygon class="cls-1" points="522.05 172.74 522.2 172.72 521.79 172.67 522.05 172.74"/><path class="cls-1" d="M521.13,172.38l-.28,0,1.19.21C522.7,172.52,520.67,172.45,521.13,172.38Z"/><path class="cls-1" d="M521.24,172.32c.28-.08-.27-.12-.47-.13C521.2,172.22,520.64,172.34,521.24,172.32Z"/><path class="cls-1" d="M521,172.13c.31,0,.33-.06.65,0,.39-.21-.77-.38-.19-.57l.3,0c.19-.14-.76,0-.37-.17s.38,0,.41,0c-.13-.29.15-.6-.59-.87.66-.07,0-.31.65-.42-.26-.08-.19-.15-.62-.18.34-1-.29-2.07-.24-3.12-1.27-.49.24-1.08-.18-1.66H521c-.32-.19-.47-.47-.3-.69l-.54-.19c1.11-1.37.33-2.76.79-4.15.32-1.58,1.24-3-.44-4.49.12,0,.19,0,.24,0-.26-.44.19-.85-.07-1.26h.13c-1-1,.14-2.15-1-3.15a11.76,11.76,0,0,0-.32-3.87h.25c-.53-1,.8-2,.4-3,.57-1.06-1.44-2.17-.68-3.23,1.24-.66-1.41-1.52-.13-2.14,1.93-1.27.69-2.5-.47-3.77.68-1.17-1.08-2.34.32-3.48-.89-.54,1.11-1.13.86-1.73l-.31,0c.94-.21-1.32-.48.08-.61l.07,0c.71-.12-1.68-.27-.84-.34l-.35,0c-.11-.14.4,0,.54-.12,0,0-.65,0-.45-.1,1.45,0-.31-.34,1.31-.35,0,.08.62-.12,1,.05.17,0,.09-.28-.6-.26a7.64,7.64,0,0,0-1.92,0l.54,0-.67.05c-.07.18-.84.21-1.16.34h.06c.63.09.25.21.17.28l-.3,0c-.61,0,1.22.21.16.15a2.13,2.13,0,0,1,.26,1.21c.4.06,0,.32.74.23-.88.1-1.11.41-1.08.53s-.17,0-.15,0c-1.15.22,1.07.27-.34.47,1,0-.32.38.85.5a3.52,3.52,0,0,1-.59,0c0,.37-.38.79-.43,1.11.87.27-.39.66.82.89-.25.19-.76.51-.28.78l-.15,0c.08.3.14.68.89.89a2.07,2.07,0,0,0-1.29.35c.54.2.38.62.87.93-.54,0,.22.26-.55.28,1.5.87,1,1.95-.15,2.88.44.12,1.31.25,1.85.37-.07,0-.2,0-.2,0,.15.17-.61.33-.48.5a.82.82,0,0,1-.24,0c.34.16-.62.33,0,.52h-.2l.28.12c-.25,0-.64,0-.55-.07-.25,1.46,1.08,3,.89,4.47l-.24-.05.44.29a.87.87,0,0,1-.25,0c-.44.37.29.76.17,1.12a1.59,1.59,0,0,0-.5,0c.69.27-.91.43.54.56a2.27,2.27,0,0,1-.51,0,2.55,2.55,0,0,1,.21,2.25c1.31.63.13,1.32,1.17,2h-.26c.91.84-.06,1.73.12,2.6-.1.36.21.61.22,1h-.32c1.23.61-1.12,1.28.25,1.92l-.45,0c.68.1-.24.39.93.35l-.35.11c1.55.43-.72.79.28,1.32l-.27,0c.21.14.39.31.13.41a1.73,1.73,0,0,1-.19,0c-1.1.44.12.93.08,1.4l-.52-.05c.61.22,0,.64.32.93l-.24,0,.35.15h-.5c0,.38.39.75.45,1.12l-.45,0c.8.35,0,.74.34,1.12l-.16,0c-.17.94.57,1.8.91,2.74l-.23,0c.15,0,.44.09.4.14a.55.55,0,0,1-.24,0c-.74.2.46.58-.11.7a1.31,1.31,0,0,0,.62,0,5.57,5.57,0,0,0,.9,2.25,1.8,1.8,0,0,1-.55,0C521.69,170.82,521.22,171.48,521,172.13Z"/><path class="cls-1" d="M516.7,140.21h0Z"/><polygon class="cls-1" points="666.76 81.6 666.91 81.59 666.5 81.56 666.76 81.6"/><path class="cls-1" d="M665.55,81.45l1.19.09c.67,0-1.36-.07-.9-.1Z"/><path class="cls-1" d="M666,81.42c.28,0-.27-.05-.47-.06C665.91,81.37,665.35,81.42,666,81.42Z"/><path class="cls-1" d="M661.41,67.41h0Z"/><polygon class="cls-1" points="639.32 125.45 638.89 125.41 639.17 125.5 639.32 125.45"/><path class="cls-1" d="M638.19,125l-.28.06,1.22.22C639.79,125.05,637.76,125.17,638.19,125Z"/><path class="cls-1" d="M638.3,124.89c.25-.17-.3-.17-.5-.18C638.24,124.71,637.7,125,638.3,124.89Z"/><path class="cls-1" d="M630,72.39h0Z"/><path class="cls-1" d="M577.29,148.68h0l0,0Z"/><path class="cls-1" d="M583,112.06l.33.08v0L583,112S583,112.05,583,112.06Z"/><polygon class="cls-1" points="641.63 207.2 641.77 207.13 641.36 206.94 641.63 207.2"/><path class="cls-1" d="M640.7,206c-.08,0-.2,0-.28.06l1.19.73C642.28,206.42,640.24,206.17,640.7,206Z"/><path class="cls-1" d="M640.82,205.74c.28-.28-.27-.4-.47-.47C640.78,205.37,640.22,205.8,640.82,205.74Z"/><path class="cls-1" d="M669.64,101.66h0l-.06,0Z"/><polygon class="cls-1" points="726.39 38.48 726.23 38.53 726.59 38.83 726.39 38.48"/><path class="cls-1" d="M727,40c.09,0,.2,0,.28,0l-1-1.06C725.56,39.17,727.47,39.9,727,40Z"/><path class="cls-1" d="M726.8,40.23c-.34.24.18.49.34.6C726.74,40.63,727.4,40.3,726.8,40.23Z"/><path class="cls-1" d="M723.48,55.65Z"/><path class="cls-1" d="M721.83,58.28h0l0-.06Z"/><path class="cls-1" d="M723.58,55.54c0-.06.06-.13.1-.2h0l-.15.31Z"/><path class="cls-1" d="M723.7,55.3s0,0,0,0l0,0,0,0Z"/><polygon class="cls-1" points="816.67 49.32 816.51 49.37 816.89 49.63 816.67 49.32"/><path class="cls-1" d="M816.09,92.51h0l0,0Z"/><path class="cls-1" d="M870.26,116.16h0l0,0Z"/><polygon class="cls-1" points="1127.55 212.46 1127.71 212.48 1127.32 212.3 1127.55 212.46"/><path class="cls-1" d="M1127.58,212.31c.67.08-1.25-.55-.8-.5l-.28-.06Z"/><path class="cls-1" d="M1126.91,211.77c.29,0-.22-.2-.41-.28C1126.91,211.65,1126.33,211.63,1126.91,211.77Z"/><path class="cls-1" d="M1127.56,175.61h0Z"/><polygon class="cls-1" points="1225.51 283.63 1225.67 283.67 1225.29 283.47 1225.51 283.63"/><path class="cls-1" d="M1225.54,283.5c.67.13-1.23-.6-.78-.51l-.27-.08Z"/><path class="cls-1" d="M1224.89,283c.29,0-.22-.2-.4-.28C1224.89,282.86,1224.32,282.79,1224.89,283Z"/><path class="cls-1" d="M1223.22,251.9h0Z"/><polygon class="cls-1" points="939.47 187.93 939.61 187.92 939.2 187.89 939.47 187.93"/><path class="cls-1" d="M938.54,187.72h-.28l1.19.13C940.12,187.8,938.08,187.76,938.54,187.72Z"/><path class="cls-1" d="M938.66,187.68c.28,0-.27-.07-.47-.08C938.62,187.62,938.06,187.69,938.66,187.68Z"/><path class="cls-1" d="M937,168.21h0l0,0Z"/><polygon class="cls-1" points="981.85 229.97 982 229.98 981.62 229.83 981.85 229.97"/><path class="cls-1" d="M981.05,229.4l-.27-.06,1.09.49C982.55,229.92,980.6,229.35,981.05,229.4Z"/><path class="cls-1" d="M981.19,229.37c.29,0-.23-.18-.42-.24C981.18,229.27,980.6,229.24,981.19,229.37Z"/><path class="cls-1" d="M987,198.27h0l0,0Z"/><polygon class="cls-1" points="1017.33 199.58 1017.48 199.58 1017.08 199.47 1017.33 199.58"/><path class="cls-1" d="M1016.47,199.09l-.28,0,1.15.37C1018,199.45,1016,199.09,1016.47,199.09Z"/><path class="cls-1" d="M1016.6,199.05c.29,0-.25-.15-.44-.2C1016.58,198.94,1016,199,1016.6,199.05Z"/><path class="cls-1" d="M1017.41,166.44h0l-.06,0Z"/><polygon class="cls-1" points="1137.74 201.13 1137.89 201.17 1137.49 201.02 1137.74 201.13"/><path class="cls-1" d="M1136.88,200.72l-.27-.07,1.12.42C1138.39,201.22,1136.45,200.62,1136.88,200.72Z"/><path class="cls-1" d="M1137,200.73c.27,0-.25-.13-.44-.19C1137,200.67,1136.42,200.57,1137,200.73Z"/><path class="cls-1" d="M1137.68,193.58a.92.92,0,0,1,.24,0c-.21-.22.27-.33,0-.54h.12c-.92-.54.23-.91-.88-1.43a2.23,2.23,0,0,0-.28-1.63h.25c-.52-.43.83-.84.43-1.28.58-.47-1.42-.87-.64-1.33,1.24-.36-1.37-.53-.17-.87,1.85-.7.53-1.16-.69-1.46.6-.61-1.2-.7.11-1.46-.89,0,1-.72.63-.94l-.29.1c.87-.39-1.31.23,0-.28h.06c.65-.3-1.62.47-.82.15l-.34.12c-.11,0,.38-.15.5-.24,0,0-.6.22-.42.12,1.33-.54-.33,0,1.17-.62a7.73,7.73,0,0,1,.9-.34c.15-.09,0-.17-.59.11a19.19,19.19,0,0,0-1.78.76l.5-.19-.6.27a9,9,0,0,1-1.05.54l0,0c.6-.21.26,0,.18,0l-.27.11c-.58.23,1.15-.36.15,0a.34.34,0,0,1,.36.28c.4-.09,0,.11.74-.13-.85.28-1,.42-1,.44l-.15,0c-1.1.35,1.05-.16-.3.25,1-.22-.29.21.86,0l-.58.14c0,.14-.33.37-.36.49.88-.08-.35.31.85.17-.24.12-.72.32-.23.33h-.15c.09.1.17.22.93.19a5,5,0,0,0-1.25.32c.54,0,.4.17.9.22-.53.08.23.07-.54.16,1.52.14,1.13.63,0,1.05h0l1.9,0a.66.66,0,0,1-.2,0c.15.06-.61.17-.48.23h-.25c.35,0-.61.16,0,.2h-.2l.28,0c-.25,0-.63,0-.55,0-.26.56,1,1.12.84,1.73l-.24,0,.44.12-.25,0c-.44.14.28.3.17.45a4.25,4.25,0,0,0-.51,0c.69.13-.9.13.54.24l-.51,0c.47.31.44.62.2.89,1.3.34.12.53,1.14.88l-.25,0c.92.44-.11.7,0,1.06-.14.13.16.27.14.42l-.32,0c1.18.42-1.21.36.09.81l-.43-.08c.66.14-.27.12.88.28h-.35c1.49.41-.78.2.17.58l-.27-.06c.19.09.35.19.09.19l-.18,0c-1.13,0,0,.39,0,.58l-.5-.11c.57.2,0,.26.23.43l-.24-.05.33.12-.48-.09c-.07.15.32.37.34.53l-.44-.09c.75.3-.07.29.24.51l-.16,0c-.24.33.41.84.66,1.3l-.22-.07c.15.05.42.14.38.15l-.24-.07c-.73-.09.4.35-.16.26a2.85,2.85,0,0,0,.59.17,2.3,2.3,0,0,0,.68,1.16,3.87,3.87,0,0,1-.53-.13c1.09.58.57.74.33,1,.3.1.33.07.63.18s-.7-.37-.14-.3l.29.09c.19,0-.74-.22-.35-.17s.37.11.4.1c-.1-.16.19-.22-.49-.53.63.14,0-.13.66,0a3.16,3.16,0,0,0-.59-.24c.43-.35-.1-.95,0-1.37-1.19-.49.33-.4,0-.74l.13,0c-.29-.15-.41-.29-.23-.35l-.52-.19c1.21-.34.56-1.08,1.13-1.57S1139.22,194.44,1137.68,193.58Z"/><polygon class="cls-1" points="1176.34 259.61 1176.5 259.63 1176.11 259.48 1176.34 259.61"/><path class="cls-1" d="M1175.54,259l-.27-.06,1.09.49C1177,259.57,1175.1,259,1175.54,259Z"/><path class="cls-1" d="M1175.68,259c.29,0-.23-.18-.42-.24C1175.67,258.91,1175.1,258.88,1175.68,259Z"/><path class="cls-1" d="M1181.5,227.92h0l0,0Z"/><polygon class="cls-1" points="1079.32 195.12 1079.48 195.1 1079.06 195.03 1079.32 195.12"/><path class="cls-1" d="M1078.42,194.74h-.28l1.18.25C1080,194.95,1078,194.78,1078.42,194.74Z"/><path class="cls-1" d="M1078.54,194.7c.28-.06-.27-.12-.46-.14C1078.51,194.6,1077.93,194.68,1078.54,194.7Z"/><path class="cls-1" d="M1069.34,167.88h0Z"/><polygon class="cls-1" points="859.55 85.96 859.69 86.03 859.38 85.74 859.55 85.96"/><path class="cls-1" d="M859,85.16l-.24-.14.89.81C860.22,86.12,858.56,84.95,859,85.16Z"/><path class="cls-1" d="M859.08,85.18c.27.08-.19-.22-.36-.33C859.09,85.08,858.56,84.88,859.08,85.18Z"/><polygon class="cls-1" points="911.68 206.77 911.82 206.74 911.41 206.65 911.68 206.77"/><path class="cls-1" d="M910.76,206.22h-.28l1.19.35C912.34,206.47,910.32,206.29,910.76,206.22Z"/><path class="cls-1" d="M910.89,206.13c.28-.1-.27-.17-.47-.21C910.85,206,910.29,206.14,910.89,206.13Z"/><path class="cls-1" d="M907.62,160.36h0l-.06,0Z"/><polygon class="cls-1" points="722.26 142.59 722.41 142.63 722.06 142.42 722.26 142.59"/><path class="cls-1" d="M721.63,141.86l-.27-.08,1,.66C723,142.58,721.16,141.76,721.63,141.86Z"/><path class="cls-1" d="M721.77,141.83c.31,0-.19-.23-.35-.33C721.81,141.69,721.2,141.63,721.77,141.83Z"/><path class="cls-1" d="M727.34,82.87l.53,0a5.37,5.37,0,0,1-.67.07c-.07.25-.85.28-1.16.46h.06c.63.12.25.29.17.39l-.3,0c-.61.06,1.22.28.16.21a3.77,3.77,0,0,1,.26,1.65c.4.08,0,.43.74.31-.88.14-1.11.56-1.08.72-.09,0-.18,0-.15,0-1.15.3,1.07.36-.34.64,1,0-.32.52.85.68a2.64,2.64,0,0,1-.59,0c0,.51-.38,1.07-.43,1.51.88.37-.39.89.82,1.21-.25.26-.76.69-.28,1.06l-.15,0a1.31,1.31,0,0,0,.89,1.22c-1.16.12-.92.3-1.29.48.53.28.38.83.87,1.26-.54.06.22.35-.55.37,1.5,1.18,1,2.64-.16,3.9.45.16,1.32.34,1.86.5-.07,0-.19,0-.19,0,.15.23-.61.44-.48.67a.58.58,0,0,1-.24,0c.34.22-.62.44,0,.7h-.2l.28.16c-.25,0-.64,0-.55-.1-.25,2,1.08,4,.88,6.05l-.24-.08.44.39a.7.7,0,0,1-.25,0c-.44.5.29,1,.18,1.51-.13,0-.37-.08-.51,0,.69.36-.9.58.53.76a1.64,1.64,0,0,1-.5,0,4.55,4.55,0,0,1,.21,3.06c.64.42.72.91.65,1.18a1.46,1.46,0,0,0,.21,1.4l-.25-.06c.67,1.29-.53,2.28-.59,3.47-.19.46,0,.84,0,1.33l-.32-.06c1,1.07-1.44,1.48-.28,2.6l-.42-.15c.64.27-.34.46.82.65l-.38.08c1.4.89-.92.89-.09,1.8l-.26-.11c.17.23.28.49,0,.57,0,0-.12,0-.18-.1-1.21.35-.16,1.26-.34,1.86l-.49-.18c.52.43-.15.85,0,1.3l-.23-.08.29.27-.48-.1c-.15.5.16,1.07.11,1.58l-.43-.13c.66.64-.21,1,0,1.53l-.15-.07c-.5,1.12-.09,2.46-.15,3.87l-.19-.15c.12.13.35.32.3.37a.5.5,0,0,1-.21-.16c-.75-.09,0,.9-.53.79a1,1,0,0,0,.53.34,8.23,8.23,0,0,0-.62,3,1.33,1.33,0,0,1-.53-.19c.68,1.22-.17,1.78-.77,2.46.27.14.35,0,.61.24.5-.09-.48-.72.17-.73l.26.14c.27-.08-.68-.32-.23-.34.27,0,.35.16.39.14.07-.38.51-.62,0-1.23.64.19.22-.35.87-.22-.19-.19-.08-.25-.46-.46.92-1.08,1.14-2.41,1.68-3.81-1-1.21.67-1.43.52-2.43l.13,0a.9.9,0,0,1,0-1.07l-.45-.4c1.52-1.57,1.15-3.59,2-5.34.8-2,2.05-3.68.84-6.06.13,0,.19,0,.23.09-.13-.64.43-1.08.28-1.69l.13,0c-.74-1.58.72-2.84-.13-4.39a17.47,17.47,0,0,0-.25-5.32h.25c-.54-1.39.8-2.74.4-4.13.57-1.43-1.44-2.94-.68-4.39,1.23-.89-1.41-2.06-.13-2.9,1.92-1.72.69-3.39-.47-5.11.68-1.59-1.08-3.17.32-4.71-.89-.73,1.11-1.53.86-2.34l-.31,0c.94-.29-1.32-.65.08-.83l.07,0c.71-.15-1.68-.36-.84-.45l-.35,0c-.11-.19.4,0,.54-.17,0-.05-.65,0-.45-.13,1.45,0-.31-.46,1.31-.47,0,.1.62-.16,1,.07.17-.07.09-.38-.6-.35A5.68,5.68,0,0,0,727.34,82.87Z"/><path class="cls-1" d="M725.53,99h0l0,0Z"/><path class="cls-1" d="M344.72,253.85l.67.23-.35-.21C345,253.85,345.52,254.15,344.72,253.85Z"/><path class="cls-1" d="M344.62,253.31l-.26-.1.94.71C346,254.11,344.16,253.2,344.62,253.31Z"/><path class="cls-1" d="M344.77,253.29c.3,0-.18-.26-.32-.38C344.81,253.15,344.22,253,344.77,253.29Z"/><path class="cls-1" d="M358.85,196.58h0l0-.05Z"/><polygon class="cls-1" points="808.41 55.45 808.55 55.43 808.13 55.43 808.41 55.45"/><path class="cls-1" d="M807.45,55.32l-.27,0h1.2C809,55.24,807,55.4,807.45,55.32Z"/><path class="cls-1" d="M807.57,55.26c.27-.08-.28,0-.48,0C807.53,55.2,807,55.33,807.57,55.26Z"/><path class="cls-1" d="M799.42,36h0Z"/><polygon class="cls-1" points="694.72 62.7 694.88 62.72 694.48 62.6 694.72 62.7"/><path class="cls-1" d="M693.88,62.29l-.27,0,1.13.37C695.4,62.68,693.42,62.24,693.88,62.29Z"/><path class="cls-1" d="M694,62.27c.29,0-.25-.13-.44-.18C694,62.19,693.41,62.16,694,62.27Z"/><path class="cls-1" d="M713.27,38.11A10.06,10.06,0,0,0,712,36.62l.32.43-.45-.49c-.16,0-.66-.56-.93-.74l0,0c.35.54,0,.3-.07.27l-.2-.22c-.41-.46.65,1,0,.19a1.24,1.24,0,0,1-.54.78c.22.34-.2.12.34.68-.62-.64-.94-.66-1-.58s-.11-.14-.08-.12c-.86-.78.52.95-.49,0,.61.78-.43-.07.25.89a4.71,4.71,0,0,1-.4-.45c-.22.16-.7.08-.9.2.39.8-.63,0,0,1-.27-.1-.78-.34-.62.16l-.09-.13c-.13.2-.3.43.06,1.11-.79-.84-.72-.6-1-.82.22.51-.11.59,0,1.11-.37-.38,0,.3-.5-.29.46,1.57-.5,1.67-1.75,1.27l0,0,1,1.64s-.13-.14-.12-.15c0,.19-.58-.31-.58-.12a.74.74,0,0,1-.15-.21c.13.34-.59-.31-.31.24l-.14-.15.12.28c-.17-.19-.41-.49-.32-.46-1,.52-1,2.27-2,2.87l-.13-.21.13.47a1.26,1.26,0,0,1-.16-.2c-.5-.14-.23.59-.5.69a2.37,2.37,0,0,0-.34-.38c.32.65-.86-.43,0,.7a2.85,2.85,0,0,1-.34-.38,1.62,1.62,0,0,1-1.12,1.37c.21.75.08,1-.14,1.3-.06.05-.27.51-.14.24a.71.71,0,0,0,.17.51l-.22-.13c.38.9-.87.72-1.2,1.29-.26.12-.18.45-.35.67l-.24-.22c.61,1.17-1.5,0-.79,1.25l-.32-.31c.48.49-.37.09.56.8l-.32-.15c1,1.2-.92.05-.34,1l-.21-.18c.11.21.18.4-.08.32,0,0-.1-.07-.14-.13-1.13-.34-.32.64-.51.93l-.43-.3c.45.46-.19.45-.06.79l-.2-.13.24.27-.43-.23c-.18.25.07.69,0,1l-.39-.21c.58.58-.28.5-.06.91l-.14-.08c-.43.61,0,1.5.11,2.24l-.21-.1c.14.08.39.21.34.23a.63.63,0,0,1-.22-.11c-.75-.1.28.54-.29.45a1.85,1.85,0,0,0,.58.22,3.45,3.45,0,0,0,.48,1.81,2.49,2.49,0,0,1-.53-.12c1,.73.48,1.05.17,1.46a5.51,5.51,0,0,1,.65.13c.42-.06-.69-.42-.1-.42l.29.08c.21,0-.74-.18-.34-.19a2.38,2.38,0,0,1,.4.08c-.07-.22.24-.36-.42-.72.64.11.08-.21.7-.12a2.18,2.18,0,0,0-.57-.28c.51-.59,0-1.5.38-2.15-1.06-.76.51-.62.25-1.14l.12.05c-.24-.24-.31-.49-.11-.57l-.44-.35c1.41-.4,1.18-1.59,2.07-2.17.89-.74,2.06-.78,1.58-2.69.09.09.14.13.17.19,0-.41.56-.27.58-.67l.09.09c-.3-1.12,1.66-1.43,1-2.58a8.53,8.53,0,0,0,1.68-2.14l.17.19c.21-.9,1.65-.4,2-1.2,1-.09.28-2.14,1.38-2.08,1.17.63-.06-1.81,1.13-1.13,2,.87,1.87-.67,1.86-2.16,1.11,0,.65-1.94,2.2-1.4-.26-.95,1.36.33,1.54-.15l-.2-.23c.72.63-.56-1.25.4-.23l0,.06c.52.5-.91-1.43-.33-.8l-.21-.28c0-.14.26.3.41.36s-.4-.51-.21-.39c.91,1.11,0-.4,1,.85,0,0,.47.43.58.77C713.62,38.8,713.71,38.63,713.27,38.11Z"/><polygon class="cls-1" points="501.42 147.43 501.56 147.47 501.18 147.29 501.42 147.43"/><path class="cls-1" d="M500.64,146.86l-.27-.08,1.07.54C502.1,147.47,500.19,146.76,500.64,146.86Z"/><path class="cls-1" d="M500.77,146.86c.28,0-.23-.18-.41-.25C500.76,146.76,500.19,146.67,500.77,146.86Z"/><path class="cls-1" d="M503.48,121h0l0,0Z"/><path class="cls-1" d="M504.71,127.48l.15-.21a7.9,7.9,0,0,0-1,3c-1.29.81-.25,1.59-1.61,2.49h.13c-.37.37,0,.67-.38,1.1a.62.62,0,0,1,.25-.06,2.13,2.13,0,0,0-.66,3c0-.13.14-.22.49-.14,0,.07.13.11.15.15.24.07.14-.14,0-.4l.2.21c-.31-.54,0-.54.17-.45s0,.1.1-.66c.32-.85.17-.33.59-.89l-.3.36c.64-.67.69-.5.51-.66s-.34-.33.35-.64l-.32,0c.12-.27.49-.47.48-.73.42-.62-.32-1.28.69-2h-.25c1.14-.55.08-1,1.48-1.67a5.09,5.09,0,0,1,.39-2.43,1.67,1.67,0,0,1-.45.25c1.19-.94-.12-.31.1-1.26-.16,0-.22.32-.31.42s0,0,0,0l0,.07A7.2,7.2,0,0,0,504.71,127.48Z"/><path class="cls-1" d="M501.76,137.7l-.46-.26c.49.43-.14.53,0,.86l-.22-.1.28.24-.46-.17c-.15.29.15.72.12,1l-.42-.16c.66.52-.2.56,0,1l-.15-.07c-.4.66.08,1.55.16,2.36l-.2-.1c.13.08.39.21.34.24a.75.75,0,0,1-.23-.11c-.75-.09.29.59-.27.5a1.57,1.57,0,0,0,.56.24,4,4,0,0,0,.27,2,2.27,2.27,0,0,1-.53-.16c1,.87.34,1.22,0,1.65a4.41,4.41,0,0,1,.62.21c.42,0-.63-.54,0-.5l.28.11c.21,0-.72-.27-.31-.25a2.32,2.32,0,0,1,.39.12c0-.26.29-.41-.33-.85.64.16.11-.23.73-.11-.23-.14-.14-.18-.55-.34.59-.66.26-1.66.58-2.44-1.07-.78.52-.74.26-1.32l.12,0c-.24-.24-.31-.5-.11-.62l-.46-.32c1.39-.67,1-2,1.67-2.58.11-.17.24-.25.1-.2a1.85,1.85,0,0,1-1.76-.47,3.36,3.36,0,0,1-.22-.41C501.51,137,501.85,137.51,501.76,137.7Z"/><polygon class="cls-1" points="425.3 212.26 425.38 212.39 425.25 211.99 425.3 212.26"/><path class="cls-1" d="M425.16,211.3a2.36,2.36,0,0,1-.13-.25l.36,1.15C425.74,212.77,424.92,210.91,425.16,211.3Z"/><path class="cls-1" d="M425.26,211.39c.17.22,0-.29-.11-.47C425.31,211.32,425,210.85,425.26,211.39Z"/><path class="cls-1" d="M442.36,194h0l0,0Z"/><polygon class="cls-1" points="388.14 226.11 388.23 226.23 388.11 225.82 388.14 226.11"/><path class="cls-1" d="M388.09,225l-.14-.23s.34,1.2.34,1.2C388.72,226.51,387.83,224.67,388.09,225Z"/><path class="cls-1" d="M388.22,225.09c.22.17,0-.32-.12-.49C388.31,225,387.89,224.58,388.22,225.09Z"/><path class="cls-1" d="M403.7,193.47l.34.41-.48-.47c-.16,0-.68-.52-1-.69l0,0c.37.53,0,.31-.06.27l-.21-.21c-.44-.44.68,1,0,.19a1.43,1.43,0,0,1-.55.84c.23.34-.21.14.35.68-.65-.61-1-.61-1-.53s-.11-.14-.08-.12c-.89-.74.54.94-.51,0,.63.76-.44,0,.26.9a3.52,3.52,0,0,1-.41-.43c-.24.18-.73.13-1,.27.42.8-.65.05,0,1.08-.28-.09-.8-.3-.64.21l-.08-.12c-.14.21-.33.46,0,1.14-.82-.82-.75-.57-1.07-.78.23.51-.12.61,0,1.13-.38-.37,0,.31-.53-.27.47,1.58-.52,1.76-1.83,1.41l1,1.58s-.14-.14-.12-.15c0,.2-.6-.29-.61-.09a.77.77,0,0,1-.15-.2c.13.34-.61-.29-.32.26l-.15-.15.12.28c-.17-.19-.42-.48-.32-.46a3.87,3.87,0,0,0-.91.87,3.77,3.77,0,0,0-.31,1.33,3.35,3.35,0,0,1-.41,1.84l-.19-.15.28.4a1.18,1.18,0,0,1-.21-.13c-.53.08,0,.67-.22.9a2.09,2.09,0,0,0-.47-.22c.54.5-1,0,.31.66a2.72,2.72,0,0,1-.47-.21,1.83,1.83,0,0,1-.52,1.84c1,.93-.3,1.06.48,1.88l-.24-.08c.62.9-.64,1.25-.57,2-.17.27.09.53.06.82l-.32-.05c1.13.71-1.28.8,0,1.56l-.43-.11c.66.2-.29.26.87.44l-.36,0c1.46.62-.83.48.09,1.09l-.27-.08c.2.15.34.31.07.35a1.32,1.32,0,0,1-.18-.07c-1.14.13,0,.75-.16,1.1l-.5-.15c.55.3-.07.5.16.79l-.23-.07.3.19-.48-.11c-.1.29.25.66.24,1l-.43-.12c.69.46-.17.56.08.92l-.15-.06c-.37.65.18,1.52.18,2.35l-.2-.11c.13.09.38.23.33.26a.59.59,0,0,1-.22-.12c-.74-.13.25.62-.3.49a1.57,1.57,0,0,0,.55.29,12.6,12.6,0,0,0-.2,2.23,2,2,0,0,1-.47-.29c.75,1.2-.38,1.55-1.08,1.83.15.28.25.23.37.55.46.14-.07-.92.47-.63l.17.25c.27,0-.48-.59-.08-.42.23.13.25.29.29.28.22-.35.74-.47.27-1.15.55.34.18-.25.76,0-.17-.21-.08-.24-.42-.51.92-.72.7-1.88,1.06-2.7-1-.83.56-.79.28-1.41l.13,0c-.25-.25-.34-.51-.13-.64l-.48-.3c1.41-.8.85-2.12,1.55-3.12.55-1.2,1.65-2.12.22-3.62.13,0,.2,0,.23.07-.19-.39.33-.57.14-.93l.13,0c-.85-1,.72-1.47-.08-2.55a7.54,7.54,0,0,0,.87-3l.23.11c-.15-1,1.43-1.08,1.43-2,.47-.27.27-.75.2-1.26s.19-1,.75-1c1.21.58,0-1.87,1.2-1.23,2,.78,2-.8,1.95-2.34,1.16-.1.69-2,2.29-1.59-.27-1,1.42.24,1.6-.27l-.21-.22c.75.6-.59-1.25.42-.26l0,.06c.53.47-1-1.4-.35-.8l-.22-.27c0-.15.27.29.43.34,0-.05-.42-.49-.23-.38,1,1.07,0-.41,1.08.8,0,0,.49.41.6.75.14.1.22-.08-.24-.59A9.29,9.29,0,0,0,403.7,193.47Z"/><path class="cls-1" d="M395.38,198.41h0l0,0Z"/><path class="cls-1" d="M304,218.9l.39.09-.39-.14C303.89,218.82,304.47,219,304,218.9Z"/><path class="cls-1" d="M303.44,218.5l-.27-.07,1.08.45C304.93,219,303,218.41,303.44,218.5Z"/><path class="cls-1" d="M303.58,218.49c.29,0-.23-.15-.41-.22C303.58,218.42,303,218.34,303.58,218.49Z"/><path class="cls-1" d="M310.89,195.52h0l0,0Z"/><polygon class="cls-1" points="176.07 269.85 176.21 269.8 175.8 269.87 176.07 269.85"/><path class="cls-1" d="M175.12,269.86l-.27.07,1.19-.15C176.68,269.59,174.68,270,175.12,269.86Z"/><path class="cls-1" d="M175.22,269.81c.26-.1-.28,0-.48,0C175.18,269.76,174.64,269.95,175.22,269.81Z"/><path class="cls-1" d="M166.65,254.88Z"/><polygon class="cls-1" points="202.93 262.88 203.18 262.93 202.85 262.86 202.93 262.88"/><path class="cls-1" d="M203.66,263.06l.15.07h0Z"/><path class="cls-1" d="M204.38,263.5l-.1-.07C204.37,263.56,204.47,263.65,204.38,263.5Z"/><path class="cls-1" d="M222.06,244.93h0l0,0Z"/><polygon class="cls-1" points="325.34 228.9 325.67 228.97 325.43 228.91 325.34 228.9"/><path class="cls-1" d="M326.32,229.18l-.16-.08.16.08Z"/><path class="cls-1" d="M326.88,229.54l-.11-.07C326.87,229.59,327,229.69,326.88,229.54Z"/><path class="cls-1" d="M344.55,211h0l0,0Z"/><path class="cls-1" d="M346.14,214.46c0-.75-.13-1.28.47-1.54,1.36.09-.62-1.82.76-1.69,2.22,0,1.63-1.57,1.13-3.08,1.09-.56,0-2.29,1.71-2.48-.57-.83,1.44-.33,1.46-.91l-.28-.13c.91.29-1-1,.32-.43l0,0c.67.25-1.38-1-.6-.65l-.3-.18c0-.15.36.18.53.16,0-.05-.55-.32-.34-.29,1.27.67-.15-.4,1.28.36,0,.06.6.21.84.5.17,0,.18-.17-.43-.48a8.75,8.75,0,0,0-1.71-.89l.46.27-.6-.28c-.14.11-.83-.24-1.17-.29l0,0c.53.37.15.29,0,.3l-.27-.12c-.56-.26,1,.73.07.18a1.57,1.57,0,0,1-.27,1c.34.24-.16.22.56.52-.83-.34-1.15-.21-1.17-.11s-.15-.09-.12-.09c-1.1-.38.83.71-.5.2.87.5-.43.14.54.78a4.38,4.38,0,0,1-.53-.26c-.17.28-.65.42-.83.64.66.62-.61.31.35,1.06-.3,0-.87,0-.56.46l-.12-.09c-.06.26-.17.58.42,1.1a2.27,2.27,0,0,0-1.28-.34c.39.41.09.64.38,1.11-.49-.22.1.3-.59-.05,1,1.37.07,1.94-1.31,2.11l1.48,1.16c-.06,0-.17-.09-.16-.11.06.2-.68,0-.62.16A.93.93,0,0,1,345,212c.24.28-.67,0-.22.38l-.18-.09.2.23c-.22-.12-.56-.31-.46-.32-.26.33-.13.18-.13.39s0,.18,0,.3a4.33,4.33,0,0,1-.42.59,2.83,2.83,0,0,1-1.1.95l-.09-.23v.5a1.08,1.08,0,0,1-.11-.23c-.5-.21-.41.58-.73.65a2.19,2.19,0,0,0-.26-.44c.16.71-.79-.58-.14.71a2,2,0,0,1-.26-.44,1.94,1.94,0,0,1-1.56,1.2c.22,1.4-.9.7-.84,1.88l-.14-.22c-.14,1.16-1.3.73-1.84,1.28-.32.08-.34.45-.59.63l-.18-.27c.21,1.32-1.54-.35-1.26,1.1l-.21-.39c.3.62-.41,0,.25.95l-.27-.25c.53,1.5-1-.24-.8.86l-.13-.25c0,.25,0,.47-.22.3,0,0-.06-.1-.08-.18-.92-.71-.6.54-1,.72l-.25-.46c.17.61-.44.34-.5.71l-.12-.21.08.36-.27-.41c-.29.16-.32.69-.55.92l-.23-.38c.19.83-.54.35-.61.82l-.07-.15c-.77.33-1,1.37-1.39,2.11l-.12-.2c.06.15.19.4.14.4a.77.77,0,0,1-.13-.22c-.57-.48-.11.67-.53.28a1.45,1.45,0,0,0,.34.52,3.35,3.35,0,0,0-.87,1.86,2.48,2.48,0,0,1-.39-.4c.4,1.2-.22,1.22-.52,1.26l-.21-.13c.29.17.06.05.2.13h0l-.41-.15a3.86,3.86,0,0,1,.43.16l.43.29c-.11-.15-.21-.35.07-.18l.21.21c.21.07-.55-.52-.2-.32a2.93,2.93,0,0,1,.31.27c0-.21.31-.13,0-.82.48.46.2-.14.68.28a2,2,0,0,0-.3-.56c.8-.26,1.13-1.27,1.85-1.76-.41-1.27.89-.33,1-1l.07.11c0-.35.06-.61.31-.58l-.17-.53c1.58.25,2.13-1.06,3.38-1.32,1.3-.47,2.77-.34,3-2.45.07.11.11.16.11.22.18-.42.72-.22.88-.63l.07.1c.19-1.36,1.63-.85,1.78-2.26a9.15,9.15,0,0,0,2.68-2l.13.22c.49-.91,1.9-.21,2.45-1C345.54,215.54,345.94,214.95,346.14,214.46Z"/><polygon class="cls-1" points="270.01 219.83 270.35 219.89 270.1 219.84 270.01 219.83"/><path class="cls-1" d="M271,220.1l-.17-.08.15.07Z"/><path class="cls-1" d="M289.23,201.89h0l0,0Z"/><path class="cls-1" d="M295.68,193.72l.46.27-.6-.28c-.14.11-.83-.24-1.17-.29l0,0c.52.37.15.29,0,.3l-.27-.12c-.56-.26,1,.73.07.18a1.57,1.57,0,0,1-.27,1c.34.24-.16.22.56.52-.83-.34-1.15-.21-1.17-.11s-.15-.09-.12-.09c-1.1-.38.84.71-.5.2.87.5-.43.14.54.78a4.11,4.11,0,0,1-.53-.27c-.17.28-.65.42-.83.64.66.62-.61.31.35,1.06-.3,0-.87,0-.56.46l-.12-.09c-.06.27-.17.58.42,1.1a2.24,2.24,0,0,0-1.28-.34c.39.4.09.64.38,1.11-.49-.21.1.3-.59-.05,1,1.37.07,1.94-1.31,2.11l1.48,1.16c-.06,0-.17-.09-.16-.1.06.2-.68,0-.62.16a.94.94,0,0,1-.21-.14c.24.29-.67,0-.22.38l-.18-.09.2.23c-.22-.12-.56-.31-.46-.32-.26.34-.13.18-.13.39s0,.18,0,.3a4.16,4.16,0,0,1-.42.59,2.82,2.82,0,0,1-1.1.95l-.09-.23v.5a1,1,0,0,1-.11-.23c-.5-.21-.41.58-.73.65a2.24,2.24,0,0,0-.26-.44c.16.71-.79-.58-.14.71a2.07,2.07,0,0,1-.26-.44,1.94,1.94,0,0,1-1.56,1.2c.22,1.4-.9.7-.84,1.88l-.14-.22c-.14,1.16-1.3.73-1.84,1.28-.32.08-.33.45-.59.63l-.17-.27c.21,1.33-1.54-.35-1.26,1.1l-.2-.39c.29.62-.42,0,.24.95l-.27-.25c.53,1.5-1-.24-.8.86l-.13-.25c0,.25,0,.47-.22.3,0,0-.06-.11-.08-.19-.92-.71-.6.54-1,.73l-.25-.46c.17.61-.44.34-.5.71l-.12-.21.08.36-.27-.4c-.29.16-.32.69-.55.92l-.23-.38c.19.82-.54.35-.61.82l-.07-.14c-.77.33-1,1.37-1.39,2.11l-.12-.2c.06.15.19.4.15.4a.87.87,0,0,1-.14-.22c-.57-.48-.11.67-.53.29a1.42,1.42,0,0,0,.34.51,3.37,3.37,0,0,0-.87,1.86,2.62,2.62,0,0,1-.39-.4c.4,1.19-.22,1.22-.52,1.27l-.22-.13.21.13h0l-.4-.14a4.22,4.22,0,0,1,.43.16l.43.28c-.12-.15-.21-.35.07-.18l.21.21c.2.07-.55-.52-.2-.32s.28.27.31.27c0-.21.31-.13,0-.81.48.45.2-.14.68.27a1.94,1.94,0,0,0-.3-.56c.8-.25,1.13-1.27,1.85-1.76-.41-1.27.88-.33,1-1l.07.1c0-.35.06-.61.31-.58l-.17-.54c1.58.25,2.13-1.05,3.38-1.32,1.3-.47,2.77-.34,3-2.45.07.11.11.16.11.22.19-.42.72-.22.89-.63l.07.11c.19-1.36,1.63-.86,1.78-2.26a9.06,9.06,0,0,0,2.68-2l.13.22c.49-.91,1.91-.21,2.46-1,.45,0,.85-.55,1-1,0-.75-.13-1.28.47-1.54,1.36.09-.62-1.82.76-1.69,2.22,0,1.63-1.57,1.13-3.08,1.09-.56,0-2.29,1.71-2.48-.57-.83,1.44-.33,1.46-.91l-.28-.13c.91.29-1-1,.32-.43l0,0c.67.25-1.38-1-.6-.65l-.3-.18c0-.15.36.18.53.16,0-.05-.55-.32-.34-.29,1.27.67-.15-.4,1.28.36,0,.06.6.21.84.5.17,0,.18-.17-.43-.48A8.62,8.62,0,0,0,295.68,193.72Z"/><path class="cls-1" d="M271.55,220.47l-.11-.07C271.53,220.52,271.63,220.62,271.55,220.47Z"/><path class="cls-1" d="M767.71,8.3c0,.42.52.14.71.07C768,8.57,768.1,7.85,767.71,8.3Z"/><rect class="cls-1" x="766.82" y="90.83" width="0.01"/><path class="cls-1" d="M778.5,25.41c.06,0,.2,0,.25.08-.18-.14-.51-.27-.53-.48s.22,0,.28.06c.53-.92-1-2.18-.55-2.77a.47.47,0,0,0-.66-.09A17.43,17.43,0,0,0,773,14.58c0-.21.16-.32.42-.38a13.54,13.54,0,0,1-2.84-2.44l-2.23-3c-.3.14-.08.42-.49.45.23.88,1.55.63,1.6,1.57l-.29.12c.19.54.65-.41.71.27,0,.33-.32.21-.27.3.77.76,1.05,1.56,2.33,2-.22.22-.06.42.13.63a1.55,1.55,0,0,1,.32,1.19c.48.3.56.57,1,.42.44.88.92,1.73,1.29,2.58a10.78,10.78,0,0,1,1.05,2.54,54,54,0,0,1,1.73,6.08,4.44,4.44,0,0,1,1.17,2.89l.18,1.6a5,5,0,0,0,.51,1.94.19.19,0,0,1-.13,0,2.23,2.23,0,0,1,.5,2.14s.39.7.39.73c-1.53,2-3.31,3.7-5.25,6.36-.84,2.86-1.58,5.74-2.25,8.54a44.54,44.54,0,0,0-.21,18c-.13,0-.2,0-.23-.15.25,1.68-1.16,2.69-1.6,4.35l-.11-.06c-.44,2-1.63,4.08-2.11,6.31a22.53,22.53,0,0,0-.6,6.33c0,.23-.09.47-.13.7-.06-2-.13-4.11-.25-6.1h.25a21,21,0,0,1,0-4.62l0-.31-.37,0-1.05-.1a21.87,21.87,0,0,0,.27-5.61,13.35,13.35,0,0,0-.88-6.46,19,19,0,0,1-1.21-6.39c1-2.75-2.26-5.93-1-8.55,2.23-4.65,2.19-9.81,1.77-15.06,1.4-4.51.59-9.47,2.49-13.68-.89-2.16,1.11-4.54.86-6.95l-.31.09c.94-.86-1.32-1.92.08-2.46l.07.09c.71-.46-1.68-1.06-.83-1.34l-.35-.08c-.11-.55.4-.06.54-.49,0-.16-.65-.06-.45-.4a1,1,0,0,0,.24,0s.1,0,.08.05a.33.33,0,0,1,.06-.08c.7-.28-.5-1.29.93-1.32,0,.3.62-.47,1,.21.17-.19.09-1.12-.6-1-.73-.08-1.36-.44-1.92.12l.54.12c-.54.19-.27.14-.67.21-.07.74-.85.83-1.16,1.36h.06c.08,0,.1.09.15.14l0,.07.08,0c.28.33,0,.72,0,1l-.3.12c-.61.17,1.21.84.16.61a31.59,31.59,0,0,1,.26,4.88c.4.24,0,1.28.74.92a2.39,2.39,0,0,0-1.08,2.12c-.09,0-.18,0-.15-.11-1.15.89,1.07,1.06-.34,1.9.5,0,.42.49.36.83a.7.7,0,0,0,.36.87.93.93,0,0,1-.6,0c-.26,1.48-.9,3.06-1.15,4.3.68,1.22-.82,2.52.21,3.66a4.34,4.34,0,0,0-.78,3l-.13-.13c-.13,1.22-.32,2.73.28,3.71-1.19.13-1.05.69-1.49,1.14.39.91,0,2.5.23,3.83-.55.08.06,1.06-.71,1a15.8,15.8,0,0,1,0,5.86c0,1.13-.13,2.27-.26,3.44a28.77,28.77,0,0,1-.37,3c.5.43,1.44.87,2,1.28-.07.06-.18.07-.2,0,.22.66-.45,1.4-.22,2.06-.13,0-.14,0-.26-.08.43.59-.43,1.4.27,2.07l-.2.07.35.44c-.25,0-.63.06-.58-.21a40.88,40.88,0,0,0,.65,4.18,23.38,23.38,0,0,1,.8,4.15,52.06,52.06,0,0,1,.46,8.12l0,1.34,1.37,0h.07c0,1.15.4,2.32.31,3.42-.13,0-.37-.23-.51,0,.69,1.07-.9,1.72.54,2.26a.57.57,0,0,1-.51,0,31.78,31.78,0,0,1,.38,4.52l0,2.27-.06,1.13v.16h2.83v0l0-.07.07-.27.14-.54c-.86-2.46.8-5.08.22-7.75l.25.05a8.83,8.83,0,0,1,.9-5c.81-1.53,1.8-3,2.52-4.6a7.15,7.15,0,0,0,.93-3.84h.33c-.87-2.6,1.09-5.2-.12-7.78l.44.18c-.68-.41.26-1.53-.91-1.41l.36-.44c-1.53-1.8.76-3.12-.22-5.3l.28.16c-.24-.59-.36-1.26,0-1.64,0,.07.12,0,.17.18,1.45-1.59.49-3.66,1-5.49l.45.33c-.35-1,.62-2.42.66-3.63l.2.17-.16-.72.45.2L779,39.86l.3.34c.16-1.64,2-2.39,2-4.18l.14.14c.68-2.13-.5-4-.94-5.55C779.81,28.84,779.08,27.21,778.5,25.41Z"/><path class="cls-1" d="M761.27,53.7h0l-.06,0Z"/></g></g></svg>