<svg xmlns="http://www.w3.org/2000/svg" viewBox="0 0 17.61 13.37"><defs><style>.cls-1{fill:#fff;}</style></defs><title>i-mail</title><g id="Layer_2" data-name="Layer 2"><g id="Layer_1-2" data-name="Layer 1"><path class="cls-1" d="M8.8,6.78l-5.91-5H14.71Zm6.71,4.83H2.09c-.17,0-.32-.11-.32-.23V3.24L7.84,8.37a.69.69,0,0,0,.45.16h1a.69.69,0,0,0,.45-.16l6.07-5.13v8.12c0,.13-.15.23-.32.23m0-11.6H2.09A2.05,2.05,0,0,0,0,2v9.36a2.05,2.05,0,0,0,2.09,2H15.52a2.05,2.05,0,0,0,2.09-2V2a2.05,2.05,0,0,0-2.09-2"/></g></g></svg>