<svg xmlns="http://www.w3.org/2000/svg" viewBox="0 0 68.08 13.44"><defs><style>.cls-1{fill:#fff;}</style></defs><title>logo-small</title><g id="Layer_2" data-name="Layer 2"><g id="Layer_1-2" data-name="Layer 1"><path class="cls-1" d="M8.86,10a14.68,14.68,0,0,0,.37-3.23A8.05,8.05,0,0,0,8,2.1,3.13,3.13,0,0,0,5.24.88c-.24,0-.49,0-.77,0,0,0,0,0,0,0a0,0,0,0,0,0,0V12.08a3.07,3.07,0,0,0,.12.47,4.73,4.73,0,0,0,2.2-.14,3.2,3.2,0,0,0,1.37-1A3.45,3.45,0,0,0,8.86,10m3.56.39a5.48,5.48,0,0,1-1.82,2,5.65,5.65,0,0,1-2.51.94l-7.95,0a3.22,3.22,0,0,0,.55-2.13l0-9.29A2.05,2.05,0,0,0,0,.16S0,.1,0,.1l3,0h3q3.66,0,5.4,2A7.23,7.23,0,0,1,13.23,7a7,7,0,0,1-.81,3.36"/><path class="cls-1" d="M20.84,7.46a13,13,0,0,0-.14-2.34q-.29-1.25-1.26-1.25T18.28,5.14a14.25,14.25,0,0,0-.12,2.32Zm3.74.9-6.43,0a9.25,9.25,0,0,0,.33,2.88,2.07,2.07,0,0,0,2.09,1.54,2.47,2.47,0,0,0,1.68-.55,2,2,0,0,0,.64-1.61,1.32,1.32,0,0,0-.22-.67,2.33,2.33,0,0,1-.22-.4c0-.09.14-.14.41-.14a1.42,1.42,0,0,1,1,.38,1.25,1.25,0,0,1,.42,1,2.29,2.29,0,0,1-1.4,2.08,5.86,5.86,0,0,1-2.77.62,5.5,5.5,0,0,1-4.49-1.77,5.21,5.21,0,0,1-1.2-3.51,5,5,0,0,1,1.26-3.53A5,5,0,0,1,19.5,3.18a4.89,4.89,0,0,1,4,1.56,5.48,5.48,0,0,1,1.12,3.62"/><path class="cls-1" d="M35.82,13.21h-4a3.59,3.59,0,0,0,.29-1.13V6.16A4.82,4.82,0,0,0,32,4.87a1.18,1.18,0,0,0-.83-.82,1.47,1.47,0,0,0-1.57.9,2.65,2.65,0,0,0-.25,1.21V12a4.89,4.89,0,0,0,.31,1.17H25.76A3.24,3.24,0,0,0,26.21,12V4.56a1.7,1.7,0,0,0-.59-1.29h3.6a1,1,0,0,0,.22.78,3.68,3.68,0,0,1,2.72-1,4.89,4.89,0,0,1,1,.1,2.64,2.64,0,0,1,1.26.64,2.5,2.5,0,0,1,.77,1.15,4.1,4.1,0,0,1,.16,1.21v6a5.84,5.84,0,0,1,.49,1.07"/><path class="cls-1" d="M47.64,13.17q-.37,0-4.7,0a2.68,2.68,0,0,1,0-.82A3.47,3.47,0,0,0,42.38,11l-.76-1.23A7.72,7.72,0,0,0,40.44,8c-.08-.08-.12-.07-.12,0v3.25a3.82,3.82,0,0,0,.55,1.93H36.6A3.55,3.55,0,0,0,37,11.26V1.38l-.17-.7A1.13,1.13,0,0,0,36.49.1c0-.06,0-.1.06-.1h3.78V7a1.88,1.88,0,0,0,1-.21,3.57,3.57,0,0,0,1.05-1,2.2,2.2,0,0,0,.42-1.29,6.12,6.12,0,0,0-.36-1.15H46.7a1,1,0,0,1,.12.47,1.59,1.59,0,0,1-.41.92q-.57.74-.63.84a12.21,12.21,0,0,1-2,1.5q1,2,3.09,5.26c.2.21.46.51.79.92"/><path class="cls-1" d="M53.5,7.46a13.21,13.21,0,0,0-.14-2.34q-.3-1.25-1.26-1.25T50.95,5.14a14.25,14.25,0,0,0-.12,2.32Zm3.74.9-6.43,0a9.25,9.25,0,0,0,.33,2.88,2.07,2.07,0,0,0,2.08,1.54,2.47,2.47,0,0,0,1.68-.55,2,2,0,0,0,.64-1.61,1.32,1.32,0,0,0-.22-.67,2.28,2.28,0,0,1-.22-.4c0-.09.14-.14.41-.14a1.42,1.42,0,0,1,1,.38,1.25,1.25,0,0,1,.42,1,2.29,2.29,0,0,1-1.4,2.08,5.87,5.87,0,0,1-2.78.62,5.5,5.5,0,0,1-4.49-1.77,5.2,5.2,0,0,1-1.2-3.51,5,5,0,0,1,1.26-3.53,5,5,0,0,1,3.84-1.46,4.9,4.9,0,0,1,4,1.56,5.48,5.48,0,0,1,1.12,3.62"/><path class="cls-1" d="M68.08,13.21h-4a3.62,3.62,0,0,0,.3-1.13V6.16a4.82,4.82,0,0,0-.12-1.28,1.19,1.19,0,0,0-.83-.82,1.47,1.47,0,0,0-1.57.9,2.65,2.65,0,0,0-.26,1.21V12a4.93,4.93,0,0,0,.31,1.17H58A3.24,3.24,0,0,0,58.48,12V4.56a1.7,1.7,0,0,0-.59-1.29h3.6a1,1,0,0,0,.21.78,3.69,3.69,0,0,1,2.72-1,4.9,4.9,0,0,1,1,.1,2.65,2.65,0,0,1,1.26.64,2.51,2.51,0,0,1,.77,1.15,4.1,4.1,0,0,1,.16,1.21v6a5.77,5.77,0,0,1,.49,1.07"/></g></g></svg>