<?xml version="1.0" encoding="utf-8"?>
<!-- Generator: Adobe Illustrator 20.0.0, SVG Export Plug-In . SVG Version: 6.00 Build 0)  -->
<svg version="1.1" id="Layer_1" xmlns="http://www.w3.org/2000/svg" xmlns:xlink="http://www.w3.org/1999/xlink" x="0px" y="0px"
	 viewBox="0 0 396.9 183.3" style="enable-background:new 0 0 396.9 183.3;" xml:space="preserve">
<style type="text/css">
	.st0{fill:#FFFFFF;}
	.st1{fill:#414042;stroke:#414042;stroke-width:1.69;stroke-miterlimit:10;}
	.st2{fill:#034EA2;stroke:#034EA2;stroke-width:1.19;stroke-miterlimit:10;}
	.st3{fill:#1D4F90;}
	.st4{fill:none;stroke:#231F20;stroke-width:1.69;stroke-miterlimit:10;}
</style>
<title>logo-color</title>
<g id="Layer_2">
	<g id="Capa_1">
		<rect class="st0" width="396.9" height="182.4"/>
		<path class="st1" d="M83,127.6c-0.7,6.4-3.4,13.2-11.2,13.2c-9.9,0-12.1-10.2-12.1-19.6s2.2-19.6,12.1-19.6
			c8,0,10.3,6.8,10.6,11.5h-1.1c-0.3-5.8-3.2-10.5-9.5-10.5c-8.8,0-11.1,9-11.1,18.7s2.3,18.7,11.1,18.7c8,0,9.6-8.3,10-12.3
			L83,127.6z"/>
		<path class="st1" d="M89.9,125.9c0,8.2,1.8,14,7.7,14c5.2,0,6.8-5.3,7-8.6h1.1c-0.3,5.4-3.3,9.6-8,9.6c-6.2,0-8.8-5.1-8.8-15.1
			c0-8.4,2.7-13.6,8.8-13.6c6.3,0,8.2,5.6,8.2,11.8v1.9L89.9,125.9z M104.8,124.9v-1.9c0-4.2-1.3-10-7.2-10s-7.6,5.6-7.7,11.8
			L104.8,124.9z"/>
		<path class="st1" d="M113,112.8h1v4.9h0.1c0.8-3.2,3.7-5.5,7-5.6h1.1v1h-1.1c-2.3,0-7.1,1.8-7.1,9.6v17.5h-1V112.8z"/>
		<path class="st1" d="M127.9,112.8h1.1v4.9h0.1c0.8-3.2,3.7-5.5,7-5.6h1.1v1h-1.1c-2.3,0-7.1,1.8-7.1,9.6v17.5h-1.1L127.9,112.8z"
			/>
		<path class="st1" d="M141.6,126.5c0-9.1,2.8-14.3,8.9-14.3c4.9,0,8.8,3.1,8.8,14.3s-3.9,14.3-8.8,14.3
			C144.3,140.9,141.6,135.5,141.6,126.5z M150.5,139.9c5.5,0,7.8-4.5,7.8-13.4s-2.3-13.4-7.8-13.4c-4.4,0-7.8,3.1-7.8,13.4
			S146.1,139.9,150.5,139.9L150.5,139.9z"/>
		<path class="st1" d="M204.6,127.6c-0.7,6.4-3.4,13.2-11.2,13.2c-9.9,0-12.1-10.2-12.1-19.6s2.2-19.6,12.1-19.6
			c8,0,10.3,6.8,10.6,11.5H203c-0.3-5.8-3.2-10.5-9.5-10.5c-8.8,0-11.1,9-11.1,18.7s2.3,18.7,11.1,18.7c8,0,9.6-8.3,10-12.3
			L204.6,127.6z"/>
		<path class="st1" d="M216.7,125.7c1.9-0.3,3.7-0.8,5.6-1.4c1.5-0.5,2.1-1.5,2.1-4.6c0-2.4-0.3-3.4-1.1-4.5
			c-1.1-1.4-2.8-2.1-4.6-2.1c-6.3,0-6.4,5.2-6.4,7.3h-1.1v-0.9c0-3.6,2.2-7.3,7.5-7.3c3.6,0,6.8,2.1,6.8,6.6v18
			c0,2.1,0.7,2.6,1.6,2.5c0.4,0,0.7-0.1,1.1-0.1v1c-0.4,0.1-0.9,0.1-1.3,0.1c-1.4,0-2.4-0.5-2.4-3.6v-1.1h-0.1
			c-1.2,3.2-3.7,5.3-7.2,5.3c-4.5,0-7-3-7-7.8C210.1,128.7,212.7,126.5,216.7,125.7z M224.4,124c-0.9,1-2.6,1.6-7.2,2.5
			c-4.4,0.8-6,3-6,6.7c0,4.6,2.7,6.8,6.1,6.8c2.9,0,7.1-2.4,7.1-9.7L224.4,124z"/>
		<path class="st1" d="M232.2,132.5v-0.9h1.1v1c0,3.8,1.4,7.3,6.5,7.3c4.7,0,6.4-3.6,6.4-6.5c0-8.8-13.4-4.9-13.4-14.6
			c0.1-1.6,0.7-3.2,1.7-4.5c1.4-1.5,3.3-2.2,5.3-2.1c5.4,0,6.8,4,6.8,7.4v0.7h-1.1v-0.9c0-3.7-1.6-6.3-5.8-6.3
			c-3-0.2-5.7,2.1-5.9,5.1c0,0.2,0,0.5,0,0.7c0,8.4,13.4,4.7,13.4,14.4c0,4-2.6,7.5-7.4,7.5C234.8,140.9,232.2,138,232.2,132.5z"/>
		<path class="st1" d="M255.4,113.8h-3.6v-1h3.6v-8.5h1.1v8.5h4.7v1h-4.7v22.2c0,2.6,0.7,3.4,3,3.4c0.7,0,1.4,0,2.1-0.2v1
			c-0.7,0.1-1.4,0.2-2.1,0.2c-2.4,0-4-1-4-4.2L255.4,113.8z"/>
		<path class="st1" d="M266.7,102.3h1.1v5.2h-1.1V102.3z M266.7,112.8h1.1v27.4h-1.1V112.8z"/>
		<path class="st1" d="M276.2,102.3h1.1v37.9h-1.1V102.3z"/>
		<path class="st1" d="M285.8,102.3h1.1v37.9h-1.1V102.3z"/>
		<path class="st1" d="M294.4,126.5c0-9.1,2.8-14.3,8.9-14.3c4.9,0,8.8,3.1,8.8,14.3s-3.9,14.3-8.8,14.3
			C297.1,140.9,294.4,135.5,294.4,126.5z M303.3,139.9c5.5,0,7.8-4.5,7.8-13.4s-2.3-13.4-7.8-13.4c-4.4,0-7.8,3.1-7.8,13.4
			S298.9,139.9,303.3,139.9L303.3,139.9z"/>
		<path class="st2" d="M236.7,168.3c0-2.6-1.4-5.1-4.3-5.1c-3.9,0-5.2,3.7-5.2,9.2c0,5.3,1.1,9.3,5.1,9.3c3.8,0,4.7-4.5,4.7-6h1.2
			c0,2.3-1.2,7-6.1,7c-4.3,0-6-3.8-6-10.2c0-6.2,1.7-10.2,6.3-10.2s5.5,4.1,5.5,6L236.7,168.3z"/>
		<path class="st2" d="M250.5,176.2h-7.4l-1.9,6.1H240l6.1-19.7h1.5l5.9,19.7h-1.2L250.5,176.2z M246.9,163.8L246.9,163.8l-3.5,11.5
			h6.9L246.9,163.8z"/>
		<path class="st2" d="M256.5,162.6h5.1c4.6,0.1,5.4,3.3,5.4,5.5c0,3.3-2.1,5.5-5.6,5.5h-3.7v8.8h-1.2L256.5,162.6z M261.5,172.6
			c2.4,0,4.3-1.3,4.3-4.5c0-2.8-1.5-4.5-4.2-4.5h-4v9.1H261.5z"/>
		<path class="st2" d="M270.7,162.6h1.2v19.7h-1.2V162.6z"/>
		<path class="st2" d="M280.2,163.7h-5.2v-1.1h11.7v1.1h-5.2v18.7h-1.2V163.7z"/>
		<path class="st2" d="M296.9,176.2h-7.4l-1.9,6.1h-1.2l6.1-19.7h1.5l5.9,19.7h-1.2L296.9,176.2z M293.3,163.8L293.3,163.8
			l-3.5,11.5h6.9L293.3,163.8z"/>
		<path class="st2" d="M302.9,162.6h1.1v18.7h8.3v1.1h-9.4L302.9,162.6z"/>
		<path class="st3" d="M366.5,86.8c0.2,1.3,0.6,2.5,1,3.8l1.4,0.2c-0.1-0.2-0.1-0.3-0.2-0.5c-0.5-1.2-0.8-2.5-1-3.8
			c-0.1-0.6-0.2-1.2-0.4-1.7c-0.1-0.2-0.3-0.4-0.5-0.4c-1.1-0.1-2.3,0.3-3.1,1.1c-0.6,0.5-1.2,0.9-2,1.1l-0.8,0.1
			c-1.1,0.2-1.9,0.3-2.7-0.5c-0.1-0.1-0.3-0.2-0.5-0.2c-0.2,0-0.3,0.2-0.4,0.3l-2.8,5.6c-0.2-0.4-0.4-0.7-0.7-1
			c-0.7-0.9-1.1-1.5-0.5-2.6c0.2-0.6,0.1-1.2-0.2-1.8l-0.1-0.3c-0.1-0.4-0.3-0.8-0.4-1.2c-0.3-1.2-0.8-2.4-1.4-3.5
			c-0.1-0.2-0.2-0.5-0.2-0.7c-0.1-1.1-1-2-2.1-2.2c-0.1-0.1-0.2-0.4-0.2-0.5c-0.1-0.4-0.3-0.7-0.5-1l-0.3-0.4
			c-0.4-0.7-1-1.4-1.7-1.6c-1.5-0.4-3.1-0.5-4.6-0.1c-1.1,0.4-1.7-0.1-2.6-0.7c-0.2-0.2-0.5-0.3-0.7-0.5c-0.4-0.3-0.8-0.6-1.2-1
			l-0.5-0.5c-0.2-0.1-0.3-0.3-0.4-0.4c-0.3-0.5-0.9-0.8-1.5-0.9l0,0c-1.2,0.1-2.3-0.5-3-1.4c-0.4-0.6-1-0.9-1.7-1.1
			c-1.1-0.1-1.5-0.6-1.5-1.9c0-0.3-0.2-0.6-0.6-0.6c-0.2,0-0.3,0-0.4,0.2l0,0l-2.1-2.4c-0.1-0.2-0.4-0.2-0.6-0.2
			c-1.2,0.3-2.3-0.4-3.6-1.1l-1-0.5c-1.3-0.7-3.2-1.3-4.5-0.8c-1.2,0.6-2.1,1.5-2.8,2.6c-0.2,0.3-0.4,0.6-0.6,0.8L312,65
			c-1.4,1.7-2.7,3.2-4.9,2.4c-0.7-0.2-1.5-0.3-2.2-0.1c-0.3,0.1-0.6,0.1-0.9,0.1c-0.1-2-1.7-2.3-2.6-2.4l-0.4-0.1c0-0.5,0-1,0-1.4
			c0-1.3,0-2.5,0-3.7c0-0.5,0.1-1,0.2-1.4c0.2-0.7,0.2-1.4,0.2-2.2c-0.1-0.9-0.2-1.8-0.4-2.7c-0.4-2.5-0.8-4.9,0.2-7.4
			c0.1-0.4,0.1-0.9-0.2-1.3c0-0.1-0.1-0.3-0.1-0.4c-0.1-0.3-0.4-0.5-0.7-0.4l-2.6,0.2l-0.2-0.3c-0.3-0.4-0.6-0.8-1-1.1
			c-0.6-0.5-1.3-0.7-2.1-0.5c-0.7,0.2-1.3,0.8-1.6,1.5c-0.5,1.1-1,2.1-1.6,3.2l-0.4,0.8l-0.1-0.2c-0.2-0.3-0.5-0.3-0.8-0.2
			c-1,0.6-1.8,1.1-2.6,1.6c-0.2,0.1-0.5,0.3-0.7,0.4c-1,0.5-2.2,1.2-2.3,2.8s-0.3,3.4-0.5,5.1c-0.2,2.4-0.4,4.8-0.6,7.2
			c0.1,1-0.5,1.9-1.4,2.3c-0.7,0.4-1.4,1-2,1.6c-0.3,0.4-0.7,0.7-1.1,1c-0.4,0.3-0.7,0.5-1.2,0.7c-0.5-0.3-1.1-0.3-1.6-0.2
			c-0.6,0.3-1.1,0.8-1.3,1.5c-0.6,1.4-1.2,2.9-1.8,4.4l-0.6,1.6c-0.2,0.4-0.3,0.9-0.5,1.3c-0.7-0.6-1.7-0.8-2.6-0.5
			c-1.3,0.2-1.8-0.2-2-1.6c-0.2-1.1-0.4-2.1-0.6-3.2l-0.3-1.8c-0.1-0.3-0.4-0.5-0.7-0.5c-0.1,0-0.2,0.1-0.3,0.2l-0.3,0.3l-0.2,0.1
			l-0.6,0.4c0-0.2,0-0.4,0-0.7c0-0.3-0.1-0.6-0.1-1c0-1.2-0.3-2.3-0.7-3.4c-0.2-0.4-0.5-0.8-0.7-1.1c-0.7-0.7-1-1.7-1-2.6
			c0.3-2.2,0-4.5-0.8-6.5c-0.5-1.5-0.8-3-0.9-4.6c0-0.3-0.2-0.6-0.4-0.8c-0.2-0.3-0.6-0.4-0.8-0.2c-0.1,0-0.1,0.1-0.2,0.2l-1,1.5
			c-0.8,1.2-1.6,2.4-2.4,3.6c-0.3,0.4-0.5,0.9-0.8,1.4c-0.3,0.7-0.8,1.4-1.3,2l-0.2,0.2c-2,2.2-4.1,4.6-4.4,8c0,0.7-0.3,1.1-0.8,1.1
			c0-0.2-0.1-0.3-0.1-0.5c0-0.9-0.3-1.7-0.8-2.3c-1-1-1-2-0.9-3.3c0-0.3,0-0.7,0-1c0-0.6,0-1.2,0-1.8v-0.8c0-0.3-0.3-0.6-0.6-0.6
			c-0.2,0-0.4,0.1-0.5,0.2c-1.4,2-2.2,4.4-2.4,6.9l-2.6-6.2c-0.1-0.2-0.3-0.3-0.6-0.3l0,0c-0.2,0-0.5,0.2-0.6,0.4l-0.7,1.5l-1.1-0.6
			v-1.4c0-1.9,0-3.7,0-5.5c-0.1-0.6-0.3-1.1-0.8-1.5c-0.2-0.2-0.4-0.3-0.6-0.3c-1,0.1-1-0.2-1.1-1.3c0-0.2,0-0.4-0.1-0.6
			c-0.1-0.8-0.4-1.5-0.8-2.2c-0.4-0.9-0.9-1.8-1.4-2.8l-0.7-1.4c-0.1-0.1-0.2-0.2-0.3-0.3l-1.2-0.5c0,0,0,0,0-0.1
			c-0.1-0.5-0.1-1.1-0.1-1.6c0-1.4-0.3-2.7-0.8-4c-0.4-0.8-0.6-1.7-0.6-2.5c0-0.7,0-1.5,0-2.2c0-0.3,0-0.7,0-1
			c0-0.2-0.1-0.4-0.3-0.5c-0.2-0.1-0.4-0.1-0.6,0c-0.2,0.1-0.4,0.3-0.6,0.4l-0.3,0.2c-0.3-0.3-0.5-0.7-0.7-1.1c0-0.1,0-0.3,0-0.4
			c0-0.3,0-0.5-0.1-0.8c-0.1-0.4-0.3-0.7-0.6-1.1l-0.3-0.4c-0.1-0.2-0.3-0.3-0.5-0.3c-0.2,0-0.4,0.1-0.5,0.2l-0.3,0.3
			c-0.3,0.3-0.5,0.6-0.8,0.9c-0.2,0.4-0.4,0.8-0.5,1.3l-0.1,0.2c-0.4,0-0.7,0-0.8-0.2s-0.2-0.5,0.2-1.8c0.1-0.3,0-0.7-0.3-0.8
			c-0.3-0.1-0.6-0.1-0.7,0.2c-0.3,0.3-0.5,0.5-0.8,0.7c-0.3,0.4-0.7,0.7-1.1,0.9c-0.3,0.2-0.6,0.3-0.9,0.3c-0.8-0.7-1.7-1.2-2.8-1.3
			c-0.5-0.1-1-0.2-1.4-0.4l-0.1-0.3c0-0.5-0.2-1-0.4-1.5c-0.5-0.9-1-1.8-1.8-2c-1.4-0.3-2.5-1.3-2.8-2.6c-0.1-0.4-0.2-0.7-0.2-1.1
			c0-0.6-0.2-1.2-0.4-1.7c-0.6-1-1.3-2-2.1-3l-0.8-1c-0.1-0.2-0.4-0.3-0.6-0.2c-0.2,0-0.4,0.2-0.5,0.4c-0.6,2-1.3,3-2.1,3.2
			s-1.8,0-3.4-0.9c-0.3-0.2-0.7-0.1-0.8,0.2c0,0,0,0,0,0.1l-0.8,1.8v-0.5c-0.1-0.9-0.1-1.8-0.2-2.7c-0.1-3.5-1.6-5-5-5.2l-1.6-0.1
			c-1.4-0.9-2.5-2-3.4-3.3c-0.2-0.3-0.3-0.4-0.5-0.5c-0.7-0.5-1.3-1.1-1.8-1.9c-0.5-0.8-1.2-1.6-2-2.2c-0.1-0.2-0.2-0.5-0.4-0.7
			c-0.2-0.3-0.4-0.6-0.4-0.9c0-0.2-0.1-0.4-0.4-0.5C181.2,1,181,1,180.8,1.1l-0.7,0.5c-0.2,0.2-0.4,0.3-0.6,0.5c-0.1,0-0.2,0-0.2,0
			c0-0.4-0.1-0.7-0.4-1c-0.5-0.5-1.2-0.7-1.9-0.6c-0.3,0-0.6,0.1-0.9,0.2c-0.2,0-0.4,0.1-0.5,0.2c0,0-0.2,0.2-0.7,0.2
			c-0.2-0.1-0.4-0.2-0.7-0.4l-0.3,0c-0.7-0.5-1.6-0.8-2.5-0.7c-1.8,0.3-2.1,2-2.4,3.2v0.2H169c-0.5-0.1-0.9-0.2-1.4-0.3
			c-0.9-0.1-1.8-0.1-2.7,0h-0.5c-1.5,0-1.6,1.1-1.6,1.7c0,0.2-0.1,0.5-0.1,0.7c-0.2,0.6-0.8,0.6-1.9,0.7h-0.3
			c-0.3,0-0.5,0.2-0.6,0.5c-0.1,0.7-0.1,1.5-0.1,2.2l-0.1,0l-0.7,0.4h-0.4c-0.8,0-1.5,0.1-2.2,0.2c-1.3,0.4-2.5,1.1-3.5,2.1
			c-0.3,0.3-0.6,0.5-0.8,0.8c-0.6,0.6-1.2,1.3-1.9,1.3c-0.2,0-0.4,0-0.5,0c-0.7-0.1-1.4,0-1.9,0.4c-0.3,0.3-0.6,0.7-0.8,1.1
			c-0.1,0.2-0.2,0.4-0.3,0.5c-0.2,0.3-0.5,0.6-0.8,0.9c-0.2,0.2-0.5,0.5-0.7,0.8c-0.7,0.5-1.2,1-1.7,1.7c-1.3,2.1-2.4,4.3-3.4,6.5
			l-0.7,1.5c-0.2-0.1-0.5-0.2-0.7-0.4c-0.5-0.3-1.1-0.6-1.7-0.8c-0.7-0.2-1.4-0.3-2.1-0.3c-0.6-0.4-1.2-0.5-1.9-0.4l-0.3,0.1
			l-0.1,0.1l-0.1,0.1c-0.5,0.2-1,0.5-1.4,0.8c-0.1-0.2-0.1-0.3-0.1-0.5c-0.2-0.8-0.5-1.5-1.1-2.1c-0.9-0.7-1.3-1.8-1-2.9
			c0.1-0.7,0.1-1.5,0.1-2.2c0-0.4,0-0.7,0-1.1c0-0.3-0.3-0.6-0.6-0.6c-0.1,0-0.1,0-0.2,0c-0.8,0.2-1.5,0.5-2.2,0.8
			c-1.2,0.5-2.5,0.9-3.8,0.9c-1.9-0.1-2.8,0.4-3.1,1.9l-0.4,0.1c-0.6,0.1-1.1,0.3-1.6,0.6c-0.4,0.3-0.8,0.8-1,1.2
			c-0.2-0.2-0.3-0.5-0.4-0.7c-0.4-1.1-0.8-2.2-1.2-3.4l-0.5-1.4c-0.2-0.7-0.8-1.2-1.5-1.4c-0.6-0.1-1.2,0.2-1.5,0.6
			c-0.2,0.3-0.4,0.5-0.7,0.8c-1,1.2-2.2,2.5-2,4.5c0.2,1.3-0.7,2.6-2,2.9c-0.4,0.1-0.8,0.2-1.2,0.2c-0.8,0-1.6,0.3-2.3,0.9
			c-1.1,1.3-1.9,2.8-2.4,4.5c-0.3,0.8-0.4,1.7-0.4,2.5c0,0.2,0,0.3,0,0.5L98.7,33c-0.2,0-0.3,0-0.5,0.1c-0.1,0.1-0.2,0.3-0.2,0.5
			v0.9c0,0.6,0,1.1,0,1.6c-0.1,0.9-0.2,1.9-0.3,2.8c-0.1,0.3-0.2,0.6-0.3,0.9c-0.2,0.5-0.4,0.9-0.4,1.5c-0.1,2.4-0.8,3.4-3.1,4
			l-0.9-6.8c0-0.2-0.2-0.5-0.5-0.5c-0.2-0.1-0.5,0.1-0.6,0.3c-0.5,0.9-0.8,1.9-0.8,3c0,0.8-0.2,1.6-0.5,2.3l-0.1-0.1
			c-0.3-0.6-0.7-1.1-1.2-1.6c-0.5-0.5-1.1-0.9-1.8-1.3l-0.7-0.4c-0.8-0.7-1.4-1.6-1.6-2.7c-0.1-0.6,0-1.2,0.1-1.8
			c0.1-0.6,0.2-1.2,0.2-1.9c-0.1-1.3-0.3-2.7-0.6-4c-0.1-0.5-0.2-1-0.3-1.6c0-0.2-0.1-0.3-0.2-0.5c-1.5-1.7-3.1-0.9-4.2-0.3
			l-0.5,0.3c-0.4,0.2-0.7,0.5-1.1,0.8l-0.2,0.2c-0.2,0.2-0.3,0.5-0.2,0.8c0,0.7-0.1,1.3-0.1,2c0,1.3-0.1,2.7-0.2,4
			c-0.1,0.5-0.1,1.1-0.1,1.7c-0.1,1.9-0.1,3.7-1.3,5.1l-1-5.4c0-0.2-0.2-0.3-0.3-0.4c-0.2-0.1-0.4-0.1-0.5,0c-2.2,1-2.6,2.9-3.1,4.5
			c-0.2,1.1-0.7,2.2-1.4,3.1c-0.4,0.6-1,1-1.7,1.2c-0.4,0.1-0.8,0.2-1.3,0.2c-1.2,0.1-2.8,0.3-3.5,2.1c-0.4-0.2-0.8-0.1-1.1,0.2
			c-0.2,0.2-0.5,0.5-0.8,0.7c-1,0.9-2.1,1.9-2.1,3.7c0,1.3-0.1,2.6-0.3,3.9c-0.1,0.4-0.1,0.8-0.1,1.2c-0.1,0.9-0.2,2.2-0.5,2.4
			c-1.1,0.7-1.9,2-2,3.3c-0.1,0.3-0.2,0.7-0.3,1c-0.1,0.2-0.1,0.4-0.2,0.7L56,64.2c-0.2-0.1-0.4-0.1-0.5,0c-0.2,0.1-0.3,0.2-0.3,0.4
			c-0.1,0.5-0.2,1.1-0.4,1.6l-0.3-0.1c-0.3-0.1-0.6,0.1-0.7,0.4c-0.1,0.2-0.1,0.4-0.2,0.6c-0.1,0.3-0.2,0.7-0.4,1
			c-0.2,0.3-0.4,0.6-0.7,0.8c-0.5,0.5-0.9,1.1-1.1,1.8C51,73.3,49,74.2,47.1,75l-0.9,0.4c-1.5,0.8-2.8,1.8-3.9,3
			c-0.5,0.5-1,0.9-1.6,1.2c0-0.2,0-0.4,0-0.6c-0.4,0.4-0.8,0.7-1.3,1c-0.1,0.2-0.1,0.4-0.2,0.6c-0.1,0.3,0,0.7,0.3,0.8
			c0.2,0.1,0.4,0.1,0.6-0.1c0.3-0.2,0.6-0.4,1-0.6c0.8-0.4,1.5-1,2.2-1.6c1-1.1,2.2-2.1,3.6-2.8l0.9-0.4c2-0.9,4.4-2,4.9-5.1
			c0.2-0.5,0.5-0.9,0.8-1.2c0.3-0.3,0.6-0.6,0.8-1c0.2-0.4,0.4-0.9,0.5-1.3l0,0c0.2,0,0.5,0,0.7-0.1c0.4-0.2,0.6-0.7,0.8-1.7
			l0.1,0.1c0.2,0.1,0.3,0.1,0.5,0c0.2-0.1,0.3-0.2,0.3-0.4l0.1-0.4c0.1-0.3,0.2-0.6,0.3-0.9c0.1-0.4,0.2-0.8,0.3-1.2
			c0.1-1,0.6-2,1.5-2.5c0.9-0.6,1-2,1.1-3.3c0-0.4,0.1-0.8,0.1-1.2c0.2-1.3,0.3-2.7,0.3-4c0-1.3,0.8-2,1.7-2.8
			c0.2-0.2,0.4-0.4,0.6-0.6l0.2,0.1c0.1,0,0.3,0.1,0.4,0.1c0.3,0.1,0.6-0.1,0.7-0.5c0.3-1.4,1.2-1.6,2.7-1.7c0.5-0.1,1-0.2,1.4-0.3
			c0.9-0.3,1.6-0.8,2.2-1.5c0.9-1,1.5-2.3,1.7-3.7c0.3-1.3,0.6-2.5,1.7-3.3l1.1,5.7c0,0.3,0.3,0.6,0.7,0.5c0.1,0,0.2-0.1,0.3-0.2
			c2.4-1.9,2.5-4.5,2.6-6.8c0-0.5,0-1.1,0.1-1.6c0.1-1.3,0.2-2.7,0.2-4c0-0.7,0-1.3,0.1-2h-0.1l0.2-0.2c0.2-0.2,0.5-0.4,0.7-0.6
			l0.6-0.3c1.2-0.6,1.9-0.9,2.7,0c0.1,0.5,0.2,1,0.2,1.5c0.2,1.3,0.5,2.6,0.6,3.9c0,0.5,0,1.1-0.2,1.6c-0.2,0.7-0.2,1.4-0.1,2.2
			c0.3,1.3,1,2.5,2,3.4l0.8,0.5c0.6,0.3,1.1,0.7,1.6,1.2c0.4,0.4,0.7,0.9,1,1.4c0.2,0.3,0.4,0.6,0.6,0.9c0.1,0.1,0.3,0.2,0.4,0.3
			c0.2,0,0.4,0,0.5-0.2c0.8-0.9,1.3-2,1.3-3.2l0.6,4.3c0,0.2,0.1,0.3,0.2,0.4c0.1,0.1,0.3,0.1,0.5,0.1c3.3-0.7,4.5-2,4.7-5.2
			c0.1-0.3,0.2-0.7,0.3-1c0.2-0.4,0.3-0.7,0.4-1.1c0.2-1,0.3-1.9,0.4-2.9c0-0.5,0-1.1,0-1.7v-0.2l1,0.1c0.2,0,0.3,0,0.4-0.1
			c0.1-0.1,0.2-0.2,0.2-0.4c0-0.4,0.1-0.8,0.1-1.1c0-0.7,0.1-1.5,0.4-2.2c0.5-1.5,1.2-2.9,2.2-4.1c0.5-0.3,1-0.5,1.6-0.5
			c0.5-0.1,0.9-0.2,1.3-0.3c1.9-0.5,3.1-2.3,2.8-4.2c-0.1-1.5,0.7-2.5,1.7-3.6c0.2-0.3,0.5-0.5,0.7-0.8c0.1-0.1,0.2-0.2,0.4-0.2
			c0.2,0,0.4,0.2,0.5,0.6l0.5,1.4c0.4,1.1,0.8,2.3,1.2,3.4c0.2,0.4,0.4,0.8,0.6,1.1c0.1,0.2,0.3,0.4,0.4,0.6
			c0.1,0.2,0.3,0.3,0.5,0.3c0.2,0,0.4-0.1,0.5-0.3c0.2-0.2,0.3-0.5,0.4-0.7c0.2-0.4,0.4-0.7,0.7-1c0.4-0.2,0.8-0.4,1.2-0.4
			c0.3-0.1,0.6-0.1,0.9-0.2c0.2-0.1,0.4-0.3,0.4-0.5c0.1-0.9,0.2-1.3,1.9-1.2c1.5,0,2.9-0.4,4.3-1l1.4-0.5c0,0.1,0,0.2,0,0.3
			c0.1,0.7,0.1,1.3,0,2c-0.4,1.5,0.2,3.1,1.4,4c0.4,0.4,0.6,1,0.7,1.5c0.1,0.4,0.3,0.8,0.4,1.2c0.1,0.2,0.2,0.3,0.4,0.3
			c0.2,0.1,0.3,0,0.5,0l0.5-0.3c0.5-0.3,1-0.6,1.5-0.9l0,0l0,0l0.3-0.1c0.3,0,0.5,0.1,0.7,0.2l0,0c0.1,0.1,0.3,0.2,0.4,0.2h0.2
			c0.6,0,1.3,0.1,1.9,0.3c0.5,0.2,1,0.4,1.5,0.7c0.4,0.3,0.9,0.5,1.4,0.7c0.3,0.1,0.6,0,0.8-0.3c0.3-0.7,0.6-1.4,0.9-2
			c0.9-2.2,2-4.3,3.3-6.4c0.4-0.6,0.9-1.1,1.5-1.5c0.2-0.3,0.5-0.5,0.7-0.8c0.3-0.3,0.6-0.6,0.9-1c0.2-0.2,0.3-0.5,0.4-0.7
			c0.1-0.3,0.2-0.5,0.4-0.7c0.3-0.2,0.5-0.2,1-0.2h0.7c1.1-0.1,2.1-0.7,2.8-1.7c0.2-0.2,0.5-0.5,0.7-0.7c0.9-0.8,1.9-1.4,3-1.8
			c0.7-0.1,1.3-0.2,2-0.2h0.5c0.1,0,0.2,0,0.2-0.1l1.3-0.6c0.2-0.1,0.3-0.3,0.3-0.6V9.1c0-0.5,0-1.1,0-1.7c1,0,2.2-0.2,2.7-1.4
			c0.1-0.3,0.2-0.7,0.2-1.1c0.1-0.6,0.1-0.6,0.5-0.6h0.5c0.9-0.1,1.7-0.1,2.6,0c0.4,0.1,0.8,0.1,1.2,0.2l0.7,0.2
			c0.3,0.1,0.6-0.2,0.7-0.5c0.1-0.2,0.1-0.3,0.2-0.5V3.5c0.3-1.3,0.6-2.1,1.4-2.3c0.6-0.1,1.2,0.1,1.7,0.5l0.3-0.5l-0.1,0.6
			c0.3,0.2,0.6,0.4,0.9,0.5c0.1,0,0.1,0,0.2,0c0.6,0.1,1.2,0,1.7-0.3h0.1c0.2-0.1,0.5-0.2,0.7-0.2l0,0c0.2,0,0.7,0,0.9,0.1
			c0,0.1,0,0.3,0,0.4c-0.1,0.2,0,0.5,0.2,0.6c0.1,0.1,1.1,0.6,1.6,0.3c0.3-0.2,0.6-0.3,0.9-0.6c0.1,0.2,0.2,0.4,0.3,0.5
			c0.1,0.1,0.2,0.3,0.2,0.4c0,0.2,0.2,0.4,0.4,0.5c0.7,0.5,1.4,1.2,1.8,1.9c0.6,0.9,1.3,1.6,2.2,2.2l0.1,0.1c1,1.5,2.3,2.8,3.9,3.8
			c0.1,0.1,0.2,0.1,0.3,0.1l1.7,0.1c2.8,0.2,3.8,1.2,3.9,4c0,0.9,0.1,1.8,0.2,2.7l0.1,1.4c0,0.3,0.2,0.5,0.5,0.5l0.7,0.2
			c0.3,0.1,0.6-0.1,0.7-0.3l0.9-2.1c1.6,0.9,2.8,1.1,3.8,0.7s1.7-1.3,2.4-2.9l0.1,0.1c0.7,0.9,1.4,1.9,2,2.9
			c0.2,0.4,0.3,0.8,0.3,1.3c0.1,0.5,0.2,0.9,0.3,1.4c0.5,1.7,1.9,3.1,3.7,3.4c0,0,0.3,0.1,0.9,1.3c0.2,0.4,0.2,0.7,0.3,1.1
			c0,0.2,0.1,0.4,0.1,0.6c0,0.2,0.1,0.3,0.3,0.4c0.6,0.4,1.3,0.6,2,0.7c0.8,0.1,1.6,0.5,2.2,1.1c0.6,0.7,2.3-0.2,2.3-0.2
			c0.2-0.1,0.4-0.3,0.6-0.5c0,0.3,0.1,0.7,0.3,0.9c0.6,0.6,1.5,0.8,2.3,0.6c0.2,0,0.4-0.2,0.5-0.4c0.1-0.2,0.1-0.4,0.2-0.6
			c0.1-0.4,0.3-0.8,0.5-1.1c0.1-0.2,0.2-0.3,0.3-0.4c0.1,0.2,0.2,0.4,0.3,0.6c0,0.1,0,0.3,0,0.4c0,0.3,0,0.6,0.1,0.9
			c0.3,0.7,0.7,1.3,1.3,1.7c0.4,0.2,0.7,0.1,1.1-0.1c0,0.7,0,1.5,0,2.2c0,1,0.3,2.1,0.7,3c0.4,1.1,0.7,2.3,0.6,3.5
			c0,0.4,0.1,0.8,0.1,1.2l0,0c-0.3,0.1-0.5,0.4-0.4,0.8c0.1,0.2,0.2,0.3,0.3,0.4l1.9,0.8l0.6,1.2c0.5,0.9,0.9,1.8,1.4,2.7
			c0.3,0.6,0.5,1.2,0.6,1.8c0,0.2,0,0.4,0.1,0.5c0.1,0.9,0.2,2.4,2.2,2.4c0.1,0.2,0.2,0.4,0.3,0.6c0.1,1.8,0.1,3.5,0,5.4v1.9
			c0,0.2,0.1,0.4,0.3,0.5l2,1.1c0.3,0.2,0.7,0.1,0.8-0.2c0,0,0,0,0,0l0.5-1l3,7.1c0.1,0.3,0.4,0.4,0.6,0.4c0.3,0,0.5-0.3,0.5-0.5
			c0.1-0.4,0.1-0.9,0.1-1.3c0.1-1.9,0.5-3.7,1.1-5.4c0,0.1,0,0.2,0,0.3c0,0.3,0,0.6,0,0.9c-0.3,1.5,0.2,3.1,1.3,4.2
			c0.3,0.5,0.5,1.1,0.5,1.7c0,0.4,0.1,0.8,0.2,1.1c0.1,0.3,0.3,0.4,0.6,0.4c1.2,0.2,2.3-0.6,2.5-1.8c0-0.2,0-0.3,0-0.5
			c0.2-3,2.1-5.1,4-7.3l0.2-0.2c0.6-0.7,1-1.4,1.4-2.2c0.2-0.4,0.5-0.9,0.7-1.3c0.8-1.2,1.6-2.4,2.4-3.5l0.3-0.4
			c0.2,1.4,0.5,2.7,0.9,4c0.7,1.9,1,4,0.8,6c-0.1,1.3,0.3,2.6,1.2,3.5c0.2,0.3,0.5,0.7,0.7,1c0.4,0.9,0.6,1.9,0.6,2.9
			c0,0.3,0,0.7,0.1,1c0,0.4,0,0.8-0.1,1.1c0,0.2-0.1,0.4-0.1,0.7c0,0.2,0.1,0.5,0.3,0.6c0.2,0.1,0.5,0.1,0.7,0l1.5-1.1l0.1,0.8
			c0.2,1.1,0.4,2.2,0.6,3.2c0.3,2.1,1.4,2.9,3.4,2.6c1.2-0.2,1.6-0.2,1.9,0.9c0.1,0.3,0.3,0.4,0.5,0.5c0.3,0,0.5-0.1,0.6-0.4l0.4-1
			c0.2-0.5,0.4-1.1,0.6-1.6l0.6-1.6c0.6-1.4,1.2-2.9,1.8-4.3c0.2-0.4,0.4-0.8,0.6-0.8c0.2,0,0.5,0,0.7,0.1c0.7,0.3,1.7-0.2,2.4-0.8
			c0.4-0.3,0.8-0.7,1.2-1.1c0.6-0.6,1.2-1.1,1.9-1.5c1.3-0.6,2.1-1.9,2.1-3.3c0.2-2.4,0.4-4.8,0.6-7.2c0.2-1.7,0.3-3.4,0.5-5.1
			c0.1-1,0.7-1.4,1.7-1.9c0.2-0.1,0.5-0.3,0.8-0.4l2.1-1.3l0.4,0.5c0.1,0.2,0.3,0.3,0.5,0.2c0.2,0,0.4-0.1,0.5-0.3l0.9-1.7
			c0.6-1.1,1.1-2.2,1.6-3.2c0.1-0.4,0.4-0.7,0.8-0.8c0.4,0,0.8,0.1,1.1,0.3c0.3,0.3,0.5,0.5,0.8,0.9c0.1,0.2,0.3,0.4,0.4,0.6
			c0.1,0.2,0.3,0.2,0.5,0.2l2.6-0.2v0.1l0.2,0.4c-1.1,2.7-0.7,5.4-0.3,8c0.1,0.9,0.3,1.7,0.3,2.6c0,0.6-0.1,1.2-0.2,1.8
			c-0.1,0.5-0.2,1.1-0.2,1.6c0,1.2,0,2.4,0,3.8c0,0.6,0,1.2,0,1.9c0,0.2,0.1,0.4,0.3,0.5c0.3,0.1,0.7,0.2,1,0.3
			c1.1,0.2,1.7,0.3,1.6,1.6c0,0.3,0.2,0.5,0.4,0.6c0.1,0.1,0.3,0.2,0.5,0.2c0.5,0,1,0,1.4-0.1c0.5-0.1,1-0.1,1.5,0
			c3,1.1,4.8-1.1,6.2-2.8l0.3-0.3c0.2-0.3,0.4-0.6,0.7-0.8c0.6-0.9,1.4-1.7,2.3-2.2c0.8-0.3,2.4,0.1,3.4,0.7l0.9,0.5
			c1.2,0.9,2.7,1.4,4.2,1.4l2.2,2.6c0.1,0.1,0.2,0.2,0.4,0.2c0.2,1.2,1.3,2.1,2.5,2.1c0.4,0.1,0.7,0.3,0.9,0.7c1,1.2,2.4,1.9,4,1.9
			c0.2,0.1,0.4,0.3,0.6,0.6c0.2,0.2,0.3,0.4,0.5,0.5l0.5,0.4c0.4,0.4,0.9,0.7,1.4,1c0.2,0.1,0.4,0.3,0.6,0.4c1,0.9,2.4,1.3,3.7,0.9
			c1.3-0.3,2.7-0.3,4,0.1c0.3,0.1,0.7,0.7,0.9,1.1l0.3,0.5c0.1,0.2,0.3,0.5,0.4,0.7c0.3,0.6,0.5,1.2,1.1,1.2
			c0.8,0.1,0.9,0.5,1.2,1.3c0.1,0.3,0.2,0.6,0.3,0.9c0.5,1.1,0.9,2.2,1.3,3.3c0.1,0.4,0.3,0.8,0.4,1.2l0.1,0.3
			c0.1,0.3,0.2,0.5,0.2,0.8c-1,1.8-0.1,2.9,0.6,3.9c0.3,0.4,0.6,0.8,0.7,1.2c0.1,0.2,0.2,0.4,0.5,0.4l0.6,0.1
			c0.3,0.1,0.6-0.1,0.7-0.3l2.7-5.6c1,0.5,2.1,0.6,3.1,0.3l0.7-0.1c1-0.2,1.9-0.6,2.7-1.3c0.5-0.5,1.1-0.8,1.7-0.9
			C366.3,86,366.4,86.4,366.5,86.8z"/>
		<polygon class="st3" points="76.3,76 76.4,76 76.2,75.9 		"/>
		<path class="st3" d="M75.9,75.7h-0.1l0.5,0.2C76.6,75.9,75.7,75.8,75.9,75.7z"/>
		<path class="st3" d="M76,75.7c0.1-0.1-0.1-0.1-0.2-0.1C76,75.6,75.7,75.7,76,75.7z"/>
		<path class="st3" d="M76.2,70.4L76.2,70.4C76.2,70.4,76.2,70.4,76.2,70.4z"/>
		<path class="st3" d="M75.4,69h-0.2c0.3,0.3,0,0.5,0.1,0.8h-0.1c0,0.7,0.1,1.4,0.3,2h-0.1c0.1,0,0.2,0.1,0.2,0.1c0,0-0.1,0-0.1,0
			c-0.3,0.1,0.2,0.4-0.1,0.5c0.1,0.1,0.2,0.1,0.3,0.1c0,0.5,0.1,1.1,0.3,1.6c-0.1,0-0.2,0-0.2,0c0.5,0.5,0.2,1,0.1,1.4
			c0.1,0,0.2,0,0.3,0c0.2-0.1-0.3-0.3-0.1-0.4h0.1c0.1-0.1-0.3,0-0.2-0.1s0.2,0,0.2,0c0-0.2,0.1-0.4-0.2-0.7c0.3,0,0-0.2,0.3-0.3
			c-0.1-0.1-0.1-0.1-0.3-0.2c0.1-0.8,0.1-1.5,0-2.3c-0.5-0.4,0.2-0.8,0-1.2h0.1C76,70.3,76,70.1,76,69.9l-0.2-0.2c0.5-1,0.2-2,0.5-3
			s0.7-2.1,0-3.3c0,0,0.1,0,0.1,0c-0.1-0.3,0.1-0.6,0-0.9h0.1c-0.4-0.8,0.2-1.6-0.3-2.3c0.1-0.9,0.1-1.9,0-2.8h0.1
			c-0.2-0.8,0.4-1.5,0.3-2.2c0.3-0.8-0.5-1.6-0.2-2.4c0.6-0.5-0.5-1.2,0-1.6c0.9-0.9,0.4-1.8,0-2.8c0.3-0.8-0.4-1.7,0.3-2.5
			c-0.4-0.4,0.5-0.8,0.4-1.2H77c0.4-0.1-0.5-0.4,0.1-0.4l0,0c0.3-0.1-0.7-0.2-0.3-0.3h-0.2c0-0.1,0.2,0,0.2-0.1s-0.3,0-0.2-0.1
			c0.6,0-0.1-0.2,0.6-0.2c0,0,0.3-0.1,0.4,0.1c0.1,0,0-0.2-0.2-0.2c-0.3-0.1-0.6-0.1-0.8,0h0.2c-0.1,0-0.2,0-0.3,0
			c0,0.1-0.4,0.1-0.5,0.2l0,0c0.3,0.1,0.1,0.2,0.1,0.2h0c-0.3,0,0.5,0.2,0.1,0.1c0.1,0.3,0.1,0.6,0.1,0.9c0.2,0,0,0.2,0.3,0.2
			c-0.4,0.1-0.5,0.3-0.5,0.4s-0.1,0-0.1,0c-0.5,0.1,0.4,0.2-0.2,0.3c0.4,0-0.2,0.3,0.3,0.4c-0.1,0-0.2,0-0.3,0
			c0,0.3-0.2,0.6-0.2,0.8c0.4,0.2-0.2,0.5,0.3,0.7c-0.1,0.1-0.3,0.3-0.2,0.6h-0.1c0,0.3,0.1,0.5,0.3,0.7c-0.5,0-0.4,0.1-0.6,0.2
			c0.2,0.2,0.1,0.5,0.3,0.7c-0.2,0,0.1,0.2-0.2,0.2c0.5,0.6,0.4,1.6-0.2,2.1l0,0c0.2,0.1,0.6,0.2,0.8,0.3h-0.1c0,0-0.3,0.2-0.2,0.3
			h-0.1c0.1,0.1-0.3,0.2,0,0.4h-0.1l0.1,0.1c-0.1,0-0.3,0-0.2-0.1c-0.2,1.1,0.3,2.2,0.2,3.3h-0.1l0.2,0.2c0,0-0.1,0-0.1,0
			c-0.2,0.3,0.1,0.6,0,0.8c-0.1,0-0.2,0-0.2,0c0.3,0.2-0.4,0.3,0.2,0.4c-0.1,0-0.1,0-0.2,0c0.2,0.5,0.2,1.1,0,1.7
			c0.5,0.5,0,1,0.4,1.5h-0.1c0.4,0.6-0.1,1.3-0.1,1.9c-0.1,0.3,0.1,0.5,0.1,0.7h-0.1c0.5,0.5-0.5,0.9,0,1.4h-0.2
			c0.3,0.1-0.1,0.3,0.4,0.3l-0.2,0.1c0.6,0.3-0.3,0.6,0.1,1h-0.1c0.1,0.1,0.2,0.2,0,0.3s-0.1,0-0.1,0c-0.5,0.3,0,0.7,0,1l-0.2-0.1
			c0.2,0.2,0,0.5,0.1,0.7h-0.1l0.1,0.1h-0.2C75.3,68.5,75.4,68.8,75.4,69z"/>
		<path class="st3" d="M75.5,71.9L75.5,71.9C75.5,71.9,75.5,71.9,75.5,71.9z"/>
		<path class="st3" d="M76,43.8L76,43.8C76,43.8,76,43.8,76,43.8z"/>
		<polygon class="st3" points="70,73.8 70,73.7 69.8,73.7 		"/>
		<path class="st3" d="M69.6,73.6h-0.1l0.5,0.1C70.2,73.7,69.4,73.6,69.6,73.6z"/>
		<path class="st3" d="M69.6,73.6c0.1,0-0.1,0-0.2-0.1C69.6,73.5,69.4,73.6,69.6,73.6z"/>
		<path class="st3" d="M69.5,70.5L69.5,70.5C69.5,70.5,69.5,70.5,69.5,70.5z"/>
		<path class="st3" d="M68.7,69.7h-0.2c0.3,0.2,0,0.3,0.1,0.5h-0.1c-0.1,0.4,0.2,0.8,0.4,1.2h-0.1c0.1,0,0.2,0,0.2,0.1
			c0,0-0.1,0-0.1,0c-0.3,0.1,0.2,0.2,0,0.3c0.1,0,0.2,0,0.3,0c0.1,0.4,0.2,0.7,0.4,1c-0.1,0-0.2,0-0.2,0c0.5,0.3,0.3,0.6,0.2,0.8
			c0.1,0,0.1,0,0.3,0s-0.3-0.2-0.1-0.2h0.1c0.1-0.1-0.3,0-0.2-0.1c0.1,0,0.1,0,0.2,0c-0.1-0.1,0.1-0.3-0.2-0.4c0.3,0,0-0.1,0.3-0.2
			c-0.1,0-0.1-0.1-0.3-0.1c0.2-0.4-0.1-0.9-0.1-1.3c-0.5-0.2,0.1-0.5-0.1-0.7h0.1c-0.1-0.1-0.2-0.2-0.1-0.3l-0.2-0.1
			c0.5-0.6,0.1-1.2,0.3-1.8s0.5-1.3-0.2-1.9c0.1,0,0.1,0,0.1,0c-0.1-0.2,0.1-0.4,0-0.5l0,0C69,65.5,69.5,65,69,64.6
			c0-0.6,0-1.1-0.1-1.7H69c-0.2-0.4,0.3-0.9,0.2-1.3c0.2-0.5-0.6-0.9-0.3-1.4c0.5-0.3-0.6-0.7-0.1-0.9c0.8-0.5,0.3-1.1-0.2-1.6
			c0.3-0.5-0.5-1,0.1-1.5c-0.4-0.2,0.5-0.5,0.4-0.7H69c0.4-0.1-0.6-0.2,0-0.3l0,0c0.3,0-0.7-0.1-0.3-0.1h-0.2c0-0.1,0.2,0,0.2,0
			s-0.3,0-0.2,0c0.6,0-0.1-0.1,0.6-0.2c0,0,0.3,0,0.4,0s0-0.1-0.3-0.1c-0.3,0-0.6,0-0.8,0h0.2h-0.3c0,0.1-0.4,0.1-0.5,0.1l0,0
			c0.3,0,0.1,0.1,0.1,0.1h-0.1c-0.3,0,0.5,0.1,0.1,0.1c0.1,0.2,0.1,0.3,0.1,0.5c0.2,0,0,0.1,0.3,0.1c-0.4,0-0.5,0.2-0.5,0.2
			s-0.1,0-0.1,0c-0.5,0.1,0.4,0.1-0.2,0.2c0.4,0-0.1,0.2,0.4,0.2h-0.2c0,0.2-0.2,0.3-0.2,0.5c0.4,0.1-0.2,0.3,0.3,0.4
			c-0.1,0.1-0.3,0.2-0.1,0.3h-0.1c0,0.1,0.1,0.3,0.4,0.4c-0.5,0-0.4,0.1-0.6,0.2c0.2,0.1,0.2,0.3,0.4,0.4c-0.2,0,0.1,0.1-0.2,0.1
			c0.6,0.4,0.4,0.8-0.1,1.2l0,0c0.2,0,0.6,0.1,0.8,0.2h-0.1c0,0-0.3,0.1-0.2,0.2h-0.1c0.2,0.1-0.3,0.1,0,0.2H68l0.1,0
			c-0.1,0-0.3,0-0.2,0c-0.1,0.6,0.5,1.3,0.4,1.9h-0.1l0.2,0.1h-0.1c-0.2,0.2,0.1,0.3,0.1,0.5c-0.1,0-0.1,0-0.2,0
			c0.3,0.1-0.4,0.2,0.2,0.2c-0.1,0-0.1,0-0.2,0c0.2,0.3,0.2,0.7,0.1,1c0.6,0.3,0.1,0.6,0.5,0.8h-0.1c0.4,0.4,0,0.7,0.1,1.1
			c0,0.2,0.1,0.3,0.1,0.4h-0.1c0.5,0.3-0.5,0.6,0.1,0.8h-0.2c0.3,0-0.1,0.2,0.4,0.2h-0.2c0.7,0.2-0.3,0.3,0.1,0.6h-0.1
			c0.1,0.1,0.2,0.1,0.1,0.2h-0.1c-0.5,0.2,0.1,0.4,0,0.6h-0.2c0.3,0.1,0,0.3,0.1,0.4h-0.1l0.2,0.1h-0.2
			C68.5,69.4,68.7,69.5,68.7,69.7z"/>
		<path class="st3" d="M68.9,71.4L68.9,71.4C68.9,71.4,68.9,71.4,68.9,71.4z"/>
		<path class="st3" d="M67.8,55L67.8,55C67.8,55,67.9,55,67.8,55z"/>
		<polygon class="st3" points="131.7,34.8 131.8,34.8 131.6,34.8 		"/>
		<path class="st3" d="M131.4,34.8h-0.1h0.5C132,34.8,131.2,34.8,131.4,34.8z"/>
		<path class="st3" d="M131.4,34.8c0.1,0-0.1,0-0.2,0C131.4,34.7,131.1,34.8,131.4,34.8z"/>
		<path class="st3" d="M131.3,33.4L131.3,33.4z"/>
		<path class="st3" d="M130.5,33.1h-0.2c0.3,0.1,0,0.1,0.1,0.2h-0.1c-0.1,0.2,0.2,0.3,0.4,0.5h-0.1c0.1,0,0.2,0,0.2,0h-0.1
			c-0.3,0,0.2,0.1,0,0.1h0.3c0.1,0.2,0.2,0.3,0.4,0.4h-0.2c0.5,0.1,0.3,0.2,0.2,0.4c0.1,0,0.1,0,0.3,0s-0.3-0.1-0.1-0.1h0.1
			c0.1,0-0.3,0-0.2,0h0.2c-0.1-0.1,0.1-0.1-0.2-0.2c0.3,0,0-0.1,0.3-0.1c-0.1,0-0.2,0-0.3,0c0.1-0.2-0.1-0.4-0.1-0.6
			c-0.5-0.1,0.1-0.2-0.1-0.3h0.1c-0.1,0-0.2-0.1-0.1-0.1h-0.2c0.5-0.2,0.1-0.5,0.3-0.8s0.5-0.5-0.2-0.8h0.1c-0.1-0.1,0.1-0.2,0-0.2
			l0,0c-0.4-0.2,0.1-0.4-0.4-0.6c0-0.2,0-0.5-0.1-0.7h0.1c-0.2-0.2,0.3-0.4,0.2-0.6c0.2-0.2-0.6-0.4-0.3-0.6
			c0.5-0.1-0.6-0.3-0.1-0.4c0.8-0.2,0.3-0.5-0.2-0.7c0.3-0.2-0.5-0.4,0.1-0.6c-0.4-0.1,0.5-0.2,0.4-0.3h-0.1c0.4,0-0.6-0.1,0-0.1
			l0,0c0.3,0-0.7,0-0.4-0.1h-0.1c0,0,0.2,0,0.2,0s-0.3,0-0.2,0c0.6,0-0.1-0.1,0.6-0.1c0.1,0,0.3,0,0.4,0c0.1,0,0,0-0.3,0
			c-0.3,0-0.6,0-0.8,0h-0.1c-0.2,0-0.3,0.1-0.5,0.1l0,0c0.3,0,0.1,0,0.1,0h-0.1c-0.3,0,0.5,0,0.1,0c0.1,0,0.1,0.1,0.1,0.2
			c0.2,0,0,0.1,0.3,0c-0.4,0-0.5,0.1-0.5,0.1h-0.1c-0.5,0,0.4,0-0.1,0.1c0.4,0-0.1,0.1,0.4,0.1h-0.2c0,0.1-0.2,0.1-0.2,0.2
			c0.4,0-0.2,0.1,0.3,0.2c-0.1,0-0.3,0.1-0.1,0.1h-0.1c0,0.1,0.1,0.1,0.4,0.2c-0.2,0-0.4,0-0.6,0.1c0.2,0,0.2,0.1,0.4,0.2
			c-0.2,0,0.1,0-0.2,0c0.6,0.2,0.4,0.4-0.1,0.5l0,0l0.8,0.1h-0.1c0.1,0-0.3,0.1-0.2,0.1h-0.1c0.1,0-0.3,0.1,0,0.1h-0.1h0.1
			c-0.1,0-0.3,0-0.2,0c-0.1,0.3,0.5,0.5,0.4,0.8h-0.1l0.2,0h0c-0.2,0.1,0.1,0.1,0.1,0.2h-0.2c0.3,0-0.4,0.1,0.2,0.1h-0.2
			c0.2,0.1,0.2,0.3,0.1,0.4c0.6,0.1,0.1,0.2,0.5,0.4h-0.1c0.4,0.2,0,0.3,0.1,0.5s0.1,0.1,0.1,0.2h-0.1c0.5,0.1-0.5,0.2,0.1,0.4h-0.2
			c0.3,0-0.1,0.1,0.4,0.1h-0.1c0.7,0.1-0.3,0.2,0.1,0.2h-0.1c0.1,0,0.2,0.1,0.1,0.1h-0.1c-0.5,0.1,0.1,0.2,0,0.3h-0.2
			c0.3,0,0,0.1,0.1,0.2h-0.1h0.1h-0.2C130.3,32.9,130.4,33,130.5,33.1z"/>
		<path class="st3" d="M130.7,33.8L130.7,33.8z"/>
		<path class="st3" d="M129.6,26.6L129.6,26.6z"/>
		<polygon class="st3" points="120,53.6 120,53.6 119.8,53.5 		"/>
		<path class="st3" d="M119.5,53.4h-0.1l0.5,0.1C120.2,53.4,119.4,53.4,119.5,53.4z"/>
		<path class="st3" d="M119.6,53.3c0.1-0.1-0.1-0.1-0.2-0.1C119.6,53.2,119.3,53.4,119.6,53.3z"/>
		<path class="st3" d="M119.2,48.6L119.2,48.6L119.2,48.6z"/>
		<path class="st3" d="M118.7,46.8h-0.2c0.3,0.2,0,0.5,0.1,0.8h-0.1l-0.1,0.4c-0.1,0.2-0.1,0.4-0.1,0.5c0.1,0.4,0.1,0.7,0.2,1.1
			h-0.1c0.1,0,0.2,0.1,0.2,0.1c0,0-0.1,0-0.1,0c-0.3,0.2,0.2,0.4,0,0.5c0.1,0,0.2,0,0.3,0c0.1,0.6,0.3,1.1,0.5,1.6
			c-0.1,0-0.2,0-0.2,0c0.6,0.4,0.4,0.9,0.4,1.4c0.1,0,0.1-0.1,0.3,0c0.2-0.2-0.4-0.2-0.1-0.4h0.1c0.1-0.1-0.3,0-0.2-0.1s0.2,0,0.2,0
			c-0.1-0.2,0-0.4-0.3-0.6c0.3-0.1,0-0.2,0.2-0.3c-0.1,0-0.1-0.1-0.3-0.1c0-0.7-0.1-1.5-0.2-2.2c-0.5-0.3,0.1-0.6-0.1-0.8l0,0
			l0.1-0.5c0-0.1,0-0.2,0.1-0.3l-0.2-0.2c0.6-1.1,0.2-2.1,0.2-3.2c0-0.3,0-0.7-0.1-1c0-0.4,0-0.2,0-0.6c0-0.6-0.1-1.1-0.4-1.6
			c0.1,0,0.1,0,0.1,0c-0.1-0.3,0.1-0.6,0-0.9h0.1c-0.4-0.8,0.1-1.6-0.3-2.3c0-0.5,0-1-0.1-1.5c-0.2-0.4-0.3-0.9-0.3-1.4h0.1
			c-0.2-0.8,0.4-1.3,0.4-2.3l0,0c-0.2-0.8-0.8-1-1.2-1.5c-0.1-0.1-0.2-0.3-0.3-0.5c0.2-0.7-1.1-0.6-0.9-1.3c0-0.2,0-0.5,0.1-0.7
			c0-0.2,0-0.5-0.1-0.7c-0.2-0.4-0.5-0.9-0.8-1.3c0-0.4-0.1-0.9-0.2-1.3c0-0.5,0.1-0.9,0.4-1.3c-0.3-0.4,0.6-0.8,0.6-1.2h-0.1
			c0.4-0.1-0.5-0.4,0.1-0.4l0,0c0.3,0-0.7-0.3-0.3-0.3h-0.2c0-0.1,0.2,0,0.2,0s-0.3-0.1-0.2-0.1c0.6,0.1-0.1-0.3,0.6-0.1
			c0,0,0.3,0,0.4,0.1c0.1,0,0.1-0.2-0.2-0.2c-0.3-0.1-0.5-0.2-0.8-0.1l0.2,0.1c-0.1,0-0.2,0-0.3,0c0,0.1-0.4,0.1-0.5,0.2l0,0
			c0.2,0.1,0.1,0.2,0,0.2H115c-0.3,0,0.5,0.2,0,0.1c0.1,0.3,0.1,0.6,0,0.9c0.2,0.1-0.1,0.2,0.3,0.2c-0.4,0-0.5,0.3-0.5,0.4
			s-0.1,0-0.1,0c-0.5,0.1,0.4,0.2-0.2,0.4c0.4,0-0.2,0.3,0.3,0.4c-0.1,0-0.2,0-0.3,0c-0.1,0.3-0.3,0.6-0.3,0.9
			c0.3,0.2-0.1,0.5,0.4,0.7c-0.1,0.2-0.3,0.4,0,0.6h-0.1c0.1,0.2,0.2,0.5,0.5,0.7c-0.5,0.2-0.4,0.2-0.5,0.4c0.2,0.1,0.2,0.4,0.5,0.6
			c-0.2,0.1,0.1,0.2-0.2,0.2c0.2,0.1,0.3,0.3,0.4,0.5c0.1,0.2,0.2,0.5,0.4,0.7c0.2,0.4,0.2,0.8,0.2,1.1l0,0c0.2,0,0.6-0.2,0.8-0.2
			c0,0-0.1,0-0.1,0s-0.1,0.4,0,0.4h-0.1c0.2,0-0.1,0.4,0.2,0.3l-0.1,0.1h0.3c-0.1,0.1-0.2,0.1-0.2,0.1l0.1,0.1
			c0.1,0.2,0.3,0.5,0.4,0.7l0.3,0.4c0.1,0.1,0.1,0.1,0.2,0.2c0,0,0,0.1,0,0.2v0.3c0,0.2,0,0.4,0,0.7h-0.1l0.2,0.2c0,0-0.1,0-0.1,0
			c-0.2,0.3,0.1,0.6,0,0.9c0,0-0.2,0-0.2,0c0.3,0.2-0.4,0.3,0.2,0.4c-0.1,0-0.1,0-0.2,0c0.1,0.3,0.2,0.6,0.3,1
			c0.1,0.2,0.1,0.5,0.1,0.8c0.6,0.3,0.1,0.8,0.5,1.3h-0.1c0.4,0.6-0.1,1.3,0,1.9c-0.1,0.3,0.1,0.5,0.1,0.7h-0.1
			c0.5,0.5-0.5,0.9,0.1,1.4h-0.2c0.3,0.1-0.1,0.3,0.4,0.2l-0.2,0.1c0.7,0.2-0.2,0.6,0.3,0.9h-0.1c0.1,0.1,0.2,0.2,0.1,0.3
			s-0.1,0-0.1,0c-0.4,0.4,0.1,0.7,0.2,1h-0.2c0.3,0.1,0.1,0.5,0.2,0.7h-0.1l0.2,0.1h-0.2C118.5,46.2,118.7,46.5,118.7,46.8z"/>
		<path class="st3" d="M118.6,49.6L118.6,49.6C118.6,49.6,118.6,49.6,118.6,49.6z"/>
		<path class="st3" d="M115.2,22L115.2,22C115.2,22,115.2,22,115.2,22z"/>
		<polygon class="st3" points="95.8,44.2 95.7,44.2 95.8,44.3 		"/>
		<path class="st3" d="M96.1,44.5h0.1l-0.5-0.3C95.4,44.3,96.3,44.5,96.1,44.5z"/>
		<path class="st3" d="M96,44.6c-0.1,0,0.1,0.1,0.2,0.1C96,44.7,96.3,44.6,96,44.6z"/>
		<path class="st3" d="M95.6,46.5L95.6,46.5C95.6,46.5,95.5,46.5,95.6,46.5z"/>
		<path class="st3" d="M95.8,48l0.2,0.1c-0.2-0.3,0.2-0.5,0.1-0.8h0.1c0.1-0.3,0.2-0.5,0.2-0.8l-0.3-0.1c0,0.3,0.1,0.7,0.1,1h-0.1
			c0.1,0,0.2,0.1,0.2,0.1c0,0-0.1,0-0.1,0c-0.2,0-0.1,0.2-0.1,0.3l-0.2-0.1c0-0.1,0-0.1,0.1-0.1c-0.1-0.1-0.2-0.1-0.2-0.1
			c0.1-0.5,0.1-1.1,0-1.6c0.1,0,0.2,0,0.2,0c-0.4-0.5-0.1-0.9,0.1-1.3c-0.1,0-0.2,0-0.3-0.1c-0.2,0.1,0.2,0.3,0,0.4h-0.1
			c-0.1,0.1,0.3,0.1,0.1,0.2s-0.2,0-0.2,0c0,0.2-0.2,0.4,0.1,0.6c-0.3,0-0.1,0.2-0.3,0.2c0.1,0.1,0.1,0.1,0.2,0.2
			c-0.2,0.5-0.3,1-0.3,1.5l1.4,0.3c0-0.2,0-0.4,0.1-0.6c-0.3-0.3,0-0.5,0.1-0.8l-1.2-0.4c-0.1,0.1-0.1,0.2-0.1,0.3l0,0
			c0.1,0.1,0.1,0.3,0,0.5l0.2,0.2C95,48,95,49,94.4,49.8c-0.2,0.5-0.6,0.9-0.8,1.4c-0.1,0.3-0.2,0.5-0.2,0.8c0,0.3,0.1,0.6,0.2,0.9
			c-0.1,0-0.1,0-0.1,0c0.1,0.3-0.2,0.6-0.1,0.9h-0.1c0.3,0.8-0.3,1.4,0.1,2.2c-0.2,0.9-0.3,1.7-0.3,2.6h-0.1c0.1,0.7-0.5,1.3-0.4,2
			c-0.3,0.7,0.4,1.6,0,2.2c-0.6,0.3,0.4,1.1-0.2,1.5c-1,0.7-0.6,1.6-0.3,2.6c-0.4,0.7,0.3,1.7-0.4,2.3c0.3,0.4-0.5,0.7-0.5,1.1h0.1
			c-0.4,0.1,0.5,0.4-0.1,0.4l0,0c-0.3,0.1,0.7,0.2,0.3,0.3h0.2c0,0.1-0.2,0-0.2,0.1s0.3,0,0.2,0.1c-0.6,0,0.1,0.2-0.6,0.2
			c0-0.1-0.3,0.1-0.4-0.1c-0.1,0-0.1,0.2,0.2,0.2c0.3,0.1,0.5,0.1,0.8,0h-0.2c0.1,0,0.2,0,0.3,0c0-0.1,0.4-0.1,0.5-0.2l0,0
			c-0.3-0.1-0.1-0.2-0.1-0.2h0.1c0.3,0-0.5-0.2-0.1-0.1c-0.1-0.3-0.1-0.5,0-0.8c-0.2-0.1,0-0.2-0.3-0.2c0.4,0,0.5-0.2,0.5-0.3
			s0.1,0,0.1,0c0.5-0.1-0.4-0.2,0.2-0.3c-0.4-0.1,0.2-0.2-0.3-0.4c0.1,0,0.2,0,0.2,0c0-0.2,0.2-0.5,0.2-0.7
			c-0.3-0.2,0.2-0.4-0.3-0.7c0.1-0.1,0.3-0.3,0.2-0.5H93c0-0.3-0.1-0.5-0.3-0.7c0.5,0,0.4-0.1,0.6-0.1c-0.2-0.2-0.1-0.4-0.2-0.7
			c0.2,0-0.1-0.2,0.3-0.1c-0.5-0.7-0.2-1.4,0.4-1.9l0,0c-0.2-0.1-0.5-0.3-0.8-0.4h0.1c0,0,0.3-0.2,0.3-0.3h0.1
			c-0.1-0.1,0.3-0.2,0.1-0.3h0.1l-0.1-0.1c0.1,0,0.3,0,0.2,0.1c0.3-1-0.2-2.1,0.1-3.1l0.1,0l-0.2-0.2h0.1c0.2-0.2-0.1-0.5,0-0.8
			c0.1,0,0.2,0.1,0.2,0c-0.3-0.2,0.4-0.2-0.2-0.4c0.1,0,0.1,0,0.2,0c-0.1-0.5-0.1-1,0.2-1.5c-0.5-0.5,0.1-0.9-0.3-1.4h0.1
			c-0.3-0.6,0.2-1.2,0.2-1.8c0.1-0.2,0-0.4,0-0.7h0.1c-0.2-0.2-0.1-0.5,0.1-0.6s0.3-0.3,0.1-0.6l0.2,0.1c-0.2-0.2,0.2-0.2-0.3-0.4
			h0.2c-0.5-0.5,0.5-0.4,0.2-0.9l0.1,0.1C95,50.2,94.9,50,95,50s0,0,0.1,0.1c0.6-0.1,0.2-0.6,0.3-0.9l0.2,0.1
			c-0.2-0.2,0.1-0.4,0.1-0.6h0.1l-0.1-0.2l0.2,0.1C95.9,48.5,95.8,48.2,95.8,48z"/>
		<path class="st3" d="M96.2,47.5L96.2,47.5C96.2,47.5,96.2,47.5,96.2,47.5z"/>
		<path class="st3" d="M92.4,71.1L92.4,71.1C92.4,71.1,92.4,71.1,92.4,71.1z"/>
		<polygon class="st3" points="121,88.5 121.1,88.4 120.9,88.3 		"/>
		<path class="st3" d="M120.6,87.9h-0.1l0.5,0.3C121.3,88.1,120.4,88,120.6,87.9z"/>
		<path class="st3" d="M120.7,87.8c0.1-0.1-0.1-0.2-0.2-0.2C120.7,87.7,120.4,87.9,120.7,87.8z"/>
		<path class="st3" d="M121.5,77.5L121.5,77.5L121.5,77.5z"/>
		<path class="st3" d="M121.5,74.6l-0.2-0.1c0.2,0.6-0.3,1-0.4,1.6l-0.1-0.1c-0.4,1.3-0.7,2.6-0.8,4c0,0-0.1,0-0.1-0.1
			s0.2,0.2,0.1,0.2s-0.1,0-0.1,0c-0.4,0.3,0.1,0.8-0.1,1c0.1,0.1,0.2,0.1,0.3,0.1c0,1.1,0.2,2.2,0.4,3.3c0,0.1-0.1,0.1-0.2,0
			c0.4,0.9,0.4,1.9,0.2,2.9c0.1,0,0.1-0.1,0.3,0c0.2-0.3-0.3-0.6-0.1-0.8h0.1c0.1-0.2-0.3,0-0.2-0.2s0.2,0,0.2,0
			c-0.1-0.4,0.1-0.9-0.2-1.3c0.3-0.1,0-0.5,0.3-0.6c-0.1-0.1-0.1-0.2-0.3-0.3c0.1-0.8,0.1-1.5,0-2.3l-0.1-1.2c0-0.3,0.1-0.7,0.2-1
			c-0.4-0.7,0.6-1.4,0.6-2.3h0.1c0-0.3,0-0.7,0.2-1l-0.1-0.3c0.5-0.9,0.9-1.9,1.1-3c0.2-1,0.5-1.9,0.8-2.8c0.9-2.1,1.9-4,2.2-6.2
			c0,0,0.1,0,0.1,0.1c0.1-0.6,0.6-1,0.8-1.7l0,0c0.3-1.6,1.6-2.8,1.9-4.3c0.9-1.5,1.9-3.3,2.7-5.1l0.1,0.1c0.6-1.5,1.7-2.5,2.3-3.9
			c0.5-0.7,0.8-1.5,0.7-2.4c-0.1-0.8-0.1-1.6,0-2.4c0.5-1-0.8-2.2-0.4-3.2c0.1-1,0.3-1.8,0.4-2.7s0.2-1.9,0.3-2.8
			c0.4-0.8,0.6-1.6,0.6-2.5c0.2-0.9,0.8-1.7,1.5-2.2c0.2-0.9,1.4-1,2-1.7l-0.1-0.1c0.5,0,0.1-0.9,0.6-0.6l0,0
			c0.3,0.1-0.2-0.8,0.1-0.6l-0.1-0.1c0.1-0.1,0.1,0.1,0.3,0s-0.2-0.2-0.1-0.2c0.7,0.2-0.1-0.4,0.6-0.4c0,0.2,0.3-0.2,0.4,0.1
			c0.1-0.2,0-0.5-0.3-0.5s-0.6-0.2-0.8,0h0.2c-0.1,0-0.2,0.1-0.3,0.1c0,0.3-0.4,0.2-0.5,0.2l0,0c0.3,0.1,0,0.1,0,0.1l-0.1-0.1
			c-0.2-0.2,0.2,0.5,0,0.1c-0.4,0.5-0.7,1-1.2,1.4c0.1,0.2-0.3,0.4,0,0.5c-0.3-0.1-0.7,0-0.9,0.3c0,0,0-0.1,0-0.1
			c-0.6,0,0.1,0.6-0.6,0.5c0.3,0.3-0.5,0.4-0.2,0.8c-0.1,0-0.2-0.1-0.2-0.1c-0.4,0.5-0.8,1-1.2,1.5c0,0.2,0,0.4,0,0.6
			c0,0.2-0.1,0.3-0.1,0.5c-0.1,0.2,0,0.2,0.1,0.5c-0.3,0.3-0.4,0.6-0.4,1V35c-0.2,0.4-0.2,0.9-0.1,1.4c-0.5,0-0.5,0.2-0.7,0.3
			c0.1,0.4-0.1,1-0.1,1.5c-0.2,0,0,0.4-0.3,0.4c0.1,0.4,0.1,0.8,0.2,1.2s0.1,0.8,0.2,1.2c0.1,0.8,0,1.6-0.3,2.4l0,0
			c0.2,0.2,0.6,0.3,0.9,0.5c0,0-0.1,0-0.1,0c0.1,0.2-0.2,0.5-0.1,0.7c-0.1,0-0.1,0-0.1,0c0.1,0.2-0.2,0.5,0,0.7h-0.1l0.1,0.2
			c-0.1,0-0.3,0-0.2-0.1c0,0.9-0.1,1.9-0.3,2.8c-0.4,1.1-0.9,2.1-1.4,3.1v-0.1v0.5c0,0-0.1-0.1-0.1-0.1c-0.4,0.4-0.4,1-0.7,1.5
			c0,0-0.1-0.2-0.2-0.1c0.1,0.5-0.6,0.3-0.2,0.8c-0.1,0-0.1-0.1-0.2-0.1c-0.4,1-0.9,2-1.5,2.9c0,1.1-0.9,1.8-1,2.8l-0.1-0.1
			c-0.3,1.3-1.2,2.2-1.8,3.4c-0.2,0.4-0.4,0.9-0.6,1.4L125,64c0.1,1.1-1.2,1.6-1,2.7l-0.2-0.1c0.2,0.2-0.3,0.5,0.2,0.6l-0.2,0.1
			c0.4,0.8-0.7,1-0.5,1.9l-0.1-0.1c0,0.2,0,0.5-0.2,0.6s0,0-0.1-0.1c-0.7,0.5-0.4,1.3-0.6,2l-0.2-0.1c0.2,0.4-0.2,1-0.2,1.4h-0.1
			L122,73h-0.2C121.6,73.5,121.7,74.1,121.5,74.6z"/>
		<path class="st3" d="M120.1,80.2L120.1,80.2C120.1,80.2,120.1,80.2,120.1,80.2z"/>
		<path class="st3" d="M138.7,27.7L138.7,27.7C138.7,27.7,138.7,27.7,138.7,27.7z"/>
		<polygon class="st3" points="157.2,16.4 157.1,16.5 157.3,16.6 		"/>
		<path class="st3" d="M157.4,17.1c0,0,0.1,0,0.1,0l-0.4-0.5C156.8,16.7,157.7,17,157.4,17.1z"/>
		<path class="st3" d="M157.4,17.2c-0.1,0.1,0.1,0.2,0.1,0.3C157.4,17.4,157.6,17.2,157.4,17.2z"/>
		<path class="st3" d="M153.1,26.9L153.1,26.9L153.1,26.9L153.1,26.9l0.2,0.5l0,0L153.1,26.9L153.1,26.9L153.1,26.9z"/>
		<path class="st3" d="M156.2,23.2L156.2,23.2c-0.2,0-0.3,0-0.4,0c-0.2,0-0.3,0.1-0.4,0.1c-0.2,0.1-0.3,0.2-0.4,0.4
			c-0.3,0.4-0.6,0.8-0.8,1.2c0,0.5-0.2,0.9-0.5,1.2l-0.4,0.5l-0.2,0.2l0.1,0.3l0.1,0.2l0,0c0.1,0.4-0.2-0.6-0.1-0.5l0,0l0,0l0,0
			c-0.2,0.1-0.3,0.3-0.4,0.5l-0.1,0.4c-0.1,0.2-0.2,0.4-0.3,0.6l0.1,0.4c-0.3,0.5-0.5,1.1-0.6,1.7c0,0.6,0,1.1,0,1.7
			c0,1.1,0,2.2-0.1,3.4c0,0.7-0.1,1.4-0.1,2.1c-0.1,1.8,0.2,3.5,0.8,5.2c-0.1,0-0.1,0-0.1,0c0.2,0.7,0,1.4,0.2,2h-0.1
			c0.2,0.5,0.3,1,0.3,1.5h0.8c0.2-1.2,0.2-2.4,0-3.6c0.2-2,0.2-4.2,0.2-6.3h0.1c0-0.8,0-1.7,0.2-2.5c0.3-0.8,0.4-1.5,0.6-2.3
			c0.7-1.6,0.5-3.5,1.3-5.1c0.8-0.9,0.2-2.5,1.1-3.3c1.5-1.7,1.6-3.7,1.8-5.8c0.9-1.7,0.8-3.7,2-5.3c-0.1-0.9,1-1.6,1.3-2.5h-0.1
			c0.5-0.2-0.3-0.9,0.4-0.9l0,0c0.4-0.1-0.5-0.6-0.2-0.6L162,8c0-0.2,0.2,0,0.3-0.1s-0.2-0.1-0.1-0.2c0.6,0.2,0.1-0.6,0.7-0.3
			c0,0.1,0.3-0.1,0.4,0.2c0.1,0,0.2-0.4-0.1-0.5s-0.5-0.4-0.8-0.2l0.2,0.1c-0.1,0-0.2,0-0.3,0c-0.1,0.3-0.4,0.2-0.6,0.4l0,0
			c0.2,0.2,0,0.4-0.1,0.5h-0.1c-0.3,0,0.4,0.5,0,0.3c-0.1,0.6-0.3,1.3-0.5,1.9c0.1,0.1-0.2,0.5,0.2,0.4c-0.3,0.1-0.6,0.3-0.7,0.7
			c0,0-0.1,0,0-0.1c-0.6,0.2,0.3,0.6-0.4,0.7c0.4,0.2-0.3,0.5,0.1,0.9c-0.1,0-0.2,0-0.3,0c-0.2,0.6-0.6,1.2-0.8,1.6
			c0.2,0.5-0.5,1-0.1,1.5c-0.3,0.3-0.5,0.7-0.5,1.2v-0.1c-0.2,0.5-0.2,1-0.1,1.5c-0.5,0-0.5,0.2-0.7,0.4c0.1,0.4-0.2,1-0.1,1.5
			c-0.2,0,0,0.4-0.4,0.4c0,1.6-0.6,3.2-1.6,4.4l0,0c0.1,0.2,0.4,0.5,0.6,0.8c0,0-0.1,0-0.1,0c0,0.3-0.4,0.4-0.4,0.7c0,0,0,0-0.1-0.1
			c0.1,0.3-0.4,0.4-0.2,0.8H155l0.1,0.2c-0.1,0-0.2-0.1-0.2-0.2c-0.4,1.1-0.7,2.3-0.9,3.5c-0.1,0.6-0.2,1.2-0.4,1.8
			s-0.2,1.3-0.3,1.9l-0.1-0.1l0.2,0.5c0,0-0.1,0-0.1,0c-0.2,0.6,0,1.2,0,1.8c-0.1,0-0.1-0.1-0.2,0c0.3,0.4-0.4,0.7,0.2,0.9
			c-0.1,0-0.2,0-0.2,0c0.1,1.2,0,2.3-0.2,3.4c0.5,1-0.1,2.1,0.3,3.2H153c0.1,0.7,0.1,1.4,0,2.1h0.2c0-0.7,0-1.4-0.1-2.1
			c0-0.6-0.2-1-0.2-1.5h0.1c-0.6-0.9,0.3-2.1-0.4-3.1l0.2,0c-0.3-0.1,0-0.6-0.4-0.5l0.1-0.2c-0.4-0.4-0.3-0.8-0.2-1.2
			c0.1-0.3,0.1-0.6,0-0.9l0.1,0.1c-0.1-0.2-0.1-0.4-0.1-0.7c0,0,0,0,0.1,0.1c0.5-0.7,0-1.5,0-2.3l0.2,0.1c-0.3-0.4,0-1-0.1-1.5h0.1
			l-0.1-0.2h0.2c0-0.7-0.2-1.3-0.2-1.9h0.2c-0.4-0.5,0.2-1.1,0.2-1.7l0.1,0.1c0.1-0.3,0.2-0.6,0.4-0.9c0.1-0.1,0.3-0.3,0.4-0.4
			c0.1-0.2,0.2-0.3,0.2-0.5c0.3-0.7,0.5-1.4,0.9-2.1c0,0,0,0.1,0.1,0.1s-0.1-0.2,0-0.3s0.1,0.1,0.1,0.1c0.4-0.1,0.4-0.9,0.8-0.8
			c0.1,0,0.2-0.2,0.1-0.3h0.2l-0.1,0.1l0,0c0,0,0.1,0,0.1-0.1s-0.1,0-0.1-0.1C156,23.4,156.1,23.3,156.2,23.2c0-0.3,0.1-0.5,0.2-0.8
			c0.1-0.6,0.2-1.2,0.2-1.8c0.1,0,0.1,0,0.2,0c-0.1-1.1,0-2.2,0.5-3.1c-0.1-0.1-0.2,0.1-0.3-0.1c-0.2,0.3,0.2,0.7-0.1,0.9l-0.1-0.1
			c-0.1,0.2,0.3,0.1,0.1,0.3s-0.2-0.1-0.2,0c-0.1,0.5-0.3,0.9-0.1,1.4c-0.3,0-0.1,0.5-0.4,0.6c0.1,0.1,0,0.2,0.2,0.3
			c-0.3,0.8-0.5,1.6-0.7,2.2l-0.1,0.1c0,0-0.1,0,0,0.1c0.1,0,0.2,0,0.2,0.1c0.1,0.1,0.1,0.1,0.1,0.2c0,0.1,0,0-0.1,0.1l0,0l0,0"/>
		<path class="st3" d="M155,24.7L155,24.7C155,24.7,155,24.7,155,24.7z"/>
		<path class="st3" d="M161.5,7.3L161.5,7.3C161.6,7.3,161.6,7.3,161.5,7.3z"/>
		<polygon class="st3" points="195.7,21 195.7,21.1 195.8,21.2 		"/>
		<path class="st3" d="M196,21.7h0.1l-0.4-0.4C195.4,21.4,196.2,21.6,196,21.7z"/>
		<path class="st3" d="M196,21.8c-0.1,0.1,0.1,0.2,0.2,0.2C196,21.9,196.2,21.8,196,21.8z"/>
		<path class="st3" d="M196.6,33L196.6,33L196.6,33z"/>
		<path class="st3" d="M198.1,35.7h0.2c-0.4-0.4-0.2-1.3-0.6-1.7h0.1c-0.4-1.3-0.9-2.6-1.2-4c0,0,0.1,0,0.1,0s-0.2-0.1-0.2-0.2
			s0.1,0,0.1,0c0.3-0.3-0.3-0.9,0-1.1c-0.1-0.1-0.2-0.1-0.3-0.1c0,0,0,0,0,0c-0.1-1.2-0.4-2.3-0.7-3.4c0-0.1,0.1-0.1,0.2-0.1
			c-0.2-0.2-0.3-0.5-0.3-0.8c0-0.3,0-0.6,0.1-0.9c0.1-0.5,0.2-1,0.4-1.5c-0.1-0.1-0.2,0.1-0.3,0c-0.2,0.3,0.2,0.6-0.1,0.9l-0.1-0.1
			c-0.1,0.2,0.3,0.1,0.1,0.3s-0.2,0-0.2,0c0,0.2-0.1,0.5-0.1,0.7s0,0.2,0,0.4c0,0.2,0.1,0.3,0.2,0.5c-0.3,0.1,0,0.5-0.2,0.7
			c0.1,0.1,0.1,0.2,0.3,0.3c0,1.6,0.4,3.2,0.5,4.8c0.6,0.8,0.2,1.7,0.6,2.6h-0.1c0.2,0.3,0.4,0.7,0.4,1.1l0.3,0.2
			c0.1,1,0.1,2,0.2,3.1s0.4,2.3,0.5,3.2l0.1,0.8v0.9v0.3c0,0-0.1,0,0.2,0.1h0.1l-0.3-0.2l0,0v0.2c0,0.2,0,0.4,0,0.6V44
			c0,0.3,0,0.5,0,0.8s0,0.3,0,0.1h0.1l0,0c0.1,0,0.1,0.1,0.1,0.1l0.1,0.3l0.1,0.1v0.1l0,0l-0.3-0.6l0,0l0,0
			c-0.2,0.2-0.3,0.4-0.4,0.7c0,0.1,0,0.3,0,0.4c0,0.2,0.1,0.4,0.1,0.5c0.1,0.3,0.2,0.6,0.3,0.8c-0.1,0-0.1,0-0.1,0
			c0.1,0.6,0.1,1.2,0,1.7l0,0c0,0.4,0,0.8-0.1,1.3l-0.1,0.6c0,0.1-0.1,0.3-0.2,0.3c-0.2,0.2-0.6,0.5-0.9,0.7
			c-0.3,0.2-0.5,0.5-0.7,0.8l-1,0.7c-0.1,0.1-0.4,0.4-0.5,0.3c0-0.2,0-0.4,0-0.6c0.1-0.9,0.2-1.8,0.4-2.7h0.1
			c0.1-0.8,0.3-1.5,0.6-2.3c0.1-0.2,0.2-0.3,0.1-0.3c0.1-0.1,0.2-0.2,0.2-0.3v-0.2l0.1-0.3c0.1-0.4,0.1-0.8,0.1-1.2
			c0.4-1.6-0.4-3.4,0.1-5c0.6-1-0.4-2.4,0.2-3.3c0.5-0.9,0.6-1.9,0.4-2.9c-0.2-1-0.6-1.9-1-2.8c-0.1-0.9-0.2-1.8-0.5-2.6
			c-0.1-0.5-0.1-1,0-1.4c0-0.5,0.2-0.9,0.4-1.3c-0.3-0.9,0.7-1.7,0.7-2.6h-0.1c0.4-0.3-0.5-0.8,0.2-0.9l0,0c0.3-0.1-0.7-0.5-0.3-0.6
			l-0.1,0c0-0.2,0.2,0,0.3-0.1s-0.3-0.1-0.2-0.2c0.6,0.1,0-0.5,0.6-0.4c0,0.1,0.3-0.1,0.4,0.1c0.1-0.1,0.1-0.3-0.1-0.4
			c0,0-0.1,0-0.1-0.1c-0.3-0.1-0.5-0.3-0.8-0.1l0.2,0.1c-0.1,0-0.2,0-0.3,0c-0.1,0.3-0.4,0.3-0.6,0.4l0,0c0.2,0.2,0.1,0.4,0,0.5
			h-0.1c-0.3,0,0.5,0.4,0,0.2c0,0.6,0,1.3-0.1,1.9c0.2,0.1-0.1,0.5,0.3,0.4c-0.3,0.1-0.5,0.4-0.6,0.8c0,0-0.1,0-0.1,0
			c-0.5,0.3,0.4,0.5-0.2,0.7c0.4,0.1-0.2,0.6,0.3,0.8c-0.1,0-0.2,0-0.3,0c0,0.3-0.1,0.6-0.2,0.9l-0.1,0.5c0,0.2,0,0.4,0,0.6
			c0.2,0.3,0.2,0.6,0.2,0.9c0,0.2,0.1,0.4,0.3,0.5c-0.1,0.4-0.1,0.8,0.1,1.1h-0.1c0,0.5,0.2,0.9,0.6,1.3c-0.5,0.2-0.3,0.4-0.5,0.6
			c0.3,0.3,0.2,0.9,0.5,1.3c-0.2,0.1,0.1,0.4-0.2,0.4c0.8,1,0.3,2.9-0.2,4.3l0,0c0.2,0.2,0.6,0.4,0.8,0.7H196c0,0.3-0.3,0.5-0.2,0.8
			c-0.1,0-0.1,0-0.1,0c0.1,0.2-0.3,0.5-0.1,0.8h-0.1l0.1,0.2c-0.1,0-0.3,0-0.2-0.1c-0.1,1.1-0.1,2.3-0.1,3.4c0,0.6,0,1.2,0,1.7
			c0,0.1,0,0.3,0,0.4v0.2c0-0.1,0-0.1,0.1-0.1c0,0,0-0.1,0.1,0c0.1,0,0.1,0.1,0.2,0.2c0.1,0.1,0.1,0.1,0.1,0.2l0,0
			c0.3,0.4-0.5-0.5-0.4-0.4l0,0l0,0c-0.2,0.3-0.4,0.7-0.4,1.1l-0.1-0.1l0.1,0.5c0,0-0.1,0-0.1-0.1c-0.3,0.5-0.1,1.2-0.3,1.7
			c-0.1,0-0.1-0.1-0.2,0c0.2,0.5-0.5,0.5,0,0.9c0,0-0.2,0-0.2,0c0,0.9-0.2,1.8-0.2,2.4v0.9v0.2c0,0.1,0,0.2,0.1,0.1l0.4-0.3
			c0.5-0.5,1-0.9,1.6-1.3c0.5-0.3,0.9-0.7,1.2-1.1l0.1,0.1c0.2-0.3,0.4-0.5,0.7-0.7l0.2-0.2c0-0.1,0.1-0.2,0.1-0.2l0.1-0.5
			c0.2-0.6,0.4-1.3,0.5-2c0-0.5,0-1-0.2-1.5h0.1c-0.3-0.4-0.3-0.9-0.1-1.3l0,0l0.1-0.1c0,0,0.1-0.1,0.1-0.2c0.1-0.2,0.1-0.3,0.1-0.5
			c0-0.3,0-0.5-0.2-0.8l0.2,0.1c-0.3-0.1,0.1-0.6-0.4-0.5l0.1-0.2c-0.3-0.2-0.4-0.7-0.2-1c0.2-0.3,0.2-0.7,0-1.1l0.1,0.1
			c-0.1-0.2-0.2-0.5-0.1-0.6c0,0,0.1,0,0.1,0.1c0.3-0.7-0.4-1.5-0.5-2.1h0.2c-0.3-0.3-0.2-0.9-0.4-1.4h0.1l-0.2-0.2h0.2
			C198.5,36.8,198.2,36.2,198.1,35.7z"/>
		<path class="st3" d="M196.7,29.8L196.7,29.8C196.7,29.8,196.7,29.9,196.7,29.8z"/>
		<path class="st3" d="M195.8,21.9L195.8,21.9C195.8,21.8,195.8,21.8,195.8,21.9z"/>
		<polygon class="st3" points="222.2,30.7 222.2,30.6 222.2,30.8 		"/>
		<path class="st3" d="M222,31.3C222,31.3,222.1,31.4,222,31.3l0.1-0.5C221.8,30.7,222.2,31.4,222,31.3z"/>
		<path class="st3" d="M221.9,31.4c-0.3,0-0.1,0.3-0.1,0.4C221.7,31.6,222.1,31.5,221.9,31.4z"/>
		<path class="st3" d="M220.5,43.2L220.5,43.2L220.5,43.2z"/>
		<path class="st3" d="M221.3,46.2h0.2c-0.3-0.6,0-1.2-0.1-1.8h0.1c0-1.5-0.2-2.9-0.4-4.3c0,0,0.1,0,0.1,0.1s-0.2-0.2-0.2-0.2
			s0.1,0,0.1,0c0.3-0.3-0.2-0.9,0-1.1c-0.1-0.1-0.2-0.1-0.3-0.1c0-0.5-0.1-1-0.1-1.6c0.1-0.7,0.1-1.4,0.1-2.1c0.1,0,0.1,0,0.2,0
			c-0.1-0.5-0.2-1-0.1-1.5c0.1-0.5,0.2-0.8,0.4-1.7l0.1-0.1c-0.1-0.1-0.3,0-0.2-0.2l-0.1,0.1c0,0.3,0,0.5,0,0.8
			c0,0.2,0.1,0.3-0.1,0.4l-0.1-0.1c-0.1,0.2,0.3,0.1,0.1,0.3s-0.2,0-0.2,0c-0.1,0.5-0.1,0.9,0,1.4c-0.3,0.1-0.1,0.5-0.4,0.6
			c0.1,0.1,0,0.2,0.2,0.3c-0.2,0.6-0.3,1.2-0.4,1.7c0,1.2,0.1,2.2,0.1,3.3c0.5,0.8-0.1,1.7,0.1,2.6h-0.1c0.1,0.3,0.2,0.7,0.1,1.1
			l0.2,0.3c-0.2,1.1-0.3,2.2-0.2,3.4c0.2,1.1,0.3,2.2,0.4,3.3c0.1,1.3,0.3,2.5,0.6,3.7c0.3,1.1,0.8,2.2,1.5,3.2c-0.1,0-0.1,0-0.1,0
			c0.3,0.5,0.2,1.3,0.5,1.9l0,0c0.3,0.6,0.5,1.3,0.6,2c-0.1,0.9,0,1.9,0.2,2.8c0,0.2,0,0.5,0,0.7l0.4-0.1c-0.6-1.6-1.2-3.4-1.9-5
			h0.1c-0.8-1.5-0.8-3.1-1.4-4.6c-0.2-1.7-1.8-3.1-1.5-4.9c0.1-0.6,0.1-1.2-0.1-1.7c-0.2-0.5-0.2-1.2,0.1-1.7c0.3-0.5,0.4-1,0.6-1.5
			c0-0.5,0-1-0.1-1.5c-0.2-1-0.5-2-0.8-2.9c0.1-1.9-0.8-3.7-0.3-5.5c-0.4-0.8,0.3-1.8-0.1-2.8l-0.1,0.1c0.3-0.5-0.8-0.6-0.3-1l0,0
			c0.2-0.3-0.8-0.2-0.5-0.4H218c-0.1-0.2,0.1-0.1,0.1-0.3s-0.3,0.1-0.2-0.1c0.6-0.2-0.3-0.5,0.3-0.7c0,0.1,0.2-0.3,0.4-0.1
			c0-0.1-0.1-0.4-0.4-0.3s-0.6,0.1-0.8,0.4h0.2c-0.2,0.1-0.1,0.1-0.2,0.2c0.1,0.3-0.2,0.4-0.3,0.7l0,0c0.3,0,0.2,0.3,0.2,0.4
			l-0.1,0.1c-0.2,0.2,0.6,0.1,0.1,0.2c0.3,0.5,0.5,1.1,0.6,1.7c0.2,0,0.1,0.5,0.4,0.3c-0.3,0.2-0.4,0.5-0.3,0.8c0,0-0.1,0-0.1,0
			c-0.5,0.4,0.5,0.4-0.1,0.8c0.4,0-0.1,0.6,0.4,0.8c-0.1,0-0.2,0.1-0.2,0.1c0,0.6-0.1,1.3,0,1.8c0.4,0.4-0.1,1.1,0.5,1.4
			c-0.2,0.4-0.2,0.8,0,1.2h-0.1c0,0.5,0.2,1,0.5,1.4c-0.5,0.2-0.4,0.4-0.5,0.6c0.2,0.3,0.2,1,0.5,1.4c-0.2,0.1,0.1,0.4-0.2,0.5
			c0.2,0.3,0.3,0.7,0.4,1c0,0.4,0,0.7-0.1,1.1c-0.2,0.8-0.3,1.6-0.6,2.4l0,0c0.3,0.2,0.5,0.4,0.8,0.6h-0.1c0,0.3-0.2,0.5-0.1,0.8
			c-0.1,0-0.1,0-0.1,0c0.2,0.2-0.2,0.6,0.1,0.9h-0.1l0.1,0.2c-0.1,0-0.3,0-0.2-0.1c0,0.3,0.1,0.6,0.1,0.9s0.2,0.6,0.3,0.8l0.7,1.7
			c0.5,1.1,0.9,2.2,1.3,3.4h-0.1l0.3,0.4c0,0-0.1,0-0.1,0c0,0.6,0.5,1.1,0.7,1.6c0,0-0.2,0-0.2,0.1c0.4,0.3-0.1,0.8,0.5,0.8
			c-0.1,0-0.1,0.1-0.2,0.1c0.5,1.1,1,2.2,1.3,3.4c0.2,0.2,0.4,0.5,0.6,0.8l0.9,1.7l-0.2-1.9c0-0.7,0-1.5-0.2-2.2h0.1
			c-0.1-0.4-0.2-0.9-0.2-1.4c-0.2-0.9-0.2-1.8-0.5-2.7c-0.1-0.5-0.3-1-0.5-1.5l0.1-0.1c-0.8-0.7-0.2-2.1-1.1-2.9h0.2
			c-0.3,0-0.1-0.6-0.5-0.4l0.1-0.2c-0.9-0.4,0-1.3-0.6-2h0.1c-0.1-0.2-0.2-0.4-0.2-0.6c0,0,0.1,0,0.1,0c0.3-0.8-0.3-1.4-0.4-2.2h0.2
			c-0.3-0.3-0.2-1-0.4-1.5h0.1l-0.2-0.2h0.2C221.5,47.4,221.4,46.8,221.3,46.2z"/>
		<path class="st3" d="M221.1,40L221.1,40C221.1,40,221.1,40,221.1,40z"/>
		<path class="st3" d="M217.2,31.9C217.2,31.9,217.2,31.9,217.2,31.9C217.2,31.8,217.2,31.9,217.2,31.9z"/>
		<polygon class="st3" points="328.5,90.7 328.5,90.7 328.4,90.6 		"/>
		<path class="st3" d="M328.1,90.4H328l0.5,0.2C328.8,90.7,327.9,90.4,328.1,90.4z"/>
		<path class="st3" d="M328.2,90.4c0.1,0-0.1-0.1-0.2-0.1C328.2,90.4,328,90.3,328.2,90.4z"/>
		<path class="st3" d="M329.1,87L329.1,87C329.1,87,329.1,87,329.1,87z"/>
		<path class="st3" d="M328.6,85.9l-0.2-0.1c0.3,0.3-0.1,0.3,0,0.6h-0.1c-0.1,0.5-0.1,0.9,0,1.4h-0.1c0.1,0,0.2,0.1,0.1,0.1
			c0,0-0.1,0-0.1,0c-0.3,0,0.1,0.3-0.1,0.3c0.1,0.1,0.2,0.1,0.2,0.1c-0.1,0.4,0,0.8,0.1,1.2c-0.1,0-0.2,0-0.2-0.1
			c0.4,0.4,0.1,0.7,0,1c0.1,0,0.1,0,0.3,0.1s-0.3-0.3,0-0.3h0.1c0.1,0-0.3-0.1-0.1-0.1s0.2,0.1,0.2,0s0.1-0.3-0.1-0.5
			c0.3,0,0-0.1,0.3-0.1c-0.1-0.1-0.1-0.1-0.2-0.2c0.3-0.4,0.2-1,0.3-1.5c-0.5-0.4,0.2-0.5,0.2-0.8h0c-0.1-0.1-0.1-0.3,0-0.4
			l-0.2-0.2c0.7-0.5,0.6-1.2,1-1.8s0.8-1.3,0.2-2.2c0,0,0.1,0,0.1,0c-0.1-0.2,0.1-0.4,0.1-0.6h0c-0.3-0.6,0.2-1-0.1-1.6
			c0.1-0.3,0.1-0.6,0.2-0.9c0-0.3-0.1-0.7-0.2-1h0.1c-0.3-0.5,0.2-1,0-1.5c0.2-0.6-0.8-1-0.5-1.5c0.5-0.4-0.7-0.7-0.2-1
			c0.7-0.7,0.1-1.3-0.5-1.8c0.2-0.6-0.6-1.1-0.1-1.7c-0.4-0.2,0.4-0.6,0.2-0.9h-0.1c0.4-0.2-0.6-0.2,0-0.3l0,0
			c0.3-0.1-0.7,0-0.4-0.1h-0.1c0-0.1,0.2,0,0.2-0.1s-0.3,0-0.2,0c0.6-0.1-0.2-0.2,0.5-0.2c0,0,0.3-0.1,0.4,0s0-0.1-0.3-0.1
			c-0.3,0-0.5,0-0.8,0.1h0.2l-0.3,0.1c0,0.1-0.3,0.2-0.5,0.2l0,0c0.3,0,0.1,0.1,0.1,0.1H328c-0.3,0.1,0.5,0,0.1,0.1
			c0.1,0.2,0.2,0.4,0.2,0.6c0.2,0,0,0.2,0.3,0.1c-0.4,0.1-0.4,0.3-0.4,0.3s-0.1,0-0.1,0c-0.5,0.2,0.5,0.1-0.1,0.2
			c0.4,0-0.1,0.2,0.4,0.2l-0.4,0c0,0.2-0.1,0.4-0.1,0.6c0.4,0.1-0.1,0.3,0.4,0.4c-0.1,0.1-0.3,0.3-0.1,0.4h-0.1
			c0,0.2,0.2,0.4,0.4,0.4c-0.5,0.1-0.4,0.2-0.5,0.2c0.2,0.1,0.2,0.3,0.4,0.4c-0.2,0.1,0.1,0.1-0.2,0.2c0.7,0.3,0.5,0.9,0.1,1.4l0,0
			c0.2,0,0.6,0,0.8,0.1h-0.1c0,0-0.2,0.2-0.2,0.3h-0.1c0.2,0.1-0.2,0.2,0,0.2h-0.1h0.1c-0.1,0-0.3,0-0.2,0c0,0.7,0.7,1.4,0.7,2.1
			h-0.1l0.2,0.1h-0.1c-0.2,0.2,0.2,0.3,0.1,0.5c-0.1,0-0.1,0-0.2,0c0.3,0.1-0.4,0.3,0.3,0.2c-0.1,0-0.1,0-0.2,0
			c0.3,0.4,0.3,0.4,0.1,0.9c0.5,0.4-0.1,0.6,0.3,1h-0.1c0.3,0.5-0.2,0.8-0.2,1.3c-0.1,0.2,0,0.3,0,0.5h-0.1c0.5,0.4-0.6,0.5-0.1,1
			l-0.2-0.1c0.3,0.1-0.1,0.2,0.4,0.3h-0.1c0.6,0.4-0.4,0.3,0,0.7l-0.1-0.1c0.1,0.1,0.1,0.2,0,0.2s0,0-0.1,0
			c-0.5,0.1-0.1,0.4-0.2,0.7l-0.2-0.1c0.2,0.2-0.1,0.3,0,0.5h-0.1l0.1,0.1l-0.2-0.1C328.5,85.5,328.6,85.7,328.6,85.9z"/>
		<path class="st3" d="M328.2,87.8L328.2,87.8C328.2,87.8,328.2,87.8,328.2,87.8z"/>
		<path class="st3" d="M327.9,69.4L327.9,69.4C327.9,69.4,327.9,69.4,327.9,69.4z"/>
		<polygon class="st3" points="248.2,80.2 248.2,80.2 248.1,80.2 		"/>
		<path class="st3" d="M247.8,80.1h-0.1l0.5,0.1C248.4,80.2,247.6,80.2,247.8,80.1z"/>
		<path class="st3" d="M247.8,80.1c0.1,0-0.1,0-0.2,0C247.8,80.1,247.6,80.1,247.8,80.1z"/>
		<path class="st3" d="M247.7,78.3L247.7,78.3z"/>
		<path class="st3" d="M246.9,77.8h-0.2c0.3,0.1,0,0.2,0.1,0.3h-0.1c-0.1,0.2,0.2,0.5,0.4,0.7h-0.1c0.1,0,0.2,0,0.2,0h-0.1
			c-0.3,0.1,0.2,0.2,0,0.2c0.1,0,0.2,0,0.3,0c0.1,0.2,0.2,0.4,0.4,0.6h-0.2c0.5,0.2,0.3,0.3,0.2,0.5c0.1,0,0.2,0,0.3,0
			c0.2-0.1-0.3-0.1-0.1-0.2h0.1c0.1,0-0.3,0-0.2,0c0.1,0,0.1,0,0.2,0c-0.1-0.1,0.1-0.2-0.2-0.2c0.3,0,0-0.1,0.3-0.1
			c-0.1,0-0.2,0-0.3,0c0.1-0.3-0.1-0.5-0.1-0.8c-0.5-0.1,0.1-0.3-0.1-0.4h0.1c-0.1,0-0.2-0.1-0.1-0.2h-0.2c0.5-0.3,0.1-0.7,0.3-1.1
			s0.6-0.7,0-1.1h0.1c-0.1-0.1,0.1-0.2,0.1-0.3l0,0c-0.4-0.3,0.2-0.5-0.2-0.8c0.1-0.3,0.2-0.7,0.1-1h0.1c-0.2-0.3,0.5-0.4,0.4-0.7
			c0.3-0.2-0.5-0.7-0.1-0.9c0.6,0-0.5-0.5,0.1-0.5c0.9-0.1,0.5-0.5,0.1-1c0.4-0.2-0.3-0.7,0.4-0.8c-0.3-0.2,0.5-0.1,0.5-0.3H249
			c0.4,0.1-0.5-0.3,0.1-0.1l0,0c0.3,0.1-0.7-0.3-0.3-0.2h-0.1c0,0,0.2,0,0.2,0s-0.3-0.1-0.2-0.1c0.6,0.2-0.1-0.1,0.6,0.1
			c0.1,0,0.3,0.1,0.4,0.1c0.1,0,0.1-0.1-0.2-0.1c-0.3-0.1-0.5-0.2-0.8-0.2l0.2,0.1l-0.3-0.1c-0.2,0-0.3,0-0.5-0.1l0,0
			c0.2,0.1,0.1,0.1,0,0.1h-0.1c-0.2-0.1,0.5,0.2,0,0.1c0.1,0.1,0.1,0.2,0,0.3c0.2,0.1,0,0.1,0.3,0.2c-0.4-0.1-0.5,0-0.5,0h-0.1
			c-0.5-0.1,0.4,0.2-0.2,0.1c0.4,0.1-0.2,0.1,0.3,0.2l-0.2-0.1c0,0.1-0.2,0.2-0.2,0.2c0.3,0.2-0.2,0.1,0.3,0.3c-0.1,0-0.3,0-0.2,0.2
			h-0.1c0,0.1,0,0.2,0.3,0.3c-0.2-0.1-0.4-0.1-0.6-0.1c0.2,0.1,0.1,0.2,0.3,0.3c-0.2-0.1,0.1,0.1-0.2,0c0.6,0.4,0.3,0.6-0.3,0.7l0,0
			l0.8,0.3h-0.1c0,0.1-0.3,0-0.2,0.1h-0.1c0.1,0.1-0.3,0,0,0.1h-0.1l0.1,0.1c-0.1,0-0.3-0.1-0.2-0.1c-0.2,0.3,0.2,0.9,0.1,1.2H247
			l0.2,0.1h-0.1c-0.2,0.1,0.1,0.2,0,0.3c-0.1,0-0.1,0-0.2,0c0.3,0.1-0.4,0,0.2,0.2h-0.2c0.1,0.2,0.1,0.4-0.1,0.6
			c0.5,0.2,0,0.3,0.4,0.6H247c0.3,0.2-0.1,0.4-0.1,0.7s0,0.2,0,0.2h0.1c0.5,0.2-0.6,0.3,0,0.5h-0.2c0.3,0-0.1,0.1,0.4,0.1H247
			c0.6,0.1-0.3,0.2,0.1,0.3H247c0.1,0,0.2,0.1,0.1,0.1H247c-0.5,0.1,0.1,0.2,0,0.3h-0.2C247,77.7,246.8,77.8,246.9,77.8l-0.1,0
			L246.9,77.8l-0.2,0C246.7,77.6,246.9,77.7,246.9,77.8z"/>
		<path class="st3" d="M247.1,78.8L247.1,78.8z"/>
		<path class="st3" d="M248.1,69.1L248.1,69.1C248.1,69.1,248.1,69.1,248.1,69.1z"/>
		<polygon class="st3" points="266.3,98.2 266.3,98.2 266.2,98.1 		"/>
		<path class="st3" d="M265.9,97.9h-0.1l0.5,0.2C266.6,98.2,265.7,97.9,265.9,97.9z"/>
		<path class="st3" d="M266,97.9c0.1,0-0.1-0.1-0.2-0.1C266,97.9,265.7,97.9,266,97.9z"/>
		<path class="st3" d="M266.7,95.1L266.7,95.1C266.7,95.1,266.7,95.1,266.7,95.1z"/>
		<path class="st3" d="M266.2,94.1L266,94c0.3,0.2-0.1,0.3,0,0.5h-0.1c-0.2,0.3,0,0.8,0,1.2h-0.1c0.1,0,0.2,0.1,0.1,0.1
			c0,0-0.1,0-0.1,0c-0.3,0,0.1,0.3-0.1,0.3c0.1,0,0.2,0.1,0.2,0.1c0,0.3,0,0.7,0.1,1c-0.1,0-0.2,0-0.2,0c0.4,0.4,0.1,0.6,0,0.8
			c0.1,0,0.1,0,0.3,0.1s-0.3-0.2,0-0.2h0.1c0.1,0-0.3-0.1-0.1-0.1c0.1,0,0.1,0,0.2,0c0-0.1,0.1-0.2-0.1-0.4c0.3,0,0-0.1,0.3-0.1
			c-0.1-0.1-0.1-0.1-0.2-0.1c0.3-0.4,0.1-0.8,0.3-1.3c-0.5-0.3,0.2-0.4,0.1-0.7h0c-0.1-0.1-0.1-0.2,0-0.3l-0.2-0.1
			c0.6-0.4,0.5-1.1,0.8-1.5s0.9-1,0.4-1.8c0,0,0.1,0,0.1,0c0-0.2,0.2-0.3,0.1-0.5h0c-0.3-0.6,0.3-0.8,0-1.4c0.2-0.5,0.4-1,0.5-1.5
			h0.1c0-0.5,0.6-0.7,0.6-1.1c0.4-0.3-0.2-1.1,0.2-1.4c0.6,0-0.3-0.8,0.3-0.8c1-0.1,0.7-0.8,0.5-1.5c0.5-0.3,0.1-1.1,0.8-1.2
			c-0.2-0.4,0.6-0.2,0.7-0.4l-0.1-0.1c0.4,0.2-0.4-0.5,0.2-0.2l0,0c0.3,0.1-0.5-0.5-0.2-0.3l-0.1-0.1c0-0.1,0.1,0.1,0.2,0.1
			s-0.2-0.2-0.1-0.2c0.5,0.4,0-0.2,0.5,0.2c0,0,0.2,0.1,0.3,0.3s0.1-0.1-0.1-0.2c-0.2-0.2-0.4-0.4-0.6-0.5l0.2,0.2l-0.2-0.2
			c-0.1,0-0.3-0.1-0.5-0.2l0,0c0.2,0.2,0,0.2,0,0.2l-0.1-0.1c-0.2-0.1,0.4,0.4,0,0.1c0,0.2-0.1,0.4-0.2,0.5c0.1,0.1-0.1,0.1,0.2,0.2
			c-0.4-0.2-0.5-0.1-0.5,0s-0.1,0,0,0c-0.5-0.2,0.3,0.3-0.2,0.1c0.4,0.2-0.2,0.1,0.2,0.4l-0.2-0.1c-0.1,0.1-0.3,0.2-0.4,0.3
			c0.3,0.3-0.3,0.2,0.1,0.5c-0.1,0-0.4,0-0.3,0.2h0c-0.1,0.2,0,0.4,0.2,0.5c-0.2-0.1-0.4-0.1-0.6-0.1c0.2,0.2,0,0.3,0.1,0.5
			c-0.2-0.1,0,0.1-0.3,0c0.4,0.6,0,0.9-0.6,1.1l0,0c0.1,0.1,0.5,0.3,0.7,0.5c0,0-0.1,0-0.1,0s-0.3,0-0.3,0.1l-0.1-0.1
			c0.1,0.1-0.3,0-0.1,0.2h-0.1l0.1,0.1c-0.1,0-0.2-0.1-0.2-0.1c-0.3,0.5,0,1.3-0.4,1.9l-0.1-0.1l0.1,0.2l-0.1-0.1
			c-0.2,0.1,0,0.3-0.1,0.5c-0.1,0-0.1-0.1-0.2-0.1c0.2,0.2-0.4,0,0.1,0.3c-0.1,0-0.1,0-0.2-0.1c0.1,0.3,0,0.7-0.3,0.9
			c0.4,0.4-0.2,0.5,0.2,0.9h-0.1c0.3,0.5-0.2,0.7-0.3,1c-0.1,0.1,0,0.3,0,0.4h-0.1c0.4,0.4-0.6,0.4-0.1,0.8l-0.2-0.1
			c0.3,0.1-0.1,0.1,0.3,0.3h-0.2c0.6,0.4-0.4,0.2,0,0.6l-0.1-0.1c0.1,0.1,0.1,0.2,0,0.2h-0.1c-0.5,0-0.1,0.4-0.1,0.6l-0.2-0.1
			c0.2,0.2-0.1,0.3,0,0.4h-0.1l0.1,0.1l-0.2-0.1C266.1,93.7,266.2,93.9,266.2,94.1z"/>
		<path class="st3" d="M265.9,95.7L265.9,95.7z"/>
		<path class="st3" d="M271,80.4L271,80.4C271,80.4,271,80.3,271,80.4z"/>
		<polygon class="st3" points="281.4,85.2 281.5,85.2 281.3,85.2 		"/>
		<path class="st3" d="M281,85h-0.1l0.5,0.2C281.7,85.2,280.9,85,281,85z"/>
		<path class="st3" d="M281.1,85c0.1,0-0.1-0.1-0.2-0.1C281.1,84.9,280.8,85,281.1,85z"/>
		<path class="st3" d="M281.5,81.9L281.5,81.9C281.5,81.9,281.5,81.9,281.5,81.9z"/>
		<path class="st3" d="M280.8,81h-0.2c0.3,0.2,0,0.3,0.1,0.5h-0.1c-0.1,0.4,0.1,0.8,0.2,1.2h-0.1c0.1,0,0.2,0.1,0.2,0.1
			c0,0-0.1,0-0.1,0c-0.3,0,0.2,0.3-0.1,0.3c0.1,0,0.2,0.1,0.3,0.1c0,0.3,0.1,0.7,0.2,1c-0.1,0-0.2,0-0.2,0c0.5,0.3,0.2,0.6,0.1,0.8
			c0.1,0,0.1,0,0.3,0s-0.3-0.2,0-0.2h0.1c0.1,0-0.3-0.1-0.1-0.1c0.1,0,0.1,0,0.2,0c0-0.1,0.1-0.2-0.2-0.4c0.3,0,0-0.1,0.3-0.1
			c-0.1,0-0.1-0.1-0.2-0.1c0.2-0.4,0-0.9,0.1-1.3c-0.5-0.3,0.2-0.4,0-0.7h0c-0.1-0.1-0.2-0.2-0.1-0.3l-0.2-0.1
			c0.6-0.5,0.3-1.1,0.6-1.7s0.7-1.2,0.1-1.9c0,0,0.1,0,0.1,0c-0.1-0.2,0.1-0.3,0.1-0.5h0c-0.4-0.5,0.2-0.9-0.2-1.4
			c0.1-0.5,0.2-1.1,0.1-1.7h0.1c-0.1-0.5,0.5-0.8,0.4-1.3c0.3-0.4-0.5-1-0.1-1.4c0.6-0.2-0.5-0.8,0.1-0.9c0.9-0.4,0.5-1,0.1-1.6
			c0.4-0.4-0.2-1.1,0.4-1.4c-0.3-0.3,0.6-0.4,0.5-0.6h-0.1c0.4,0-0.5-0.3,0.1-0.2l0,0c0.3,0-0.7-0.3-0.3-0.2h-0.1c0-0.1,0.2,0,0.2,0
			s-0.3-0.1-0.2-0.1c0.6,0.1-0.1-0.2,0.6,0c0,0,0.3,0,0.4,0.1s0.1-0.1-0.2-0.2c-0.3-0.1-0.5-0.2-0.8-0.2l0.2,0.1h-0.3
			c0,0.1-0.4,0-0.5,0l0,0c0.3,0.1,0.1,0.1,0,0.1h-0.1c-0.3,0,0.5,0.2,0,0.1c0.1,0.2,0.1,0.4,0,0.5c0.2,0.1,0,0.1,0.3,0.2
			c-0.4,0-0.5,0.1-0.5,0.1h-0.1c-0.5,0,0.4,0.2-0.2,0.2c0.4,0.1-0.2,0.1,0.3,0.3h-0.2c0,0.2-0.2,0.3-0.3,0.4
			c0.3,0.2-0.2,0.2,0.3,0.4c-0.1,0.1-0.4,0.2-0.2,0.3h-0.1c0,0.2,0.1,0.4,0.3,0.5c-0.2-0.1-0.4-0.1-0.6,0c0.2,0.1,0.1,0.3,0.3,0.5
			c-0.2,0,0.1,0.1-0.2,0.1c0.5,0.5,0.2,0.9-0.3,1.2l0,0c0.2,0.1,0.5,0.2,0.8,0.3H282c0,0-0.3,0.1-0.2,0.2h-0.1
			c0.1,0.1-0.3,0.1,0,0.2h-0.1l0.1,0.1c-0.1,0-0.3-0.1-0.2-0.1c-0.2,0.6,0.2,1.3,0.1,2h-0.1l0.2,0.2h-0.1c-0.2,0.1,0.1,0.3,0,0.5
			c-0.1,0-0.1,0-0.2,0c0.3,0.2-0.4,0.1,0.2,0.3c-0.1,0-0.1,0-0.2,0c0.1,0.3,0.1,0.7-0.1,1c0.5,0.4,0,0.6,0.4,0.9h-0.1
			c0.3,0.4-0.1,0.7-0.1,1.1c-0.1,0.2,0,0.3,0,0.4h-0.1c0.5,0.3-0.6,0.5,0,0.8H281c0.3,0.1-0.1,0.2,0.4,0.2h-0.2
			c0.6,0.3-0.4,0.3,0,0.6h-0.1c0.1,0.1,0.1,0.2,0,0.2H281c-0.5,0.1,0,0.4-0.1,0.6l-0.2-0.1C280.9,80.8,280.7,80.9,280.8,81l-0.1,0
			l0.1,0.1h-0.2C280.7,80.7,280.8,80.8,280.8,81z"/>
		<path class="st3" d="M280.8,82.7L280.8,82.7z"/>
		<path class="st3" d="M282.6,66.2L282.6,66.2L282.6,66.2z"/>
		<polygon class="st3" points="332.8,85.9 332.9,85.9 332.7,85.8 		"/>
		<path class="st3" d="M332.5,85.7h-0.1l0.5,0.2C333.1,85.9,332.3,85.7,332.5,85.7z"/>
		<path class="st3" d="M332.5,85.7c0.1,0-0.1-0.1-0.2-0.1C332.5,85.7,332.3,85.6,332.5,85.7z"/>
		<path class="st3" d="M332.7,84.4L332.7,84.4z"/>
		<path class="st3" d="M331.9,83.9h-0.2c0.3,0.1,0,0.1,0.1,0.2h-0.1c-0.1,0.1,0.2,0.4,0.3,0.6H332c0.1,0,0.2,0.1,0.2,0.1H332
			c-0.3,0,0.2,0.2-0.1,0.1l0.3,0.1c0,0.2,0.1,0.4,0.3,0.5l-0.2-0.1c0.5,0.2,0.2,0.3,0.1,0.4c0.1,0,0.1,0,0.3,0.1s-0.3-0.2-0.1-0.1
			h0.1c0.1,0-0.3-0.1-0.1-0.1h0.2c0-0.1,0.1-0.1-0.2-0.2c0.3,0.1,0-0.1,0.3,0c-0.1,0-0.2-0.1-0.2-0.1c0.2-0.2,0-0.4,0-0.6
			c-0.5-0.2,0.1-0.2,0-0.3l0,0c-0.1-0.1-0.2-0.1-0.1-0.2l-0.2-0.1c0.5-0.2,0.2-0.5,0.5-0.7s0.6-0.5,0-0.8h0.1
			c-0.1-0.1,0.1-0.1,0-0.2h0.1c-0.4-0.2,0.1-0.4-0.4-0.6c0-0.2,0-0.5-0.1-0.7h0.1c-0.2-0.2,0.4-0.4,0.2-0.6c0.2-0.2-0.6-0.4-0.3-0.6
			c0.5-0.2-0.6-0.2-0.1-0.4c0.8-0.3,0.2-0.5-0.3-0.6c0.3-0.3-0.5-0.3,0-0.6c-0.4,0,0.4-0.3,0.3-0.4h-0.1c0.4-0.2-0.6,0.1,0-0.1l0,0
			c0.3-0.1-0.7,0.2-0.4,0.1l-0.1,0.1c0,0,0.2-0.1,0.2-0.1s-0.2,0.1-0.2,0.1c0.6-0.2-0.1,0,0.5-0.3c0.1-0.1,0.3-0.1,0.4-0.2
			c0.1,0,0-0.1-0.2,0c-0.3,0.1-0.5,0.2-0.8,0.3l0.2-0.1l-0.3,0.1c-0.1,0.1-0.3,0.2-0.5,0.2l0,0c0.3-0.1,0.1,0,0.1,0h-0.1
			c-0.2,0.1,0.5-0.2,0.1,0c0.1,0,0.1,0,0.1,0.1c0.2,0,0,0,0.3-0.1c-0.4,0.1-0.4,0.2-0.4,0.2h-0.1c-0.5,0.2,0.5-0.1-0.1,0.1
			c0.4-0.1-0.1,0.1,0.4,0l-0.2,0.1c0,0.1-0.1,0.2-0.1,0.2c0.4,0-0.1,0.1,0.4,0.1c-0.1,0.1-0.3,0.1-0.1,0.1h-0.1c0,0,0.1,0.1,0.4,0.1
			c-0.2,0-0.4,0.1-0.5,0.1c0.2,0,0.2,0.1,0.4,0.1c-0.2,0,0.1,0-0.2,0.1c0.6,0.1,0.5,0.3,0,0.4h0.7c0.1,0-0.3,0.1-0.2,0.1h-0.1
			c0.1,0-0.3,0.1,0,0.1l0,0c-0.1,0-0.3,0-0.2,0c-0.1,0.2,0.4,0.5,0.4,0.7h-0.1l0.2,0.1h-0.1c-0.2,0.1,0.1,0.1,0.1,0.2h-0.2
			c0.3,0.1-0.4,0.1,0.2,0.1h-0.2c0.2,0.1,0.2,0.3,0.1,0.4c0.5,0.2,0,0.2,0.5,0.4h-0.1c0.4,0.2,0,0.3,0,0.4s0.1,0.1,0.1,0.2H332
			c0.5,0.2-0.5,0.2,0,0.3h-0.2c0.3,0.1-0.1,0.1,0.4,0.1h-0.1c0.6,0.2-0.3,0.1,0.1,0.2H332c0.1,0,0.1,0.1,0,0.1H332
			c-0.5,0,0,0.2,0,0.2h-0.2c0.2,0.1,0,0.1,0.1,0.2h-0.1l0.1,0.1h-0.2C331.8,83.7,331.9,83.8,331.9,83.9z"/>
		<path class="st3" d="M332,84.6L332,84.6z"/>
		<path class="st3" d="M331.2,78.2L331.2,78.2z"/>
		<path class="st3" d="M354,93L354,93L354,93z"/>
		<polygon class="st3" points="307.9,83.3 307.9,83.3 307.8,83.3 		"/>
		<path class="st3" d="M307.5,83.1h-0.1l0.5,0.1C308.2,83.2,307.3,83.2,307.5,83.1z"/>
		<path class="st3" d="M307.5,83.1c0.1,0-0.1,0-0.2-0.1C307.5,83.1,307.3,83.1,307.5,83.1z"/>
		<path class="st3" d="M307.5,80.4L307.5,80.4C307.5,80.4,307.5,80.4,307.5,80.4z"/>
		<path class="st3" d="M306.6,79.7h-0.2c0.3,0.1,0,0.3,0.1,0.4h-0.1c-0.1,0.3,0.3,0.7,0.4,1h-0.1c0.1,0,0.2,0,0.2,0.1h-0.1
			c-0.3,0.1,0.2,0.2,0,0.3c0.1,0,0.2,0,0.3,0c0.1,0.3,0.2,0.6,0.4,0.9c-0.1,0-0.2,0-0.2,0c0.5,0.3,0.3,0.5,0.2,0.8
			c0.1,0,0.2,0,0.3,0c0.2-0.1-0.3-0.2-0.1-0.2h0.1c0.1,0-0.3,0-0.2-0.1c0.1,0,0.1,0,0.2,0c0-0.1,0.1-0.2-0.2-0.3
			c0.3,0,0-0.1,0.3-0.2c-0.1,0-0.1-0.1-0.3-0.1c0.2-0.4-0.1-0.8-0.1-1.2c-0.5-0.2,0.1-0.4-0.1-0.6h0c-0.1-0.1-0.2-0.2-0.1-0.3
			l-0.2-0.1c0.5-0.5,0.1-1.1,0.3-1.6c0-0.6,0.3-1.3-0.6-1.7c0,0,0.1,0,0.1,0c-0.1-0.1,0-0.3-0.1-0.5h0c-0.5-0.3-0.2-0.8-0.7-1
			c-0.1-0.5-0.3-0.9-0.6-1.3h0.1c-0.3-0.3,0.1-0.8-0.2-1.1c0.1-0.4-0.8-0.6-0.6-1.1c0.4-0.4-0.8-0.4-0.3-0.8c0.6-0.7,0-1-0.6-1.3
			c0.1-0.5-0.7-0.7-0.2-1.3c-0.4-0.1,0.3-0.5,0.2-0.7h-0.1c0.2-0.1,0-0.1-0.1-0.1s-0.1,0-0.1,0s0.1,0-0.1,0.1s0,0,0,0
			c-0.5,0.1,0.6-0.2,0.3,0h0.1c0.1,0-0.2,0.1-0.2,0.1s0.3-0.1,0.2,0c-0.6,0.2,0.2,0.1-0.5,0.3c0,0-0.2,0.1-0.4,0.1s0,0.1,0.3,0
			c0.3-0.1,0.5-0.2,0.8-0.3l-0.2,0.1l0.3-0.1c0-0.1,0.3-0.2,0.4-0.3l0,0c-0.3,0.1-0.1,0-0.1-0.1l0.1-0.1c0.2-0.1-0.5,0.1-0.1,0
			l-0.1-0.1c-0.1-0.2-0.2-0.3-0.4-0.4c-0.1,0-0.1-0.2-0.6-0.1c-0.3,0.1-0.5,0.3-0.6,0.6c0,0.1,0,0.3,0,0.4l0.1,0.2
			c0,0.1,0.1,0.2,0.1,0.2c0.2,0,0,0.1,0.3,0c-0.4,0.1-0.4,0.3-0.4,0.3h-0.1c-0.5,0.2,0.5,0-0.1,0.2c0.4-0.1-0.1,0.2,0.4,0.1
			l-0.2,0.1c0,0.1-0.1,0.3,0,0.4c0.4,0-0.1,0.3,0.4,0.2c-0.1,0.1-0.3,0.3,0,0.3h-0.1c0.1,0.1,0.1,0.2,0.5,0.2
			c-0.2,0-0.4,0.1-0.5,0.3c0.2,0,0.2,0.2,0.5,0.2c-0.2,0.1,0.1,0.1-0.2,0.2c0.7,0.1,0.6,0.6,0.2,1.1l0,0l0.8-0.1h-0.1
			c0.1,0-0.2,0.2-0.1,0.2h-0.1c0.2,0-0.2,0.2,0,0.2h-0.1h0.1c-0.1,0-0.3,0.1-0.2,0c0.1,0.6,0.8,0.9,0.9,1.5h-0.1h0.2h-0.1
			c-0.1,0.2,0.2,0.2,0.2,0.4c-0.1,0-0.1,0-0.2,0.1c0.3,0-0.3,0.3,0.3,0.1c-0.1,0-0.1,0-0.2,0.1c0.2,0.2,0.4,0.5,0.3,0.8
			c0.6,0.1,0.2,0.5,0.7,0.6h-0.1c0.5,0.2,0.2,0.6,0.3,0.9s0.1,0.2,0.2,0.3h-0.1c0.6,0.1-0.4,0.6,0.3,0.7h-0.2c0.3,0-0.1,0.2,0.4,0.1
			l-0.1,0.1c0.7,0.1-0.2,0.3,0.2,0.5h-0.1c0.1,0,0.2,0.1,0.1,0.1h-0.1c-0.4,0.2,0.1,0.3,0.1,0.5h-0.2c0.3,0.1,0,0.2,0.1,0.3h-0.1
			h0.1h-0.2C306.4,79.4,306.6,79.6,306.6,79.7z"/>
		<path class="st3" d="M306.9,81.1L306.9,81.1z"/>
		<path class="st3" d="M304.6,67.4L304.6,67.4C304.6,67.4,304.5,67.4,304.6,67.4z"/>
		<polygon class="st3" points="214.1,36.7 214.1,36.7 214,36.6 		"/>
		<path class="st3" d="M213.8,36.4l-0.1-0.1l0.4,0.3C214.3,36.8,213.6,36.3,213.8,36.4z"/>
		<path class="st3" d="M213.9,36.4c0.1,0-0.1-0.1-0.1-0.1C213.9,36.3,213.6,36.2,213.9,36.4z"/>
		<path class="st3" d="M214,34.8L214,34.8z"/>
		<path class="st3" d="M213.2,34.4H213c0.3,0.1,0,0.1,0.1,0.2h-0.1c-0.1,0.2,0.2,0.3,0.4,0.5h-0.1c0.1,0,0.2,0,0.2,0h-0.1
			c-0.3,0,0.2,0.1,0,0.1h0.3c0.1,0.2,0.2,0.3,0.4,0.5h-0.2c0.5,0.2,0.2,0.4,0,0.6c0.1,0.1,0.1,0,0.2,0.1s-0.2-0.3,0-0.2l0.1,0.1
			c0.1,0-0.3-0.1-0.1-0.1c0.1,0,0.1,0,0.2,0c0-0.1,0.1-0.2-0.2-0.3c0.3,0,0-0.1,0.3-0.1c-0.1,0-0.2-0.1-0.3-0.1
			c0.2-0.2-0.1-0.5-0.1-0.6c-0.5-0.1,0.1-0.2-0.1-0.3h0.1c-0.1,0-0.2-0.1-0.1-0.1h-0.2c0.5-0.2,0.2-0.5,0.4-0.7s0.6-0.4-0.1-0.8h0.1
			c-0.1-0.1,0.1-0.1,0-0.2l0,0c-0.4-0.3,0.1-0.3-0.3-0.6c0.1-0.2,0.1-0.5,0-0.7h0.1c-0.2-0.2,0.4-0.3,0.2-0.5
			c0.2-0.2-0.6-0.4-0.3-0.6c0.5-0.2-0.6-0.2-0.1-0.4c0.8-0.4,0.2-0.5-0.3-0.6c0.2-0.3-0.6-0.2-0.1-0.6c-0.4,0.1,0.3-0.4,0.2-0.4
			l-0.1,0.1c0.3-0.2-0.5,0.2,0-0.1l0,0c0.2-0.2-0.6,0.4-0.3,0.1l-0.1,0.1c0,0,0.1-0.1,0.2-0.1s-0.2,0.1-0.2,0.1
			c0.5-0.4-0.1,0,0.4-0.4c0,0,0.2-0.2,0.3-0.2s0-0.1-0.2,0.1s-0.5,0.4-0.6,0.5l0.2-0.1l-0.2,0.2c-0.1,0.1-0.3,0.2-0.4,0.3l0,0
			c0.2-0.1,0.1,0,0.1,0l-0.1,0.1c-0.2,0.1,0.4-0.3,0.1,0c0.1,0,0.1,0,0.2,0.1s0,0,0.3-0.1c-0.3,0.2-0.4,0.3-0.4,0.3h-0.1
			c-0.4,0.2,0.4-0.2-0.1,0.1c0.4-0.2-0.1,0.1,0.4-0.1l-0.2,0.1c0,0-0.1,0.2-0.1,0.2c0.4-0.1-0.1,0.1,0.4,0c-0.1,0.1-0.3,0.2-0.1,0.1
			h-0.1c0,0,0.1,0.1,0.4,0c-0.2,0-0.4,0.1-0.5,0.2c0.2,0,0.2,0,0.4,0c-0.2,0.1,0.1,0-0.2,0.1c0.7,0,0.4,0.2,0,0.4l0,0h0.8h-0.1
			c0.1,0-0.3,0.1-0.2,0.1H213c0.1,0-0.3,0.1,0,0.1h-0.2c-0.1,0.2,0.4,0.4,0.4,0.7h-0.1l0.2,0.1h-0.1c-0.2,0,0.1,0.1,0,0.2h-0.2
			c0.3,0.1-0.4,0,0.2,0.1h-0.2c0.2,0.1,0.1,0.3,0,0.3c0.5,0.2,0,0.2,0.4,0.5h-0.1c0.4,0.2-0.1,0.3-0.1,0.5s0.1,0.1,0.1,0.2h-0.1
			c0.5,0.2-0.5,0.2,0.1,0.3H213c0.3,0.1-0.1,0,0.4,0.1h-0.1c0.6,0.2-0.3,0.1,0.1,0.2h-0.1c0.1,0,0.2,0.1,0,0.1h-0.1
			c-0.5,0,0,0.2,0,0.2h-0.2c0.2,0.1,0,0.1,0.1,0.2h-0.1h0.1h0C213,34.3,213.2,34.3,213.2,34.4z"/>
		<path class="st3" d="M213.4,35.1L213.4,35.1z"/>
		<path class="st3" d="M212.4,29.2L212.4,29.2z"/>
		<polygon class="st3" points="236.3,88.3 236.4,88.3 236.2,88.2 		"/>
		<path class="st3" d="M235.9,88h-0.1l0.5,0.2C236.6,88.2,235.7,88.1,235.9,88z"/>
		<path class="st3" d="M236,88c0.1,0-0.1-0.1-0.2-0.1C236,87.9,235.7,88,236,88z"/>
		<path class="st3" d="M236,83.6L236,83.6C236,83.6,236,83.6,236,83.6z"/>
		<path class="st3" d="M235.2,82.5H235c0.3,0.2,0,0.4,0.1,0.7h-0.1c0,0.6,0.1,1.1,0.3,1.7h-0.1c0.1,0,0.2,0.1,0.2,0.1
			c0,0-0.1,0-0.1,0c-0.3,0.1,0.2,0.4-0.1,0.4c0.1,0,0.2,0,0.3,0c0,0.5,0.2,0.9,0.4,1.4c-0.1,0-0.2,0-0.2,0c0.5,0.4,0.3,0.8,0.2,1.2
			c0.1,0,0.1,0,0.3,0c0.2-0.1-0.3-0.2-0.1-0.3h0.1c0.1-0.1-0.3,0-0.2-0.1s0.2,0,0.2,0c0-0.2,0.1-0.4-0.2-0.5c0.3,0,0-0.2,0.3-0.2
			c-0.1-0.1-0.1-0.1-0.3-0.1c0.1-0.6,0.1-1.3,0-1.9c-0.5-0.3,0.1-0.7,0-1h0c-0.1-0.1-0.2-0.3-0.1-0.4l-0.2-0.1
			c0.5-0.8,0.2-1.7,0.4-2.5s0.6-1.8-0.1-2.7c0.1,0,0.1,0,0.1,0c-0.1-0.3,0.1-0.5,0-0.8h0.1c-0.4-0.6,0.1-1.3-0.4-1.9
			c0.1-0.8,0-1.6-0.1-2.3h0.1c-0.2-0.6,0.4-1.2,0.2-1.8c0.3-0.6-0.6-1.3-0.2-2c0.5-0.4-0.6-0.9,0-1.3c0.8-0.8,0.3-1.5-0.2-2.3
			c0.3-0.7-0.5-1.4,0.1-2.1c-0.4-0.3,0.5-0.7,0.4-1.1h-0.1c0.4-0.1-0.6-0.3,0-0.4l0,0c0.3-0.1-0.7-0.1-0.4-0.2h-0.1
			c0-0.1,0.2,0,0.2-0.1s-0.3,0-0.2,0c0.6,0-0.1-0.2,0.6-0.2c0,0,0.3-0.1,0.4,0s0-0.2-0.3-0.2c-0.3-0.1-0.6-0.1-0.8,0h0.2h-0.3
			c0,0.1-0.4,0.1-0.5,0.2l0,0c0.3,0,0.1,0.1,0.1,0.2h-0.1c-0.3,0,0.5,0.1,0.1,0.1c0.1,0.2,0.1,0.5,0.1,0.7c0.2,0,0,0.2,0.3,0.1
			c-0.4,0.1-0.5,0.3-0.5,0.3s-0.1,0-0.1,0c-0.5,0.1,0.4,0.2-0.1,0.3c0.4,0-0.1,0.2,0.4,0.3c-0.1,0-0.2,0-0.2,0
			c0,0.2-0.2,0.5-0.2,0.7c0.4,0.2-0.2,0.4,0.4,0.5c-0.1,0.1-0.3,0.3-0.1,0.5h-0.1c0,0.2,0.2,0.5,0.4,0.5c-0.5,0.1-0.4,0.1-0.6,0.2
			c0.2,0.1,0.2,0.4,0.4,0.6c-0.2,0,0.1,0.2-0.2,0.2c0.6,0.5,0.4,1.2-0.1,1.7l0,0c0.2,0.1,0.6,0.2,0.8,0.2h-0.1c0,0-0.3,0.2-0.2,0.3
			H235c0.1,0.1-0.3,0.2,0,0.3h-0.1l0.1,0.1c-0.1,0-0.3,0-0.2,0c-0.1,0.9,0.4,1.8,0.3,2.7H235l0.2,0.2H235c-0.2,0.2,0.1,0.5,0.1,0.7
			c-0.1,0-0.2,0-0.2,0c0.3,0.2-0.4,0.2,0.2,0.3c-0.1,0-0.1,0-0.2,0c0.2,0.4,0.2,0.9,0.1,1.4c0.6,0.4,0,0.8,0.5,1.2h-0.1
			c0.4,0.5-0.1,1,0,1.6c0,0.2,0.1,0.4,0.1,0.6h-0.1c0.5,0.4-0.5,0.8,0.1,1.2h-0.2c0.3,0.1-0.1,0.2,0.4,0.2l-0.1,0.1
			c0.6,0.3-0.3,0.5,0.1,0.8h-0.1c0.1,0.1,0.2,0.2,0,0.2s-0.1,0-0.1,0c-0.5,0.2,0,0.6,0,0.8H235c0.2,0.1,0,0.4,0.1,0.6H235l0.1,0.1
			H235C235,82,235.2,82.2,235.2,82.5z"/>
		<path class="st3" d="M235.4,84.8L235.4,84.8C235.4,84.8,235.4,84.8,235.4,84.8z"/>
		<path class="st3" d="M234.8,61.5L234.8,61.5C234.8,61.5,234.8,61.5,234.8,61.5z"/>
		<polygon class="st3" points="155.4,60.9 155.5,60.9 155.4,60.8 		"/>
		<path class="st3" d="M155.2,60.6h-0.1l0.4,0.3C155.8,60.9,155,60.5,155.2,60.6z"/>
		<path class="st3" d="M155.2,60.5c0.1,0-0.1-0.1-0.1-0.1C155.2,60.5,155,60.5,155.2,60.5z"/>
		<path class="st3" d="M156.9,56.7L156.9,56.7C156.9,56.7,156.9,56.7,156.9,56.7z"/>
		<path class="st3" d="M156.4,55.4l-0.2,0c0.3,0.3-0.1,0.4,0,0.7h-0.1c-0.1,0.5-0.1,1.1-0.1,1.7l-0.1-0.1c0,0,0.1,0.1,0.1,0.2
			c0,0-0.1,0-0.1-0.1c-0.3,0,0,0.4-0.2,0.3c0.1,0.1,0.1,0.1,0.2,0.1c-0.2,0.4-0.3,0.8-0.3,1.3c-0.1,0-0.2,0-0.2-0.1
			c0.3,0.5-0.1,0.8-0.3,1c0.1,0.1,0.1,0,0.3,0.1s-0.2-0.3,0.1-0.3l0.1,0.1c0.1,0-0.3-0.1-0.1-0.1s0.1,0.1,0.2,0.1
			c0-0.2,0.2-0.3,0-0.5c0.3,0.1,0.1-0.2,0.4-0.1c-0.1-0.1,0-0.1-0.2-0.2c0.3-0.5,0.6-1,0.7-1.6c-0.4-0.5,0.3-0.6,0.2-1l0,0
			c-0.1-0.1-0.1-0.3,0-0.5l-0.2-0.2c0.6-0.7,0.5-1.5,0.9-2.3s0.9-1.6,0.4-2.6c0,0,0.1,0,0.1,0c-0.1-0.3,0.2-0.5,0.1-0.7l0,0
			c-0.3-0.7,0.3-1.2,0-1.9c0.1-0.8,0-1.5-0.1-2.3h0.1c-0.2-0.6,0.3-1.2,0.2-1.8c0.2-0.6-0.6-1.3-0.3-1.9c0.5-0.4-0.6-0.9-0.1-1.2
			c0.8-0.7,0.3-1.5-0.2-2.2c0.3-0.7-0.5-1.3,0.1-2c-0.4-0.3,0.5-0.7,0.4-1h-0.1c0.4-0.1-0.6-0.3,0-0.3l0,0c0.3-0.1-0.7-0.2-0.4-0.2
			h-0.1c0-0.1,0.2,0,0.2-0.1s-0.3,0-0.2-0.1c0.6,0-0.1-0.2,0.6-0.2c0,0,0.3-0.1,0.4,0s0-0.2-0.3-0.2c-0.3,0-0.6,0-0.8,0h0.2h-0.3
			c0,0.1-0.4,0.1-0.5,0.2l0,0c0.3,0,0.1,0.1,0.1,0.2h-0.1c-0.3,0,0.5,0.1,0.1,0.1c0.1,0.2,0.1,0.5,0.1,0.7c0.2,0,0,0.2,0.3,0.1
			c-0.4,0.1-0.5,0.2-0.5,0.3s-0.1,0-0.1,0c-0.5,0.1,0.4,0.2-0.1,0.3c0.4,0-0.1,0.2,0.4,0.3h-0.2c0,0.2-0.2,0.5-0.2,0.6
			c0.4,0.2-0.2,0.4,0.3,0.5c-0.1,0.1-0.3,0.3-0.1,0.5h-0.1c0,0.2,0.2,0.4,0.4,0.5c-0.5,0-0.4,0.1-0.6,0.2c0.2,0.1,0.2,0.4,0.4,0.5
			c-0.2,0,0.1,0.2-0.2,0.2c0.6,0.5,0.4,1.1-0.1,1.7l0,0c0.2,0.1,0.6,0.2,0.8,0.2h-0.1c0,0-0.3,0.2-0.2,0.3h-0.1
			c0.1,0.1-0.3,0.2,0,0.3H157l0.1,0.1c-0.1,0-0.3,0-0.2,0c-0.1,0.8,0.5,1.7,0.4,2.6h-0.1l0.2,0.2h-0.1c-0.2,0.2,0.1,0.4,0.1,0.7
			c-0.1,0-0.2,0-0.2,0c0.3,0.2-0.4,0.2,0.2,0.3c-0.1,0-0.1,0-0.2,0c0.2,0.4,0.2,0.9,0.1,1.3c0.3,0.2,0.3,0.4,0.3,0.5
			c-0.1,0.2,0,0.4,0.1,0.6h-0.1c0.3,0.5-0.2,1-0.2,1.5c-0.1,0.2,0,0.4,0,0.6h-0.1c0.4,0.5-0.6,0.6-0.1,1.1l-0.2-0.1
			c0.3,0.1-0.1,0.2,0.4,0.3H157c0.6,0.4-0.4,0.4,0,0.8h-0.1c0.1,0.1,0.1,0.2,0,0.2s0,0-0.1,0c-0.5,0.2-0.1,0.5-0.1,0.8l-0.2-0.1
			c0.2,0.2-0.1,0.4,0,0.6h-0.1l0.1,0.1h-0.2C156.3,55,156.4,55.2,156.4,55.4z"/>
		<path class="st3" d="M156,57.7L156,57.7C156,57.7,156,57.7,156,57.7z"/>
		<path class="st3" d="M157,35.7L157,35.7C157,35.7,157,35.6,157,35.7z"/>
		<polygon class="st3" points="192.2,23.7 192.3,23.7 192.1,23.7 		"/>
		<path class="st3" d="M191.8,23.6h-0.1h0.5C192.5,23.6,191.6,23.6,191.8,23.6z"/>
		<path class="st3" d="M191.9,23.6c0.1,0-0.1,0-0.2,0C191.8,23.6,191.6,23.6,191.9,23.6z"/>
		<path class="st3" d="M191.5,21.7L191.5,21.7z"/>
		<path class="st3" d="M190.7,21.3h-0.2c0.3,0,0,0.2,0.2,0.3h-0.1c0,0.3,0.3,0.4,0.5,0.7h0c0.1,0,0.2,0,0.2,0H191
			c-0.3,0.1,0.2,0.1,0,0.2c0.1,0,0.2,0,0.3,0c0.1,0.2,0.2,0.4,0.4,0.6h-0.2c0.5,0.1,0.3,0.3,0.3,0.5c0.1,0,0.2,0,0.3,0
			c0.2-0.1-0.3-0.1-0.1-0.1h0.1c0.1,0-0.3,0-0.2,0c0.1,0,0.1,0,0.2,0c-0.1-0.1,0-0.2-0.3-0.2c0.3,0,0-0.1,0.3-0.1
			c-0.1,0-0.2,0-0.3,0c0.1-0.3-0.2-0.5-0.2-0.8c-0.6-0.1,0.1-0.3-0.1-0.4h0.1c-0.1,0-0.2-0.1-0.1-0.2h-0.2c0.4-0.4,0.1-0.8,0.2-1.2
			s0.3-0.9-0.5-1.1h0.1c-0.1-0.1,0-0.2-0.1-0.3h0.1c-0.5-0.2-0.1-0.6-0.7-0.7c-0.1-0.4-0.2-0.7-0.4-1h0.1c-0.3-0.2,0.1-0.6,0-0.8
			c0.2-0.3-0.6-0.5-0.3-0.8c0.5-0.2-0.6-0.4-0.1-0.6c0.8-0.4,0.3-0.6-0.2-1c0.3-0.3-0.4-0.6,0.1-0.9c-0.4-0.1,0.5-0.3,0.4-0.5h-0.1
			c0.4,0-0.6-0.1,0-0.2l0,0c0.3,0-0.7-0.1-0.4-0.1h-0.1c0,0,0.2,0,0.2,0s-0.3,0-0.2,0c0.6,0-0.1-0.1,0.6-0.1c0.1,0,0.3,0,0.4,0
			c0.1,0,0-0.1-0.2-0.1c-0.3,0-0.6,0-0.8,0h-0.1c0,0-0.4,0-0.5,0.1l0,0c0.3,0,0.1,0.1,0.1,0.1h-0.1c-0.3,0,0.5,0.1,0.1,0
			c0.1,0.1,0.1,0.2,0.1,0.3c0.2,0,0,0.1,0.3,0.1c-0.4,0-0.5,0.1-0.5,0.1h-0.1c-0.5,0,0.4,0.1-0.1,0.1c0.4,0-0.1,0.1,0.4,0.1h-0.2
			c0,0.1-0.2,0.2-0.2,0.3c0.4,0.1-0.2,0.2,0.3,0.2c-0.1,0.1-0.3,0.1-0.1,0.2h-0.1c0,0.1,0.1,0.2,0.4,0.2c-0.2,0-0.4,0-0.6,0.1
			c0.2,0.1,0.2,0.2,0.4,0.3c-0.2,0,0.1,0.1-0.2,0.1c0.6,0.2,0.4,0.5,0,0.9l0,0h0.8h-0.1c0.1,0-0.3,0.1-0.2,0.2h-0.1
			c0.1,0-0.3,0.1,0,0.1h-0.1h0.1c-0.1,0-0.3,0-0.2,0c-0.1,0.4,0.4,0.8,0.5,1.2H189h0.2h-0.1c-0.1,0.1,0.2,0.2,0.2,0.3
			c-0.1,0-0.1,0-0.2,0c0.3,0-0.4,0.2,0.3,0.1h-0.2c0.2,0.1,0.3,0.3,0.3,0.5c0.6,0,0.2,0.3,0.6,0.4h-0.1c0.4,0.1,0.1,0.5,0.3,0.6
			c0,0.1,0.1,0.1,0.2,0.2h-0.1c0.6,0.1-0.4,0.4,0.3,0.5h-0.2c0.3,0-0.1,0.1,0.4,0l-0.1,0.1c0.7,0-0.2,0.2,0.2,0.3h-0.1
			c0.1,0,0.2,0,0.1,0.1h-0.1c-0.4,0.2,0.1,0.2,0.1,0.4h-0.2c0.3,0,0,0.2,0.2,0.2h-0.1h0.1h-0.2C190.4,21.1,190.6,21.2,190.7,21.3z"
			/>
		<path class="st3" d="M191,22.3L191,22.3z"/>
		<path class="st3" d="M188.6,12.2L188.6,12.2L188.6,12.2z"/>
		<polygon class="st3" points="143.7,26.8 143.8,26.8 143.6,26.7 		"/>
		<path class="st3" d="M143.3,26.6h-0.1l0.5,0.2C144,26.8,143.1,26.6,143.3,26.6z"/>
		<path class="st3" d="M143.4,26.6c0.1,0-0.1-0.1-0.2-0.1C143.4,26.5,143.1,26.5,143.4,26.6z"/>
		<path class="st3" d="M143.9,24.5L143.9,24.5z"/>
		<path class="st3" d="M143.4,23.6l-0.2-0.1c0.2,0.2-0.1,0.2,0,0.4h-0.1c-0.2,0.3,0,0.6,0,1h-0.1c0.1,0,0.2,0.1,0.1,0.1h-0.1
			c-0.3,0,0.1,0.2-0.1,0.2c0.1,0,0.2,0.1,0.2,0.1c0,0.3,0.1,0.5,0.2,0.8h-0.2c0.4,0.3,0.2,0.5,0.1,0.6c0.1,0,0.2,0,0.3,0.1
			c0.2,0-0.3-0.2,0-0.2h0.1c0.1,0-0.3-0.1-0.1-0.1c0.1,0,0.1,0,0.2,0c0-0.1,0.1-0.1-0.2-0.3c0.3,0,0-0.1,0.3,0
			c-0.1-0.1-0.2-0.1-0.2-0.1c0.2-0.2,0-0.6,0.2-0.9c-0.5-0.3,0.2-0.3,0.1-0.5l0,0c-0.1-0.1-0.1-0.2,0-0.2l-0.2-0.1
			c0.6-0.2,0.5-0.7,0.9-0.9s0.9-0.3,0.7-1.1c0,0,0.1,0.1,0.1,0.1c0-0.2,0.2-0.1,0.2-0.3l0,0c-0.1-0.5,0.7-0.6,0.4-1.1
			c0.3-0.3,0.5-0.6,0.7-0.9l0.1,0.1c0.1-0.4,0.7-0.2,0.8-0.5c0.4,0,0.1-0.9,0.6-0.9c0.5,0.3,0-0.8,0.5-0.5c0.8,0.4,0.8-0.3,0.8-0.9
			c0.5,0,0.3-0.8,0.9-0.6c-0.1-0.4,0.6,0.1,0.7-0.1l-0.1-0.1c0.3,0.3-0.2-0.5,0.2-0.1l0,0c0.2,0.2-0.4-0.6-0.1-0.3l-0.1-0.1
			c0-0.1,0.1,0.1,0.2,0.2s-0.2-0.2-0.1-0.2c0.4,0.5,0-0.2,0.4,0.4c0,0,0.2,0.2,0.2,0.3s0.1,0-0.1-0.2c-0.2-0.2-0.3-0.4-0.5-0.6
			l0.1,0.2l-0.2-0.2c-0.1,0-0.3-0.2-0.4-0.3l0,0c0.1,0.2,0,0.1,0,0.1l-0.1-0.1c-0.2-0.2,0.3,0.4,0,0.1c0,0.1-0.1,0.3-0.2,0.3
			c0.1,0.1-0.1,0.1,0.1,0.3c-0.3-0.3-0.4-0.3-0.4-0.2s0-0.1,0-0.1c-0.4-0.3,0.2,0.4-0.2,0c0.3,0.3-0.2,0,0.1,0.4l-0.2-0.2
			c-0.1,0.1-0.3,0-0.4,0.1c0.2,0.3-0.3,0,0,0.5c-0.1,0-0.3-0.1-0.3,0.1v0c-0.1,0.1-0.1,0.2,0,0.5c-0.3-0.4-0.3-0.3-0.4-0.4
			c0.1,0.2,0,0.2,0,0.5c-0.2-0.2,0,0.1-0.2-0.1c0.2,0.7-0.2,0.7-0.8,0.5l0,0l0.4,0.7c0,0-0.1-0.1,0-0.1s-0.2-0.1-0.2,0l-0.1-0.1
			c0.1,0.1-0.2-0.1-0.1,0.1l-0.1-0.1l0.1,0.1c-0.1-0.1-0.2-0.2-0.1-0.2c-0.4,0.2-0.4,1-0.8,1.2l-0.1-0.1l0.1,0.2c0,0,0-0.1-0.1-0.1
			c-0.2-0.1-0.1,0.2-0.2,0.3c0-0.1-0.1-0.1-0.1-0.2c0.1,0.3-0.4-0.2,0,0.3l-0.1-0.2c0,0.3-0.2,0.5-0.5,0.6c0.1,0.2,0.1,0.4-0.1,0.6
			c0,0-0.1,0.2-0.1,0.1c0,0.1,0,0.2,0.1,0.2l-0.1,0c0.2,0.4-0.4,0.3-0.5,0.5c-0.1,0-0.1,0.2-0.1,0.3l-0.1-0.1c0.3,0.5-0.6,0-0.3,0.5
			l-0.1-0.1c0.2,0.2-0.1,0,0.2,0.3l-0.1-0.1c0.4,0.5-0.4,0-0.1,0.4l-0.1-0.1c0,0.1,0.1,0.2,0,0.1l-0.1-0.1c-0.5-0.1-0.1,0.3-0.2,0.4
			l-0.2-0.1c0.2,0.2-0.1,0.2,0,0.3l-0.1-0.1l0.1,0.1l-0.2-0.1C143.3,23.3,143.4,23.5,143.4,23.6z"/>
		<path class="st3" d="M143.1,24.9L143.1,24.9z"/>
		<path class="st3" d="M150.6,15.3L150.6,15.3C150.6,15.3,150.6,15.3,150.6,15.3z"/>
		<polygon class="st3" points="61.2,62.9 61.2,63 61,62.9 		"/>
		<path class="st3" d="M60.8,62.7h-0.1l0.5,0.2C61.4,63,60.6,62.7,60.8,62.7z"/>
		<path class="st3" d="M60.9,62.7c0.1,0-0.1-0.1-0.2-0.1C60.9,62.7,60.6,62.6,60.9,62.7z"/>
		<path class="st3" d="M61.6,60.3L61.6,60.3C61.6,60.3,61.6,60.3,61.6,60.3z"/>
		<path class="st3" d="M61,59.5l-0.2-0.1c0.3,0.2-0.1,0.2,0,0.4h-0.1c-0.2,0.3,0,0.7,0.1,1h-0.1c0.1,0,0.2,0.1,0.2,0.1
			c0,0-0.1,0-0.1,0c-0.3,0,0.1,0.2-0.1,0.2c0.1,0,0.2,0.1,0.2,0.1c0,0.3,0,0.5,0.1,0.8c-0.1,0-0.2,0-0.2-0.1c0.4,0.4,0.2,0.5,0,0.7
			c0.1,0,0.2,0.1,0.3,0.1c0.2,0-0.3-0.2,0-0.2h0.1c0.1,0-0.3-0.1-0.1-0.1c0.1,0,0.1,0,0.2,0c0-0.1,0.1-0.2-0.1-0.4
			c0.3,0.1,0-0.1,0.3,0c-0.1-0.1-0.1-0.1-0.2-0.2c0.2-0.3,0.1-0.7,0.2-1c-0.5-0.3,0.2-0.3,0.1-0.6h0c-0.1-0.1-0.1-0.2,0-0.3L61.3,60
			c0.6-0.3,0.5-0.8,0.7-1.1c0-0.1,0.1-0.1,0-0.1c-0.3,0.1-0.6,0-0.8-0.2c-0.4-0.4-0.3-0.9,0-1.3c0.1,0,0.1-0.1,0.2-0.1
			c0,0-0.1,0-0.1,0c0.2-0.2,0-0.3,0.2-0.5l0,0c0.6-0.4,0.1-0.7,0.7-1.1c0.1-0.4,0.2-0.9,0.4-1.3l-0.1,0.1c0.1-0.2,0.2-0.4,0.4-0.5
			c0.2-0.1,0.2-0.3,0.2-0.5c0.3-0.3-0.4-0.9,0-1.2c0.6-0.1-0.5-0.6,0.1-0.7c0.9-0.3,0.5-0.8,0.1-1.3c0.4-0.3-0.3-0.9,0.4-1.1
			c-0.3-0.3,0.5-0.3,0.5-0.5h-0.1c0.4,0-0.5-0.3,0.1-0.2l0,0c0.3,0-0.7-0.2-0.3-0.2h-0.2c0,0,0.2,0,0.2,0s-0.3-0.1-0.2-0.1
			c0.6,0.1-0.1-0.1,0.6,0c0,0,0.3,0,0.4,0.1s0.1-0.1-0.2-0.1c-0.3-0.1-0.5-0.1-0.8-0.2l0.2,0.1h-0.3c0,0.1-0.4,0-0.5,0l0,0
			c0.3,0.1,0.1,0.1,0,0.1L63,48c-0.3,0,0.5,0.2,0,0.1c0.1,0.1,0.1,0.3,0,0.4c0.2,0,0,0.1,0.3,0.1c-0.4,0-0.5,0-0.5,0.1h-0.1
			c-0.5,0,0.4,0.2-0.2,0.1c0.4,0.1-0.2,0.1,0.3,0.2h-0.2c0,0.1-0.2,0.2-0.3,0.3c0.3,0.2-0.2,0.2,0.3,0.4c-0.1,0-0.3,0.1-0.2,0.2
			h-0.1c0,0.1,0,0.2,0.3,0.4c-0.2-0.1-0.4-0.1-0.6,0c0.2,0.1,0.1,0.2,0.3,0.4c-0.2,0,0.1,0.1-0.2,0c0.6,0.4,0.3,0.7-0.3,1l0,0
			l0.8,0.3h-0.1c0,0-0.3,0-0.2,0.1h-0.1c0.1,0.1-0.3,0,0,0.2h-0.1l0.1,0.1c-0.1,0-0.3-0.1-0.2-0.1c-0.2,0.4,0.2,1.1,0.2,1.3
			l-0.1-0.1l0.2,0.2l-0.1-0.1c0-0.2,0.6,0.1,0.6,0.4c0,0,0.1-0.2,0.1-0.2c-0.1,0.4,0.5,0.1,0,0.5c0.1,0,0.1-0.1,0.2-0.1
			c-0.1,0.3-0.2,0.7-0.2,1c-0.6,0.3-0.1,0.5-0.6,0.7h0.1c-0.4,0.3-0.1,0.6-0.3,0.8c0,0.1-0.2,0.2-0.2,0.3h0.1
			c-0.3,0.1-0.2,0.2-0.2,0.3s0.1,0-0.2,0.3l0.1-0.2c-0.2,0.2-0.1,0-0.3,0.4v-0.1c-0.1,0.4,0,0.4,0,0.3s-0.2,0-0.1,0.2l-0.1-0.1
			c0,0.1,0.1,0.2,0,0.2l-0.1-0.1c-0.5-0.1-0.1,0.3-0.1,0.5l-0.2-0.1c0.2,0.2-0.1,0.2,0,0.4L61,59l0.1,0.1L61,59
			C60.9,59.2,61,59.3,61,59.5z"/>
		<path class="st3" d="M60.8,60.8L60.8,60.8z"/>
		<path class="st3" d="M63,47.9L63,47.9L63,47.9z"/>
		<path class="st3" d="M30.8,88l-0.1-0.2c0.1,0.3-0.2,0.1-0.2,0.3v-0.1c-0.3,0.1-0.4,0.5-0.6,0.8v-0.1c0,0.1,0.1,0.2,0,0.2
			c0,0,0-0.1,0-0.1c-0.2-0.2-0.1,0.3-0.2,0.1c0,0.1,0.1,0.2,0.1,0.2c-0.2,0.2-0.4,0.4-0.5,0.7c0-0.1-0.1-0.1-0.1-0.2
			c0,0.6-0.2,0.5-0.5,0.5c0,0.1,0.1,0.2,0.1,0.2c0.1,0.1,0-0.3,0.1-0.2v0.1c0.1,0.1-0.1-0.3,0-0.2c0,0,0.1,0.1,0.1,0.2
			c0.1-0.1,0.2,0,0.1-0.3c0.1,0.2,0.1,0,0.2,0.2c0-0.1,0-0.2-0.1-0.3c0.4,0,0.6-0.4,0.9-0.6c-0.1-0.6,0.4-0.1,0.5-0.3l0,0
			c0-0.2,0-0.2,0.1-0.2l-0.1-0.2c0.6,0.2,0.9-0.3,1.3-0.4s1.2-0.2,1.1-1.1c0,0,0.1,0.1,0.1,0.1c0-0.2,0.3-0.2,0.3-0.3l0,0
			c-0.1-0.5,0.6-0.8,0.2-1.2c0.2-0.3,0.5-0.6,0.8-0.8v0.1c0.2-0.4,0.7,0.1,1-0.2c0.1,0,0.2,0,0.3-0.1c0.2-0.3,0.1-0.8,0.5-0.8
			c0.5,0.2,0-0.8,0.5-0.5c0.8,0.3,0.8-0.3,0.8-1c0.5,0,0.3-0.8,0.9-0.6c-0.1-0.4,0.6,0.1,0.7-0.1l-0.1-0.1c0.3,0.3-0.3-0.5,0.2-0.1
			l0,0c0.2,0.2-0.4-0.6-0.2-0.3l-0.1-0.1c0-0.1,0.1,0.1,0.2,0.2s-0.2-0.2-0.1-0.2c0.4,0.5,0-0.2,0.5,0.3c0,0,0.2,0.2,0.3,0.3
			s0.1,0-0.1-0.2c-0.2-0.2-0.3-0.4-0.5-0.6l0.1,0.2l-0.2-0.2c-0.1,0-0.3-0.2-0.4-0.3l0,0c0.2,0.2,0,0.1,0,0.1l-0.1-0.1
			c-0.2-0.2,0.3,0.4,0,0.1c0,0.1-0.1,0.3-0.2,0.3c0.1,0.1-0.1,0.1,0.2,0.3c-0.3-0.3-0.4-0.3-0.4-0.2s0-0.1,0-0.1
			c-0.4-0.3,0.2,0.4-0.2,0c0.3,0.3-0.2,0,0.1,0.4l-0.2,0c-0.1,0.1-0.3,0-0.4,0.1c0.2,0.3-0.3,0,0,0.4c-0.1,0-0.3-0.1-0.3,0.1v-0.1
			c0,0.1-0.1,0.2,0,0.5C37,81.9,37,82,36.9,81.9c0.1,0.2,0,0.2,0,0.5c-0.2-0.2,0,0.1-0.2-0.1c0.2,0.7-0.2,0.7-0.8,0.6l0,0l0.4,0.7
			c0,0,0-0.1,0-0.1s-0.2-0.1-0.2,0L36,83.3c0.1,0.1-0.2-0.1-0.1,0.1l-0.1-0.1l0,0.1c-0.1-0.1-0.2-0.2-0.1-0.2
			c-0.1,0.1-0.2,0.1-0.2,0.2v0.2c0,0.1-0.3,0.4-0.6,0.4V84v0.2c0,0,0-0.1,0-0.1c-0.2-0.1-0.2,0.2-0.3,0.2c0-0.1-0.1-0.1-0.1-0.2
			c0,0.3-0.3-0.3-0.1,0.3c0-0.1-0.1-0.1-0.1-0.2c-0.2,0.3-0.4,0.5-0.7,0.7c0.2,0.5-0.3,0.6,0,0.9h-0.1c0.2,0.3-0.2,0.4-0.4,0.6
			s-0.1,0.2-0.2,0.3l-0.1-0.1c0.2,0.5-0.6-0.1-0.4,0.5l-0.1-0.2c0.2,0.2-0.2,0,0.2,0.4l-0.1-0.1c0.3,0.6-0.4-0.1-0.3,0.3l0-0.1
			c0,0.1,0,0.2-0.1,0.1s0,0,0-0.1c-0.4-0.3-0.2,0.2-0.4,0.3l-0.1-0.2c0.1,0.3-0.2,0.1-0.2,0.3v-0.1v0.2L31,87.7
			C30.9,87.7,30.9,88,30.8,88z"/>
		<polygon class="st3" points="174.1,3.3 174.1,3.3 174.3,3.3 		"/>
		<path class="st3" d="M174.8,3.4C174.8,3.4,174.9,3.4,174.8,3.4l-0.5,0C174.2,3.7,174.9,3.2,174.8,3.4z"/>
		<path class="st3" d="M174.8,3.5c0,0.2,0.2,0.1,0.3,0C175,3.7,175,3.3,174.8,3.5z"/>
		<path class="st3" d="M179.8,14.2L179.8,14.2L179.8,14.2z"/>
		<path class="st3" d="M179.6,17l0.1,0.1c0.1-0.7,0.9-1,0.9-1.8l0.1,0.1c0.1-0.8,0-1.6-0.4-2.4c-0.3-0.8-0.6-1.4-0.9-2.2
			c0,0,0.1,0,0.1,0s-0.2-0.1-0.2-0.2s0.1,0,0.1,0c0.2-0.4-0.4-0.9-0.2-1.2c-0.1-0.1-0.2-0.1-0.3,0c-0.3-1.2-0.9-2.3-1.8-3.3
			c0-0.1,0.1-0.1,0.2-0.2c-0.5-0.3-0.9-0.6-1.2-1l-1-1.3c-0.1,0.1,0,0.2-0.2,0.2c0.1,0.4,0.7,0.3,0.7,0.7l-0.1,0.1
			c0.1,0.2,0.3-0.2,0.3,0.1s-0.1,0.1-0.1,0.1c0.3,0.3,0.4,0.7,1,0.8c-0.1,0.1,0,0.2,0,0.3c0.1,0.1,0.2,0.3,0.1,0.5
			c0.2,0.1,0.2,0.2,0.4,0.2c0.2,0.4,0.4,0.7,0.6,1.1c0.2,0.3,0.3,0.7,0.4,1.1c0.3,0.8,0.5,1.7,0.7,2.6c0.3,0.3,0.5,0.8,0.5,1.2
			l0.1,0.7c0,0.3,0.1,0.6,0.2,0.8h-0.1c0.2,0.3,0.3,0.6,0.2,0.9c0,0,0.2,0.3,0.2,0.3c-0.6,0.8-1.4,1.6-2.2,2.7
			c-0.4,1.2-0.7,2.5-1,3.6c-0.6,2.5-0.6,5.1-0.1,7.7c-0.1,0-0.1,0-0.1-0.1c0.1,0.7-0.5,1.1-0.7,1.9l0,0c-0.2,0.9-0.7,1.7-0.9,2.7
			c-0.2,0.9-0.3,1.8-0.3,2.7l-0.3,1.6l-0.1,0.4v0.1v0h0.4v-1.1c0-1.1-0.1-2.3-0.1-3.4h0.1c-0.1-0.7-0.1-1.3,0-2v-0.1h-0.2l-0.7-0.1
			l0.2,0.2c0.2-0.9,0.2-1.7,0.1-2.6c0.1-0.9,0-1.9-0.4-2.8c-0.3-0.9-0.5-1.8-0.5-2.7c0.4-1.2-1-2.5-0.4-3.6c0.8-2,1.1-4.3,0.8-6.4
			c0.6-1.9,0.2-4,1.1-5.8c-0.4-0.9,0.5-1.9,0.4-3H175c0.4-0.4-0.6-0.8,0-1l0,0c0.3-0.2-0.7-0.5-0.4-0.6h-0.1c0-0.2,0.2,0,0.2-0.2
			s-0.3,0-0.2-0.2c0.6,0-0.1-0.6,0.6-0.6c0,0.1,0.3-0.2,0.4,0.1c0.1-0.1,0-0.5-0.3-0.4s-0.6-0.2-0.8,0h0.2c-0.2,0.1-0.1,0.1-0.3,0.1
			c0,0.3-0.4,0.4-0.5,0.6l0,0c0.3,0.2,0.1,0.4,0.1,0.5h-0.1c-0.3,0.1,0.5,0.4,0.1,0.3C174,4.6,174,5.3,174,6c0.2,0.1,0,0.6,0.3,0.4
			c-0.3,0.2-0.5,0.5-0.5,0.9c0,0-0.1,0-0.1,0c-0.5,0.4,0.4,0.4-0.1,0.8c0.2,0,0.2,0.2,0.1,0.4c0,0-0.1,0.2,0.1,0.4
			c-0.1,0-0.2,0-0.3,0c-0.1,0.6-0.4,1.3-0.5,1.8c0.3,0.5-0.4,1.1,0.1,1.6c-0.3,0.4-0.4,0.8-0.3,1.3l-0.1-0.1
			c-0.1,0.5-0.1,1.1,0.1,1.6c-0.5,0.1-0.4,0.3-0.6,0.5c0.2,0.4,0,1.1,0.1,1.6c-0.2,0,0,0.5-0.3,0.4c0.2,0.8,0.2,1.7,0,2.5
			c0,0.5-0.1,1-0.1,1.5s-0.1,0.9-0.2,1.3l0,0c0.2,0.2,0.6,0.4,0.9,0.6h-0.1c0.1,0.3-0.2,0.6-0.1,0.9c-0.1,0-0.1,0-0.1,0
			c0.2,0.2-0.2,0.6,0.1,0.9h-0.1l0.1,0.2c-0.1,0-0.3,0-0.2-0.1c0.1,0.6,0.2,1.2,0.3,1.8c0.2,0.6,0.3,1.2,0.3,1.8
			c0.2,1.1,0.2,2.3,0.2,3.5v0.6h1l-0.1,0.1c0.1,0,0.2-0.1,0.3-0.1c-0.2-0.2-0.4-0.4-0.6-0.6l0.1,0.2c0,0-0.1,0-0.1,0
			c-0.2,0.6,0.1,1.3,0.1,1.9c-0.1,0-0.2-0.1-0.2,0c0.3,0.5-0.4,0.7,0.2,1c-0.1,0-0.2,0-0.2,0c0.1,0.6,0.2,1.3,0.2,1.9v1v0.5v0.1h1.2
			l0,0v-0.1l0.1-0.2c-0.4-1,0.3-2.2,0.1-3.3h0.1c-0.1-0.7,0-1.5,0.4-2.1c0.4-0.7,0.8-1.3,1.1-2c0.3-0.5,0.4-1.1,0.4-1.6h0.1
			c-0.4-1.1,0.5-2.2,0-3.3l0.2,0.1c-0.3-0.2,0.1-0.6-0.4-0.6l0.1-0.2c-0.6-0.8,0.3-1.3-0.1-2.3l0.1,0.1c-0.1-0.2-0.1-0.5,0-0.7
			c0,0,0,0,0.1,0.1c0.6-0.7,0.2-1.6,0.4-2.3l0.2,0.1c-0.1-0.4,0.3-1,0.3-1.5l0.1,0.1l-0.1-0.3l0.2,0.1L179.6,17z"/>
		<path class="st3" d="M179.4,10.7L179.4,10.7C179.4,10.7,179.5,10.7,179.4,10.7z"/>
		<path class="st3" d="M174,3.3L174,3.3C174,3.2,174,3.3,174,3.3z"/>
		<line class="st4" x1="225.1" y1="150.8" x2="312.8" y2="150.8"/>
	</g>
</g>
</svg>
